<?xml version="1.0" encoding="utf-8" ?>
<svg baseProfile="full" height="200mm" version="1.1" viewBox="0,0,200,200" width="200mm" xmlns="http://www.w3.org/2000/svg" xmlns:ev="http://www.w3.org/2001/xml-events" xmlns:xlink="http://www.w3.org/1999/xlink"><defs /><rect fill="#1a1a1a" height="200" width="200" x="0" y="0" /><text alignment-baseline="middle" fill="#e1ed5e" style="dominant-baseline: central; font-size:9.0px; font-family:Arial;" text-anchor="middle" x="100.0" y="100.0">2018</text><line stroke="#e1ed5e" stroke-width="0.3" x1="100.0" x2="100.0" y1="15.0" y2="10.0" /><path d="M 100.0 14.0 a86.0,86.0 0 0,1 42.46469731375804,11.215312516191453" fill="none" id="id13" stroke="none" /><text fill="#e1ed5e" style="font-size:6.75px; font-family:Arial;" text-anchor="middle"><textPath startOffset="22.20632615414155" xlink:href="#id13">January</textPath></text><path d="M 100.36148047927253 79.00311137660856 l 0.30899619853956733 -17.948296347408636 a38.95095597524305,38.95095597524305 0 0,0 0.6702780011023881,0.017311303255749623 l -0.6179008348368232 17.940318252010528" fill="#ffa80f" stroke="none" /><path d="M 104.307194497241 79.44645832069477 l 3.1765095468368996 -15.15801559633401 a36.48727379882757,36.48727379882757 0 0,0 0.6136069627551582,0.13411071564522367 l -3.436959233745585 15.101091382592916" fill="#ff840c" stroke="none" /><path d="M 105.36241919743992 79.69619591428918 l 3.238356537099762 -12.261435420853463 a33.681867040823946,33.681867040823946 0 0,0 0.5592827681915064,0.15287310757570377 l -3.448937194514979 12.203875772451465" fill="#ff5a08" stroke="none" /><path d="M 106.0581310904928 79.89281104454417 l 3.825865176160348 -12.698205579585249 a34.26203865503213,34.26203865503213 0 0,0 0.5632265192603753,0.1749972211804101 l -4.043877068131441 12.63046822352232" fill="#ff6309" stroke="none" /><path d="M 107.08798089147638 80.2323363322302 l 9.919407414080107 -27.664226603787398 a50.388842730400356,50.388842730400356 0 0,0 0.8139421922865632,0.2997817785598691 l -10.394131932139246 27.489381557421204" fill="#bbff1f" stroke="none" /><path d="M 107.76421540070413 80.48803036053334 l 5.17915548961467 -13.015548829605349 a35.00814630568395,35.00814630568395 0 0,0 0.5579900602058152,0.22761815585398518 l -5.402429419408874 12.924469787567784" fill="#ff6e0a" stroke="none" /><path d="M 108.76106565485865 80.91482961587045 l 4.71229454767135 -10.265297383388166 a32.2952224534716,32.2952224534716 0 0,0 0.5032238313191602,0.23627033629924177 l -4.888296590290108 10.182662064448921" fill="#ff4506" stroke="none" /><path d="M 109.08828744355905 81.06846463323043 l 3.6313560402809153 -7.564367405063988 a29.390852217151675,29.390852217151675 0 0,0 0.45419885864361303,0.2228734073724351 l -3.76102616593496 7.500738837556721" fill="#ff1702" stroke="none" /><line stroke="#e1ed5e" stroke-width="0.3" x1="143.23703022742887" x2="145.7803849466894" y1="26.81831364943548" y2="22.513508569990506" /><path d="M 143.74570117128098 25.957352633546492 a86.0,86.0 0 0,1 28.547481713284135,27.462654790039103" fill="none" id="id14" stroke="none" /><text fill="#e1ed5e" style="font-size:6.75px; font-family:Arial;" text-anchor="middle"><textPath startOffset="19.985693538727396" xlink:href="#id14">February</textPath></text><path d="M 110.68208982089419 81.91981866633111 l 6.42663327286028 -10.877524612368141 a33.634166253319194,33.634166253319194 0 0,0 0.4959244639604866,0.29878894059949246 l -6.612919803038404 10.765289062310035" fill="#ff5908" stroke="none" /><path d="M 112.19680574252982 82.90503203632743 l 7.834938734651781 -10.98140197471314 a34.48990193833819,34.48990193833819 0 0,0 0.4803206362078831,0.3489733692836166 l -8.022804687213453 10.844909370612848" fill="#ff6609" stroke="none" /><path d="M 112.77801427241765 83.33499621200491 l 9.43076991836898 -12.299549293240325 a36.49897848472801,36.49897848472801 0 0,0 0.4952866970516128,0.3865791231561908 l -9.641089170580024 12.135391780860909" fill="#ff850c" stroke="none" /><path d="M 114.16331599549186 84.49514656593476 l 9.455491995162907 -10.351108284150566 a35.01969227839186,35.01969227839186 0 0,0 0.44156849653564967,0.41038979365664574 l -9.632268375493403 10.18681390441928" fill="#ff6e0a" stroke="none" /><path d="M 115.68641384162765 86.03803664274999 l 10.46620099107522 -9.315622818723453 a35.01150212098278,35.01150212098278 0 0,0 0.3968105891978766,0.45362309909937687 l -10.625003443850943 9.134084163421129" fill="#ff6e0a" stroke="none" /><path d="M 115.92442197804982 86.31012108654704 l 5.588604580447129 -4.8044016986580305 a28.36985595779611,28.36985595779611 0 0,0 0.31516125199300193,0.37305151538365555 l -5.6704764459272505 4.707491233645269" fill="#ff0701" stroke="none" /><path d="M 117.04232023915458 87.72973835380427 l 51.126960717463746 -36.81078493858721 a84.0,84.0 0 0,0 0.8347495207844684,1.1806939986728273 l -51.75302285805209 35.92526443958259" fill="#4dd2ff" stroke="none" /><line stroke="#e1ed5e" stroke-width="0.3" x1="172.23445277983987" x2="176.4835382374775" y1="55.19839476539836" y2="52.563006222186495" /><path d="M 173.08426987136738 54.67131705675599 a86.0,86.0 0 0,1 12.851231095245387,41.99856678651699" fill="none" id="id15" stroke="none" /><text fill="#e1ed5e" style="font-size:6.75px; font-family:Arial;" text-anchor="middle"><textPath startOffset="22.20632615414155" xlink:href="#id15">March</textPath></text><path d="M 117.84615892207809 88.93136811851018 l 10.49774021410363 -6.510959726671247 a33.35294079015776,33.35294079015776 0 0,0 0.29840431691264907,0.4904982368722279 l -10.608260329302501 6.329293716591938" fill="#ff5507" stroke="none" /><path d="M 119.04729006885535 91.15688171328212 l 11.203129181820927 -5.201296151740552 a33.35166325329017,33.35166325329017 0 0,0 0.2372695816885825,0.5227920719759072 l -11.291001080472856 5.0076820709225816" fill="#ff5507" stroke="none" /><path d="M 119.7369772167798 92.82701384747503 l 11.20171063176398 -4.07102437033386 a32.918538522051534,32.918538522051534 0 0,0 0.18896325728937702,0.5342245744229565 l -11.270126969863165 3.8776021694842884" fill="#ff4e07" stroke="none" /><path d="M 119.97218684219823 93.5106431181261 l 12.024233069976411 -3.9069101565304027 a33.643026848516726,33.643026848516726 0 0,0 0.17421403234358107,0.5523060908065549 l -12.0897025860882 3.699353899297429" fill="#ff5a08" stroke="none" /><path d="M 120.87857604477298 97.74499172005257 l 11.67628565462901 -1.2611071163932002 a32.74419166428719,32.74419166428719 0 0,0 0.0557007925457308,0.560899379473713 l -11.696263572856969 1.059932206215052" fill="#ff4c07" stroke="none" /><path d="M 120.94382443527127 98.46500227214037 l 11.966462745958735 -0.877036244375188 a32.99855921452097,32.99855921452097 0 0,0 0.036643185647067984,0.5668538633022819 l -11.979786522610217 0.6709233168198709" fill="#ff5007" stroke="none" /><line stroke="#e1ed5e" stroke-width="0.3" x1="184.98032266829074" x2="189.97916517819016" y1="98.17113171792111" y2="98.06355123074" /><path d="M 185.9800911702706 98.14961562048488 a86.0,86.0 0 0,1 -9.607161424134198,41.387399972396054" fill="none" id="id16" stroke="none" /><text fill="#e1ed5e" style="font-size:6.75px; font-family:Arial;" text-anchor="middle"><textPath startOffset="21.466115282336823" xlink:href="#id16">April</textPath></text><path d="M 120.99824983174949 100.27111621757518 l 13.460990136993052 0.1737998528448963 a34.462112087524496,34.462112087524496 0 0,0 -0.012764007026619638,0.5930932513244732 l -13.456004067281425 -0.4054829199594844" fill="#ff6609" stroke="none" /><path d="M 120.95626037817324 101.35467743843564 l 12.053754106415695 0.7791919188701978 a33.078912538153666,33.078912538153666 0 0,0 -0.041621843090448016,0.5678969802608668 l -12.03855570466091 -0.9865620356278348" fill="#ff5107" stroke="none" /><path d="M 120.81339534386255 102.79330883721812 l 11.779451550722882 1.5808879604028405 a32.885061446167384,32.885061446167384 0 0,0 -0.08012358934621573,0.5603841972720699 l -11.750493910360065 -1.7834176296553197" fill="#ff4e07" stroke="none" /><path d="M 120.70491114924044 103.5080841355445 l 12.799546444783076 2.1686587062101803 a33.98196709964173,33.98196709964173 0 0,0 -0.10267984327547183,0.5758830906649129 l -12.760320159168415 -2.3886605476083114" fill="#ff5f08" stroke="none" /><path d="M 120.32669344350535 105.2749913415812 l 12.293396819991115 3.190266137692687 a33.70060641871388,33.70060641871388 0 0,0 -0.15054851031372377,0.560247012297873 l -12.236660233335613 -3.4014040831661077" fill="#ff5a08" stroke="none" /><path d="M 120.13307415673323 105.97154293290107 l 13.426165691866 3.982249517836695 a35.00429349905772,35.00429349905772 0 0,0 -0.17631033807323487,0.5761923860712203 l -13.355628581286632 -4.212768876459972" fill="#ff6e0a" stroke="none" /><path d="M 119.9155931802556 106.66101706037122 l 12.287032135764687 4.109550237187945 a33.956062745189435,33.956062745189435 0 0,0 -0.19016877732863083,0.5527194829484865 l -12.214472527492825 -4.320442423225733" fill="#ff5e08" stroke="none" /><path d="M 119.79798401119884 107.00284435728193 l 15.139273917681487 5.354988612366369 a37.05844070242078,37.05844070242078 0 0,0 -0.21789611198692335,0.5995565175316723 l -15.044853544689337 -5.614792926904172" fill="#ff8d0d" stroke="none" /><path d="M 119.54520255179757 107.68017299344265 l 11.220147037391454 4.408891134827565 a33.05529014911899,33.05529014911899 0 0,0 -0.21265158495758776,0.5277837944351816 l -11.142592838176475 -4.60137429710556" fill="#ff5107" stroke="none" /><path d="M 119.26925614724726 108.34839909993367 l 12.858590171642295 5.570980104008316 a35.01353490456681,35.01353490456681 0 0,0 -0.24435931882557269,0.5509657549754975 l -12.76078976808545 -5.791494195476502" fill="#ff6e0a" stroke="none" /><path d="M 118.97047184881838 109.00673069616215 l 16.37720000740497 7.7755066505142905 a39.12929076811162,39.12929076811162 0 0,0 -0.2941157675582069,0.6059655953826615 l -16.24093098323205 -8.056261201862227" fill="#ffab0f" stroke="none" /><path d="M 118.64920377521936 109.65438752849418 l 10.406278994971236 5.387160296922627 a32.71802622398154,32.71802622398154 0 0,0 -0.2632204031606597,0.4979138055810763 l -10.312006083585683 -5.565489117589837" fill="#ff4b07" stroke="none" /><line stroke="#e1ed5e" stroke-width="0.3" x1="174.80103733775053" x2="179.2010983576182" y1="140.37084112569926" y2="142.7455964860345" /><path d="M 175.68104954172406 140.8457921977663 a86.0,86.0 0 0,1 -30.038265399797805,32.042727171017184" fill="none" id="id17" stroke="none" /><text fill="#e1ed5e" style="font-size:6.75px; font-family:Arial;" text-anchor="middle"><textPath startOffset="22.206326154141568" xlink:href="#id17">May</textPath></text><path d="M 118.48025628344425 109.97397251340804 l 11.088161279316255 5.984387560859303 a33.60000853311996,33.60000853311996 0 0,0 -0.2790778157527038,0.5066072992224333 l -10.983507054112044 -6.174365378479542" fill="#ff5908" stroke="none" /><path d="M 111.7513745106137 117.40417183066458 l 7.1488947525353375 10.587748059606652 a33.77525362396112,33.77525362396112 0 0,0 -0.48463516539877155,0.3211897612784597 l -6.965584888396601 -10.709235841976431" fill="#ff5c08" stroke="none" /><path d="M 111.45004920935366 117.60387380957326 l 6.773584392561034 10.414044752552664 a33.423114489986645,33.423114489986645 0 0,0 -0.48498243892227894,0.30953873867011245 l -6.593320151591825 -10.529097920046585" fill="#ff5608" stroke="none" /><line stroke="#e1ed5e" stroke-width="0.3" x1="143.8653032363475" x2="146.44561519142675" y1="172.8068346515853" y2="177.08958963109032" /><path d="M 144.38136562736335 173.6633856474863 a86.0,86.0 0 0,1 -40.68145358897372,12.25698825130547" fill="none" id="id18" stroke="none" /><text fill="#e1ed5e" style="font-size:6.75px; font-family:Arial;" text-anchor="middle"><textPath startOffset="21.466115282336833" xlink:href="#id18">June</textPath></text><path d="M 108.2653958097858 119.30500536409082 l 5.6336400911539055 13.158166249016173 a35.31346358200575,35.31346358200575 0 0,0 -0.560859427075997,0.23443928600481312 l -5.406309204580447 -13.25319057804096" fill="#ff730a" stroke="none" /><path d="M 106.91757812671514 119.82793768551818 l 4.155046460786641 11.909659825415225 a33.61365958984168,33.61365958984168 0 0,0 -0.5479510983022687,0.18589476305654645 l -3.9494256295471453 -11.979417575369895" fill="#ff5908" stroke="none" /><path d="M 106.57524785965236 119.94407469862006 l 3.917661724288859 11.88307113905097 a33.51221215779624,33.51221215779624 0 0,0 -0.5494066345101488,0.17590265468046914 l -3.7125337446877698 -11.948746640391146" fill="#ff5808" stroke="none" /><path d="M 105.88484417918355 120.15858648285463 l 4.400398021090098 15.073602862911136 a36.702770647652486,36.702770647652486 0 0,0 -0.6079880929773063,0.17182350810430005 l -4.140278760008186 -15.147115164353956" fill="#ff880c" stroke="none" /><path d="M 104.83641907484287 120.43548508189849 l 3.2334007585992683 13.662197577099217 a35.039605518012465,35.039605518012465 0 0,0 -0.5881311865867657,0.13385674327639777 l -2.997749422619641 -13.715831053953298" fill="#ff6f0a" stroke="none" /><path d="M 104.13013068566511 120.58985236759428 l 2.4984133928984837 12.455286969864005 a33.703394939286056,33.703394939286056 0 0,0 -0.569799842967937,0.10920349603986115 l -2.2836459353588423 -12.496447664252335" fill="#ff5b08" stroke="none" /><path d="M 103.7750983002368 120.6578951692458 l 2.401614135614157 13.141987070213238 a34.35962479301098,34.35962479301098 0 0,0 -0.582724557612634,0.10131413374610089 l -2.175040606529473 -13.181379782480345" fill="#ff6409" stroke="none" /><path d="M 102.34483914955558 120.86867818915974 l 1.58716632036164 14.125516105689988 a35.21440474239416,35.21440474239416 0 0,0 -0.6029500988239057,0.06249824305731269 l -1.3437836249321315 -14.150743717203058" fill="#ff710a" stroke="none" /><line stroke="#e1ed5e" stroke-width="0.3" x1="102.19456741930631" x2="102.32365962044197" y1="184.97166512339345" y2="189.96999836594603" /><path d="M 102.22038585953345 185.97133177190398 a86.0,86.0 0 0,1 -42.740103519485714,-10.115201625700543" fill="none" id="id19" stroke="none" /><text fill="#e1ed5e" style="font-size:6.75px; font-family:Arial;" text-anchor="middle"><textPath startOffset="22.20632615414155" xlink:href="#id19">July</textPath></text><path d="M 99.81925306533755 120.99922214144158 l -0.09398394845334568 10.91907763186886 a31.919482099135735,31.919482099135735 0 0,0 -0.5493803575417645,-0.009458081076158505 l 0.2819239958877781 -10.915842073513542" fill="#ff3f05" stroke="none" /><path d="M 99.09653310690486 120.98055641714683 l -0.3970933423478758 9.221410696590638 a30.22995657398957,30.22995657398957 0 0,0 -0.5196845245024916,-0.026861753868613836 l 0.5557659352638563 -9.213209135959822" fill="#ff2503" stroke="none" /><path d="M 98.37488393609728 120.93702456842531 l -1.033883958279831 13.319943305108714 a34.36000769799549,34.36000769799549 0 0,0 -0.5892834292798784,-0.050845853853623384 l 1.263011705301251 -13.300173198976426" fill="#ff6409" stroke="none" /><path d="M 98.01472825383883 120.90594882070398 l -1.9671892261887898 20.71553043701265 a41.80872496666797,41.80872496666797 0 0,0 -0.7158597464521763,-0.07420178969367232 l 2.3234815692465594 -20.678599278863217" fill="#ffd113" stroke="none" /><path d="M 97.65516085044442 120.86867818915974 l -1.5637242482783502 13.916885565515877 a35.00446133802789,35.00446133802789 0 0,0 -0.59819720214648,-0.0724333504618085 l 1.8030488734762196 -13.88790668632872" fill="#ff6e0a" stroke="none" /><path d="M 96.93821686468263 120.77559828337769 l -1.8528939886123321 12.572732772958167 a33.70853357052859,33.70853357052859 0 0,0 -0.5733085372257691,-0.08953900282909491 l 2.0690383894466184 -12.538975462781966" fill="#ff5b08" stroke="none" /><path d="M 95.86986931433489 120.58985236759428 l -2.8435883899857113 14.176080516585971 a35.45846650735789,35.45846650735789 0 0,0 -0.5974051530915873,-0.1251920582918494 l 3.087185004506685 -14.12503247756758" fill="#ff750a" stroke="none" /><path d="M 95.51606077576429 120.51570834832081 l -3.112502215355212 14.240868238934272 a35.577036675513924,35.577036675513924 0 0,0 -0.5971518367823712,-0.13590981389219825 l 3.3571742015304458 -14.185181691464386" fill="#ff770a" stroke="none" /><path d="M 95.16358092515715 120.4354850818985 l -3.3533048400566225 14.168832347569419 a35.560235693280404,35.560235693280404 0 0,0 -0.5944430444706347,-0.1460996376034644 l 3.596701169270468 -14.109011451651925" fill="#ff770a" stroke="none" /><path d="M 94.81253420990036 120.34920634021253 l -3.290749490042602 12.908835083718177 a34.3216761492257,34.3216761492257 0 0,0 -0.571226372994445,-0.15086607690354611 l 3.5124663058485366 -12.85027765751105" fill="#ff6409" stroke="none" /><path d="M 93.76903079525671 120.05430185196036 l -4.567070078251914 14.699061882475387 a36.392223664061824,36.392223664061824 0 0,0 -0.5966221815339454,-0.19101958181965703 l 4.819413604876799 -14.618269453996023" fill="#ff830c" stroke="none" /><line stroke="#e1ed5e" stroke-width="0.3" x1="58.666819895761336" x2="56.23545636021788" y1="174.27360380694188" y2="178.64263932499728" /><path d="M 58.180547188652646 175.14741091055294 a86.0,86.0 0 0,1 -31.652253787137756,-30.449443065178592" fill="none" id="id20" stroke="none" /><text fill="#e1ed5e" style="font-size:6.75px; font-family:Arial;" text-anchor="middle"><textPath startOffset="22.20632615414155" xlink:href="#id20">August</textPath></text><path d="M 89.4739219176387 118.17145234162733 l -6.777402207656664 11.700012127294217 a34.5212227429024,34.5212227429024 0 0,0 -0.5116244594750928,-0.3022767487681133 l 6.977794538160139 -11.581616806232354" fill="#ff6709" stroke="none" /><path d="M 88.8546689885994 117.79835938074946 l -6.809038131038592 10.873585321915169 a33.82956967411248,33.82956967411248 0 0,0 -0.49088026231540954,-0.31330300860546084 l 6.995200195400925 -10.754767884485904" fill="#ff5c08" stroke="none" /><path d="M 88.24862548938628 117.40417183066458 l -7.833537762709149 11.601726856807465 a34.99872779718778,34.99872779718778 0 0,0 -0.49638714863570366,-0.34141960713130953 l 8.032081795967745 -11.465166460311053" fill="#ff6e0a" stroke="none" /><path d="M 87.36589467227662 116.77436683061367 l -5.377868646799378 7.140223950034485 a29.938918795854107,29.938918795854107 0 0,0 -0.4089817001189008,-0.31358972777681376 l 5.4999790754117655 -7.0465948804303045" fill="#ff2003" stroke="none" /><path d="M 86.24171649860922 115.8653595955263 l -9.1736117811886 10.578547075556424 a35.00217166519985,35.00217166519985 0 0,0 -0.4517907759394656,-0.3986528309537864 l 9.354344910034653 -10.419071102830348" fill="#ff6e0a" stroke="none" /><path d="M 85.44109423537348 115.13401014063109 l -10.411447788198519 10.822719712087482 a36.01763986160245,36.01763986160245 0 0,0 -0.44310280826459447,-0.4336693586656213 l 10.596200548838906 -10.641900250499289" fill="#ff7d0b" stroke="none" /><line stroke="#e1ed5e" stroke-width="0.3" x1="26.63291911575756" x2="22.317208475507996" y1="142.92168965132927" y2="145.44649492493687" /><path d="M 25.769776987707644 143.4266507060508 a86.0,86.0 0 0,1 -11.730757126820373,-40.83630448921669" fill="none" id="id21" stroke="none" /><text fill="#e1ed5e" style="font-size:6.75px; font-family:Arial;" text-anchor="middle"><textPath startOffset="21.46611528233685" xlink:href="#id21">September</textPath></text><path d="M 81.69416730710424 110.29060199501025 l -12.468679088602936 7.00925306468661 a35.30376127944614,35.30376127944614 0 0,0 -0.2932289905822588,-0.5322957920246694 l 12.587484488636713 -6.793586754264117" fill="#ff730a" stroke="none" /><path d="M 81.35079622478065 109.6543875284942 l -12.354502898335507 6.395723921518082 a34.911830445533006,34.911830445533006 0 0,0 -0.2716827510288246,-0.5360558423291454 l 12.4627643191506 -6.18211386748625" fill="#ff6d0a" stroke="none" /><path d="M 81.02952815118164 109.00673069616217 l -7.335783901694527 3.482856439963554 a29.120592000202706,29.120592000202706 0 0,0 -0.2110901559562826,-0.45466941646796133 l 7.394648674490636 -3.3560669562167655" fill="#ff1302" stroke="none" /><path d="M 80.73074385275274 108.34839909993369 l -15.403577104477433 6.673594883586062 a37.78710982521433,37.78710982521433 0 0,0 -0.25344177821238045,-0.5990614982030682 l 15.516169863882121 -6.407458859716835" fill="#ff970e" stroke="none" /><path d="M 80.0844068197444 106.66101706037122 l -14.005080041916155 4.684172660423402 a35.76765859888209,35.76765859888209 0 0,0 -0.1902630775476387,-0.5855695415006688 l 14.083635370480042 -4.4424042189449295" fill="#ff7a0b" stroke="none" /><path d="M 79.86692584326677 105.97154293290107 l -15.538313159544677 4.608720129610771 a37.20738958244537,37.20738958244537 0 0,0 -0.17683673536072925,-0.615591874590896 l 15.61534253179151 -4.340570779515279" fill="#ff8f0d" stroke="none" /><path d="M 79.1416061653843 102.43462659150553 l -12.846443766688035 1.4994583882462886 a33.93365736784302,33.93365736784302 0 0,0 -0.06272507050816856,-0.5807562509478259 l 12.870351138697254 -1.2781058154136806" fill="#ff5e08" stroke="none" /><path d="M 79.07016306316243 101.71520430193888 l -13.960103043944446 1.1440332224633902 a35.00690147790178,35.00690147790178 0 0,0 -0.04404775274022524,-0.6009965900378497 l 13.977727355349007 -0.9035634959287798" fill="#ff6e0a" stroke="none" /><line stroke="#e1ed5e" stroke-width="0.3" x1="15.007084014347285" x2="10.007500721073583" y1="101.09737516637583" y2="101.16192664675087" /><path d="M 14.007167355692545 101.11028546245083 a86.0,86.0 0 0,1 10.666146001902534,-42.60595125391555" fill="none" id="id22" stroke="none" /><text fill="#e1ed5e" style="font-size:6.75px; font-family:Arial;" text-anchor="middle"><textPath startOffset="22.20632615414155" xlink:href="#id22">October</textPath></text><path d="M 79.00175016825051 100.2711162175752 l -14.007403244067653 0.1808547958049447 a35.00857073719809,35.00857073719809 0 0,0 -0.002593472780308789,-0.6026317382444418 l 14.008441014137466 0.06028642064317252" fill="#ff6e0a" stroke="none" /><path d="M 79.71946130924805 94.55025226153421 l -12.302187507282635 -3.3058204009427024 a33.738613189340114,33.738613189340114 0 0,0 0.15554019521297102,-0.5595608386746543 l 12.243460541503303 3.5170925430362994" fill="#ff5b08" stroke="none" /><path d="M 80.14247586403 93.16781622104843 l -8.291335256783436 -2.852718488939553 a29.76836604604972,29.76836604604972 0 0,0 0.17088022934176975,-0.483101419328344 l 8.241001946631856 2.995017534694508" fill="#ff1d03" stroke="none" /><path d="M 80.38941819471856 92.48833698450439 l -11.750094565737463 -4.500771657588231 a33.58259384298494,33.58259384298494 0 0,0 0.21142073894028648,-0.538042719840652 l 11.670880276915485 4.702363382324647" fill="#ff5908" stroke="none" /><line stroke="#e1ed5e" stroke-width="0.3" x1="26.266209847984257" x2="21.92892807433627" y1="57.711370442889674" y2="55.22380399835377" /><path d="M 25.39875349325466 57.213857153982495 a86.0,86.0 0 0,1 29.58750427330802,-30.492523968695096" fill="none" id="id23" stroke="none" /><text fill="#e1ed5e" style="font-size:6.75px; font-family:Arial;" text-anchor="middle"><textPath startOffset="21.46611528233685" xlink:href="#id23">November</textPath></text><path d="M 82.15384107792192 88.93136811851018 l -12.637031469141121 -7.837801401268591 a35.87029573202197,35.87029573202197 0 0,0 0.32995958332966047,-0.5219168208621928 l 12.500244289565497 8.054165869844999" fill="#ff7b0b" stroke="none" /><path d="M 82.34701348167596 88.62581576622439 l -10.844107726422662 -6.987082837411632 a33.900154997484016,33.900154997484016 0 0,0 0.3202811815899449,-0.487810212790328 l 10.722229909474796 7.172711114179626" fill="#ff5e08" stroke="none" /><path d="M 83.17141714833178 87.43820079747576 l -13.065269242267354 -9.752650606109054 a37.30384783472223,37.30384783472223 0 0,0 0.3885356687463069,-0.5112673964309837 l 12.895457633296935 9.976102778421064" fill="#ff900d" stroke="none" /><path d="M 83.84228863543731 86.58626213691792 l -10.054465607647055 -8.34697210337264 a34.06767852182776,34.06767852182776 0 0,0 0.3784584677273844,-0.4479754538435774 l 9.909296526432545 8.518806506845333" fill="#ff6008" stroke="none" /><path d="M 84.31358615837235 86.03803664274997 l -12.141631282020375 -10.806868463902466 a37.25446450008813,37.25446450008813 0 0,0 0.4304777488757229,-0.4753442821220858 l 11.953809892528607 11.014265533294111" fill="#ff900d" stroke="none" /><path d="M 84.80347519578584 85.50635884689758 l -7.110389812903279 -6.781513519348632 a30.825811361131812,30.825811361131812 0 0,0 0.36952182475920453,-0.3808247222997795 l 6.992603724440956 6.902902437198535" fill="#ff2e04" stroke="none" /><path d="M 85.31137513191541 84.99185889309783 l -9.890445226441184 -10.105588433335264 a35.14014937549079,35.14014937549079 0 0,0 0.4359332254417924,-0.41936741748556183 l 9.715028757386962 10.274338937583137" fill="#ff700a" stroke="none" /><path d="M 86.10567301691215 84.25364557470407 l -17.49421309823386 -19.826082988528107 a47.440897461970174,47.440897461970174 0 0,0 0.6169715854584095,-0.5350316791705697 l 17.150347714128678 20.124279661118358" fill="#e1ff1b" stroke="none" /><path d="M 89.00827224532344 82.1063720568725 l -8.066226666157077 -13.131152998921378 a36.41074922613775,36.41074922613775 0 0,0 0.5368642456118392,-0.323454700966093 l 7.839000354327587 13.26805430934609" fill="#ff830c" stroke="none" /><line stroke="#e1ed5e" stroke-width="0.3" x1="56.762969772571076" x2="54.21961505331055" y1="26.818313649435495" y2="22.513508569990535" /><path d="M 56.25429882871897 25.957352633546506 a86.0,86.0 0 0,1 42.265352541879196,-11.944610805530505" fill="none" id="id24" stroke="none" /><text fill="#e1ed5e" style="font-size:6.75px; font-family:Arial;" text-anchor="middle"><textPath startOffset="22.20632615414155" xlink:href="#id24">December</textPath></text><path d="M 90.26544431104013 81.39251694778311 l -6.5099951955577 -12.443775467711806 a35.04377389938369,35.04377389938369 0 0,0 0.536903177497015,-0.2750226609465223 l 6.294831530471921 12.553990653970832" fill="#ff6f0a" stroke="none" /><path d="M 90.91171255644093 81.06846463323043 l -3.004547602669891 -6.258681798340291 a27.94250705074078,27.94250705074078 0 0,0 0.435399863710319,-0.20442607408677477 l 2.8963695276599632 6.309472855067073" fill="#ff0000" stroke="none" /><path d="M 94.63758080256005 79.69619591428918 l -3.3052653090635644 -12.514773055892663 a33.94389135475866,33.94389135475866 0 0,0 0.566202067857812,-0.14433751411188456 l 3.0893543525207527 12.56981356617341" fill="#ff5e08" stroke="none" /><path d="M 94.98787191387505 79.60689891045804 l -3.6772799888129075 -14.961936578198985 a36.40720397366675,36.40720397366675 0 0,0 0.609866284850451,-0.14433564563470871 l 3.4191900169999228 15.023018135974564" fill="#ff830c" stroke="none" /><path d="M 95.33964822691252 79.52364482259891 l -2.9501273720869157 -12.962080724950162 a34.29356190912206,34.29356190912206 0 0,0 0.5767152810903869,-0.12604762293323388 l 2.726569366843008 13.010941845979266" fill="#ff6309" stroke="none" /><path d="M 96.04723909329186 79.375362276772 l -2.637110174379411 -13.759861339073382 a35.0102867259147,35.0102867259147 0 0,0 0.5928489891105657,-0.10833936336458462 l 2.399866064165952 13.803216183788702" fill="#ff6e0a" stroke="none" /><path d="M 96.40284397218896 79.31037775812273 l -2.3969737172272536 -13.786580384537444 a34.99340136279921,34.99340136279921 0 0,0 0.5943392497128664,-0.098071068697823 l 2.1593052613755015 13.825797716174893" fill="#ff6e0a" stroke="none" /><path d="M 96.75951476605007 79.25152402106235 l -2.254535124475764 -14.435544215344981 a35.61053953215537,35.61053953215537 0 0,0 0.6064492171605064,-0.08937485025468839 l 2.0057169268866093 14.472213549760639" fill="#ff770b" stroke="none" /><path d="M 97.11714578562143 79.19881850522333 l -2.1193429058413358 -15.292079708434374 a36.438242003597765,36.438242003597765 0 0,0 0.6220272893979107,-0.08075699446659176 l 1.8558008879355672 15.326295026065102" fill="#ff840c" stroke="none" /><path d="M 99.63851952072746 79.00311137660856 l -0.31369565155644324 -18.221267910864995 a39.22396798837519,39.22396798837519 0 0,0 0.6751761308289745,-0.005811454118756784 l 4.463584812945502e-15 18.223967988375193" fill="#ffac0f" stroke="none" /></svg>