<?xml version="1.0" encoding="utf-8" ?>
<svg baseProfile="full" height="200mm" version="1.1" viewBox="0,0,200,200" width="200mm" xmlns="http://www.w3.org/2000/svg" xmlns:ev="http://www.w3.org/2001/xml-events" xmlns:xlink="http://www.w3.org/1999/xlink"><defs /><rect fill="#1a1a1a" height="200" width="200" x="0" y="0" /><text alignment-baseline="middle" fill="#e1ed5e" style="dominant-baseline: central; font-size:9.0px; font-family:Arial;" text-anchor="middle" x="100.0" y="100.0">2024</text><line stroke="#e1ed5e" stroke-width="0.3" x1="100.0" x2="100.0" y1="15.0" y2="10.0" /><path d="M 100.0 14.0 a86.0,86.0 0 0,1 42.35913384403234,11.155469271406648" fill="none" id="id85" stroke="none" /><text fill="#e1ed5e" style="font-size:6.75px; font-family:Arial;" text-anchor="middle"><textPath startOffset="22.145653131862478" xlink:href="#id85">January</textPath></text><path d="M 100.72087961077811 79.0123766808444 l 0.09985890159248699 -2.9072829642463454 a23.90899742771015,23.90899742771015 0 0,0 0.4100669030153365,0.01761003722476625 l -0.14975156520865973 2.9051403585957485" fill="#ff0e01" stroke="none" /><path d="M 103.58742460773223 79.30868818359171 l 2.319872381490425 -13.380407414341672 a34.58002615756581,34.58002615756581 0 0,0 0.5840159138564092,0.10642715409831473 l -2.5492230288978885 13.338612086311992" fill="#ffa40f" stroke="none" /><path d="M 104.29559338865022 79.4440306129975 l 1.5379609149801554 -7.359699726298454 a28.518677000462525,28.518677000462525 0 0,0 0.47834999370773335,0.10425415472766472 l -1.664073325307023 7.332214113437071" fill="#ff5107" stroke="none" /><path d="M 107.06938296918511 80.22567764915836 l 4.89253973004618 -13.685304383415641 a35.53356463765224,35.53356463765224 0 0,0 0.5726163692276615,0.21027266234355937 l -5.126745250927967 13.59930087206336" fill="#ffb010" stroke="none" /><path d="M 107.40779381753099 80.34994680014964 l 2.6395125148123038 -7.00162053849113 a28.482627645477997,28.482627645477997 0 0,0 0.4560309262608771,0.17640255893778442 l -2.7593157035667066 6.955278091415307" fill="#ff5007" stroke="none" /><path d="M 108.4095320186766 80.7573450057729 l 8.691970052051756 -19.8889284873794 a42.705294740266865,42.705294740266865 0 0,0 0.6692257202915103,0.2993361524788801 l -9.032109175198899 19.736788583990666" fill="#f3ff19" stroke="none" /><path d="M 110.02825361518725 81.54914285379988 l 6.582613306655644 -12.111267069058004 a34.78454163050077,34.78454163050077 0 0,0 0.5221918529210213,0.2896510182342871 l -6.789549347732765 11.996483135390571" fill="#ffa60f" stroke="none" /><path d="M 110.34350942703115 81.72400993836675 l 14.386436566096975 -25.419454930566264 a50.20818799647492,50.20818799647492 0 0,0 0.7464464032181264,0.43096103183361323 l -14.820675437175499 25.168747001456477" fill="#9bff22" stroke="none" /><line stroke="#e1ed5e" stroke-width="0.3" x1="143.13028292997686" x2="145.6673583964461" y1="26.7553504044142" y2="22.446841604673864" /><path d="M 143.63769802327073 25.89364864446614 a86.0,86.0 0 0,1 29.32050498858742,28.57503671076993" fill="none" id="id86" stroke="none" /><text fill="#e1ed5e" style="font-size:6.75px; font-family:Arial;" text-anchor="middle"><textPath startOffset="20.669276256404974" xlink:href="#id86">February</textPath></text><path d="M 110.65571695917076 81.90426304109057 l 3.7418076077683056 -6.354407355269201 a28.374253657845795,28.374253657845795 0 0,0 0.41759773156050184,0.2507554392446957 l -3.8503380958862414 6.2892379154885845" fill="#ff4e07" stroke="none" /><path d="M 112.45986205192187 83.09580414077388 l 4.184940486120926 -5.677675510515087 a28.05334857178325,28.05334857178325 0 0,0 0.3851952005580058,0.2890576596411485 l -4.281788675589698 5.6049988236099235" fill="#ff4a06" stroke="none" /><path d="M 113.03279911837588 83.53348406188908 l 13.682902244111368 -17.28790000028414 a43.04752367595355,43.04752367595355 0 0,0 0.5755028147684612,0.46358432987074044 l -13.97765582923509 17.05046737661999" fill="#efff19" stroke="none" /><path d="M 114.39649973595853 84.71141617570332 l 10.0357948561037 -10.657666357451657 a35.63909254634844,35.63909254634844 0 0,0 0.4418017318384273,0.4232360651417197 l -10.217269073807438 10.483818162004358" fill="#ffb210" stroke="none" /><path d="M 114.91283532996326 85.21462403516908 l 10.451614248788166 -10.36228474924746 a35.717784671272995,35.717784671272995 0 0,0 0.4279555265212142,0.4391200710349206 l -10.627956576460193 10.181341986144798" fill="#ffb310" stroke="none" /><path d="M 115.16444852881244 85.47280134310134 l 31.35408955612318 -30.03650853656616 a64.41970493866356,64.41970493866356 0 0,0 0.7581406794296257,0.8051191290003835 l -31.865086069289067 29.493847947621283" fill="#34ff5f" stroke="none" /><path d="M 115.8921839302757 86.27271002978787 l 19.01941520720426 -16.42851786504748 a46.13233682064238,46.13233682064238 0 0,0 0.5125202370655612,0.6037475505494356 l -19.298630007776936 16.09960353204849" fill="#caff1d" stroke="none" /><path d="M 116.35404254752997 86.82634096563983 l 11.518153459486705 -9.278209099659664 a35.79030166065902,35.79030166065902 0 0,0 0.3813091399502176,0.4817716419402703 l -11.67572903007848 9.079117513804716" fill="#ffb410" stroke="none" /><path d="M 116.57777611688842 87.10902102172516 l 5.826507264426772 -4.530727290132386 a28.380763963165894,28.380763963165894 0 0,0 0.2957654321196669,0.3871664448425644 l -5.903424673900746 4.43003993204894" fill="#ff4f07" stroke="none" /><path d="M 116.7966241395341 87.39550010848427 l 12.131316424444496 -9.103566007406949 a36.16719328818658,36.16719328818658 0 0,0 0.368385219126882,0.4997853001754684 l -12.285803663155203 8.893974397962605" fill="#ffb811" stroke="none" /><path d="M 117.42321728460499 88.27688183743584 l 12.111491412684547 -8.149151941142254 a35.59783893593001,35.59783893593001 0 0,0 0.33678193446693233,0.5099307733130027 l -12.249597786072203 7.940041289490193" fill="#ffb110" stroke="none" /><path d="M 117.62189284568427 88.57770195909679 l 12.384478726000388 -8.027469485166357 a35.75857647776483,35.75857647776483 0 0,0 0.3294596152900044,0.5179652370234743 l -12.520456032916282 7.8136905734642115" fill="#ffb310" stroke="none" /><line stroke="#e1ed5e" stroke-width="0.3" x1="172.87174338648825" x2="177.1583165268699" y1="56.24261187166439" y2="53.66864786411523" /><path d="M 173.72905801456457 55.72781907015455 a86.0,86.0 0 0,1 12.242430191666344,42.057860355516425" fill="none" id="id87" stroke="none" /><text fill="#e1ed5e" style="font-size:6.75px; font-family:Arial;" text-anchor="middle"><textPath startOffset="22.145653131862474" xlink:href="#id87">March</textPath></text><path d="M 118.36410011445183 89.81374322990088 l 55.092300343355504 -30.558770310297362 a84.0,84.0 0 0,0 0.6886186015386349,1.2669806661015868 l -55.60876429450948 29.60853481072117" fill="#4dd2ff" stroke="none" /><path d="M 119.31412917781788 91.75594674310238 l 13.33418474075264 -5.691570566190855 a35.49808463937394,35.49808463937394 0 0,0 0.23441270990179142,0.5625051688135995 l -13.429923295190916 5.461832887935977" fill="#ffb010" stroke="none" /><path d="M 119.4528033332814 92.08871423366111 l 13.391618584188864 -5.446254695438869 a35.45673332782972,35.45673332782972 0 0,0 0.2244602433321171,0.5657864414802674 l -13.483137502487105 5.215567236745037" fill="#ffaf10" stroke="none" /><path d="M 119.83427380445688 93.10060997987247 l 7.002994822209831 -2.4360051224311654 a28.414584104075466,28.414584104075466 0 0,0 0.15629993828470745,0.462072994859756 l -7.043780182066904 2.315430453097248" fill="#ff4f07" stroke="none" /><path d="M 119.94978838288452 93.4421083053983 l 13.880020922262526 -4.5626385693942915 a35.610703320421294,35.610703320421294 0 0,0 0.18591378951934096,0.5823722977267437 l -13.956299427559124 4.323697237976161" fill="#ffb110" stroke="none" /><path d="M 120.16314734710363 94.1308016681162 l 28.563938752174277 -8.314546275454076 a50.74945842876187,50.74945842876187 0 0,0 0.23630278912203084,0.8385552352854195 l -28.70246003337089 7.822983116265643" fill="#95ff23" stroke="none" /><path d="M 120.51834098615036 95.52812308129327 l 14.343755130807994 -3.126154670123556 a35.680468462352145,35.680468462352145 0 0,0 0.12529330587013485,0.5995738252759064 l -14.395306147502495 2.879464393562245" fill="#ffb210" stroke="none" /><path d="M 120.77682067341334 96.94652285012252 l 14.985430470163664 -2.202342227474461 a36.146400155252294,36.146400155252294 0 0,0 0.08495347878339131,0.6146810529485159 l -15.021028465502269 1.944772866325859" fill="#ffb811" stroke="none" /><path d="M 120.9064616781168 98.02013634271609 l 14.288981460442137 -1.3531814005018823 a35.35291228564863,35.35291228564863 0 0,0 0.052030021230187205,0.604667714618065 l -14.310105104370065 1.1076926385081554" fill="#ffae10" stroke="none" /><path d="M 120.98066250479742 99.09900007780936 l 24.597235602202908 -1.0563111321495273 a45.619906427080124,45.619906427080124 0 0,0 0.02688383910521981,0.7826936427070481 l -24.611744128304974 0.6339112248783594" fill="#d0ff1d" stroke="none" /><line stroke="#e1ed5e" stroke-width="0.3" x1="184.99686870605535" x2="189.99668451229388" y1="99.2704041080226" y2="99.22748670261217" /><path d="M 185.99683186730306 99.26182062694052 a86.0,86.0 0 0,1 -10.086455211305974,41.156179273409016" fill="none" id="id88" stroke="none" /><text fill="#e1ed5e" style="font-size:6.75px; font-family:Arial;" text-anchor="middle"><textPath startOffset="21.40746469413373" xlink:href="#id88">April</textPath></text><path d="M 120.99922638620191 100.18025310272382 l 21.851842686342646 0.1875717882176046 a42.85264771061854,42.85264771061854 0 0,0 -0.012628406739777645,0.7355413821992086 l -21.845402848004202 -0.5626600863858843" fill="#f1ff19" stroke="none" /><path d="M 120.96210409425399 101.26102812881392 l 22.11598837369721 1.3304429417177823 a43.155970305240004,43.155970305240004 0 0,0 -0.050833702734746265,0.7391108812990216 l -22.089890709797398 -1.7098972471711473" fill="#edff19" stroke="none" /><path d="M 120.93736805541906 101.62068470465957 l 14.634290562001828 1.1327866432209766 a35.67806751013755,35.67806751013755 0 0,0 -0.0525085626611327,0.6102290914262759 l -14.612688376642954 -1.3838367820229098" fill="#ffb210" stroke="none" /><path d="M 120.592083275326 104.11899336999214 l 14.177544112466803 2.835905887773624 a35.45839269300883,35.45839269300883 0 0,0 -0.12451347846052851,0.5958420688202132 l -14.12677292318191 -3.078864407879246" fill="#ffaf10" stroke="none" /><path d="M 120.51834098615036 104.47187691870673 l 15.673519446501114 3.4159706135607784 a37.041448409434835,37.041448409434835 0 0,0 -0.14073834548785905,0.6201191181869762 l -15.612570239455591 -3.6845240656867717" fill="#ffc412" stroke="none" /><path d="M 120.26092885502905 105.52220625578681 l 7.376010588374982 2.010364485523762 a28.64507014777988,28.64507014777988 0 0,0 -0.13337895969901706,0.473314874310576 l -7.340413136601385 -2.1366872837373467" fill="#ff5207" stroke="none" /><path d="M 120.05942366710727 106.21446072829308 l 13.534464644993788 4.193011744036523 a35.16908891609531,35.16908891609531 0 0,0 -0.1836082409129098,0.5751501995546794 l -13.460491688303623 -4.424730977282586" fill="#ffab0f" stroke="none" /><path d="M 119.83427380445688 106.89939002012753 l 13.644478041732636 4.746257743493781 a35.44640936700185,35.44640936700185 0 0,0 -0.20484620063486295,0.5729912810432856 l -13.560991671053829 -4.979783980917989" fill="#ffaf10" stroke="none" /><path d="M 119.58574465831526 107.57618678355244 l 13.673278374100414 5.289117810576205 a35.660603968111154,35.660603968111154 0 0,0 -0.22575085442995133,0.5690396245363802 l -13.580468844704338 -5.52305845232615" fill="#ffb210" stroke="none" /><path d="M 119.0197475246899 108.90220220490707 l 16.324577674173167 7.640726627761612 a39.02422091631975,39.02422091631975 0 0,0 -0.2891894388825716,0.6042947027922225 l -16.191008977330682 -7.919833832618939" fill="#ffdd14" stroke="none" /><path d="M 118.70294669586154 109.54985784667822 l 12.925978986676055 6.6000969718435 a35.51351827785836,35.51351827785836 0 0,0 -0.2818960447252212,0.5405728351473491 l -12.810774872975886 -6.821016050095351" fill="#ffb010" stroke="none" /><path d="M 118.5362547648365 109.86951160357373 l 13.10409061506 6.977190161680267 a35.845820064918996,35.845820064918996 0 0,0 -0.29385831528702844,0.540666202176294 l -12.982386950157633 -7.201111197331165" fill="#ffb410" stroke="none" /><line stroke="#e1ed5e" stroke-width="0.3" x1="174.33088141563837" x2="178.70328620479359" y1="141.23008692659167" y2="143.65538615756765" /><path d="M 175.20536237346943 141.71514677278685 a86.0,86.0 0 0,1 -30.301960400862466,31.631185727798858" fill="none" id="id89" stroke="none" /><text fill="#e1ed5e" style="font-size:6.75px; font-family:Arial;" text-anchor="middle"><textPath startOffset="22.145653131862474" xlink:href="#id89">May</textPath></text><path d="M 117.21940702142032 112.02048342749411 l 1.6029467493895626 1.1189813221920974 a22.95488042621367,22.95488042621367 0 0,0 -0.2283299017183894,0.32117460130389636 l -1.5835017491412124 -1.1463331502054976" fill="#ff0000" stroke="none" /><path d="M 116.35404254752997 113.17365903436017 l 7.7438152046995254 6.23786937298957 a30.943726074214677,30.943726074214677 0 0,0 -0.336775572327161,0.41081143929704306 l -7.635592813133736 -6.369883093985106" fill="#ff720a" stroke="none" /><path d="M 115.6541949942343 113.99807769240083 l 5.580171731309231 4.9898239711831405 a28.48576380967878,28.48576380967878 0 0,0 -0.32908151397634494,0.36171823045621315 l -5.493692516491006 -5.084879777197026" fill="#ff5007" stroke="none" /><path d="M 115.41159269507618 114.26474011684316 l 10.652695764478098 9.859976164087481 a35.51547646503217,35.51547646503217 0 0,0 -0.41797346763856463,0.4438733382089483 l -10.481866463103273 -10.041390962240927" fill="#ffb010" stroke="none" /><path d="M 114.65682725009322 115.03919595460226 l 24.029732446837556 24.656622394342246 a55.429305386019294,55.429305386019294 0 0,0 -0.6871320610168986,0.6582569708981325 l -23.602927899955343 -25.06549149554596" fill="#63ff29" stroke="none" /><path d="M 113.59037401385874 116.0094264158162 l 5.74582171771799 6.768563535808587 a29.878508858478284,29.878508858478284 0 0,0 -0.39386371947609705,0.32857512303556263 l -5.628783664080001 -6.86620084275602" fill="#ff6409" stroke="none" /><path d="M 113.03279911837588 116.46651593811092 l 9.405237113606361 11.883209848185809 a36.154839539209206,36.154839539209206 0 0,0 -0.4899670374365666,0.38100133184980783 l -9.199860131534564 -12.042912231656409" fill="#ffb811" stroke="none" /><path d="M 112.45986205192187 116.90419585922612 l 18.660511067175445 25.316567117541645 a52.45064775016833,52.45064775016833 0 0,0 -0.729361198154051,0.5280012607318113 l -18.223168858647426 -25.633169149646534" fill="#82ff25" stroke="none" /><path d="M 111.5731344415666 117.5232005979908 l 4.860391131978813 7.359251654803318 a29.819409667009673,29.819409667009673 0 0,0 -0.4295618981849831,0.2784368325838891 l -4.73334360153682 -7.4416023290911015" fill="#ff6309" stroke="none" /><path d="M 111.27062007382361 117.71928675628689 l 7.800427503882426 12.263567652673862 a35.534158414405496,35.534158414405496 0 0,0 -0.5175057283997138,0.3229618490796056 l -7.588757646692996 -12.395665298595015" fill="#ffb010" stroke="none" /><path d="M 110.96478420261333 117.91015095944535 l 4.252509678943523 6.9461549720448135 a29.14450167076975,29.14450167076975 0 0,0 -0.428933847280571,0.2575624510215359 l -4.132643075105515 -7.018131423602273" fill="#ff5908" stroke="none" /><line stroke="#e1ed5e" stroke-width="0.3" x1="143.1302829299769" x2="145.66735839644613" y1="173.24464959558577" y2="177.55315839532614" /><path d="M 143.63769802327073 174.10635135553383 a86.0,86.0 0 0,1 -40.68552437913181,11.842963189579606" fill="none" id="id90" stroke="none" /><text fill="#e1ed5e" style="font-size:6.75px; font-family:Arial;" text-anchor="middle"><textPath startOffset="21.407464694133747" xlink:href="#id90">June</textPath></text><path d="M 110.65571695917076 118.09573695890943 l 5.083568889456503 8.633011348610278 a31.018560655058383,31.018560655058383 0 0,0 -0.4611537272684913,0.26624722857626376 l -4.934622694327613 -8.719005474462714" fill="#ff730a" stroke="none" /><path d="M 110.34350942703117 118.27599006163325 l 5.4293345197036125 9.59311386753055 a32.022953642388785,32.022953642388785 0 0,0 -0.480734392770049,0.2666552639363866 l -5.2638559387774695 -9.68490204690008" fill="#ff810b" stroke="none" /><path d="M 109.71004243097381 118.62028667847754 l 6.340351901570568 12.158460777996227 a34.71233863080336,34.71233863080336 0 0,0 -0.5307231907148084,0.2709910427314304 l -6.130701489142177 -12.265509772400494" fill="#ffa50f" stroke="none" /><path d="M 109.06512990194946 118.94263497670748 l 3.458915701496148 7.227803490665182 a29.012817302904665,29.012817302904665 0 0,0 -0.4510958234182105,0.21113562252311996 l -3.3343311642064313 -7.286115344758836" fill="#ff5708" stroke="none" /><path d="M 108.73861861582097 119.09545874513695 l 6.1863136316596306 13.518211737031713 a35.86648999987824,35.86648999987824 0 0,0 -0.5620562450272674,0.25140060933387814 l -5.953343983776736 -13.62241609727544" fill="#ffb510" stroke="none" /><path d="M 108.4095320186766 119.2426549942271 l 3.46176277146187 7.921190683995178 a29.64459734967982,29.64459734967982 0 0,0 -0.46805279484997264,0.19978390598187679 l -3.325274901441466 -7.979449239636457" fill="#ff6008" stroke="none" /><path d="M 107.407793817531 119.65005319985036 l 5.146076838117509 13.650580203814332 a35.5883668285582,35.5883668285582 0 0,0 -0.5734994956998336,0.21059695861671868 l -4.910988190763549 -13.736908011439773" fill="#ffb110" stroke="none" /><path d="M 107.06938296918513 119.77432235084164 l 4.071628721109802 11.38907018832098 a33.09500228181326,33.09500228181326 0 0,0 -0.5366027262435356,0.18665828306685894 l -3.8755202228212444 -11.45728690395643" fill="#ff900d" stroke="none" /><path d="M 106.38641147887787 120.00534299687104 l 6.121371089910411 19.17510775336149 a41.128485819192036,41.128485819192036 0 0,0 -0.6744275879831115,0.20893939073987838 l -5.7913028690556745 -19.277363731908014" fill="#fff817" stroke="none" /><path d="M 105.3480935250658 120.30758222061773 l 2.751171904357666 10.44664783608273 a31.802842119482214,31.802842119482214 0 0,0 -0.52913069985407,0.13450295475339635 l -2.5714359112781984 -10.492336022671397" fill="#ff7e0b" stroke="none" /><path d="M 104.64783097203109 120.47920084513623 l 3.5742323189154597 15.748727087263196 a37.14922727373286,37.14922727373286 0 0,0 -0.6231120971126739,0.13580438139350276 l -3.30335780518365 -15.807762926790417" fill="#ffc512" stroke="none" /><path d="M 103.94208987418118 120.62667999033965 l 2.8380993920786595 14.850135286005793 a36.118906249196456,36.118906249196456 0 0,0 -0.6100057861293166,0.11116337459464043 l -2.5827588723982857 -14.896666834531798" fill="#ffb811" stroke="none" /><path d="M 103.2317021107853 120.74984581791261 l 1.6019590083389461 10.28572600138937 a31.40972776013166,31.40972776013166 0 0,0 -0.5334791110350623,0.07840305796001903 l -1.4251547916961982 -10.311710132648273" fill="#ff790b" stroke="none" /><path d="M 102.875027216393 120.80226474461374 l 1.9298311046333188 13.963296528837182 a35.09602419282284,35.09602419282284 0 0,0 -0.5975050958281934,0.07735899712371906 l -1.68984818691435 -13.994367122161297" fill="#ffaa0f" stroke="none" /><path d="M 101.80034050326958 120.92268563240118 l 1.5236295147610235 17.706884503069713 a38.77231571020786,38.77231571020786 0 0,0 -0.6636177338386633,0.05136820961098786 l -1.2194427861471244 -17.730430479675753" fill="#ffda14" stroke="none" /><path d="M 101.08105385017728 120.97215588758144 l 0.8716468451646517 16.909715933867552 a37.93216646465477,37.93216646465477 0 0,0 -0.6505804383414168,0.027938723297716125 l -0.5812406462224055 -16.9221872255911" fill="#ffcf13" stroke="none" /><path d="M 100.72087961077811 120.9876233191556 l 0.2608679348181568 7.594885290346677 a28.599364095300384,28.599364095300384 0 0,0 -0.4908014307614031,0.012641303863883326 l -0.13045318998600983 -7.598244311560605" fill="#ff5207" stroke="none" /><line stroke="#e1ed5e" stroke-width="0.3" x1="101.45913802915013" x2="101.54496967792366" y1="184.9874750549273" y2="189.98673829345242" /><path d="M 101.47630435890484 185.9873277026323 a86.0,86.0 0 0,1 -42.54439059252881,-10.42667462771756" fill="none" id="id91" stroke="none" /><text fill="#e1ed5e" style="font-size:6.75px; font-family:Arial;" text-anchor="middle"><textPath startOffset="22.145653131862474" xlink:href="#id91">July</textPath></text><path d="M 100.36049292484886 120.99690560180557 l 0.20638522940812432 12.020904935391657 a33.022676504366295,33.022676504366295 0 0,0 -0.5668781542569751,0.0048659671690723435 l -1.4723532298256272e-15 -12.022676504366295" fill="#ff8f0d" stroke="none" /><path d="M 99.63950707515114 120.99690560180557 l -0.2262448070783962 13.177625772033112 a34.179567811596904,34.179567811596904 0 0,0 -0.5865648176245564,-0.01510782901335539 l 0.4524229387736965 -13.171800225669708" fill="#ff9e0e" stroke="none" /><path d="M 99.27912038922189 120.98762331915562 l -0.4942802880159138 14.390431278482781 a35.398917507363414,35.398917507363414 0 0,0 -0.607132294703251,-0.026072873064041997 l 0.7412383433200036 -14.37982583699291" fill="#ffae10" stroke="none" /><path d="M 98.91894614982273 120.97215588758144 l -0.45281116870414956 8.784415703384413 a29.796078512858436,29.796078512858436 0 0,0 -0.5105851017693889,-0.030715531827789775 l 0.6035406226059848 -8.775348193731931" fill="#ff6209" stroke="none" /><path d="M 97.48249496171623 120.84855314841334 l -1.7140682202127016 14.19494374218713 a35.29805782990825,35.29805782990825 0 0,0 -0.6009446913511196,-0.07780432162726336 l 1.957490733454615 -14.163427824359468" fill="#ffad10" stroke="none" /><path d="M 97.12497278360702 120.80226474461374 l -1.601414909675762 11.587040542468893 a32.697180781955524,32.697180781955524 0 0,0 -0.5553458810633534,-0.08161672013059605 l 1.8000858963468003 -11.557842749039414" fill="#ff8a0c" stroke="none" /><path d="M 96.76829788921471 120.74984581791261 l -1.3854363360537527 8.895495122433667 a30.002736656955996,30.002736656955996 0 0,0 -0.5082213523263699,-0.08362763012439657 l 1.537935191433186 -8.870401493813603" fill="#ff6509" stroke="none" /><path d="M 96.05791012581884 120.62667999033965 l -3.1934511949323703 16.70948607591551 a38.01190922429429,38.01190922429429 0 0,0 -0.6398735001174393,-0.1279926207260186 l 3.479821180580768 -16.652204058526628" fill="#ffd013" stroke="none" /><path d="M 95.70440661134978 120.55596938700252 l -2.9398359682482287 14.068179340668124 a35.37206684793135,35.37206684793135 0 0,0 -0.5933033974143666,-0.12930771403391983 l 3.180901782281732 -14.015640168500484" fill="#ffae10" stroke="none" /><path d="M 94.6519064749342 120.30758222061772 l -2.8159733345904954 10.692709421636353 a32.05729354754931,32.05729354754931 0 0,0 -0.5309582348349446,-0.14471502797065988 l 2.999112970360135 -10.64279389952155" fill="#ff820b" stroke="none" /><path d="M 93.95794788825049 120.11202640906438 l -4.101089160523775 13.65119200842162 a35.253910886257145,35.253910886257145 0 0,0 -0.5780959257900636,-0.17909559554791593 l 4.334825719185472 -13.578779825067057" fill="#ffac10" stroke="none" /><path d="M 92.93061703081489 119.77432235084164 l -3.695618781684061 10.337303466708226 a31.978043593571392,31.978043593571392 0 0,0 -0.5153198505210507,-0.18923258703501294 l 3.8725277838592307 -10.272340030664493" fill="#ff810b" stroke="none" /><path d="M 92.25597844496254 119.51999308798841 l -4.691169480664606 11.824811589992057 a33.721369432381465,33.721369432381465 0 0,0 -0.5362428992615631,-0.21808531878642634 l 4.89346684111661 -11.74253901462634" fill="#ff980e" stroke="none" /><path d="M 91.92203290615298 119.3841803445677 l -5.424976614058009 13.017968980346799 a35.103116238489555,35.103116238489555 0 0,0 -0.5542362903284955,-0.23657051541423343 l 5.647647979556936 -12.922923815273162" fill="#ffaa0f" stroke="none" /><path d="M 90.93487009805054 118.94263497670748 l -5.079339074007107 10.613865111977345 a32.76664004905331,32.76664004905331 0 0,0 -0.5052924069526151,-0.24716383676593637 l 5.260791730221792 -10.525107525114185" fill="#ff8b0c" stroke="none" /><path d="M 90.6110303473126 118.78422872680471 l -6.56470142563071 13.133800370409388 a35.683052032102985,35.683052032102985 0 0,0 -0.5455646025564813,-0.2785691733670385 l 6.789193249900774 -13.019173245369515" fill="#ffb210" stroke="none" /><path d="M 90.28995756902619 118.62028667847754 l -4.446729855451517 8.52719082113716 a30.616984439388975,30.616984439388975 0 0,0 -0.46393651788106544,-0.24702006444337762 l 4.5924551891191445 -8.449600288971208" fill="#ff6e0a" stroke="none" /><line stroke="#e1ed5e" stroke-width="0.3" x1="58.13341422392154" x2="55.670673884152215" y1="173.97424548756322" y2="178.32567169271397" /><path d="M 57.64086615596767 174.84453072859336 a86.0,86.0 0 0,1 -31.369924170532244,-30.572349798747897" fill="none" id="id92" stroke="none" /><text fill="#e1ed5e" style="font-size:6.75px; font-family:Arial;" text-anchor="middle"><textPath startOffset="22.145653131862474" xlink:href="#id92">August</textPath></text><path d="M 89.65649057296885 118.27599006163327 l -8.147990811484565 14.396719038492988 a37.542529230360856,37.542529230360856 0 0,0 -0.5581457333947488,-0.322245589422503 l 8.393929012739713 -14.254726551794313" fill="#ffca12" stroke="none" /><path d="M 87.54013794807813 116.9041958592261 l -9.562229250042991 12.973000456984598 a37.116295141480265,37.116295141480265 0 0,0 -0.5096367984167467,-0.3824409546223532 l 9.783519037370505 -12.806940475098232" fill="#ffc512" stroke="none" /><path d="M 87.2517909369889 116.68781488649013 l -6.7893149606753544 8.887431223462167 a32.18397207556512,32.18397207556512 0 0,0 -0.43615420927825443,-0.33915615118992 l 6.940879114588838 -8.769574020651454" fill="#ff830c" stroke="none" /><path d="M 86.68645165197938 116.24036423190432 l -8.93157897692929 10.895074097426223 a35.08814191472861,35.08814191472861 0 0,0 -0.46253801183651183,-0.3858656602084664 l 9.117291322927695 -10.740146253305886" fill="#ffaa0f" stroke="none" /><path d="M 86.40962598614128 116.0094264158162 l -8.952889050950821 10.546480790300762 a34.83410566024483,34.83410566024483 0 0,0 -0.452545658486829,-0.3908981613895487 l 9.132614189200511 -10.39123849644649" fill="#ffa70f" stroke="none" /><path d="M 85.86807049272751 115.53346607816431 l -6.978607914541432 7.670712570251153 a31.370188029168485,31.370188029168485 0 0,0 -0.3952198962286168,-0.3658096356587535 l 7.109257582084016 -7.54978518846002" fill="#ff780b" stroke="none" /><path d="M 85.60350026404147 115.28858382429668 l -9.812813297955003 10.420867669885011 a35.3138320450457,35.3138320450457 0 0,0 -0.43776962432650224,-0.4193733973552612 l 9.99025540814682 -10.25088214222417" fill="#ffad10" stroke="none" /><path d="M 85.08716467003676 114.78537596483092 l -10.463140311537469 10.373712299231892 a35.734015475971084,35.734015475971084 0 0,0 -0.42814999722074115,-0.4393196151045727 l 10.63967710990902 -10.192569992059582" fill="#ffb310" stroke="none" /><path d="M 84.58840730492382 114.26474011684316 l -4.459800715772758 4.127924961560566 a27.0769718538662,27.0769718538662 0 0,0 -0.31280645838036414,-0.3438290933861229 l 4.530004874995003 -4.050758292616769" fill="#ff3c05" stroke="none" /><path d="M 84.1078160697243 113.72728997021213 l -11.358626666367813 9.81131118269846 a36.00933798905421,36.00933798905421 0 0,0 -0.4000559198741057,-0.47126486768539344 l 11.525377149749032 -9.614879532563513" fill="#ffb610" stroke="none" /><path d="M 83.20337586046588 112.60449989151573 l -11.543908123861863 8.66276386767563 a35.43278533753171,35.43278533753171 0 0,0 -0.36090482020084674,-0.4896367023800882 l 11.690914963646538 -8.463320856026662" fill="#ffaf10" stroke="none" /><path d="M 82.98947788004972 112.3143062007846 l -12.087743036258964 8.750593778089732 a35.92268150098265,35.92268150098265 0 0,0 -0.35731932313677933,-0.5026143763166628 l 12.236177457925702 -8.541802175063564" fill="#ffb510" stroke="none" /><path d="M 82.576782715395 111.72311816256416 l -10.689006848141535 7.192040842648631 a33.88333492857896,33.88333492857896 0 0,0 -0.3205614561034459,-0.4853709016901688 l 10.810892743165708 -7.007490062619404" fill="#ff9a0e" stroke="none" /><path d="M 82.18462484594161 111.11811171558189 l -12.231912146928012 7.633617847993993 a35.4184533227173,35.4184533227173 0 0,0 -0.3174708364179197,-0.5185647524290679 l 12.361150947801336 -7.422515979440369" fill="#ffaf10" stroke="none" /><line stroke="#e1ed5e" stroke-width="0.3" x1="26.387840678322732" x2="22.057713659400548" y1="142.50000000000003" y2="145.00000000000006" /><path d="M 25.521815274538298 143.00000000000003 a86.0,86.0 0 0,1 -11.493303480769221,-40.785679425670985" fill="none" id="id93" stroke="none" /><text fill="#e1ed5e" style="font-size:6.75px; font-family:Arial;" text-anchor="middle"><textPath startOffset="21.40746469413373" xlink:href="#id93">September</textPath></text><path d="M 81.63589988554817 110.18625677009913 l -12.599017134969262 6.988462423305978 a35.40742308010731,35.40742308010731 0 0,0 -0.2902644067322849,-0.534053815225921 l 12.717126891316877 -6.7711537746054695" fill="#ffae10" stroke="none" /><path d="M 81.4637452351635 109.86951160357371 l -6.572650472370889 3.4995661705273804 a28.446253931599227,28.446253931599227 0 0,0 -0.22579814277558177,-0.43299771137328563 l 6.63175668412142 -3.3862222160495916" fill="#ff5007" stroke="none" /><path d="M 81.29705330413844 109.54985784667822 l -6.490919006065314 3.3143094941259577 a28.288118890780623,28.288118890780623 0 0,0 -0.21711816466155826,-0.43438177101567027 l 6.546857083938609 -3.2023958669465333" fill="#ff4d07" stroke="none" /><path d="M 80.9802524753101 108.90220220490708 l -15.649484547304393 7.3247489569367366 a38.27884006171898,38.27884006171898 0 0,0 -0.27344860364697576,-0.5975345485844401 l 15.772917615806426 -7.0550254261376075" fill="#ffd413" stroke="none" /><path d="M 80.5471966667186 107.91128576633889 l -6.823387608798634 2.7750123384708036 a28.366092039784185,28.366092039784185 0 0,0 -0.17957266008579903,-0.45264040895990776 l 6.870018943850557 -2.6574709122973306" fill="#ff4e07" stroke="none" /><path d="M 80.41425534168474 107.57618678355246 l -9.279351798487243 3.589452618835484 a30.94939897194566,30.94939897194566 0 0,0 -0.18741970969602514,-0.4971530467697139 l 9.339602191997702 -3.429631291871625" fill="#ff720a" stroke="none" /><path d="M 80.28708602549918 107.23885506374661 l -2.5246778962873653 0.9270966939494143 a23.689517941924525,23.689517941924525 0 0,0 -0.13690266043680552,-0.3829411067366834 l 2.540220726768114 -0.8836206308318094" fill="#ff0b01" stroke="none" /><path d="M 80.05021161711548 106.5578916946017 l -9.677243364572437 3.181102108412087 a31.186680016634718,31.186680016634718 0 0,0 -0.1628171679803597,-0.5100224597176298 l 9.730425248330052 -3.014510615003066" fill="#ff760a" stroke="none" /><path d="M 79.64726062577567 105.17358676015961 l -14.352747313460428 3.648412241099863 a35.80919536386271,35.80919536386271 0 0,0 -0.14632741083973017,-0.5970657705774844 l 14.413262250816452 -3.4014906459142793" fill="#ffb410" stroke="none" /><path d="M 79.48165901384964 104.47187691870673 l -9.576247757163557 2.087098627612357 a30.801045953772558,30.801045953772558 0 0,0 -0.10815903036357441,-0.5175801142994501 l 9.610664498351499 -1.9224020620274977" fill="#ff700a" stroke="none" /><path d="M 79.407916724674 104.11899336999214 l -13.338961528551653 2.6681658851156063 a34.60319829491123,34.60319829491123 0 0,0 -0.111510796548209,-0.5834716075176977 l 13.382798617382019 -2.438791712564594" fill="#ffa40f" stroke="none" /><path d="M 79.2786578344484 103.40968896794605 l -21.171283473508343 3.483726638947579 a42.455992058410175,42.455992058410175 0 0,0 -0.11216167091381715,-0.7201583866204861 l 21.227966636560428 -3.119780070395643" fill="#f6ff19" stroke="none" /><path d="M 79.22317932658666 103.0534771498775 l -14.361511211204029 2.1106475822470787 a35.51577891420176,35.51577891420176 0 0,0 -0.0834713542013627,-0.6039571377924913 l 14.395627081960605 -1.8638021362545019" fill="#ffb010" stroke="none" /><path d="M 79.17382384314188 102.69636545807758 l -12.890456843948433 1.66892771438585 a33.99804590550219,33.99804590550219 0 0,0 -0.06996783882305085,-0.5794340762775129 l 12.917206769031145 -1.447399961184938" fill="#ff9c0e" stroke="none" /><path d="M 79.0935383218832 101.97986365728391 l -14.258961058236093 1.350338437200874 a35.32275756812477,35.32275756812477 0 0,0 -0.051985641559842664,-0.6041519555772602 l 14.280040322493676 -1.1053654342479518" fill="#ffad10" stroke="none" /><line stroke="#e1ed5e" stroke-width="0.3" x1="15.003131293944662" x2="10.003315487706104" y1="100.72959589197737" y2="100.7725132973878" /><path d="M 14.003168132696942 100.73817937305945 a86.0,86.0 0 0,1 10.791469493833615,-42.45332614584628" fill="none" id="id94" stroke="none" /><text fill="#e1ed5e" style="font-size:6.75px; font-family:Arial;" text-anchor="middle"><textPath startOffset="22.145653131862435" xlink:href="#id94">October</textPath></text><path d="M 79.00077361379809 100.18025310272382 l -14.533667206454838 0.12475405330361629 a35.5342026283452,35.5342026283452 0 0,0 0.0,-0.6100143120548623 l 14.533667206454838 0.12475405330361095" fill="#ffb010" stroke="none" /><path d="M 79.00077361379809 99.81974689727619 l -14.785535229486822 -0.12691603735928356 a35.78607993022271,35.78607993022271 0 0,0 0.010545933498275623,-0.6142477560107988 l 14.78117786438988 0.38071070933913476" fill="#ffb310" stroke="none" /><path d="M 79.01933749520258 99.09900007780938 l -13.12617340563002 -0.5636943644858207 a34.138271561024375,34.138271561024375 0 0,0 0.03016914566059903,-0.5852733660635429 l 13.114562670512852 0.7889395239260756" fill="#ff9e0e" stroke="none" /><path d="M 79.06263194458094 98.37931529534042 l -10.234794464610516 -0.7922378209249502 a31.26541078075914,31.26541078075914 0 0,0 0.04601431343334245,-0.5347560713143891 l 10.21968652847943 0.96781493961502" fill="#ff770a" stroke="none" /><path d="M 79.0935383218832 98.0201363427161 l -14.475413606163338 -1.3708367185344443 a35.54017855386862,35.54017855386862 0 0,0 0.06273282808411398,-0.6068832050797666 l 14.44974838559756 1.6191244458971237" fill="#ffb010" stroke="none" /><path d="M 79.22317932658666 96.9465228501225 l -8.980266485293049 -1.3197899208776325 a30.07673022525886,30.07673022525886 0 0,0 0.07945771972653477,-0.5101755597665127 l 8.956287273428247 1.4737536625755954" fill="#ff6609" stroke="none" /><path d="M 79.34024301695615 96.23510406497455 l -28.402602004321 -5.175900225640462 a49.87036099119033,49.87036099119033 0 0,0 0.16071010635719152,-0.8409031860877689 l 28.30956560568165 5.662705976761545" fill="#9fff22" stroke="none" /><path d="M 79.407916724674 95.88100663000787 l -7.396030776882794 -1.4794132932990331 a28.54254167671531,28.54254167671531 0 0,0 0.10022820772056679,-0.47962825696254324 l 7.36954485833786 1.6061580015469856" fill="#ff5107" stroke="none" /><path d="M 79.56144815229197 95.17655741523228 l -14.09727920113305 -3.3269195065662416 a35.484532242287614,35.484532242287614 0 0,0 0.14500073724394608,-0.5916524895782123 l 14.038090937372806 3.5684278207525715" fill="#ffb010" stroke="none" /><path d="M 79.73907114497095 94.47779374421319 l -7.66288844005612 -2.088554319688601 a28.94241263036841,28.94241263036841 0 0,0 0.13476346428557548,-0.47822799266034227 l 7.625906483695962 2.2197902362519564" fill="#ff5608" stroke="none" /><path d="M 79.94057633289273 93.78553927170692 l -13.585337683146873 -4.208772341298834 a35.22234736553754,35.22234736553754 0 0,0 0.18388628878156985,-0.5760211805430486 l 13.51108667858805 4.441362555533274" fill="#ffac0f" stroke="none" /><path d="M 80.16572619554312 93.10060997987247 l -15.159863681462964 -5.273387532185643 a37.05085925753356,37.05085925753356 0 0,0 0.2141183799628602,-0.5989272168563319 l 15.06710513145616 5.532849705422896" fill="#ffc412" stroke="none" /><path d="M 80.41425534168474 92.42381321644754 l -13.423189972413999 -5.192378244293141 a35.392457082351314,35.392457082351314 0 0,0 0.22405334003486238,-0.5647607793622786 l 13.332077957413006 5.422040040869002" fill="#ffae10" stroke="none" /><path d="M 80.83023694016515 91.42560881287825 l -6.211573734428813 -2.7783579233817686 a27.804624971933734,27.804624971933734 0 0,0 0.1986250330794938,-0.43403154338995054 l 6.162964236494273 2.8845784489863906" fill="#ff4606" stroke="none" /><path d="M 80.9802524753101 91.09779779509293 l -26.944270486218844 -12.61127908352404 a50.74958944518487,50.74958944518487 0 0,0 0.37608041750904014,-0.7858634291858917 l 26.7238108107499 13.07195501477502" fill="#95ff23" stroke="none" /><path d="M 81.46374523516351 90.13048839642627 l -12.452600473918713 -6.630308356850669 a35.10773714916621,35.10773714916621 0 0,0 0.2878076292719504,-0.5295336214115207 l 12.336947495031414 6.84309681173681" fill="#ffab0f" stroke="none" /><path d="M 81.63589988554816 89.8137432299009 l -15.155224554647052 -8.406347589047316 a38.330536953298896,38.330536953298896 0 0,0 0.3241059268438697,-0.5726641175030285 l 15.00868526278181 8.66526847664945" fill="#ffd413" stroke="none" /><line stroke="#e1ed5e" stroke-width="0.3" x1="26.387840678322718" x2="22.05771365940052" y1="57.49999999999999" y2="54.99999999999999" /><path d="M 25.521815274538284 56.99999999999999 a86.0,86.0 0 0,1 29.574782752854787,-30.34633250058573" fill="none" id="id95" stroke="none" /><text fill="#e1ed5e" style="font-size:6.75px; font-family:Arial;" text-anchor="middle"><textPath startOffset="21.40746469413373" xlink:href="#id95">November</textPath></text><path d="M 82.18462484594161 88.88188828441811 l -16.489676575694226 -10.290777754439725 a40.43732338472225,40.43732338472225 0 0,0 0.37256698442601655,-0.5857371812489892 l 16.310591899642315 10.57232861036739" fill="#ffef16" stroke="none" /><path d="M 82.37810715431573 88.57770195909679 l -11.973741081181261 -7.761234306186036 a35.269100652623024,35.269100652623024 0 0,0 0.3336718267105354,-0.5052216737711409 l 11.83874481555 7.965635858296237" fill="#ffad10" stroke="none" /><path d="M 82.78059297857968 87.97951657250589 l -9.497528588997504 -6.630012570361984 a32.582750795125605,32.582750795125605 0 0,0 0.3240973661648704,-0.45588353333601844 l 9.382316124302662 6.792073330407523" fill="#ff890c" stroke="none" /><path d="M 83.2033758604659 87.39550010848427 l -12.66444935480114 -9.503638897472237 a36.833743390426356,36.833743390426356 0 0,0 0.3838567575063658,-0.5024808175432837 l 12.499440619940467 9.719640628256405" fill="#ffc112" stroke="none" /><path d="M 83.42222388311158 87.10902102172516 l -11.00479406641275 -8.557394427944395 a34.94039066309001,34.94039066309001 0 0,0 0.3722542056110181,-0.47033102820405587 l 10.85627343016017 8.745045400063134" fill="#ffa80f" stroke="none" /><path d="M 84.10781606972428 86.27271002978789 l -11.95503742108695 -10.326476587736689 a36.797437718081476,36.797437718081476 0 0,0 0.41701824055124603,-0.47449020676475795 l 11.776008116577112 10.530179072312745" fill="#ffc111" stroke="none" /><path d="M 84.34580500576568 86.00192230759919 l -10.58962770525719 -9.469310392925824 a35.205916170860775,35.205916170860775 0 0,0 0.40671600985806466,-0.44705214099216734 l 10.42551399455726 9.649700109475651" fill="#ffac0f" stroke="none" /><path d="M 84.83555147118756 85.47280134310135 l -9.725554911463398 -9.316861604229361 a34.46812267869034,34.46812267869034 0 0,0 0.41298260026246897,-0.4237565296506421 l 9.564185510050125 9.482440825947734" fill="#ffa20f" stroke="none" /><path d="M 85.34317274990677 84.96080404539775 l -9.946467046530739 -10.20595142566193 a35.25109298302038,35.25109298302038 0 0,0 0.4369918765143299,-0.41862833254456067 l 9.76980268415111 10.375191888512058" fill="#ffac10" stroke="none" /><path d="M 85.60350026404147 84.71141617570332 l -9.866085348281308 -10.477440741245644 a35.39153934038625,35.39153934038625 0 0,0 0.4458832217541529,-0.4127028534056589 l 9.684772355213202 10.64526134078367" fill="#ffae10" stroke="none" /><path d="M 85.86807049272753 84.46653392183569 l -9.488651225507656 -10.42968986387214 a35.1001039973429,35.1001039973429 0 0,0 0.4491726431534333,-0.40165294724376216 l 9.30821355553083 10.591038340999303" fill="#ffaa0f" stroke="none" /><path d="M 86.40962598614128 83.9905735841838 l -8.914092753595845 -10.500778849568503 a34.77415718173911,34.77415718173911 0 0,0 0.45839901027587443,-0.3824127578978943 l 8.732519409158062 10.65225379137828" fill="#ffa60f" stroke="none" /><path d="M 87.25179093698888 83.31218511350988 l -27.014000664744525 -35.36219403122164 a65.49989886074557,65.49989886074557 0 0,0 0.899366669673524,-0.6749015156951279 l 26.402981006160246 35.82071457418077" fill="#36ff6b" stroke="none" /><path d="M 87.54013794807813 83.09580414077388 l -8.46409761612551 -11.483173993288736 a35.265490998049955,35.265490998049955 0 0,0 0.49039014523411806,-0.3550046473398749 l 8.265726460517426 11.62677941200169" fill="#ffad10" stroke="none" /><path d="M 88.12776184653039 82.6780497279521 l -8.33064035494487 -12.154653242067816 a35.735506918947365,35.735506918947365 0 0,0 0.5089820364853751,-0.34246582929393216 l 8.120762030362506 12.295868745418858" fill="#ffb310" stroke="none" /><path d="M 88.4268655584334 82.4767994020092 l -7.9828041107893855 -12.086982871763178 a35.485175746725766,35.485175746725766 0 0,0 0.5111797859651934,-0.33134056136367485 l 7.774138692567166 12.222237274830759" fill="#ffb010" stroke="none" /><path d="M 88.72937992617638 82.28071324371311 l -7.784089942565005 -12.237882292686054 a35.50371742842436,35.50371742842436 0 0,0 0.517062397663168,-0.32268517791140405 l 7.572863416112138 12.369703267438993" fill="#ffb010" stroke="none" /><path d="M 89.03521579738668 82.08984904055464 l -15.71125457362036 -25.663153599388746 a51.09054623869308,51.09054623869308 0 0,0 0.7519244900937055,-0.4515090517558798 l 15.26839732696922 25.92907665168055" fill="#91ff23" stroke="none" /><line stroke="#e1ed5e" stroke-width="0.3" x1="56.869717070023135" x2="54.33264160355391" y1="26.7553504044142" y2="22.446841604673864" /><path d="M 56.362301976729285 25.89364864446614 a86.0,86.0 0 0,1 42.16139366436587,-11.88097634709845" fill="none" id="id96" stroke="none" /><text fill="#e1ed5e" style="font-size:6.75px; font-family:Arial;" text-anchor="middle"><textPath startOffset="22.145653131862474" xlink:href="#id96">December</textPath></text><path d="M 89.97174638481275 81.54914285379989 l -7.633608263837235 -14.044979414243052 a36.98541278391757,36.98541278391757 0 0,0 0.5604367619330116,-0.2984010090031729 l 7.391382686117662 14.173950890968799" fill="#ffc312" stroke="none" /><path d="M 90.28995756902619 81.37971332152246 l -6.4242687749948795 -12.31938244764184 a34.89382644143218,34.89382644143218 0 0,0 0.5334979905045092,-0.2724078752752867 l 6.211843562776789 12.427848274589959" fill="#ffa80f" stroke="none" /><path d="M 90.61103034731259 81.2157712731953 l -7.220271879464119 -14.445380427313399 a37.149344931085885,37.149344931085885 0 0,0 0.572877838217184,-0.2802232579465896 l 6.971233791984882 14.567197435357203" fill="#ffc512" stroke="none" /><path d="M 90.93487009805054 81.0573650232925 l -4.456609181027888 -9.312599142335523 a31.324043208852352,31.324043208852352 0 0,0 0.4870311254698277,-0.22795515836304572 l 4.296089341686538 9.387730532269112" fill="#ff780b" stroke="none" /><path d="M 91.26138138417902 80.90454125486306 l -7.966689907275897 -17.408655206014352 a40.144958191664514,40.144958191664514 0 0,0 0.6291032230380156,-0.28138986979495634 l 7.666673281382263 17.54284882671915" fill="#ffeb16" stroke="none" /><path d="M 91.5904679813234 80.7573450057729 l -5.859805280848622 -13.4083812395621 a35.63290830268892,35.63290830268892 0 0,0 0.562601074420951,-0.2401409443424945 l 5.62876913125724 13.506996833564" fill="#ffb110" stroke="none" /><path d="M 91.92203290615298 80.6158196554323 l -5.5831934251788935 -13.3976317302292 a35.51442678171636,35.51442678171636 0 0,0 0.5647563993872813,-0.22968151105898998 l 5.352382564601172 13.491500497867483" fill="#ffb010" stroke="none" /><path d="M 93.95794788825049 79.88797359093562 l -18.06045386321888 -60.11737706637741 a83.77164183838478,83.77164183838478 0 0,0 1.380795955652834,-0.40192957875466917 l 17.025797895184418 60.4185503394346" fill="#4dd4ff" stroke="none" /><path d="M 97.48249496171623 79.15144685158666 l -0.8072600540739767 -6.685271284869302 a27.73383404511884,27.73383404511884 0 0,0 0.47314462139655084,-0.05301684171272266 l 0.692379531076627 6.698143887088995" fill="#ff4506" stroke="none" /><path d="M 98.5590905019552 79.04949213459386 l -1.502862148727264 -21.851285809591186 a42.90290588416337,42.90290588416337 0 0,0 0.7351834758259372,-0.044226812284068176 l 1.1275343207688429 21.873864599699946" fill="#f1ff19" stroke="none" /><path d="M 98.9189461498227 79.02784411241856 l -0.7484716426674528 -14.520149911941617 a35.53942788644503,35.53942788644503 0 0,0 0.6095422098896354,-0.026176365191370846 l 0.4991036721769973 14.530858845558816" fill="#ffb010" stroke="none" /><path d="M 99.27912038922189 79.0123766808444 l -0.7374603884920626 -21.47035457108185 a42.48301592497129,42.48301592497129 0 0,0 0.7290625389276292,-0.018778064839910413 l 0.36878453549368956 21.479850353271804" fill="#f6ff19" stroke="none" /><path d="M 99.63950707515114 79.00309439819443 l -0.2484194195764489 -14.469185781354621 a35.47131816329727,35.47131816329727 0 0,0 0.6089123444252975,-0.005226780137082539 l 3.544450693624991e-15 14.47131816329727" fill="#ffaf10" stroke="none" /></svg>