<?xml version="1.0" encoding="utf-8" ?>
<svg baseProfile="full" height="200mm" version="1.1" viewBox="0,0,200,200" width="200mm" xmlns="http://www.w3.org/2000/svg" xmlns:ev="http://www.w3.org/2001/xml-events" xmlns:xlink="http://www.w3.org/1999/xlink"><defs /><rect fill="#1a1a1a" height="200" width="200" x="0" y="0" /><text alignment-baseline="middle" fill="#e1ed5e" style="dominant-baseline: central; font-size:9.0px; font-family:Arial;" text-anchor="middle" x="100.0" y="100.0">2024</text><line stroke="#e1ed5e" stroke-width="0.3" x1="100.0" x2="100.0" y1="15.0" y2="10.0" /><path d="M 100.0 14.0 a86.0,86.0 0 0,1 42.35913384403234,11.155469271406648" fill="none" id="id85" stroke="none" /><text fill="#e1ed5e" style="font-size:6.75px; font-family:Arial;" text-anchor="middle"><textPath startOffset="22.145653131862478" xlink:href="#id85">January</textPath></text><path d="M 100.72087961077811 79.0123766808444 l 0.2555642363572481 -7.440473896499921 a28.444861642999257,28.444861642999257 0 0,0 0.4878622098610335,0.020950902433323697 l -0.3832522068191179 7.434990425640767" fill="#ff4d07" stroke="none" /><path d="M 103.58742460773223 79.30868818359171 l 2.5176268615775586 -14.521002704276198 a35.73763768559037,35.73763768559037 0 0,0 0.6035666091436103,0.10998994204756848 l -2.7665282042722223 14.475644588297264" fill="#ffb110" stroke="none" /><path d="M 104.29559338865022 79.4440306129975 l 1.5859249532957909 -7.589225012816093 a28.753160275180676,28.753160275180676 0 0,0 0.48228303285201685,0.10511134230348106 l -1.7159704027669418 7.5608822123788935" fill="#ff5107" stroke="none" /><path d="M 107.06938296918511 80.22567764915836 l 4.940864693620213 -13.820477907253713 a35.67711666184986,35.67711666184986 0 0,0 0.5749296817176844,0.21112214273261257 l -5.177383526992022 13.733624915512378" fill="#ffb010" stroke="none" /><path d="M 107.40779381753099 80.34994680014964 l 2.7382374449042075 -7.263500144787192 a28.762498222737257,28.762498222737257 0 0,0 0.4605118905935681,0.17813589220374684 l -2.8625215979913015 7.215424364445406" fill="#ff5207" stroke="none" /><path d="M 108.4095320186766 80.7573450057729 l 8.86659278354015 -20.28849947048739 a43.14135674147123,43.14135674147123 0 0,0 0.6760591564877154,0.30239266157164324 l -9.213565342883498 20.133303058005893" fill="#efff19" stroke="none" /><path d="M 110.02825361518725 81.54914285379988 l 7.202671570052298 -13.252104435090152 a36.08299538236937,36.08299538236937 0 0,0 0.5416844763346924,0.3004632478549612 l -7.429100234543091 13.126508271802045" fill="#ffb510" stroke="none" /><path d="M 110.34350942703115 81.72400993836675 l 14.457073276869382 -25.544263230222207 a50.35159879304112,50.35159879304112 0 0,0 0.748578495164703,0.4321919956929063 l -14.893444239894482 25.292324337253127" fill="#9bff22" stroke="none" /><line stroke="#e1ed5e" stroke-width="0.3" x1="143.13028292997686" x2="145.6673583964461" y1="26.7553504044142" y2="22.446841604673864" /><path d="M 143.63769802327073 25.89364864446614 a86.0,86.0 0 0,1 29.32050498858742,28.57503671076993" fill="none" id="id86" stroke="none" /><text fill="#e1ed5e" style="font-size:6.75px; font-family:Arial;" text-anchor="middle"><textPath startOffset="20.669276256404974" xlink:href="#id86">February</textPath></text><path d="M 110.65571695917076 81.90426304109057 l 3.8525182798679096 -6.542418280159085 a28.592439268724917,28.592439268724917 0 0,0 0.42080887562303715,0.2526836389905853 l -3.964259912048381 6.475320640632578" fill="#ff4f07" stroke="none" /><path d="M 112.45986205192187 83.09580414077388 l 4.372278097081533 -5.931834959013086 a28.369089614001766,28.369089614001766 0 0,0 0.38953058083428715,0.2923110098243826 l -4.473461666826586 5.855904921924688" fill="#ff4c07" stroke="none" /><path d="M 113.03279911837588 83.53348406188908 l 13.63243470651754 -17.22413591517872 a42.96620436151893,42.96620436151893 0 0,0 0.5744156559645204,0.4627085916942196 l -13.92610113283732 16.98757902969109" fill="#f1ff19" stroke="none" /><path d="M 114.39649973595853 84.71141617570332 l 10.171080847460042 -10.801335392080844 a35.8364325852877,35.8364325852877 0 0,0 0.4442480671611083,0.4255795990425043 l -10.355001400486463 10.62514366273276" fill="#ffb210" stroke="none" /><path d="M 114.91283532996326 85.21462403516908 l 10.59213157975769 -10.501601084604868 a35.91565877670424,35.91565877670424 0 0,0 0.43032637112297506,0.44155276645633695 l -10.770844752031476 10.318225626080789" fill="#ffb310" stroke="none" /><path d="M 115.16444852881244 85.47280134310134 l 31.728200328302563 -30.39489819358597 a64.93778023832513,64.93778023832513 0 0,0 0.7642377883818494,0.8115940474188594 l -32.245293950420674 29.845762686222617" fill="#35ff64" stroke="none" /><path d="M 115.8921839302757 86.27271002978787 l 18.90989462022988 -16.33391659050264 a45.98761584732918,45.98761584732918 0 0,0 0.5109124185013514,0.6018535443235928 l -19.187501602238346 16.006896263729494" fill="#cdff1d" stroke="none" /><path d="M 116.35404254752997 86.82634096563983 l 11.593322590049322 -9.338760030297347 a35.88682530227406,35.88682530227406 0 0,0 0.38233750084859897,0.483070942341475 l -11.75192652153948 9.138369144041194" fill="#ffb310" stroke="none" /><path d="M 116.57777611688842 87.10902102172516 l 5.817233553391652 -4.5235159963399365 a28.36901643259458,28.36901643259458 0 0,0 0.2956430071750716,0.38700618666019565 l -5.894028537921031 4.422988896438859" fill="#ff4c07" stroke="none" /><path d="M 116.7966241395341 87.39550010848427 l 12.07408619990562 -9.060619379977583 a36.09564112953063,36.09564112953063 0 0,0 0.3676564161635046,0.49879653898498505 l -12.22784463565295 8.852016531723722" fill="#ffb610" stroke="none" /><path d="M 117.42321728460499 88.27688183743584 l 12.331305174425621 -8.297052450018148 a35.862777891873655,35.862777891873655 0 0,0 0.3392884533109257,0.5137259623110833 l -12.471918066657272 8.084146609368005" fill="#ffb310" stroke="none" /><path d="M 117.62189284568427 88.57770195909679 l 12.631705017638055 -8.187718580502576 a36.05319591336436,36.05319591336436 0 0,0 0.33217407474198896,0.5222328181417251 l -12.770396784005934 7.969672087682179" fill="#ffb510" stroke="none" /><line stroke="#e1ed5e" stroke-width="0.3" x1="172.87174338648825" x2="177.1583165268699" y1="56.24261187166439" y2="53.66864786411523" /><path d="M 173.72905801456457 55.72781907015455 a86.0,86.0 0 0,1 12.242430191666344,42.057860355516425" fill="none" id="id87" stroke="none" /><text fill="#e1ed5e" style="font-size:6.75px; font-family:Arial;" text-anchor="middle"><textPath startOffset="22.145653131862474" xlink:href="#id87">March</textPath></text><path d="M 118.36410011445183 89.81374322990088 l 55.092300343355504 -30.558770310297362 a84.0,84.0 0 0,0 0.6886186015386349,1.2669806661015868 l -55.60876429450948 29.60853481072117" fill="#4dd2ff" stroke="none" /><path d="M 119.31412917781788 91.75594674310238 l 13.654025869083249 -5.828091724946078 a35.84584371425146,35.84584371425146 0 0,0 0.23670914780719207,0.5680157837976954 l -13.752060861426925 5.592843431707105" fill="#ffb210" stroke="none" /><path d="M 119.4528033332814 92.08871423366111 l 14.199066087205473 -5.774636565559983 a36.32840191321753,36.32840191321753 0 0,0 0.22997837555744377,0.5796957393988553 l -14.296103137729041 5.530039808947562" fill="#ffb911" stroke="none" /><path d="M 119.83427380445688 93.10060997987247 l 7.34179793173042 -2.5538584310856653 a28.773299798437495,28.773299798437495 0 0,0 0.15827312362802204,0.467906366715207 l -7.384556476930807 2.427450389896297" fill="#ff5207" stroke="none" /><path d="M 119.94978838288452 93.4421083053983 l 14.15646081153284 -4.653509851791338 a35.901695764213684,35.901695764213684 0 0,0 0.1874329818660957,0.5871311461153211 l -14.234258509176193 4.409809671984629" fill="#ffb310" stroke="none" /><path d="M 120.16314734710363 94.1308016681162 l 29.693364685968586 -8.643305704351672 a51.9257601341148,51.9257601341148 0 0,0 0.24177995838510943,0.8579917767547929 l -29.837363136428277 8.132306003693866" fill="#89ff24" stroke="none" /><path d="M 120.51834098615036 95.52812308129327 l 14.51311682857792 -3.163066263886498 a35.853805851352995,35.853805851352995 0 0,0 0.12590198662559438,0.6024865830356941 l -14.56527652602788 2.9134632295653997" fill="#ffb210" stroke="none" /><path d="M 120.77682067341334 96.94652285012252 l 14.991714710891218 -2.2032657944516965 a36.152751899696405,36.152751899696405 0 0,0 0.08496840704137973,0.6147890663868167 l -15.027327634487811 1.9455884198647941" fill="#ffb610" stroke="none" /><path d="M 120.9064616781168 98.02013634271609 l 15.325171395187992 -1.4513096646449282 a36.39373827355071,36.39373827355071 0 0,0 0.053561838405810934,0.6224697521513441 l -15.347826856291542 1.188018865117922" fill="#ffba11" stroke="none" /><path d="M 120.98066250479742 99.09900007780936 l 25.27231408515838 -1.0853019068915728 a46.295607117600426,46.295607117600426 0 0,0 0.027282029940535746,0.7942865344129606 l -25.287220802095767 0.6513091079144923" fill="#c9ff1d" stroke="none" /><line stroke="#e1ed5e" stroke-width="0.3" x1="184.99686870605535" x2="189.99668451229388" y1="99.2704041080226" y2="99.22748670261217" /><path d="M 185.99683186730306 99.26182062694052 a86.0,86.0 0 0,1 -10.086455211305974,41.156179273409016" fill="none" id="id88" stroke="none" /><text fill="#e1ed5e" style="font-size:6.75px; font-family:Arial;" text-anchor="middle"><textPath startOffset="21.40746469413373" xlink:href="#id88">April</textPath></text><path d="M 120.99922638620191 100.18025310272382 l 22.13743830415695 0.19002328311025368 a43.13825384980666,43.13825384980666 0 0,0 -0.012712573079216022,0.7404436495177098 l -22.130914299479066 -0.5700138485970345" fill="#efff19" stroke="none" /><path d="M 120.96210409425399 101.26102812881392 l 22.01311374098096 1.3242542592738213 a43.05290969274961,43.05290969274961 0 0,0 -0.050712306957940816,0.737345813346981 l -21.987137472857953 -1.701943496775146" fill="#f0ff19" stroke="none" /><path d="M 120.93736805541906 101.62068470465957 l 15.095739188340882 1.1685056853046978 a36.14089651173272,36.14089651173272 0 0,0 -0.05318972303016738,0.6181452074280437 l -15.073455842612974 -1.4274719401083988" fill="#ffb610" stroke="none" /><path d="M 120.592083275326 104.11899336999214 l 14.836500195639 2.967715559549502 a36.13040229794265,36.13040229794265 0 0,0 -0.12687326544223493,0.6071345037801815 l -14.783369219372402 -3.2219665146150924" fill="#ffb610" stroke="none" /><path d="M 120.51834098615036 104.47187691870673 l 15.891978905009477 3.463582835759256 a37.26503610747398,37.26503610747398 0 0,0 -0.14158786309704233,0.6238622495195559 l -15.830180180354771 -3.735879419217829" fill="#ffc512" stroke="none" /><path d="M 120.26092885502905 105.52220625578681 l 10.193171854801646 2.7781943160480496 a31.564994847099648,31.564994847099648 0 0,0 -0.14697489494321547,0.5215620520945689 l -10.14397846778385 -2.952764292045627" fill="#ff790b" stroke="none" /><path d="M 120.05942366710727 106.21446072829308 l 14.402376810473323 4.461893151473198 a36.077697048489306,36.077697048489306 0 0,0 -0.18835183666729616,0.590009445692962 l -14.32366025802877 -4.708471630857544" fill="#ffb510" stroke="none" /><path d="M 119.83427380445688 106.89939002012753 l 14.003187927072883 4.871035662132853 a35.82620182456349,35.82620182456349 0 0,0 -0.2070410362571617,0.579130626908636 l -13.917506720771778 -5.110701245422411" fill="#ffb210" stroke="none" /><path d="M 119.58574465831526 107.57618678355244 l 13.881275241054542 5.369575466995674 a35.883619956639436,35.883619956639436 0 0,0 -0.22716266590703177,0.5725983117221393 l -13.787053900181386 -5.607074795931378" fill="#ffb310" stroke="none" /><path d="M 119.0197475246899 108.90220220490707 l 17.37975864023798 8.134604599090325 a40.18926268454492,40.18926268454492 0 0,0 -0.29782299433394765,0.6223355131540698 l -17.23755638794412 -8.431752614309499" fill="#ffea16" stroke="none" /><path d="M 118.70294669586154 109.54985784667822 l 13.249705690053078 6.765394133231892 a35.877004357430074,35.877004357430074 0 0,0 -0.28478129217781806,0.5461056775718403 l -13.13161632890031 -6.991846053908235" fill="#ffb310" stroke="none" /><path d="M 118.5362547648365 109.86951160357373 l 13.31138609674521 7.087563329713202 a36.08066821362094,36.08066821362094 0 0,0 -0.2957835629505174,0.5442084410319501 l -13.187757184179354 -7.315026604219756" fill="#ffb510" stroke="none" /><line stroke="#e1ed5e" stroke-width="0.3" x1="174.33088141563837" x2="178.70328620479359" y1="141.23008692659167" y2="143.65538615756765" /><path d="M 175.20536237346943 141.71514677278685 a86.0,86.0 0 0,1 -30.301960400862466,31.631185727798858" fill="none" id="id89" stroke="none" /><text fill="#e1ed5e" style="font-size:6.75px; font-family:Arial;" text-anchor="middle"><textPath startOffset="22.145653131862474" xlink:href="#id89">May</textPath></text><path d="M 117.21940702142032 112.02048342749411 l 1.7559636938434404 1.2257990333156892 a23.141492882120783,23.141492882120783 0 0,0 -0.23018611716911508,0.3237856007955715 l -1.7346624781443647 -1.2557618608207648" fill="#ff0000" stroke="none" /><path d="M 116.35404254752997 113.17365903436017 l 8.057336289686068 6.490419766061599 a31.346314166154784,31.346314166154784 0 0,0 -0.3411571337057116,0.41615623174696015 l -7.94473233674173 -6.627778279507052" fill="#ff760a" stroke="none" /><path d="M 115.6541949942343 113.99807769240083 l 6.2565690031347225 5.5946625825220515 a29.393146317279268,29.393146317279268 0 0,0 -0.3395640417172849,0.3732403647120848 l -6.159607260575558 -5.7012405227918075" fill="#ff5a08" stroke="none" /><path d="M 115.41159269507618 114.26474011684316 l 11.982612749543827 11.090927470956576 a37.3276354831785,37.3276354831785 0 0,0 -0.4393003500041404,0.46652174822090536 l -11.790456565803428 -11.294990679121979" fill="#ffc612" stroke="none" /><path d="M 114.91283532996324 114.78537596483092 l 42.24792780082631 41.88683657058719 a80.49281033330762,80.49281033330762 0 0,0 -0.9812766579415718,0.9728897283555432 l -41.522659222754775 -42.6059063091714" fill="#49f3ff" stroke="none" /><path d="M 114.65682725009322 115.03919595460226 l 24.756326795091642 25.402172205119353 a56.470354792754904,56.470354792754904 0 0,0 -0.7000374802619878,0.6706200706025341 l -24.316616828964342 -25.823404406027468" fill="#59ff2a" stroke="none" /><path d="M 113.59037401385872 116.0094264158162 l 6.9454101765823095 8.18167572402848 a31.73212654482466,31.73212654482466 0 0,0 -0.41829843139190914,0.3489594287663799 l -6.803937411028505 -8.29969733670673" fill="#ff7b0b" stroke="none" /><path d="M 113.03279911837588 116.46651593811092 l 9.568442151073226 12.089414081537257 a36.41781495651398,36.41781495651398 0 0,0 -0.4935308559399161,0.3837725786735759 l -9.35950135049808 -12.251887711831625" fill="#ffba11" stroke="none" /><path d="M 112.45986205192187 116.90419585922612 l 18.530057788333217 25.139582190514535 a52.230780239254415,52.230780239254415 0 0,0 -0.7263037939450666,0.5257879358647959 l -18.095772984014182 -25.453970897752406" fill="#86ff25" stroke="none" /><path d="M 111.5731344415666 117.5232005979908 l 4.900618711521979 7.420161337436462 a29.89240451336455,29.89240451336455 0 0,0 -0.43061342150848514,0.27911841729803877 l -4.772519657756485 -7.503193596438396" fill="#ff6109" stroke="none" /><path d="M 111.27062007382361 117.71928675628689 l 8.114647872773237 12.757574263186255 a36.11962999480528,36.11962999480528 0 0,0 -0.526032309869258,0.32828306653984013 l -7.894451434114264 -12.894993126567641" fill="#ffb610" stroke="none" /><path d="M 110.96478420261333 117.91015095944535 l 4.3601807618046236 7.122027594102406 a29.350715737394445,29.350715737394445 0 0,0 -0.4319688002867984,0.25938485310049286 l -4.237279204960389 -7.195826447738821" fill="#ff5a08" stroke="none" /><line stroke="#e1ed5e" stroke-width="0.3" x1="143.1302829299769" x2="145.66735839644613" y1="173.24464959558577" y2="177.55315839532614" /><path d="M 143.63769802327073 174.10635135553383 a86.0,86.0 0 0,1 -40.68552437913181,11.842963189579606" fill="none" id="id90" stroke="none" /><text fill="#e1ed5e" style="font-size:6.75px; font-family:Arial;" text-anchor="middle"><textPath startOffset="21.407464694133747" xlink:href="#id90">June</textPath></text><path d="M 110.65571695917076 118.09573695890943 l 5.294027521674674 8.990416116768483 a31.43332685929562,31.43332685929562 0 0,0 -0.467320066937054,0.2698073664438231 l -5.1389149868772215 -9.079970380488477" fill="#ff770a" stroke="none" /><path d="M 110.34350942703117 118.27599006163325 l 5.812545106123869 10.27021025520595 a32.80097026929828,32.80097026929828 0 0,0 -0.4924141195959733,0.2731338115217296 l -5.635386798371801 -10.368476982160823" fill="#ff8a0c" stroke="none" /><path d="M 109.71004243097381 118.62028667847754 l 7.287140536577269 13.974052824382493 a36.75996730765835,36.75996730765835 0 0,0 -0.5620297539613215,0.2869763969931945 l -7.046183560902365 -14.097087173048525" fill="#ffbe11" stroke="none" /><path d="M 109.3889696526874 118.78422872680471 l 14.165009741063345 28.33950824597577 a52.68241197554486,52.68241197554486 0 0,0 -0.8124123410682579,0.39739158651805645 l -13.676437150733019 -28.57849358259105" fill="#81ff25" stroke="none" /><path d="M 109.06512990194946 118.94263497670748 l 8.250699214986884 17.240788077233542 a40.11331502017019,40.11331502017019 0 0,0 -0.6236880989577712,0.2919175221705108 l -7.953522402157606 -17.379881830974586" fill="#ffe915" stroke="none" /><path d="M 108.73861861582097 119.09545874513695 l 6.402413598409125 13.990429164214026 a36.38580540901205,36.38580540901205 0 0,0 -0.5701943279242427,0.25504067030145977 l -6.161305867629255 -14.098273585425336" fill="#ffb911" stroke="none" /><path d="M 108.4095320186766 119.2426549942271 l 6.1561480502916 14.086471489978013 a36.3729254813478,36.3729254813478 0 0,0 -0.5742850620502187,0.2451281438885782 l -5.913427913070951 -14.190074283525995" fill="#ffb911" stroke="none" /><path d="M 107.407793817531 119.65005319985036 l 5.294593472075016 14.044538220224192 a36.009389523024495,36.009389523024495 0 0,0 -0.580284193185891,0.2130883935114514 l -5.052720127234998 -14.133357462744364" fill="#ffb410" stroke="none" /><path d="M 107.06938296918513 119.77432235084164 l 4.161365057885039 11.640078693265755 a33.36156912088453,33.36156912088453 0 0,0 -0.54092484386582,0.18816173993566074 l -3.960934441974197 -11.709798865770008" fill="#ff910d" stroke="none" /><path d="M 106.38641147887787 120.00534299687104 l 7.124082115126664 22.31608575838661 a44.425631892410784,44.425631892410784 0 0,0 -0.7284944039404172,0.22568942852992124 l -6.739947078314623 -22.435091774723176" fill="#e0ff1b" stroke="none" /><path d="M 106.0420521117495 120.11202640906438 l 13.758024914722213 45.79599038601122 a68.81794626486743,68.81794626486743 0 0,0 -1.1343163365735458,0.3301829538731359 l -12.969848565767062 -46.02541703418687" fill="#3aff91" stroke="none" /><path d="M 105.69591212413111 120.21278271476187 l 2.1221817221038957 7.530874264790155 a28.82417551271126,28.82417551271126 0 0,0 -0.4774087783830332,0.13011988549083564 l -1.9925915427861673 -7.566194644425133" fill="#ff5207" stroke="none" /><path d="M 105.3480935250658 120.30758222061773 l 2.806395667852891 10.656341461008154 a32.019685566210356,32.019685566210356 0 0,0 -0.5327385071152878,0.13542004525097734 l -2.623051867512206 -10.7029467380944" fill="#ff7f0b" stroke="none" /><path d="M 104.64783097203109 120.47920084513623 l 3.6393550132102956 16.03566969426974 a37.443467014468084,37.443467014468084 0 0,0 -0.6280474445036828,0.13688001738661493 l -3.363545152087477 -16.095781169790072" fill="#ffc712" stroke="none" /><path d="M 104.29559338865022 120.5559693870025 l 4.700588727287815 22.494018692346362 a43.97991321382074,43.97991321382074 0 0,0 -0.7403358993870981,0.14808791419353595 l -4.313756342369758 -22.57139600320276" fill="#e5ff1a" stroke="none" /><path d="M 103.94208987418118 120.62667999033965 l 3.0433417535520904 15.924050048401572 a37.21225767661345,37.21225767661345 0 0,0 -0.6284712040020394,0.11452838884648377 l -2.769535815998994 -15.97394661117942" fill="#ffc412" stroke="none" /><path d="M 103.2317021107853 120.74984581791261 l 1.6402616618011978 10.531656513086666 a31.658623139449844,31.658623139449844 0 0,0 -0.5377064792794932,0.07902433551452984 l -1.4592300769140192 -10.55826192190008" fill="#ff7a0b" stroke="none" /><path d="M 102.875027216393 120.80226474461374 l 2.0896882922923545 15.119943505969001 a36.26366564042327,36.26366564042327 0 0,0 -0.6173840345708942,0.07993272373418023 l -1.829826435830685 -15.153587825903577" fill="#ffb811" stroke="none" /><path d="M 101.80034050326958 120.92268563240118 l 1.5330950226551976 17.816888052765535 a38.882725749540235,38.882725749540235 0 0,0 -0.6655074858112414,0.051514488365292176 l -1.2270185420687205 -17.84058030812588" fill="#ffda14" stroke="none" /><path d="M 101.08105385017728 120.97215588758144 l 0.9058955659762553 17.574131967993342 a38.59746462434009,38.59746462434009 0 0,0 -0.6619910697051467,0.028428744905399615 l -0.6040787356702791 -17.587093281324574" fill="#ffd614" stroke="none" /><path d="M 100.72087961077811 120.9876233191556 l 0.3115659131476476 9.070901613063258 a30.076250844490204,30.076250844490204 0 0,0 -0.5161466841439436,0.013294107685214418 l -0.1558059149329601 -9.074913438098516" fill="#ff6409" stroke="none" /><line stroke="#e1ed5e" stroke-width="0.3" x1="101.45913802915013" x2="101.54496967792366" y1="184.9874750549273" y2="189.98673829345242" /><path d="M 101.47630435890484 185.9873277026323 a86.0,86.0 0 0,1 -42.54439059252881,-10.42667462771756" fill="none" id="id91" stroke="none" /><text fill="#e1ed5e" style="font-size:6.75px; font-family:Arial;" text-anchor="middle"><textPath startOffset="22.145653131862474" xlink:href="#id91">July</textPath></text><path d="M 100.36049292484886 120.99690560180557 l 0.20889429557166675 12.167045460636844 a33.16883856692684,33.16883856692684 0 0,0 -0.5693872204205175,0.00488750448442864 l -1.4902529200327815e-15 -12.168838566926837" fill="#ff8f0d" stroke="none" /><path d="M 99.63950707515114 120.99690560180557 l -0.2358075739530636 13.734609001159322 a34.73663312557558,34.73663312557558 0 0,0 -0.5961247663079333,-0.015354059379966561 l 0.47154565433174084 -13.728537224429308" fill="#ffa40f" stroke="none" /><path d="M 99.27912038922189 120.98762331915562 l -0.5101301474396659 14.851882641891741 a35.86064099478391,35.86064099478391 0 0,0 -0.6150513854601274,-0.026412952894892677 l 0.765007293500632 -14.84093712057102" fill="#ffb310" stroke="none" /><path d="M 98.91894614982273 120.97215588758144 l -0.4846630713383234 9.402334105183197 a30.4148173066826,30.4148173066826 0 0,0 -0.5211877993652168,-0.031353363786334014 l 0.6459952228359864 -9.392628763572171" fill="#ff6909" stroke="none" /><path d="M 97.48249496171623 120.84855314841334 l -1.7844047207051934 14.777430865943117 a35.88477622287293,35.88477622287293 0 0,0 -0.6109334931506178,-0.07909757200298732 l 2.0378160357466055 -14.744621697739733" fill="#ffb310" stroke="none" /><path d="M 97.12497278360702 120.80226474461374 l -1.646817405255878 11.915550383258738 a33.02881326242249,33.02881326242249 0 0,0 -0.560978499156097,-0.08244452102037261 l 1.85112101001966 -11.885524788939483" fill="#ff8d0d" stroke="none" /><path d="M 96.76829788921471 120.74984581791261 l -1.3987338286512714 8.980874563887292 a30.08914540843589,30.08914540843589 0 0,0 -0.5096850445565839,-0.08386848012387808 l 1.552696376260919 -8.955540085267746" fill="#ff6409" stroke="none" /><path d="M 96.05791012581884 120.62667999033965 l -3.3161027377438885 17.351250775514124 a38.66528915251749,38.66528915251749 0 0,0 -0.6508721715893645,-0.13019266305616328 l 3.613471394864211 -17.2917687157951" fill="#ffd714" stroke="none" /><path d="M 95.70440661134978 120.55596938700252 l -3.0226348472354214 14.464401950153439 a35.77684828355913,35.77684828355913 0 0,0 -0.6000928847802222,-0.13078745120476196 l 3.2704901486347797 -14.410383040814958" fill="#ffb110" stroke="none" /><path d="M 94.6519064749342 120.30758222061772 l -2.9829345953904065 11.326688523808182 a32.71288912761258,32.71288912761258 0 0,0 -0.541816727035469,-0.14767455830547924 l 3.176932723360571 -11.273813471358558" fill="#ff880c" stroke="none" /><path d="M 93.95794788825049 120.11202640906438 l -4.340675025190151 14.448695430816542 a36.086625180165655,36.086625180165655 0 0,0 -0.5917508289924006,-0.18332591946488433 l 4.588066487054186 -14.37205292354501" fill="#ffb510" stroke="none" /><path d="M 92.93061703081489 119.77432235084164 l -3.817141810654415 10.67722500701593 a32.33903459087644,32.33903459087644 0 0,0 -0.52113714907549,-0.19136877964218404 l 3.999868111384024 -10.610125378365025" fill="#ff830c" stroke="none" /><path d="M 92.25597844496254 119.51999308798841 l -4.868143393992457 12.270901459494906 a34.201281859467535,34.201281859467535 0 0,0 -0.5438745475494041,-0.22118904370662873 l 5.078072402732302 -12.185525159208986" fill="#ff9c0e" stroke="none" /><path d="M 91.92203290615298 119.3841803445677 l -5.6393844184847435 13.532469658550394 a35.66050448241927,35.66050448241927 0 0,0 -0.5630367851475165,-0.24032692334270403 l 5.870856278802691 -13.433668085548286" fill="#ffb010" stroke="none" /><path d="M 90.93487009805054 118.94263497670748 l -5.160119309237192 10.782664734911265 a32.953773047496824,32.953773047496824 0 0,0 -0.5081781737893194,-0.2485754099333924 l 5.344457732288581 -10.69249557488065" fill="#ff8c0c" stroke="none" /><path d="M 90.6110303473126 118.78422872680471 l -6.555163690738461 13.114718511549576 a35.66171929377851,35.66171929377851 0 0,0 -0.5452384424820862,-0.2784026337090659 l 6.779329354934131 -13.000257926167674" fill="#ffb010" stroke="none" /><path d="M 90.28995756902619 118.62028667847754 l -4.7850964540506515 9.176053389259362 a31.34877306143614,31.34877306143614 0 0,0 -0.47502524759609155,-0.252924188441444 l 4.941910517433305 -9.092558733095345" fill="#ff760a" stroke="none" /><line stroke="#e1ed5e" stroke-width="0.3" x1="58.13341422392154" x2="55.67067388415222" y1="173.97424548756322" y2="178.32567169271397" /><path d="M 57.64086615596768 174.84453072859336 a86.0,86.0 0 0,1 -31.369924170532247,-30.572349798747897" fill="none" id="id92" stroke="none" /><text fill="#e1ed5e" style="font-size:6.75px; font-family:Arial;" text-anchor="middle"><textPath startOffset="22.145653131862474" xlink:href="#id92">August</textPath></text><path d="M 89.65649057296885 118.27599006163327 l -8.44374109340066 14.919281448394058 a38.14297881316949,38.14297881316949 0 0,0 -0.567072632557748,-0.327399537057288 l 8.698606193818808 -14.772135014060598" fill="#ffd013" stroke="none" /><path d="M 87.54013794807813 116.9041958592261 l -9.78386029974127 13.273685541375858 a37.48983475405936,37.48983475405936 0 0,0 -0.5147657998839187,-0.38628985294260504 l 10.010279088535954 -13.103776661169238" fill="#ffc812" stroke="none" /><path d="M 87.2517909369889 116.68781488649013 l -6.999379169848143 9.162412016421053 a32.53000879106174,32.53000879106174 0 0,0 -0.44084366680308423,-0.3428027017251579 l 7.155632781286456 -9.040908263075101" fill="#ff860c" stroke="none" /><path d="M 86.68645165197938 116.24036423190432 l -9.292560880115804 11.335413324477335 a35.65753331728763,35.65753331728763 0 0,0 -0.47004382870012584,-0.39212727958972055 l 9.485779042977823 -11.174223860975744" fill="#ffb010" stroke="none" /><path d="M 86.40962598614128 116.0094264158162 l -9.691625104658256 11.416710004042736 a35.975608985468725,35.975608985468725 0 0,0 -0.4673754456792102,-0.4037077783609792 l 9.886180030100329 -11.248658093217033" fill="#ffb410" stroke="none" /><path d="M 85.86807049272751 115.53346607816431 l -7.465593919413439 8.205995496997089 a32.09384760424982,32.09384760424982 0 0,0 -0.4043369809557647,-0.3742482731720333 l 7.6053606716831705 -8.076629477692679" fill="#ff800b" stroke="none" /><path d="M 85.60350026404147 115.28858382429668 l -10.222674995207235 10.856126589048392 a35.91169234443491,35.91169234443491 0 0,0 -0.44518102839982665,-0.42647335480475923 l 10.407528509472376 -10.67904110393805" fill="#ffb310" stroke="none" /><path d="M 85.08716467003676 114.78537596483092 l -10.406842449013004 10.317895612128257 a35.654737787533236,35.654737787533236 0 0,0 -0.4272001251833499,-0.43834496271505 l 10.582429375347163 -10.13772795734547" fill="#ffb010" stroke="none" /><path d="M 84.58840730492382 114.26474011684316 l -5.640875111479258 5.221109789809592 a28.686316377859534,28.686316377859534 0 0,0 -0.3313983956021886,-0.3642648892209345 l 5.729671207923327 -5.1235073250309835" fill="#ff5107" stroke="none" /><path d="M 84.1078160697243 113.72728997021213 l -11.517810065024468 9.948810011140845 a36.21968361470616,36.21968361470616 0 0,0 -0.4023928140649199,-0.4740177231661358 l 11.686897442596502 -9.749625505525154" fill="#ffb711" stroke="none" /><path d="M 83.20337586046588 112.60449989151573 l -11.73708622469105 8.807728315931255 a35.67430649581402,35.67430649581402 0 0,0 -0.36336486248581235,-0.4929742222044501 l 11.886553106760692 -8.604947784457925" fill="#ffb010" stroke="none" /><path d="M 82.98947788004972 112.3143062007846 l -12.247335491716417 8.866126408421708 a36.11970317621247,36.11970317621247 0 0,0 -0.3592790780519147,-0.5053710170316326 l 12.397729668298291 -8.654578164680572" fill="#ffb610" stroke="none" /><path d="M 82.576782715395 111.72311816256416 l -11.112522067863278 7.477000783361146 a34.393792869203686,34.393792869203686 0 0,0 -0.32539076647301673,-0.49268309310928515 l 11.239237273257022 -7.2851378119128" fill="#ff9f0e" stroke="none" /><path d="M 82.18462484594161 111.11811171558189 l -13.700867548093946 8.55035466179327 a37.14999493538198,37.14999493538198 0 0,0 -0.3329913889123028,-0.5439164085138403 l 13.845626901461653 -8.313901137154872" fill="#ffc312" stroke="none" /><line stroke="#e1ed5e" stroke-width="0.3" x1="26.387840678322732" x2="22.057713659400548" y1="142.50000000000003" y2="145.00000000000006" /><path d="M 25.521815274538298 143.00000000000003 a86.0,86.0 0 0,1 -11.493303480769221,-40.785679425670985" fill="none" id="id93" stroke="none" /><text fill="#e1ed5e" style="font-size:6.75px; font-family:Arial;" text-anchor="middle"><textPath startOffset="21.40746469413373" xlink:href="#id93">September</textPath></text><path d="M 81.63589988554817 110.18625677009913 l -12.890164161252118 7.149956770923593 a35.74036003393759,35.74036003393759 0 0,0 -0.29299377077451294,-0.5390755376489418 l 13.01100328164196 -6.927626399800063" fill="#ffb110" stroke="none" /><path d="M 81.4637452351635 109.86951160357371 l -6.95966738309217 3.705630876672275 a28.884711172733212,28.884711172733212 0 0,0 -0.2292784896420837,-0.43967173539073867 l 7.022253941709203 -3.5856128981770334" fill="#ff5307" stroke="none" /><path d="M 81.29705330413844 109.54985784667822 l -6.770020618080399 3.45682076589858 a28.601499126934197,28.601499126934197 0 0,0 -0.2195234338835087,-0.43919392068554836 l 6.828363965175645 -3.340094989049279" fill="#ff4f07" stroke="none" /><path d="M 80.9802524753101 108.90220220490708 l -16.028271385207148 7.502040323143905 a38.69706451951643,38.69706451951643 0 0,0 -0.27643623059208,-0.6040630526403111 l 16.154692080654282 -7.225788288288904" fill="#ffd714" stroke="none" /><path d="M 80.5471966667186 107.91128576633889 l -6.956252751639506 2.829047435386692 a28.50952473438634,28.50952473438634 0 0,0 -0.1804806663940652,-0.4549291780103601 l 7.003792092999696 -2.7092172401627668" fill="#ff4e07" stroke="none" /><path d="M 80.41425534168474 107.57618678355246 l -9.775476922387787 3.7813644747417556 a31.48134849868924,31.48134849868924 0 0,0 -0.1906410267227497,-0.5056979728985864 l 9.838948632924971 -3.612998221649024" fill="#ff780b" stroke="none" /><path d="M 80.28708602549918 107.23885506374661 l -2.815936910116825 1.0340510381853032 a23.99979369812832,23.99979369812832 0 0,0 -0.1386957562945379,-0.3879567149801913 l 2.833272836455306 -0.9855593668241903" fill="#ff0d01" stroke="none" /><path d="M 80.05021161711548 106.5578916946017 l -9.808343613207166 3.224197364120138 a31.32468174219143,31.32468174219143 0 0,0 -0.16353763742819968,-0.5122793200014487 l 9.86224596641262 -3.055349010427298" fill="#ff750a" stroke="none" /><path d="M 79.64726062577567 105.17358676015961 l -14.907613275911263 3.7894569989683973 a36.381707250209786,36.381707250209786 0 0,0 -0.14866687089050468,-0.6066115659273442 l 14.97046767331806 -3.5329896084329535" fill="#ffb911" stroke="none" /><path d="M 79.48165901384964 104.47187691870673 l -10.05755612702847 2.1919975466542074 a31.29365282554575,31.29365282554575 0 0,0 -0.10988883790586977,-0.5258578695867128 l 10.093702675758706 -2.0190232257820853" fill="#ff750a" stroke="none" /><path d="M 79.407916724674 104.11899336999214 l -14.426779943757417 2.885760034288304 a35.712565735489406,35.712565735489406 0 0,0 -0.11508579692560801,-0.6021775201436161 l 14.474192032965183 -2.6376799491113734" fill="#ffb110" stroke="none" /><path d="M 79.2786578344484 103.40968896794605 l -21.874473776148363 3.5994363356517014 a43.16863877006913,43.16863877006913 0 0,0 -0.11404436501836045,-0.7322466333252771 l 21.93303963330499 -3.223401520394974" fill="#efff19" stroke="none" /><path d="M 79.22317932658666 103.0534771498775 l -14.64052797217187 2.1516534376394945 a35.79779280229497,35.79779280229497 0 0,0 -0.08413416047683815,-0.608752873825255 l 14.675306649203922 -1.9000122556141539" fill="#ffb210" stroke="none" /><path d="M 79.17382384314188 102.69636545807758 l -14.667033023869436 1.8989410691708548 a35.78945012187608,35.78945012187608 0 0,0 -0.07365454134197114,-0.6099652618120984 l 14.697469651471069 -1.6468821304353571" fill="#ffb210" stroke="none" /><path d="M 79.0935383218832 101.97986365728391 l -14.785909983596175 1.4002410482992058 a35.85206413386204,35.85206413386204 0 0,0 -0.05276463910409214,-0.6132050878581504 l 14.807768245398007 -1.1462149130653934" fill="#ffb210" stroke="none" /><line stroke="#e1ed5e" stroke-width="0.3" x1="15.003131293944662" x2="10.003315487706104" y1="100.72959589197737" y2="100.7725132973878" /><path d="M 14.003168132696942 100.73817937305945 a86.0,86.0 0 0,1 10.791469493833604,-42.45332614584628" fill="none" id="id94" stroke="none" /><text fill="#e1ed5e" style="font-size:6.75px; font-family:Arial;" text-anchor="middle"><textPath startOffset="22.145653131862435" xlink:href="#id94">October</textPath></text><path d="M 79.00077361379809 100.18025310272382 l -14.77131313479687 0.1267939577813108 a35.77185731158924,35.77185731158924 0 0,0 0.0,-0.6140941210102513 l 14.77131313479687 0.12679395778130537" fill="#ffb110" stroke="none" /><path d="M 79.00077361379809 99.81974689727619 l -15.329842330705295 -0.13158825918426004 a36.33040708377436,36.33040708377436 0 0,0 0.010706343299345042,-0.6235908227355359 l 15.325324555807285 0.3947259978888483" fill="#ffb911" stroke="none" /><path d="M 79.01933749520258 99.09900007780938 l -15.111790425379949 -0.648965302898084 a36.12571868788292,36.12571868788292 0 0,0 0.031925519932675256,-0.6193465577226615 l 15.098423315990704 0.9082836539974574" fill="#ffb610" stroke="none" /><path d="M 79.06263194458094 98.37931529534042 l -10.370952326320923 -0.8027773005438366 a31.401975944458332,31.401975944458332 0 0,0 0.04621530078932492,-0.537091849050696 l 10.355643402833854 0.9806901969702132" fill="#ff760a" stroke="none" /><path d="M 79.0935383218832 98.0201363427161 l -14.81988976180775 -1.4034589686244785 a35.886195942172286,35.886195942172286 0 0,0 0.0633435917385978,-0.6127917893967747 l 14.793613777587488 1.657655280304166" fill="#ffb310" stroke="none" /><path d="M 79.22317932658666 96.9465228501225 l -10.211364067127711 -1.500718870233771 a31.32105194439514,31.32105194439514 0 0,0 0.08274501078737415,-0.5312823265205946 l 10.18409756420207 1.6757893786858156" fill="#ff750a" stroke="none" /><path d="M 79.34024301695615 96.23510406497455 l -30.929475852203787 -5.636380815321356 a52.43884961615771,52.43884961615771 0 0,0 0.1689872086658887,-0.8842124829373906 l 30.828162351255738 6.166495863292061" fill="#84ff25" stroke="none" /><path d="M 79.407916724674 95.88100663000787 l -24.52910815795597 -4.906508609330642 a46.01501496617857,46.01501496617857 0 0,0 0.16158345428842996,-0.7732353226390526 l 24.441266992843172 5.326860383255104" fill="#cdff1d" stroke="none" /><path d="M 79.56144815229197 95.17655741523228 l -14.430569016617394 -3.405574995519429 a35.82697754747963,35.82697754747963 0 0,0 0.14640007432353694,-0.5973622623878923 l 14.36998141577756 3.652793082515439" fill="#ffb210" stroke="none" /><path d="M 79.73907114497095 94.47779374421319 l -7.72367504278914 -2.1051219785695015 a29.005416585741195,29.005416585741195 0 0,0 0.13505682722660486,-0.4792690342449673 l 7.686399723487954 2.237398936717482" fill="#ff5507" stroke="none" /><path d="M 79.94057633289273 93.78553927170692 l -22.910309276124842 -7.097672377446629 a44.98456220791326,44.98456220791326 0 0,0 0.23485215539524884,-0.735671031811112 l 22.785092404952337 7.489912442949132" fill="#d9ff1c" stroke="none" /><path d="M 80.16572619554312 93.10060997987247 l -15.359511061544731 -5.342835254611015 a37.26224057771958,37.26224057771958 0 0,0 0.21533996096636793,-0.6023441963361988 l 15.26553093053442 5.6057144073281355" fill="#ffc512" stroke="none" /><path d="M 80.41425534168474 92.42381321644754 l -13.71926999317758 -5.3069083568477655 a35.709916568549374,35.709916568549374 0 0,0 0.22606302978437387,-0.5698265103575582 l 13.626148288427075 5.541635884418906" fill="#ffb110" stroke="none" /><path d="M 80.83023694016515 91.42560881287825 l -6.907799845838918 -3.0897710073768856 a28.56732340977964,28.56732340977964 0 0,0 0.2040734432846211,-0.44593730296964323 l 6.85374193769925 3.2078972925612" fill="#ff4f07" stroke="none" /><path d="M 80.9802524753101 91.09779779509293 l -28.038044840488354 -13.123220709226961 a51.957242775485014,51.957242775485014 0 0,0 0.3850297464323021,-0.8045640846550856 l 27.808635836096148 13.602597295947135" fill="#89ff24" stroke="none" /><path d="M 81.46374523516351 90.13048839642627 l -13.012450224796723 -6.928396815530586 a35.74199929745849,35.74199929745849 0 0,0 0.29300720919535,-0.5391002628296914 l 12.891597665986021 7.150751911834897" fill="#ffb110" stroke="none" /><path d="M 81.63589988554816 89.8137432299009 l -15.427352347905998 -8.557292288713521 a38.641724739404495,38.641724739404495 0 0,0 0.32673719198793205,-0.5773133108896227 l 15.278181790896697 8.82086236970225" fill="#ffd714" stroke="none" /><line stroke="#e1ed5e" stroke-width="0.3" x1="26.387840678322718" x2="22.05771365940052" y1="57.49999999999999" y2="54.99999999999999" /><path d="M 25.521815274538284 56.99999999999999 a86.0,86.0 0 0,1 29.574782752854787,-30.34633250058573" fill="none" id="id95" stroke="none" /><text fill="#e1ed5e" style="font-size:6.75px; font-family:Arial;" text-anchor="middle"><textPath startOffset="21.40746469413373" xlink:href="#id95">November</textPath></text><path d="M 82.18462484594161 88.88188828441811 l -17.03265492413647 -10.629636402372704 a41.07736296955746,41.07736296955746 0 0,0 0.3784639528224365,-0.5950081950285753 l 16.84767327968814 10.92045827207995" fill="#fff517" stroke="none" /><path d="M 82.37810715431573 88.57770195909679 l -12.440230877300593 -8.063607356060762 a35.82501628576712,35.82501628576712 0 0,0 0.3389312005356573,-0.5131850360756945 l 12.299975237844206 8.275972270475519" fill="#ffb210" stroke="none" /><path d="M 82.78059297857968 87.97951657250589 l -9.69396034600312 -6.767137192410949 a32.82230996763291,32.82230996763291 0 0,0 0.3264802373146528,-0.45923534002331695 l 9.576365010158495 6.932549759143787" fill="#ff8a0c" stroke="none" /><path d="M 83.2033758604659 87.39550010848427 l -12.938319575048586 -9.709156216471678 a37.176149970309254,37.176149970309254 0 0,0 0.3874250909800918,-0.5071518806054344 l 12.769742506714188 9.929829010317997" fill="#ffc412" stroke="none" /><path d="M 83.42222388311158 87.10902102172516 l -11.588504727096106 -9.01129136823414 a35.6798097376342,35.6798097376342 0 0,0 0.3801319612681365,-0.4802843151308514 l 11.432106335186408 9.208895627279674" fill="#ffb010" stroke="none" /><path d="M 84.10781606972428 86.27271002978789 l -12.237027999123518 -10.570053332793183 a37.17006127723161,37.17006127723161 0 0,0 0.4212411112362986,-0.47929505842266396 l 12.053775823928627 10.778560669027147" fill="#ffc412" stroke="none" /><path d="M 84.34580500576568 86.00192230759919 l -10.967434396156415 -9.807147465599572 a35.712741370866645,35.712741370866645 0 0,0 0.41257110313390777,-0.45348791416369694 l 10.797465592180641 9.993972955320928" fill="#ffb110" stroke="none" /><path d="M 84.83555147118756 85.47280134310135 l -10.75108053178132 -10.299291950165875 a35.88828893041772,35.88828893041772 0 0,0 0.4299984370955547,-0.44121627725479623 l 10.572695293534963 10.482330919488401" fill="#ffb310" stroke="none" /><path d="M 85.34317274990677 84.96080404539775 l -10.249375125318368 -10.516761799243312 a35.68509343523283,35.68509343523283 0 0,0 0.4423719840789833,-0.4237823538885456 l 10.067330655374084 10.691156283437426" fill="#ffb010" stroke="none" /><path d="M 85.60350026404147 84.71141617570332 l -10.098646356486293 -10.724412472806485 a35.73077326959658,35.73077326959658 0 0,0 0.4501570883364978,-0.41665868050915406 l 9.913059496835842 10.896188899448005" fill="#ffb110" stroke="none" /><path d="M 85.86807049272753 84.46653392183569 l -9.959608098247179 -10.947353966513822 a35.799944335666154,35.799944335666154 0 0,0 0.45812843241758605,-0.40966126922790463 l 9.7702146390062 11.116710765625127" fill="#ffb210" stroke="none" /><path d="M 86.40962598614128 83.9905735841838 l -9.571813452063202 -11.275572178547877 a35.79047466157665,35.79047466157665 0 0,0 0.4717962847072515,-0.39358924071912577 l 9.37684283319404 11.438223603178885" fill="#ffb210" stroke="none" /><path d="M 87.25179093698888 83.31218511350988 l -27.571993122103134 -36.09262406970257 a66.41907437368332,66.41907437368332 0 0,0 0.9119876940460013,-0.6843725676762984 l 26.94835243914638 36.560615664642874" fill="#37ff75" stroke="none" /><path d="M 87.54013794807813 83.09580414077388 l -8.747552207803093 -11.867734585929945 a35.743228745099174,35.743228745099174 0 0,0 0.49703340686266706,-0.35981385644521624 l 8.542537790566458 12.01614921374824" fill="#ffb110" stroke="none" /><path d="M 88.12776184653039 82.6780497279521 l -8.481548018169635 -12.3748320326429 a36.00243728934209,36.00243728934209 0 0,0 0.5127839347998849,-0.3450239161532653 l 8.26786779527276 12.518605622853274" fill="#ffb410" stroke="none" /><path d="M 88.4268655584334 82.4767994020092 l -8.409492005163326 -12.733042727336475 a36.25942111880664,36.25942111880664 0 0,0 0.5223331359277158,-0.3385700280584305 l 8.189673236978583 12.875526597098812" fill="#ffb811" stroke="none" /><path d="M 88.72937992617638 82.28071324371311 l -8.298067646011093 -13.04594061193071 a36.46138716635086,36.46138716635086 0 0,0 0.5310095290265248,-0.33138921940751437 l 8.072893988194869 13.18646562817976" fill="#ffba11" stroke="none" /><path d="M 89.03521579738668 82.08984904055464 l -16.137893708365535 -26.360036562819257 a51.90765505397768,51.90765505397768 0 0,0 0.7639502791000213,-0.45873019252518926 l 15.683010672708079 26.63318075588037" fill="#89ff24" stroke="none" /><line stroke="#e1ed5e" stroke-width="0.3" x1="56.869717070023135" x2="54.33264160355391" y1="26.7553504044142" y2="22.446841604673864" /><path d="M 56.362301976729285 25.89364864446614 a86.0,86.0 0 0,1 42.16139366436587,-11.88097634709845" fill="none" id="id96" stroke="none" /><text fill="#e1ed5e" style="font-size:6.75px; font-family:Arial;" text-anchor="middle"><textPath startOffset="22.145653131862474" xlink:href="#id96">December</textPath></text><path d="M 89.97174638481275 81.54914285379989 l -7.734630970391235 -14.230849815877836 a37.19696276251216,37.19696276251216 0 0,0 0.5636423604667693,-0.30010780966634343 l 7.489199794137904 14.361528093266754" fill="#ffc412" stroke="none" /><path d="M 90.28995756902619 81.37971332152246 l -6.694315174223528 -12.837232025115181 a35.47785832637142,35.47785832637142 0 0,0 0.542427359071428,-0.27696727448982544 l 6.4729605934385175 12.95025725127784" fill="#ffad10" stroke="none" /><path d="M 90.61103034731259 81.2157712731953 l -7.443352386529117 -14.891690877150788 a37.648301773173884,37.648301773173884 0 0,0 0.5805722219967445,-0.28398696662366085 l 7.186619915270319 15.017271593871662" fill="#ffca12" stroke="none" /><path d="M 90.93487009805054 81.0573650232925 l -4.477374369349699 -9.35599039947769 a31.372147202890456,31.372147202890456 0 0,0 0.4877790538965562,-0.22830522663187483 l 4.3161066015816205 9.431471857680108" fill="#ff760a" stroke="none" /><path d="M 91.26138138417902 80.90454125486306 l -8.062932470442563 -17.61896257555077 a40.37624117989802,40.37624117989802 0 0,0 0.6327276102558796,-0.28301101209716273 l 7.759291457331065 17.75477733855778" fill="#ffed16" stroke="none" /><path d="M 91.5904679813234 80.7573450057729 l -5.889318920409066 -13.475914222660839 a35.70660876894469,35.70660876894469 0 0,0 0.5637647167806652,-0.24063763407140468 l 5.657119128457969 13.575026506391646" fill="#ffb010" stroke="none" /><path d="M 91.92203290615298 80.6158196554323 l -5.6325382574284175 -13.516041364272622 a35.64270676419231,35.64270676419231 0 0,0 0.5667963292856819,-0.2305111327897528 l 5.399687466952296 13.610739753641665" fill="#ffb010" stroke="none" /><path d="M 93.95794788825049 79.88797359093562 l -17.876761492721627 -59.50592490769774 a83.1331932270362,83.1331932270362 0 0,0 1.3702724987753498,-0.3988663538281373 l 16.852628981564653 59.8040349558284" fill="#4cdaff" stroke="none" /><path d="M 97.48249496171623 79.15144685158666 l -0.8900319017590878 -7.370740922233694 a28.42428303129934,28.42428303129934 0 0,0 0.48492381585010275,-0.05433672502029167 l 0.7633721843081858 7.384933407760957" fill="#ff4d07" stroke="none" /><path d="M 98.5590905019552 79.04949213459386 l -1.511164168283619 -21.97199535189775 a43.023900582942176,43.023900582942176 0 0,0 0.737256838955346,-0.04435154066131856 l 1.1337629771957893 21.994698870383765" fill="#f1ff19" stroke="none" /><path d="M 98.9189461498227 79.02784411241856 l -0.7547248584136954 -14.641460626858704 a35.66089966201806,35.66089966201806 0 0,0 0.6116255910503727,-0.02626583454265032 l 0.5032735067625026 14.652259029827183" fill="#ffb010" stroke="none" /><path d="M 99.27912038922189 79.0123766808444 l -0.7560964936484653 -22.012924438936164 a43.025905753499,43.025905753499 0 0,0 0.7383792182670484,-0.01901802945115707 l 0.37810396131067286 22.022660185737365" fill="#f1ff19" stroke="none" /><path d="M 99.63950707515114 79.00309439819443 l -0.252506735938014 -14.707251468342736 a35.709418934980526,35.709418934980526 0 0,0 0.6129996607868625,-0.005261864832224931 l 3.602768563208274e-15 14.709418934980526" fill="#ffb110" stroke="none" /></svg>