<?xml version="1.0" encoding="utf-8" ?>
<svg baseProfile="full" height="200mm" version="1.1" viewBox="0,0,200,200" width="200mm" xmlns="http://www.w3.org/2000/svg" xmlns:ev="http://www.w3.org/2001/xml-events" xmlns:xlink="http://www.w3.org/1999/xlink"><defs /><rect fill="#1a1a1a" height="200" width="200" x="0" y="0" /><text alignment-baseline="middle" fill="#e1ed5e" style="dominant-baseline: central; font-size:9.0px; font-family:Arial;" text-anchor="middle" x="100.0" y="100.0">2022</text><line stroke="#e1ed5e" stroke-width="0.3" x1="100.0" x2="100.0" y1="15.0" y2="10.0" /><path d="M 100.0 14.0 a86.0,86.0 0 0,1 42.46469731375804,11.215312516191453" fill="none" id="id61" stroke="none" /><text fill="#e1ed5e" style="font-size:6.75px; font-family:Arial;" text-anchor="middle"><textPath startOffset="22.20632615414155" xlink:href="#id61">January</textPath></text><path d="M 100.0 79.0 l 0.0 -42.95996356515529 a63.95996356515529,63.95996356515529 0 0,0 1.100965632561228,0.009476358786709604 l -0.7394851532886996 42.95359858297714" fill="red" stroke="none" /><path d="M 102.52436894288641 79.15227682838746 l 5.563505593962476 -45.94670078377159 a67.28230663447414,67.28230663447414 0 0,0 1.1485579028798956,0.1491157796263408 l -6.353578225350218 45.84412668098111" fill="red" stroke="none" /><path d="M 102.88285421437855 79.19881850522331 l 5.732013307063107 -41.3592364594812 a62.75454965705686,62.75454965705686 0 0,0 1.0687130274568475,0.15750051956767958 l -6.443095314948611 41.25444145575255" fill="red" stroke="none" /><path d="M 105.01212808612495 79.60689891045804 l 10.271077519606761 -41.79045677936826 a64.03414122812279,64.03414122812279 0 0,0 1.0681233568047233,0.2722884264081399 l -10.988909765096508 41.60746535679125" fill="red" stroke="none" /><path d="M 109.73455568895987 81.39251694778311 l 29.203667066879603 -55.82244915665069 a84.0,84.0 0 0,0 1.2754198138867554,0.6812850939929835 l -30.16023192729467 55.311485336155954" fill="red" stroke="none" /><path d="M 110.05341064243156 81.56283822128135 l 10.11594555238964 -18.551845868797354 a42.13062563102487,42.13062563102487 0 0,0 0.6337166547221451,0.35266263224240957 l -10.43378629618382 18.374967838994763" fill="red" stroke="none" /><path d="M 110.36928655335952 81.73862282372117 l 10.407729284097176 -18.32907876809751 a42.077854666407035,42.077854666407035 0 0,0 0.6267662109762454,0.363063444357079 l -10.72169222753875 18.14721116635038" fill="red" stroke="none" /><line stroke="#e1ed5e" stroke-width="0.3" x1="143.23703022742887" x2="145.7803849466894" y1="26.81831364943548" y2="22.513508569990506" /><path d="M 143.74570117128098 25.957352633546492 a86.0,86.0 0 0,1 28.547481713284135,27.462654790039103" fill="none" id="id62" stroke="none" /><text fill="#e1ed5e" style="font-size:6.75px; font-family:Arial;" text-anchor="middle"><textPath startOffset="19.985693538727396" xlink:href="#id62">February</textPath></text><path d="M 112.19680574252982 82.90503203632743 l 13.505718710459044 -18.929532334568634 a44.25363696911782,44.25363696911782 0 0,0 0.6162944476189349,0.4477641259687257 l -13.829558474431769 18.694248973783235" fill="red" stroke="none" /><path d="M 113.06298171725822 83.55741782278167 l 26.19493200018418 -32.97197618141322 a63.11087360530477,63.11087360530477 0 0,0 0.8447739087655776,0.683081750800957 l -26.758609307514252 32.51618833334813" fill="red" stroke="none" /><path d="M 113.34407831869373 83.78471172551755 l 26.563186908313085 -32.27871741458871 a62.80333116698774,62.80333116698774 0 0,0 0.8288318993710101,0.6941228797938346 l -27.114876344643214 31.816693377401062" fill="red" stroke="none" /><path d="M 113.89432698308785 84.25364557470405 l 33.20033297944662 -37.62573104609819 a71.1792561393595,71.1792561393595 0 0,0 0.9117351339323035,0.8185648053675979 l -33.84307910097491 37.048667231961296" fill="red" stroke="none" /><path d="M 114.68862486808459 84.99185889309783 l 29.256327177757665 -29.892729271582322 a62.827119710017286,62.827119710017286 0 0,0 0.7663837546813532,0.7630926592828032 l -29.766546732606344 29.384700761649405" fill="red" stroke="none" /><path d="M 115.19652480421416 85.50635884689758 l 30.210762924409085 -28.81342691365935 a62.74809896251133,62.74809896251133 0 0,0 0.7387324070363853,0.7880282251988875 l -30.702262653415932 28.289129271582407" fill="red" stroke="none" /><path d="M 115.92442197804982 86.31012108654704 l 32.03469527044028 -27.53953015602008 a63.245087552096614,63.245087552096614 0 0,0 0.702590841665811,0.8316459479730989 l -32.50399672559321 26.984025258417876" fill="red" stroke="none" /><path d="M 116.60985879189232 87.15038557335679 l 33.01555885096325 -25.541288859247008 a62.74188020241677,62.74188020241677 0 0,0 0.6534837502783363,0.8599080148620918 l -33.4503185414657 24.969196068503884" fill="red" stroke="none" /><line stroke="#e1ed5e" stroke-width="0.3" x1="172.23445277983987" x2="176.4835382374775" y1="55.19839476539836" y2="52.563006222186495" /><path d="M 173.08426987136738 54.67131705675599 a86.0,86.0 0 0,1 12.851231095245387,41.99856678651699" fill="none" id="id63" stroke="none" /><text fill="#e1ed5e" style="font-size:6.75px; font-family:Arial;" text-anchor="middle"><textPath startOffset="22.20632615414155" xlink:href="#id63">March</textPath></text><path d="M 118.73160827565052 90.50648371742162 l 37.30186044048341 -18.9052543834439 a62.8191037161729,62.8191037161729 0 0,0 0.4805361908211679,0.9687316379796467 l -37.621756644257985 18.260363156965305" fill="red" stroke="none" /><path d="M 120.78858239683441 97.02765380044208 l 20.772693074479466 -2.970074348307369 a41.98394908497923,41.98394908497923 0 0,0 0.09613124987418564,0.7162894707066226 l -20.82074032341149 2.6120665355360817" fill="red" stroke="none" /><line stroke="#e1ed5e" stroke-width="0.3" x1="184.98032266829074" x2="189.97916517819016" y1="98.17113171792111" y2="98.06355123074" /><path d="M 185.9800911702706 98.14961562048488 a86.0,86.0 0 0,1 -9.607161424134198,41.387399972396054" fill="none" id="id64" stroke="none" /><text fill="#e1ed5e" style="font-size:6.75px; font-family:Arial;" text-anchor="middle"><textPath startOffset="21.466115282336823" xlink:href="#id64">April</textPath></text><path d="M 120.99513854157772 99.54816195383933 l 41.957496283871315 -0.9029706141330969 a62.96721161026859,62.96721161026859 0 0,0 0.013993691828686773,1.0838268537212554 l -41.96682298281772 0.18060750235137882" fill="red" stroke="none" /><path d="M 120.99824983174949 100.27111621757518 l 41.81164689698914 0.5398457322934169 a62.81513182632786,62.81513182632786 0 0,0 -0.023265340846579583,1.0810489697391128 l -41.79615949345755 -1.2594845178226446" fill="red" stroke="none" /><path d="M 120.92983693683757 101.71520430193887 l 34.524246462736116 2.829268867826649 a55.63998204598553,55.63998204598553 0 0,0 -0.08644175606602655,0.9538775751132464 l -34.47043011039301 -3.423127831488466" fill="red" stroke="none" /><path d="M 120.70491114924044 103.5080841355445 l 26.19779793139026 4.438757483520145 a47.57117205641222,47.57117205641222 0 0,0 -0.14374095757494895,0.8061756257390951 l -26.11751053147612 -4.889051859992458" fill="red" stroke="none" /><path d="M 120.41448212921028 104.9243191809786 l 36.67059761879471 8.845569830732929 a58.72236518764333,58.72236518764333 0 0,0 -0.24548377434803237,0.980585651240287 l -36.51290253015162 -9.475483321370612" fill="red" stroke="none" /><path d="M 119.26925614724726 108.34839909993367 l 19.3224483192819 8.37144459155743 a42.057969835690145,42.057969835690145 0 0,0 -0.29352240178683775,0.6618155283782938 l -19.17548483276379 -8.70280845642841" fill="red" stroke="none" /><line stroke="#e1ed5e" stroke-width="0.3" x1="174.80103733775053" x2="179.2010983576182" y1="140.37084112569926" y2="142.7455964860345" /><path d="M 175.68104954172406 140.8457921977663 a86.0,86.0 0 0,1 -30.038265399797805,32.042727171017184" fill="none" id="id65" stroke="none" /><text fill="#e1ed5e" style="font-size:6.75px; font-family:Arial;" text-anchor="middle"><textPath startOffset="22.206326154141568" xlink:href="#id65">May</textPath></text><path d="M 115.56566222782051 114.09645910891815 l 15.480497826507849 14.019333158022615 a41.88510270868081,41.88510270868081 0 0,0 -0.48856696952188,0.5302429522676193 l -15.236884448990248 -14.283727365091568" fill="red" stroke="none" /><path d="M 114.81725581225074 114.88116024355365 l 24.44489099413227 24.55031786109303 a55.644924632559274,55.644924632559274 0 0,0 -0.6845651870889061,0.669991117439231 l -24.018675854667567 -24.967459081454834" fill="red" stroke="none" /><path d="M 114.0293411484842 115.62618273729858 l 13.949435716941624 15.537182344352685 a41.88039252559088,41.88039252559088 0 0,0 -0.5405714598731045,0.4769914621721021 l -13.679921904161931 -15.774996948297074" fill="red" stroke="none" /><path d="M 113.75828350139079 115.86535959552629 l 23.289124431479372 26.855845333687597 a56.5474295184881,56.5474295184881 0 0,0 -0.7408642891124874,0.6313806198891635 l -22.823394665789838 -27.252750343799708" fill="red" stroke="none" /><path d="M 113.48314897796784 116.09983520530334 l 27.88420072640703 33.29571135499054 a64.4296332564,64.4296332564 0 0,0 -0.8563921547034107,0.7047524404398546 l -27.306938443158927 -33.770758914287576" fill="red" stroke="none" /><line stroke="#e1ed5e" stroke-width="0.3" x1="143.8653032363475" x2="146.44561519142675" y1="172.8068346515853" y2="177.08958963109032" /><path d="M 144.38136562736335 173.6633856474863 a86.0,86.0 0 0,1 -40.68145358897372,12.25698825130547" fill="none" id="id66" stroke="none" /><text fill="#e1ed5e" style="font-size:6.75px; font-family:Arial;" text-anchor="middle"><textPath startOffset="21.466115282336833" xlink:href="#id66">June</textPath></text><path d="M 103.7750983002368 120.6578951692458 l 3.753088423365027 20.53745387396171 a41.87756413805742,41.87756413805742 0 0,0 -0.7102255971435404,0.12348182378601191 l -3.3990138547494366 -20.599014276268726" fill="red" stroke="none" /><path d="M 102.34483914955558 120.86867818915974 l 0.479492287351025 4.267401557505185 a25.294255337846923,25.294255337846923 0 0,0 -0.43309474822021393,0.04489204147061233 l -0.40596494252520837 -4.275022967431555" fill="red" stroke="none" /><line stroke="#e1ed5e" stroke-width="0.3" x1="102.19456741930631" x2="102.32365962044197" y1="184.97166512339345" y2="189.96999836594603" /><path d="M 102.22038585953345 185.97133177190398 a86.0,86.0 0 0,1 -42.740103519485714,-10.115201625700543" fill="none" id="id67" stroke="none" /><text fill="#e1ed5e" style="font-size:6.75px; font-family:Arial;" text-anchor="middle"><textPath startOffset="22.20632615414155" xlink:href="#id67">July</textPath></text><path d="M 100.18074693466247 120.99922214144158 l 0.2008896748338426 23.33941051689617 a44.34027506131105,44.34027506131105 0 0,0 -0.76327321899258,0.0 l 0.2008896748338265 -23.33941051689617" fill="red" stroke="none" /><path d="M 99.45781275523022 120.99299961872073 l -1.0253405537449853 39.70025864951355 a60.71349720295896,60.71349720295896 0 0,0 -1.044502424670836,-0.03597477542634331 l 1.7085633300904643 -39.67672707566111" fill="red" stroke="none" /><path d="M 97.2962882734958 120.8252237178851 l -5.438932500238963 41.89314452188392 a63.24473392830885,63.24473392830885 0 0,0 -1.0783871894154082,-0.14945463816651997 l 6.159248280841202 -41.7933153182248" fill="red" stroke="none" /><path d="M 94.81253420990036 120.34920634021253 l -7.526278554167693 29.523817885213088 a51.46802736302685,51.46802736302685 0 0,0 -0.8565984501436985,-0.2262354361851118 l 8.033367447122881 -29.389891099724395" fill="red" stroke="none" /><path d="M 93.76903079525671 120.05430185196036 l -6.462547954042932 20.799635360817874 a42.780481105827064,42.780481105827064 0 0,0 -0.7013526900703134,-0.22455098337254883 l 6.819621989204185 -20.68531153078562" fill="red" stroke="none" /><path d="M 91.7346041902142 119.30500536409082 l -9.105973484727903 21.268293861960462 a44.1356667702332,44.1356667702332 0 0,0 -0.6958288941818793,-0.3050309386830951 l 9.470723053567525 -21.108398369982915" fill="red" stroke="none" /><path d="M 90.7491055286396 118.85261126421891 l -6.937138380388195 14.137354347348802 a36.747656233584635,36.747656233584635 0 0,0 -0.5654695958904821,-0.2835381943357363 l 7.179461883961437 -14.015848312103763" fill="red" stroke="none" /><line stroke="#e1ed5e" stroke-width="0.3" x1="58.666819895761336" x2="56.23545636021788" y1="174.27360380694188" y2="178.64263932499728" /><path d="M 58.180547188652646 175.14741091055294 a86.0,86.0 0 0,1 -31.652253787137756,-30.449443065178592" fill="none" id="id68" stroke="none" /><text fill="#e1ed5e" style="font-size:6.75px; font-family:Arial;" text-anchor="middle"><textPath startOffset="22.20632615414155" xlink:href="#id68">August</textPath></text><path d="M 89.4739219176387 118.17145234162733 l -10.55816728305637 18.226848793805345 a42.06401940108405,42.06401940108405 0 0,0 -0.6234130624429919,-0.36832342583498834 l 10.870348216527743 -18.04240679567661" fill="red" stroke="none" /><path d="M 89.1626897886671 117.98757091392108 l -12.137463427136849 20.145541638407668 a44.51937215041893,44.51937215041893 0 0,0 -0.6529948870611111,-0.4011227933532748 l 12.482437514130268 -19.933630378226013" fill="red" stroke="none" /><path d="M 84.43433777217949 114.09645910891817 l -15.561168017378863 14.092389095526494 a41.993936755282675,41.993936755282675 0 0,0 -0.48061290797902695,-0.5399736970568928 l 15.801439775006228 -13.822441228728735" fill="red" stroke="none" /><path d="M 84.19399662182784 113.82643327865904 l -31.409437834639707 27.475667703612466 a62.73086508625755,62.73086508625755 0 0,0 -0.7039522970800718,-0.8188555575976952 l 31.877732641290557 -26.93093504685324" fill="red" stroke="none" /><path d="M 83.50135304334701 112.99209946851258 l -22.821306629543304 17.970969771729774 a50.04768133287169,50.04768133287169 0 0,0 -0.5271526630892263,-0.6814158779369235 l 23.127266109850602 -17.575475899679596" fill="red" stroke="none" /><path d="M 82.85270091963577 112.12312394758628 l -35.70904828646491 25.246262772828608 a64.7322525548341,64.7322525548341 0 0,0 -0.6354213247145379,-0.9153718102131055 l 36.13833051834158 -24.62784970042849" fill="red" stroke="none" /><path d="M 82.44556493220864 111.52570212397912 l -17.497241517346136 11.488150597923234 a41.9315805632758,41.9315805632758 0 0,0 -0.390952359295381,-0.6067667435396736 l 17.692398740018564 -11.185262254462112" fill="red" stroke="none" /><line stroke="#e1ed5e" stroke-width="0.3" x1="26.63291911575756" x2="22.317208475507996" y1="142.92168965132927" y2="145.44649492493687" /><path d="M 25.769776987707644 143.4266507060508 a86.0,86.0 0 0,1 -11.730757126820373,-40.83630448921669" fill="none" id="id69" stroke="none" /><text fill="#e1ed5e" style="font-size:6.75px; font-family:Arial;" text-anchor="middle"><textPath startOffset="21.46611528233685" xlink:href="#id69">September</textPath></text><path d="M 81.69416730710424 110.29060199501025 l -36.31281544985154 20.413205855295594 a62.657166720573436,62.657166720573436 0 0,0 -0.5204232377617722,-0.9447193436855416 l 36.65881509706483 -19.78511599321223" fill="red" stroke="none" /><path d="M 80.20201598880116 107.00284435728193 l -27.086797979483542 9.581007353080281 a49.73134745676109,49.73134745676109 0 0,0 -0.2785172595458696,-0.8095015272796007 l 27.24770606997264 -9.113333122711383" fill="red" stroke="none" /><path d="M 79.97269907076064 106.31721596034903 l -29.88997288165373 9.428200755035746 a52.34168866451283,52.34168866451283 0 0,0 -0.26363568297737205,-0.8615766658285863 l 30.047835337137233 -8.912297116655113" fill="red" stroke="none" /><path d="M 79.23777060512086 103.15116336523772 l -41.24279935330284 6.259578195106175 a62.715114978595544,62.715114978595544 0 0,0 -0.1528037320706165,-1.0687089462076294 l 41.34443713639006 -5.548723776918146" fill="red" stroke="none" /><path d="M 79.1416061653843 102.43462659150553 l -45.56744818752345 5.318708714775744 a66.87680238110832,66.87680238110832 0 0,0 -0.12361921673350468,-1.1445604169692807 l 45.65224970575801 -4.533551975921681" fill="red" stroke="none" /><path d="M 79.10278846688536 102.07522291339032 l -41.49791577037485 4.121000810474531 a62.70203425451878,62.70203425451878 0 0,0 -0.09741329437153937,-1.074947586071052 l 41.56270366102346 -3.4060718358549127" fill="red" stroke="none" /><line stroke="#e1ed5e" stroke-width="0.3" x1="15.007084014347285" x2="10.007500721073583" y1="101.09737516637583" y2="101.16192664675087" /><path d="M 14.007167355692545 101.11028546245083 a86.0,86.0 0 0,1 10.666146001902534,-42.60595125391555" fill="none" id="id70" stroke="none" /><text fill="#e1ed5e" style="font-size:6.75px; font-family:Arial;" text-anchor="middle"><textPath startOffset="22.20632615414155" xlink:href="#id70">October</textPath></text><path d="M 79.00175016825051 100.2711162175752 l -56.55711898185384 0.7302300095566332 a77.56183292109998,77.56183292109998 0 0,0 -0.005745864462212841,-1.3351365454346562 l 56.561309143605556 0.24341601408169827" fill="red" stroke="none" /><path d="M 79.01574976396665 99.18683210126434 l -30.639646887811686 -1.187327495503311 a51.66264352581764,51.66264352581764 0 0,0 0.0420838771355111,-0.888324132365117 l 30.61466940244268 1.7145627344914371" fill="red" stroke="none" /><path d="M 79.08570108090925 98.10471618934814 l -46.114608272139684 -4.178972043521797 a67.3035733333123,67.3035733333123 0 0,0 0.11448938530108671,-1.1528924856676774 l 46.03584176115636 4.9721400598939045" fill="red" stroke="none" /><path d="M 79.16333360222342 97.38593545837743 l -41.50727101915371 -5.20729579863435 a62.83263650538838,62.83263650538838 0 0,0 0.14386878823447036,-1.071989579980912 l 41.41148623186141 5.921003720679922" fill="red" stroke="none" /><path d="M 79.71946130924805 94.55025226153421 l -40.27583827825117 -10.822846568262179 a62.70464191017574,62.70464191017574 0 0,0 0.2890780420859064,-1.0399675238322408 l 40.0835734655989 11.514525395513362" fill="red" stroke="none" /><path d="M 79.81627453868168 94.20196356495316 l -41.29529997009017 -11.862609520806128 a63.96537331692638,63.96537331692638 0 0,0 0.3131077698108669,-1.0556437455920824 l 41.0849863031676 12.57168265314475" fill="red" stroke="none" /><path d="M 79.91906864156998 93.8553929516997 l -20.478258912455253 -6.266186154636051 a42.415512532043344,42.415512532043344 0 0,0 0.21964068528670194,-0.6963209945885844 l 20.36736274340035 6.61775731565105" fill="red" stroke="none" /><line stroke="#e1ed5e" stroke-width="0.3" x1="26.266209847984257" x2="21.92892807433627" y1="57.711370442889674" y2="55.22380399835377" /><path d="M 25.39875349325466 57.213857153982495 a86.0,86.0 0 0,1 29.58750427330802,-30.492523968695096" fill="none" id="id71" stroke="none" /><text fill="#e1ed5e" style="font-size:6.75px; font-family:Arial;" text-anchor="middle"><textPath startOffset="21.46611528233685" xlink:href="#id71">November</textPath></text><path d="M 82.34701348167596 88.62581576622439 l -20.774935607531773 -13.38572058612353 a45.7138719165343,45.7138719165343 0 0,0 0.4318945713836897,-0.6578050628007283 l 20.541444400790162 13.741343712901925" fill="red" stroke="none" /><path d="M 82.95767976084542 87.72973835380427 l -34.00468364192932 -24.482955350408503 a62.9014750608829,62.9014750608829 0 0,0 0.640209378502481,-0.8732448727956116 l 33.57821165091321 25.064662666875616" fill="red" stroke="none" /><path d="M 83.17141714833178 87.43820079747576 l -33.418811496628216 -24.94567744104711 a62.70256328860298,62.70256328860298 0 0,0 0.6530742476589453,-0.8593691574163516 l 32.98446130874516 25.51723137434449" fill="red" stroke="none" /><path d="M 84.80347519578584 85.50635884689758 l -15.183722502318155 -14.481430995056089 a41.98230856440668,41.98230856440668 0 0,0 0.5032593979954187,-0.5186530473842753 l 14.932198840619618 14.740648237990488" fill="red" stroke="none" /><path d="M 85.57189188830299 84.74124197986013 l -28.90522186334736 -30.569343015506213 a63.071327330725055,63.071327330725055 0 0,0 0.7952757255128579,-0.73912211458458 l 28.374738254039645 31.062369716165442" fill="red" stroke="none" /><path d="M 88.70189139769569 82.29822771554957 l -22.485759588544134 -35.230480595497546 a62.7946904195202,62.7946904195202 0 0,0 0.9161471655835828,-0.5736912710409395 l 21.87599327058831 35.61231620786141" fill="red" stroke="none" /><line stroke="#e1ed5e" stroke-width="0.3" x1="56.762969772571076" x2="54.21961505331055" y1="26.818313649435495" y2="22.513508569990535" /><path d="M 56.25429882871897 25.957352633546506 a86.0,86.0 0 0,1 42.265352541879196,-11.944610805530505" fill="none" id="id72" stroke="none" /><text fill="#e1ed5e" style="font-size:6.75px; font-family:Arial;" text-anchor="middle"><textPath startOffset="22.20632615414155" xlink:href="#id72">December</textPath></text><path d="M 90.26544431104013 81.39251694778311 l -19.8968305044816 -38.032545935800385 a63.922702786320855,63.922702786320855 0 0,0 0.9793552012609165,-0.5016637724482299 l 19.239214815631918 38.36940223356112" fill="red" stroke="none" /><path d="M 92.23578459929587 80.48803036053334 l -17.13394275392554 -43.05869345003433 a67.3424543579516,67.3424543579516 0 0,0 1.0807400394700248,-0.4193103450104619 l 16.390219549455836 43.34724649893534" fill="red" stroke="none" /><path d="M 93.59665428221793 80.00007090966166 l -14.330667885044992 -44.7597793638046 a67.99793496237817,67.99793496237817 0 0,0 1.1178038940227375,-0.34730711106340495 l 13.558078618311525 44.99982660975053" fill="red" stroke="none" /><path d="M 96.04723909329186 79.375362276772 l -8.101606667783708 -42.27240312348723 a64.04174829667227,64.04174829667227 0 0,0 1.084455149876054,-0.19817724697697892 l 7.37275639680476 42.405595851814944" fill="red" stroke="none" /><path d="M 97.11714578562143 79.19881850522333 l -5.777305023189271 -41.68603800312186 a63.084474782616546,63.084474782616546 0 0,0 1.0768978604469281,-0.1398122494615575 l 5.058892434234486 41.77930857574755" fill="red" stroke="none" /><path d="M 98.19473922651362 79.07773832637324 l -3.741139680299335 -43.35833609104982 a64.51943743537988,64.51943743537988 0 0,0 1.1073065823111425,-0.08594830219060332 l 2.9942429086258584 43.41630965542889" fill="red" stroke="none" /><path d="M 98.91598698831166 79.02799685794201 l -2.171703815179321 -42.01515917657138 a63.071247878967114,63.071247878967114 0 0,0 1.0847028278159223,-0.04670958549876878 l 1.4481601549740741 42.04631648859434" fill="red" stroke="none" /><path d="M 99.63851952072746 79.00311137660856 l -0.7365164621914123 -42.78115973800002 a63.787499167716646,63.787499167716646 0 0,0 1.0979969414639374,-0.009450806325185804 l 1.0479914779852845e-14 42.787499167716646" fill="red" stroke="none" /></svg>