<?xml version="1.0" encoding="utf-8" ?>
<svg baseProfile="full" height="200mm" version="1.1" viewBox="0,0,200,200" width="200mm" xmlns="http://www.w3.org/2000/svg" xmlns:ev="http://www.w3.org/2001/xml-events" xmlns:xlink="http://www.w3.org/1999/xlink"><defs /><rect fill="#1a1a1a" height="200" width="200" x="0" y="0" /><text alignment-baseline="middle" fill="#e1ed5e" style="dominant-baseline: central; font-size:9.0px; font-family:Arial;" text-anchor="middle" x="100.0" y="100.0">2023</text><line stroke="#e1ed5e" stroke-width="0.3" x1="100.0" x2="100.0" y1="15.0" y2="10.0" /><path d="M 100.0 14.0 a86.0,86.0 0 0,1 42.46469731375804,11.215312516191453" fill="none" id="id73" stroke="none" /><text fill="#e1ed5e" style="font-size:6.75px; font-family:Arial;" text-anchor="middle"><textPath startOffset="22.20632615414155" xlink:href="#id73">January</textPath></text><path d="M 100.36148047927253 79.00311137660856 l 0.5393934057969706 -31.33110614576827 a52.33574887510454,52.33574887510454 0 0,0 0.900606936694902,0.023260020125553248 l -1.0786269776867403 31.31717933350036" fill="#a3ff21" stroke="none" /><path d="M 101.80526077348638 79.07773832637324 l 0.8766865353534633 -10.160451812724677 a31.19820377909611,31.19820377909611 0 0,0 0.5346404580959465,0.05077055363119614 l -1.0514521205396539 10.143855714578303" fill="#ff3304" stroke="none" /><path d="M 107.76421540070413 80.48803036053334 l 2.725876008632144 -6.850300664836966 a28.372721289530894,28.372721289530894 0 0,0 0.4522289275847123,0.18447553435394481 l -2.8433888058052434 6.802364244299442" fill="#ff0601" stroke="none" /><path d="M 109.08828744355905 81.06846463323043 l 6.55033086609102 -13.64479515261479 a36.13562913169072,36.13562913169072 0 0,0 0.5584309494232629,0.274019641643009 l -6.784233082524715 13.53002035083695" fill="#ff7f0b" stroke="none" /><path d="M 109.41281617654863 81.2277094730956 l 3.4694332674550323 -6.919205478870177 a28.740308240383634,28.740308240383634 0 0,0 0.44032822665761434,0.22555322013514084 l -3.588021981701402 6.858459733422536" fill="#ff0c01" stroke="none" /><path d="M 109.73455568895987 81.39251694778311 l 6.830657545812822 -13.05671759249962 a35.73552702818799,35.73552702818799 0 0,0 0.5425928479932933,0.2898343082177126 l -7.054395440334427 12.937204557780152" fill="#ff790b" stroke="none" /><line stroke="#e1ed5e" stroke-width="0.3" x1="143.23703022742887" x2="145.7803849466894" y1="26.81831364943548" y2="22.513508569990506" /><path d="M 143.74570117128098 25.957352633546492 a86.0,86.0 0 0,1 28.547481713284135,27.462654790039103" fill="none" id="id74" stroke="none" /><text fill="#e1ed5e" style="font-size:6.75px; font-family:Arial;" text-anchor="middle"><textPath startOffset="19.985693538727396" xlink:href="#id74">February</textPath></text><path d="M 110.68208982089419 81.91981866633111 l 7.681929083956027 -13.002200239754526 a36.10196164495203,36.10196164495203 0 0,0 0.532311276630145,0.3207115880981358 l -7.90460242680381 12.868042042197775" fill="#ff7e0b" stroke="none" /><path d="M 110.99172775467656 82.1063720568725 l 7.743832616905205 -12.606322026289536 a35.79480647488022,35.79480647488022 0 0,0 0.5222306261164096,0.327020770164566 l -7.959682395393878 12.471156914802027" fill="#ff7a0b" stroke="none" /><path d="M 111.2981086023043 82.29822771554956 l 8.021824019786836 -12.568519838377185 a35.91031024265122,35.91031024265122 0 0,0 0.5181908627542775,0.3370457515519846 l -8.236981908325394 12.428575162665673" fill="#ff7b0b" stroke="none" /><path d="M 111.60114157652 82.49532879139004 l 17.273988132041275 -26.064286925417953 a52.26879784891668,52.26879784891668 0 0,0 0.7456898316451848,0.5034931030145114 l -17.720082658093002 25.763081910104773" fill="#a4ff21" stroke="none" /><path d="M 113.06298171725822 83.55741782278167 l 6.554937037349331 -8.250803165460624 a31.537691988229163,31.537691988229163 0 0,0 0.4221494302386235,0.341348814061257 l -6.695989866152446 8.136748254135238" fill="#ff3905" stroke="none" /><path d="M 114.42810811169701 84.74124197986012 l 5.342267360455001 -5.649830476802993 a28.77562891136111,28.77562891136111 0 0,0 0.3569777860476437,0.343412347344704 l -5.438728390115062 5.557035042695987" fill="#ff0d01" stroke="none" /><path d="M 115.19652480421416 85.50635884689758 l 5.508160482796415 -5.253391974802814 a28.611698834370856,28.611698834370856 0 0,0 0.33684509170457577,0.3593228579856241 l -5.597772896471453 5.157799699939135" fill="#ff0a01" stroke="none" /><path d="M 115.68641384162765 86.03803664274999 l 46.394601676600494 -41.294315904373285 a83.11022130648544,83.11022130648544 0 0,0 0.941948042418534,1.0768094446678576 l -47.09854158259688 40.48959090350248" fill="#4cdbff" stroke="none" /><path d="M 116.60985879189232 87.15038557335679 l 5.833787058012843 -4.5130976296557686 a28.375711603163634,28.375711603163634 0 0,0 0.29554527813684184,0.3889029425999856 l -5.9106082763737975 4.412009911174749" fill="#ff0601" stroke="none" /><path d="M 117.45458315368197 88.32363383020206 l 8.542605998062424 -5.714636367964362 a31.27780064294852,31.27780064294852 0 0,0 0.2955057564840498,0.4500755406098351 l -8.6397083899044 5.566742763376852" fill="#ff3505" stroke="none" /><line stroke="#e1ed5e" stroke-width="0.3" x1="172.23445277983987" x2="176.4835382374775" y1="55.19839476539836" y2="52.563006222186495" /><path d="M 173.08426987136738 54.67131705675599 a86.0,86.0 0 0,1 12.851231095245387,41.99856678651699" fill="none" id="id75" stroke="none" /><text fill="#e1ed5e" style="font-size:6.75px; font-family:Arial;" text-anchor="middle"><textPath startOffset="22.20632615414155" xlink:href="#id75">March</textPath></text><path d="M 118.56541770881063 90.18545643968196 l 55.696253126431905 -29.44363068095414 a84.0,84.0 0 0,0 0.6647622673595346,1.2841091109586207 l -56.19482482695156 28.480548847735175" fill="#4dd2ff" stroke="none" /><path d="M 119.47837535516314 92.15188598940014 l 20.48203597206693 -8.252503124465145 a43.082065242643196,43.082065242643196 0 0,0 0.2712250909283255,0.6902382724777164 l -20.621054612876957 7.898715847091644" fill="#ffe215" stroke="none" /><path d="M 119.7369772167798 92.82701384747503 l 8.964988889111652 -3.2581352480088595 a30.538682879528658,30.538682879528658 0 0,0 0.17530210177397113,0.4956026481499179 l -9.019744071695433 3.103334973432327" fill="#ff2904" stroke="none" /><path d="M 120.08093135843002 93.85539295169968 l 15.530029773549497 -4.752066958627693 a37.24081171452384,37.24081171452384 0 0,0 0.1822921824298327,0.6145986168552163 l -15.609527853091032 4.484038955025946" fill="#ff8f0d" stroke="none" /><path d="M 120.28053869075195 94.5502522615342 l 19.527294117715527 -5.247337291139328 a41.22003373406555,41.22003373406555 0 0,0 0.1782347744515722,0.6868112925022144 l -19.614725224037404 4.910429573088263" fill="#ffc812" stroke="none" /><path d="M 120.37134235888165 94.90015583598534 l 6.769538508622475 -1.694713625055685 a27.97844580767609,27.97844580767609 0 0,0 0.11293592877005325,0.46819233581115965 l -6.797707237653348 1.5779360575851193" fill="#ff0000" stroke="none" /><path d="M 120.45610955862082 95.25157060432595 l 14.689376919219203 -3.4098110868770273 a36.079940514573636,36.079940514573636 0 0,0 0.1352235159585494,0.6061805073752519 l -14.74589482217979 3.1564524099518114" fill="#ff7e0b" stroke="none" /><path d="M 120.91429891909075 98.10471618934814 l 14.690020234812659 -1.3312307353403334 a35.75021592282364,35.75021592282364 0 0,0 0.05026397993742314,0.6133478692290754 l -14.710758698569576 1.0781689489034894" fill="#ff790b" stroke="none" /><path d="M 120.94382443527127 98.46500227214037 l 15.333604426950384 -1.1238180509013802 a36.37473224917183,36.37473224917183 0 0,0 0.040392250401110226,0.6248502356719782 l -15.35067726835591 0.8597087509763668" fill="#ff820c" stroke="none" /><path d="M 120.98425023603335 99.18683210126433 l 10.348931651160655 -0.4010350100802135 a31.35669905904892,31.35669905904892 0 0,0 0.016258158105586267,0.5395291165830866 l -10.354301503721885 0.22283574607212792" fill="#ff3605" stroke="none" /><line stroke="#e1ed5e" stroke-width="0.3" x1="184.98032266829074" x2="189.97916517819016" y1="98.17113171792111" y2="98.06355123074" /><path d="M 185.9800911702706 98.14961562048488 a86.0,86.0 0 0,1 -9.607161424134198,41.387399972396054" fill="none" id="id76" stroke="none" /><text fill="#e1ed5e" style="font-size:6.75px; font-family:Arial;" text-anchor="middle"><textPath startOffset="21.466115282336823" xlink:href="#id76">April</textPath></text><path d="M 120.99980553446 99.90962569577887 l 43.93855370863218 -0.18909299961774614 a64.93896059499882,64.93896059499882 0 0,0 -0.004810748429261746,1.1178485119236419 l -43.93529866291341 -0.5672649905095805" fill="#33ff51" stroke="none" /><path d="M 120.9764740272857 100.99374915477107 l 14.946549042291577 0.7080847075729182 a35.9633122077542,35.9633122077542 0 0,0 -0.03461665589951321,0.6181036452399067 l -14.932146035504534 -0.9652600691482482" fill="#ff7c0b" stroke="none" /><path d="M 120.8583938346157 102.4346265915055 l 23.525801634083916 2.745970888217229 a44.68551664298674,44.68551664298674 0 0,0 -0.0957514670218692,0.7632334028730702 l -23.475048657815197 -3.150522045377694" fill="#fff817" stroke="none" /><path d="M 120.81339534386255 102.79330883721812 l 14.561190853164568 1.9542175804851594 a35.69174072103645,35.69174072103645 0 0,0 -0.08696198975529731,0.6082119538059098 l -14.525394812392669 -2.2045750062714786" fill="#ff780b" stroke="none" /><path d="M 120.76222939487914 103.15116336523771 l 10.265896555459765 1.5580945823122214 a31.38346237123395,31.38346237123395 0 0,0 -0.08565928596131663,0.5334004554492923 l -10.23755551513716 -1.7345742674547187" fill="#ff3605" stroke="none" /><path d="M 120.70491114924044 103.5080841355445 l 14.600399527250612 2.473781683242735 a35.80848615394859,35.80848615394859 0 0,0 -0.1081988495674257,0.6068366088961656 l -14.555654235343999 -2.7247370428721194" fill="#ff7a0b" stroke="none" /><path d="M 120.5718875245553 104.21870165774334 l 10.085656451040693 2.068277669642515 a31.295544597890906,31.295544597890906 0 0,0 -0.11276226026864179,0.5267877394856857 l -10.048560152047608 -2.24157922854437" fill="#ff3505" stroke="none" /><path d="M 120.41448212921028 104.9243191809786 l 7.281002919095561 1.756301340603757 a28.489832969224658,28.489832969224658 0 0,0 -0.11909928534864174,0.4757424420250149 l -7.249692319451859 -1.881371622026168" fill="#ff0801" stroke="none" /><path d="M 120.13307415673323 105.97154293290107 l 15.533027876178673 4.607152495364409 a37.20187671591431,37.20187671591431 0 0,0 -0.18737916995577186,0.6123659691016778 l -15.45142193371677 -4.873845437018144" fill="#ff8e0d" stroke="none" /><path d="M 119.9155931802556 106.66101706037122 l 15.42950984345409 5.1605908681799235 a37.26964880131064,37.26964880131064 0 0,0 -0.20872630602665518,0.6066563479315767 l -15.338392706484205 -5.425419919200801" fill="#ff8f0d" stroke="none" /><path d="M 119.79798401119884 107.00284435728193 l 13.870277948302718 4.90612567467782 a35.71239883563879,35.71239883563879 0 0,0 -0.20998165892888473,0.5777793418382836 l -13.783772028368606 -5.1441528135222345" fill="#ff780b" stroke="none" /><path d="M 119.54520255179757 107.68017299344265 l 13.645747807811878 5.362016766577198 a35.66143434454684,35.66143434454684 0 0,0 -0.22941745484666273,0.5693953085408836 l -13.551427738707822 -5.596111442960895" fill="#ff780b" stroke="none" /><path d="M 119.41010516605496 108.01547362559984 l 15.041999265702634 6.211648384130664 a37.27409959283375,37.27409959283375 0 0,0 -0.25000096926622817,0.5909284422528971 l -14.932847315244096 -6.469651352049724" fill="#ff900d" stroke="none" /><path d="M 119.26925614724726 108.34839909993367 l 13.47985286233071 5.840141967244353 a35.69059874163249,35.69059874163249 0 0,0 -0.24908454461262167,0.5616198917021163 l -13.377327232986815 -6.071310195439158" fill="#ff780b" stroke="none" /><path d="M 119.12269723197855 108.67885076344098 l 13.344583975351592 6.056449642919936 a35.65464103116946,35.65464103116946 0 0,0 -0.25845435201943057,0.5566876810712994 l -13.23835500649233 -6.285257391270066" fill="#ff780b" stroke="none" /><path d="M 118.97047184881838 109.00673069616215 l 13.244385979013343 6.2881207541724535 a35.66131721845413,35.66131721845413 0 0,0 -0.2680487041791714,0.5522597240127127 l -13.134184018219456 -6.515169434150442" fill="#ff780b" stroke="none" /><path d="M 118.81262510543309 109.33194174019688 l 10.695844430357655 5.305638980573789 a32.939467872170724,32.939467872170724 0 0,0 -0.2563338883905997,0.5057710801969458 l -10.602931872180786 -5.48896427247343" fill="#ff4e07" stroke="none" /><path d="M 118.64920377521936 109.65438752849418 l 11.748991667526239 6.08226066884795 a34.22999244321083,34.22999244321083 0 0,0 -0.27538435079815876,0.5209234104078699 l -11.642554808503188 -6.283599094341954" fill="#ff6209" stroke="none" /><line stroke="#e1ed5e" stroke-width="0.3" x1="174.80103733775053" x2="179.2010983576182" y1="140.37084112569926" y2="142.7455964860345" /><path d="M 175.68104954172406 140.8457921977663 a86.0,86.0 0 0,1 -30.038265399797805,32.042727171017184" fill="none" id="id77" stroke="none" /><text fill="#e1ed5e" style="font-size:6.75px; font-family:Arial;" text-anchor="middle"><textPath startOffset="22.206326154141568" xlink:href="#id77">May</textPath></text><path d="M 117.75023020441432 111.22182372390056 l 6.2235936030663614 3.9346008214269346 a28.363029333100748,28.363029333100748 0 0,0 -0.2644449144435805,0.41042437976778834 l -6.154943825245731 -4.0411468011161755" fill="#ff0601" stroke="none" /><path d="M 115.80600337817218 113.82643327865902 l 11.073358243156612 9.6865124760842 a35.71216458345336,35.71216458345336 0 0,0 -0.40871917702547866,0.4592003281903722 l -10.904980216482794 -9.875686974015439" fill="#ff780b" stroke="none" /><path d="M 115.32070863581623 114.36230785411682 l 11.05493068948368 10.363379504333846 a36.15292471109571,36.15292471109571 0 0,0 -0.42951989828132964,0.45034989615005033 l -10.874904239823385 -10.552136517066403" fill="#ff7f0b" stroke="none" /><path d="M 114.0293411484842 115.62618273729858 l 22.482493961128302 25.041486646346208 a54.65321066661108,54.65321066661108 0 0,0 -0.7054366994948659,0.6224658675855843 l -22.04811490872685 -25.424775655704078" fill="#87ff25" stroke="none" /><path d="M 112.92097659922987 116.55440617244103 l 4.591794721373292 5.883025504636763 a28.462879327138975,28.462879327138975 0 0,0 -0.3888182087291719,0.298129222394552 l -4.489847784150626 -5.9611940688586875" fill="#ff0801" stroke="none" /><line stroke="#e1ed5e" stroke-width="0.3" x1="143.8653032363475" x2="146.44561519142675" y1="172.8068346515853" y2="177.08958963109032" /><path d="M 144.38136562736335 173.6633856474863 a86.0,86.0 0 0,1 -40.68145358897372,12.25698825130547" fill="none" id="id78" stroke="none" /><text fill="#e1ed5e" style="font-size:6.75px; font-family:Arial;" text-anchor="middle"><textPath startOffset="21.466115282336833" xlink:href="#id78">June</textPath></text><path d="M 110.8373102113329 117.98757091392108 l 7.55483621064218 12.539380107425304 a35.639385357593525,35.639385357593525 0 0,0 -0.5281962752420828,0.3120676696251208 l -7.337872064371715 -12.667566349344174" fill="#ff770b" stroke="none" /><path d="M 109.89434966115114 118.52300852407294 l 14.702731142131968 27.524680610608034 a52.20542173651558,52.20542173651558 0 0,0 -0.7962795961736654,0.41657585022019183 l -14.226760643431808 -27.773685879772945" fill="#a5ff21" stroke="none" /><path d="M 108.92500713936063 119.00905698771935 l 6.8785292102132365 14.650336039731458 a37.184761665616556,37.184761665616556 0 0,0 -0.5817325846150398,0.267044897415278 l -6.625328629830777 -14.76656800748081" fill="#ff8e0d" stroke="none" /><path d="M 108.2653958097858 119.30500536409082 l 6.342764317611322 14.814426555311407 a37.11514484425999,37.11514484425999 0 0,0 -0.5894742900212554,0.24640030103666524 l -6.086818568092605 -14.921411899368046" fill="#ff8d0d" stroke="none" /><path d="M 106.91757812671514 119.82793768551818 l 3.383699140025012 9.69873768911323 a31.272046175540268,31.272046175540268 0 0,0 -0.5097794247081938,0.17294485887672484 l -3.216249982379591 -9.755545534888078" fill="#ff3405" stroke="none" /><path d="M 105.88484417918355 120.15858648285463 l 4.1498782321998835 14.215445080607624 a35.808793609941965,35.808793609941965 0 0,0 -0.5931792002225604,0.1676383670897773 l -3.904567863872717 -14.284772241035922" fill="#ff7a0b" stroke="none" /><path d="M 105.18746579009965 120.34920634021253 l 1.8335908762352682 7.192745088604386 a28.4227782811462,28.4227782811462 0 0,0 -0.4751296644794464,0.11677531168174347 l -1.7095079270126108 -7.22324165860016" fill="#ff0701" stroke="none" /><path d="M 104.13013068566511 120.58985236759428 l 2.904998807867685 14.48222856231504 a35.770712989048505,35.770712989048505 0 0,0 -0.6047505505225147,0.11590188232608105 l -2.655280642773466 -14.530087642989589" fill="#ff790b" stroke="none" /><path d="M 103.41894727170886 120.7198165907248 l 2.3856352028674594 14.457644393879233 a35.65314767348736,35.65314767348736 0 0,0 -0.6063821761161485,0.09470442503003443 l -2.1364171631427937 -14.496567126256373" fill="#ff770b" stroke="none" /><path d="M 101.62511606390274 120.93702456842531 l 1.7016096614134364 21.922522383616872 a42.988462044899784,42.988462044899784 0 0,0 -0.7382495366777332,0.050914010369309474 l -1.3239973639567728 -21.94856473850247" fill="#ffe115" stroke="none" /><path d="M 101.26447882468166 120.96189622390904 l 0.44733681592410846 7.4157255380656615 a28.429205575483852,28.429205575483852 0 0,0 -0.4887277342036048,0.02526164141121981 l -0.3196210133070241 -7.422326986239083" fill="#ff0701" stroke="none" /><line stroke="#e1ed5e" stroke-width="0.3" x1="102.19456741930631" x2="102.32365962044197" y1="184.97166512339345" y2="189.96999836594603" /><path d="M 102.22038585953345 185.97133177190398 a86.0,86.0 0 0,1 -42.740103519485714,-10.115201625700543" fill="none" id="id79" stroke="none" /><text fill="#e1ed5e" style="font-size:6.75px; font-family:Arial;" text-anchor="middle"><textPath startOffset="22.20632615414155" xlink:href="#id79">July</textPath></text><path d="M 100.18074693466247 120.99922214144158 l 0.07126488199940675 8.27957105211122 a29.279877746100148,29.279877746100148 0 0,0 -0.5040236333237187,0.0 l 0.07126488199940106 -8.27957105211122" fill="#ff1502" stroke="none" /><path d="M 99.81925306533755 120.99922214144158 l -0.12635524072545587 14.679982118006194 a35.68052589765913,35.68052589765913 0 0,0 -0.6141133497734576,-0.010572518242367433 l 0.3790282803915813 -14.675632122484668" fill="#ff780b" stroke="none" /><path d="M 99.45781275523022 120.99299961872073 l -0.38075385782326443 14.742444919566934 a35.74736097431375,35.74736097431375 0 0,0 -0.6149901905409363,-0.02118150563517021 l 0.6344644000388437 -14.733706615505671" fill="#ff790b" stroke="none" /><path d="M 98.37488393609728 120.93702456842531 l -1.1444515922794118 14.744430651546303 a35.78877968884955,35.78877968884955 0 0,0 -0.6137872555254889,-0.05296014708881827 l 1.3980831655464423 -14.722546252178821" fill="#ff7a0b" stroke="none" /><path d="M 97.65516085044442 120.86867818915974 l -1.326855252493121 11.808790924154971 a32.883100940052366,32.883100940052366 0 0,0 -0.5619449129722797,-0.0680437031057604 l 1.52992758851679 -11.784201692323863" fill="#ff4d07" stroke="none" /><path d="M 97.2962882734958 120.8252237178851 l -2.837385200899289 21.854837926432452 a43.0382552750646,43.0382552750646 0 0,0 -0.7338461285334849,-0.10170438659358427 l 3.2131599206196046 -21.80275897434626" fill="#ffe215" stroke="none" /><path d="M 96.93821686468263 120.77559828337769 l -1.5041943974743983 10.20664663723685 a31.31689082828793,31.31689082828793 0 0,0 -0.5326319174834195,-0.08318615138227617 l 1.679662178566335 -10.179242178507467" fill="#ff3505" stroke="none" /><path d="M 95.51606077576429 120.51570834832081 l -2.371200429522555 10.8491337671486 a32.105237276819075,32.105237276819075 0 0,0 -0.5388785351923755,-0.12264700017189713 l 2.557599114107793 -10.806710033399018" fill="#ff4106" stroke="none" /><path d="M 95.16358092515715 120.4354850818985 l -2.9802976534163994 12.592752466965837 a33.94061779040064,33.94061779040064 0 0,0 -0.5673686851955378,-0.1394454188095341 l 3.196619623355148 -12.539585789842272" fill="#ff5e08" stroke="none" /><path d="M 93.08242187328487 119.8279376855182 l -7.237316571949761 20.744407850602876 a42.97064423804575,42.97064423804575 0 0,0 -0.6962890333974244,-0.2496644745991015 l 7.593325165976912 -20.61675583496382" fill="#ffe115" stroke="none" /><path d="M 92.40401165467489 119.57807347666478 l -3.7992767725803964 9.79234254059156 a31.503545897788428,31.503545897788428 0 0,0 -0.5038750998578625,-0.20050230103036856 l 3.967272948480117 -9.725493395155127" fill="#ff3805" stroke="none" /><path d="M 92.06813273071674 119.44442032107085 l -5.700248652836083 13.97376266867086 a36.09168240536816,36.09168240536816 0 0,0 -0.5732193408068363,-0.23960573094672347 l 5.939939453140382 -13.873571894704163" fill="#ff7e0b" stroke="none" /><path d="M 91.7346041902142 119.30500536409082 l -5.839061803795866 13.637957822912577 a35.83538123298792,35.83538123298792 0 0,0 -0.5649692305714384,-0.24766590776730027 l 6.072951709025048 -13.535427361850823" fill="#ff7a0b" stroke="none" /><path d="M 91.07499286063937 119.00905698771935 l -4.436258991654335 9.448631095513138 a31.43824810110067,31.43824810110067 0 0,0 -0.4878727045911502,-0.23420854617918824 l 4.598244364245727 -9.370868272834386" fill="#ff3705" stroke="none" /><path d="M 90.10565033884886 118.52300852407294 l -3.5261467607304304 6.601226835816414 a28.483976664588987,28.483976664588987 0 0,0 -0.4304840200288815,-0.234734211279229 l 3.6392535926279526 -6.539551972777419" fill="#ff0801" stroke="none" /><line stroke="#e1ed5e" stroke-width="0.3" x1="58.666819895761336" x2="56.23545636021788" y1="174.27360380694188" y2="178.64263932499728" /><path d="M 58.180547188652646 175.14741091055294 a86.0,86.0 0 0,1 -31.652253787137756,-30.449443065178592" fill="none" id="id80" stroke="none" /><text fill="#e1ed5e" style="font-size:6.75px; font-family:Arial;" text-anchor="middle"><textPath startOffset="22.20632615414155" xlink:href="#id80">August</textPath></text><path d="M 89.7882731507175 118.34994917583269 l -7.1673234721639405 12.879312518058786 a35.7393085554397,35.7393085554397 0 0,0 -0.5349855101802817,-0.30377873494451285 l 7.387957749265429 -12.75403061731964" fill="#ff790b" stroke="none" /><path d="M 89.4739219176387 118.17145234162733 l -3.8983027840324684 6.729745181349469 a28.777289682266677,28.777289682266677 0 0,0 -0.42649605399261103,-0.25198138629959754 l 4.013566709053462 -6.661645222756122" fill="#ff0d01" stroke="none" /><path d="M 88.8546689885994 117.79835938074946 l -7.826455774677474 12.498334272240378 a35.74658501394953,35.74658501394953 0 0,0 -0.5186969032584358,-0.331056904954115 l 8.040434479982833 -12.361762938462459" fill="#ff790b" stroke="none" /><path d="M 88.24862548938628 117.40417183066458 l -8.219316728800578 12.173078183279719 a35.68812445292392,35.68812445292392 0 0,0 -0.5061648651916605,-0.3481448097364775 l 8.427638478615128 -12.029792584178141" fill="#ff780b" stroke="none" /><path d="M 87.65650970185807 116.9893568818739 l -6.282767966478156 8.647488239575976 a31.688883298745893,31.688883298745893 0 0,0 -0.4385364646317953,-0.32441879260842527 l 6.430689401528515 -8.538059498227785" fill="#ff3b05" stroke="none" /><path d="M 87.36589467227662 116.77436683061367 l -9.077458162750276 12.052188038783738 a36.088256467156285,36.088256467156285 0 0,0 -0.49298495329458447,-0.3779998402294516 l 9.283571844538347 -11.89414885672692" fill="#ff7e0b" stroke="none" /><path d="M 86.79598089348748 116.32954008644616 l -9.293442802112697 11.493291970726057 a35.780522299313255,35.780522299313255 0 0,0 -0.4755910757148193,-0.3913790772377022 l 9.489904006372205 -11.331617774631175" fill="#ff790b" stroke="none" /><path d="M 86.51685102203217 116.09983520530335 l -9.412371404346581 11.239038354371809 a35.65976529772567,35.65976529772567 0 0,0 -0.46720154907446515,-0.3981592958424124 l 9.604438429998103 -11.075354668306446" fill="#ff780b" stroke="none" /><path d="M 85.70375840098266 115.38237550388516 l -7.030431906163633 7.564557634681939 a31.32712472063877,31.32712472063877 0 0,0 -0.3918339559848283,-0.37050346242604665 l 7.159601696539278 -7.442419535509961" fill="#ff3505" stroke="none" /><path d="M 85.44109423537348 115.13401014063109 l -10.183691152622387 10.585966257663731 a35.68912002471198,35.68912002471198 0 0,0 -0.43906123133573033,-0.4297138250015468 l 10.364402336333912 -10.409102329739616" fill="#ff780b" stroke="none" /><path d="M 84.9287848128048 114.62390073753433 l -7.4071574372962345 7.18731261977743 a31.321019523056084,31.321019523056084 0 0,0 -0.37211377024448866,-0.3901598004100975 l 7.529777758919681 -7.058745702784832" fill="#ff3505" stroke="none" /><path d="M 84.67929136418377 114.36230785411682 l -6.515547667295641 6.107961691609261 a29.93082064711681,29.93082064711681 0 0,0 -0.34912676329270775,-0.3789081481810488 l 6.619720838584078 -5.994902288626868" fill="#ff1f03" stroke="none" /><path d="M 83.95833913139862 113.55231037782056 l -13.445834704733722 11.359305417314308 a38.60182633907198,38.60182633907198 0 0,0 -0.4244436244336555,-0.5112696881458277 l 13.639374329060914 -11.12617447205472" fill="#ffa30f" stroke="none" /><path d="M 83.50135304334701 112.99209946851258 l -11.838742155509282 9.322589668750174 a36.06872569119632,36.06872569119632 0 0,0 -0.3799122016440066,-0.49108773330503375 l 11.997461174371356 -9.117423941331888" fill="#ff7e0b" stroke="none" /><path d="M 82.85270091963577 112.12312394758628 l -12.112194806290617 8.563310071503865 a35.83359506007404,35.83359506007404 0 0,0 -0.3517478466096716,-0.5067190076352994 l 12.257803560062422 -8.353549801681554" fill="#ff7a0b" stroke="none" /><path d="M 82.44556493220864 111.52570212397912 l -12.376526749358378 8.126046784854562 a35.805777613054595,35.805777613054595 0 0,0 -0.3338379580780545,-0.5181239245058787 l 12.514569570813478 -7.911801260427235" fill="#ff7a0b" stroke="none" /><path d="M 82.05923443525364 110.91462005526583 l -12.751394010757783 7.757563092842359 a35.92574401351636,35.92574401351636 0 0,0 -0.31686356409871375,-0.5310815593875998 l 12.88303845055473 -7.536919439568647" fill="#ff7c0b" stroke="none" /><line stroke="#e1ed5e" stroke-width="0.3" x1="26.63291911575756" x2="22.317208475507996" y1="142.92168965132927" y2="145.44649492493687" /><path d="M 25.769776987707644 143.4266507060508 a86.0,86.0 0 0,1 -11.730757126820373,-40.83630448921669" fill="none" id="id81" stroke="none" /><text fill="#e1ed5e" style="font-size:6.75px; font-family:Arial;" text-anchor="middle"><textPath startOffset="21.46611528233685" xlink:href="#id81">September</textPath></text><path d="M 81.69416730710424 110.29060199501025 l -13.03757716412414 7.32905843869661 a35.95638712752252,35.95638712752252 0 0,0 -0.29864962599684514,-0.5421358198321268 l 13.161803199572502 -7.10355210046666" fill="#ff7c0b" stroke="none" /><path d="M 81.35079622478065 109.6543875284942 l -13.145973886922393 6.805455496843115 a35.803069072160596,35.803069072160596 0 0,0 -0.27861834159555515,-0.5497404204969544 l 13.261170898304215 -6.5781608646434755" fill="#ff7a0b" stroke="none" /><path d="M 81.02952815118164 109.00673069616217 l -9.265531213178196 4.399054755149846 a31.25679050196434,31.25679050196434 0 0,0 -0.22657509097708511,-0.4880225888982792 l 9.339880920995107 -4.238912098972739" fill="#ff3405" stroke="none" /><path d="M 80.73074385275274 108.34839909993369 l -13.608309947482454 5.8957959585487565 a35.83059370394826,35.83059370394826 0 0,0 -0.24031923649991568,-0.568043685930958 l 13.707780165174675 -5.66067774695164" fill="#ff7a0b" stroke="none" /><path d="M 80.58989483394504 108.01547362559985 l -9.492516582456942 3.9199692972460736 a31.270055031964137,31.270055031964137 0 0,0 -0.2011667946117129,-0.4992794866575162 l 9.558585991326042 -3.755990442745752" fill="#ff3405" stroke="none" /><path d="M 80.20201598880116 107.00284435728193 l -14.062757173443186 4.974208468102977 a35.916564255999944,35.916564255999944 0 0,0 -0.201148441786776,-0.5846315273308591 l 14.14629644617319 -4.7314042376828205" fill="#ff7b0b" stroke="none" /><path d="M 80.0844068197444 106.66101706037122 l -14.03738457861055 4.694977313244995 a35.80172212209439,35.80172212209439 0 0,0 -0.19044427561909114,-0.5861272118221458 l 14.11612110524589 -4.452651201445046" fill="#ff7a0b" stroke="none" /><path d="M 79.97269907076064 106.31721596034903 l -14.098807461277175 4.447189954899772 a35.7835675777238,35.7835675777238 0 0,0 -0.18023540161623033,-0.5890197208323892 l 14.173269635399535 -4.203843261515336" fill="#ff790b" stroke="none" /><path d="M 79.86692584326677 105.97154293290107 l -7.364217853082308 2.1842537674362323 a28.68131949004958,28.68131949004958 0 0,0 -0.1363146128061447,-0.47452904997533624 l 7.400725102774556 -2.0571672419563" fill="#ff0b01" stroke="none" /><path d="M 79.4281124754447 104.21870165774334 l -8.684429094650396 1.7809262944114856 a29.865156917175042,29.865156917175042 0 0,0 -0.09893909373429079,-0.5044883073966363 l 8.713798121360352 -1.6311742599468944" fill="#ff1e03" stroke="none" /><path d="M 79.10278846688536 102.07522291339032 l -14.712925767363716 1.4610849216442416 a35.78529518759133,35.78529518759133 0 0,0 -0.05559570013520001,-0.6134939182769671 l 14.735896063775991 -1.2076096148187085" fill="#ff790b" stroke="none" /><path d="M 79.07016306316243 101.71520430193888 l -14.668525513719686 1.2020885848350882 a35.717698791334065,35.717698791334065 0 0,0 -0.04494211993608362,-0.6131995198472912 l 14.687044192320105 -0.9494159284910364" fill="#ff780b" stroke="none" /><path d="M 79.04373962182676 101.35467743843564 l -7.355436769092632 0.4754781655274662 a28.370788936743015,28.370788936743015 0 0,0 -0.027308436791010613,-0.48761048367372434 l 7.362531556771175 -0.3487959655183043" fill="#ff0601" stroke="none" /><path d="M 79.0095281055655 100.63252640178507 l -14.6580309430057 0.44170477044358397 a35.66468459361964,35.66468459361964 0 0,0 -0.013209413387054949,-0.6137895347031919 l 14.663462419077764 -0.1893254199502633" fill="#ff780b" stroke="none" /><line stroke="#e1ed5e" stroke-width="0.3" x1="15.007084014347285" x2="10.007500721073583" y1="101.09737516637583" y2="101.16192664675087" /><path d="M 14.007167355692545 101.11028546245083 a86.0,86.0 0 0,1 10.666146001902534,-42.60595125391555" fill="none" id="id82" stroke="none" /><text fill="#e1ed5e" style="font-size:6.75px; font-family:Arial;" text-anchor="middle"><textPath startOffset="22.20632615414155" xlink:href="#id82">October</textPath></text><path d="M 79.00175016825051 100.2711162175752 l -14.856484772547732 0.19181760338457587 a35.85772303517302,35.85772303517302 0 0,0 -0.0026563789008604236,-0.6172489052577516 l 14.857585448738098 0.06394078007685106" fill="#ff7b0b" stroke="none" /><path d="M 79.00486145842228 99.54816195383935 l -11.813384047522465 -0.25423677752863305 a32.81611945578185,32.81611945578185 0 0,0 0.01701485406736207,-0.5646401716686394 l 11.807257498999459 0.45754709662226695" fill="#ff4c07" stroke="none" /><path d="M 79.08570108090925 98.10471618934814 l -30.778097118274324 -2.789155372437023 a51.90421734834132,51.90421734834132 0 0,0 0.08829370632843252,-0.8891055733254277 l 30.725526286263666 3.3185364764668814" fill="#a9ff21" stroke="none" /><path d="M 79.12142395522702 97.74499172005258 l -16.088166752546858 -1.7376160691404319 a37.181731027967594,37.181731027967594 0 0,0 0.07420348676655367,-0.6357301593101209 l 16.055872912776717 2.0142899667754146" fill="#ff8e0d" stroke="none" /><path d="M 79.21141760316559 97.0276538004421 l -14.709287811412011 -2.1031302130111342 a35.85887965533856,35.85887965533856 0 0,0 0.09262537567482965,-0.6102854960687216 l 14.67090654229788 2.356014821471948" fill="#ff7b0b" stroke="none" /><path d="M 79.32604984820605 96.31383870115002 l -14.575122070598674 -2.598741435873738 a35.80498701192877,35.80498701192877 0 0,0 0.11340679959596425,-0.6058236581669594 l 14.528229547092849 2.84924317150327" fill="#ff7a0b" stroke="none" /><path d="M 79.46518482838121 95.60439243477599 l -43.01716462883568 -9.208097209383876 a64.9916526959583,64.9916526959583 0 0,0 0.24358132691362258,-1.0919273270553016 l 42.85228891492002 9.947202705989136" fill="#33ff51" stroke="none" /><path d="M 79.71946130924805 94.55025226153421 l -7.139799201382069 -1.918593245680156 a28.39308681664334,28.39308681664334 0 0,0 0.13089649658613947,-0.47090434282292926 l 7.105715934229569 2.041208891922028" fill="#ff0701" stroke="none" /><path d="M 79.81627453868168 94.20196356495316 l -7.110106295900412 -2.042470080149115 a28.397654734259163,28.397654734259163 0 0,0 0.13900530678760278,-0.468656791248202 l 7.073895092001102 2.164556258143856" fill="#ff0701" stroke="none" /><path d="M 79.91906864156998 93.8553929516997 l -14.275568239854026 -4.368211596334895 a35.928935699542805,35.928935699542805 0 0,0 0.18605117768429014,-0.5898330763282589 l 14.198261578401533 4.613294839089568" fill="#ff7c0b" stroke="none" /><path d="M 80.14247586403 93.16781622104843 l -13.918096504176491 -4.788663104151487 a35.71885541149962,35.71885541149962 0 0,0 0.2050379988979115,-0.5796700335982742 l 13.83360542446877 5.027530764176372" fill="#ff780b" stroke="none" /><path d="M 80.52162464483688 92.15188598940014 l -13.880114290850472 -5.592495136196052 a35.964410264873386,35.964410264873386 0 0,0 0.23630041240380345,-0.5722201918163886 l 13.781792191560468 5.830589898465752" fill="#ff7c0b" stroke="none" /><path d="M 80.803312248108 91.48605970444005 l -13.397823546993623 -5.942080802887904 a35.65639792256016,35.65639792256016 0 0,0 0.25366586833634525,-0.5589191161941004 l 13.293555361693926 6.171821927924076" fill="#ff780b" stroke="none" /><path d="M 81.10775173730289 90.83032412892265 l -39.553910279591285 -19.198166975905842 a64.96682196430302,64.96682196430302 0 0,0 0.4969652113715988,-1.0018515408968856 l 39.21758505526627 19.876178105301687" fill="#33ff51" stroke="none" /><line stroke="#e1ed5e" stroke-width="0.3" x1="26.266209847984243" x2="21.928928074336255" y1="57.711370442889674" y2="55.22380399835377" /><path d="M 25.398753493254645 57.213857153982495 a86.0,86.0 0 0,1 29.58750427330803,-30.492523968695096" fill="none" id="id83" stroke="none" /><text fill="#e1ed5e" style="font-size:6.75px; font-family:Arial;" text-anchor="middle"><textPath startOffset="21.46611528233685" xlink:href="#id83">November</textPath></text><path d="M 82.7489923806493 88.02491185347247 l -8.432339809843375 -5.853455910081393 a31.264857561599975,31.264857561599975 0 0,0 0.31069434365405746,-0.4394551153850325 l 8.330332846385438 5.997737525798212" fill="#ff3405" stroke="none" /><path d="M 83.17141714833178 87.43820079747576 l -5.898004831014808 -4.402601991847543 a28.359984054690198,28.359984054690198 0 0,0 0.29538146893435135,-0.3886873888910082 l 5.821347421856348 4.503474156619578" fill="#ff0601" stroke="none" /><path d="M 83.6137871275137 86.86637796730984 l -11.462236407305731 -9.187033135378288 a35.68960316984443,35.68960316984443 0 0,0 0.3883394353097435,-0.47605822991804736 l 11.302398479919594 9.382975534904418" fill="#ff780b" stroke="none" /><path d="M 84.31358615837235 86.03803664274999 l -11.150404642550141 -9.924610086765485 a35.92747162338388,35.92747162338388 0 0,0 0.4151442602857469,-0.45841266104465855 l 10.97791674164835 10.1150755350797" fill="#ff7c0b" stroke="none" /><path d="M 85.05521093208273 85.24692304244772 l -5.30505813413736 -5.2370047219491775 a28.45451945227155,28.45451945227155 0 0,0 0.3470966289102268,-0.3456060856787409 l 5.21412570505982 5.327546658278028" fill="#ff0801" stroke="none" /><path d="M 85.83668400450813 84.49514656593479 l -41.889182270711146 -45.85689056058258 a83.1092424941257,83.1092424941257 0 0,0 1.0645463361972285,-0.955760211560273 l 41.09362494691794 46.57114978091213" fill="#4cdbff" stroke="none" /><path d="M 88.39885842347998 82.49532879139004 l -5.767880359626448 -8.703009837428963 a31.440824875140365,31.440824875140365 0 0,0 0.45369555589091204,-0.29509620991437235 l 5.617217777951248 8.80100497150287" fill="#ff3705" stroke="none" /><path d="M 88.70189139769569 82.29822771554957 l -11.112786172528999 -17.411410811874866 a41.6555378282974,41.6555378282974 0 0,0 0.6077361422963754,-0.38056431655217116 l 10.811430877860381 17.60011946974997" fill="#ffce13" stroke="none" /><line stroke="#e1ed5e" stroke-width="0.3" x1="56.762969772571076" x2="54.21961505331055" y1="26.818313649435495" y2="22.513508569990535" /><path d="M 56.25429882871897 25.957352633546506 a86.0,86.0 0 0,1 42.265352541879196,-11.944610805530505" fill="none" id="id84" stroke="none" /><text fill="#e1ed5e" style="font-size:6.75px; font-family:Arial;" text-anchor="middle"><textPath startOffset="22.20632615414155" xlink:href="#id84">December</textPath></text><path d="M 89.63071344664047 81.73862282372117 l -4.370847991075482 -7.697511620927284 a29.851892301389526,29.851892301389526 0 0,0 0.4490235082678384,-0.2498810962036164 l 4.237700393735597 7.771608114691086" fill="#ff1e03" stroke="none" /><path d="M 89.94658935756843 81.56283822128135 l -14.830878996787865 -27.198661738763203 a51.979383018340194,51.979383018340194 0 0,0 0.7892325597047742,-0.4215807005398591 l 14.360501390554786 27.44992116580481" fill="#a8ff21" stroke="none" /><path d="M 91.23893434514133 80.91482961587045 l -6.188071724655723 -13.480141328329536 a35.83261412904757,35.83261412904757 0 0,0 0.5627731848495237,-0.2524999235973912 l 5.955116421339424 13.584661582443456" fill="#ff7a0b" stroke="none" /><path d="M 91.90106846888425 80.62456947434976 l -7.332970512832526 -17.542988253717798 a40.01391315358708,40.01391315358708 0 0,0 0.6377762939712034,-0.26016496391990923 l 7.029910349272942 17.666614103821285" fill="#ffb711" stroke="none" /><path d="M 92.23578459929587 80.48803036053334 l -11.6059124208979 -29.16639983665725 a52.39070057442669,52.39070057442669 0 0,0 0.8407880043353771,-0.32621268325675074 l 11.102141251562847 29.36185522380455" fill="#a3ff22" stroke="none" /><path d="M 93.25333710446033 80.11325718540243 l -4.8399814222426825 -14.26652958089901 a36.06516798613015,36.06516798613015 0 0,0 0.5896091280167435,-0.1943848594435799 l 4.59368947198353 14.347728164601822" fill="#ff7e0b" stroke="none" /><path d="M 93.59665428221793 80.00007090966166 l -4.474828044841949 -13.976481597700632 a35.675357708818154,35.675357708818154 0 0,0 0.5864597768981471,-0.18221590742216662 l 4.233582895233073 14.051437640005323" fill="#ff780b" stroke="none" /><path d="M 94.28887869178378 79.79150937346287 l -4.330771844245915 -15.324199486746558 a36.92440500227612,36.92440500227612 0 0,0 0.6131246649262773,-0.16759013184275037 l 4.066349290095915 15.396476159415604" fill="#ff8a0c" stroke="none" /><path d="M 94.63758080256005 79.69619591428918 l -3.8907637657682255 -14.731654191014066 a36.23678699347855,36.23678699347855 0 0,0 0.6044487803062172,-0.1540874527135592 l 3.6366060967770086 14.796444639896487" fill="#ff800b" stroke="none" /><path d="M 95.33964822691252 79.52364482259891 l -3.316375827247006 -14.571279733132348 a35.94391319864853,35.94391319864853 0 0,0 0.6044692604046199,-0.13211356783568726 l 3.0650638426888652 14.626206799063903" fill="#ff7c0b" stroke="none" /><path d="M 95.692805502759 79.44645832069477 l -3.053908120888868 -14.572972705937659 a35.88952276934472,35.88952276934472 0 0,0 0.6057358294118957,-0.12150490891320384 l 2.8026058820098356 14.623381570928073" fill="#ff7b0b" stroke="none" /><path d="M 96.40284397218896 79.31037775812273 l -2.5506888466621436 -14.670697708412451 a35.890781874841394,35.890781874841394 0 0,0 0.6095806506474178,-0.1005860304453865 l 2.29777898987584 14.712430001797465" fill="#ff7b0b" stroke="none" /><path d="M 96.75951476605007 79.25152402106235 l -4.079111944939519 -26.118111978498597 a47.43472957268033,47.43472957268033 0 0,0 0.8078157476270948,-0.11905104241966942 l 3.628927216883775 26.184457505079234" fill="#e1ff1b" stroke="none" /><path d="M 97.47563105711357 79.15227682838746 l -1.7946767293604868 -14.821495780827219 a35.929755582191795,35.929755582191795 0 0,0 0.61462688285147,-0.06906049171950539 l 1.5392831429992988 14.850192226017322" fill="#ff7c0b" stroke="none" /><path d="M 98.19473922651362 79.07773832637324 l -0.904186247715553 -10.479162652975148 a31.518098814808077,31.518098814808077 0 0,0 0.5409253345478199,-0.04198621669820936 l 0.7236707238053989 10.493174131861819" fill="#ff3805" stroke="none" /><path d="M 98.55514903715128 79.0497635885617 l -1.216078923999428 -17.63305808546784 a38.67494230244836,38.67494230244836 0 0,0 0.6645422353172028,-0.04008700242045645 l 0.9123746398426023 17.651378357268605" fill="#ffa40f" stroke="none" /><path d="M 98.91598698831166 79.02799685794201 l -0.8323995320038892 -16.104129205464016 a37.12562762955785,37.12562762955785 0 0,0 0.6384886081769059,-0.027494662564565762 l 0.5550700914376593 16.116071594552775" fill="#ff8d0d" stroke="none" /></svg>