<?xml version="1.0" encoding="utf-8" ?>
<svg baseProfile="full" height="200mm" version="1.1" viewBox="0,0,200,200" width="200mm" xmlns="http://www.w3.org/2000/svg" xmlns:ev="http://www.w3.org/2001/xml-events" xmlns:xlink="http://www.w3.org/1999/xlink"><defs /><rect fill="#1a1a1a" height="200" width="200" x="0" y="0" /><text alignment-baseline="middle" fill="#e1ed5e" style="dominant-baseline: central; font-size:9.0px; font-family:Arial;" text-anchor="middle" x="100.0" y="100.0">2025</text><line stroke="#e1ed5e" stroke-width="0.3" x1="100.0" x2="100.0" y1="15.0" y2="10.0" /><path d="M 100.0 14.0 a86.0,86.0 0 0,1 42.46469731375804,11.215312516191453" fill="none" id="id97" stroke="none" /><text fill="#e1ed5e" style="font-size:6.75px; font-family:Arial;" text-anchor="middle"><textPath startOffset="22.20632615414155" xlink:href="#id97">January</textPath></text><path d="M 100.0 79.0 l 0.0 -15.85340958728304 a36.85340958728304,36.85340958728304 0 0,0 0.6343708647827555,0.005460230311214839 l -0.2728903855102271 15.851060733580383" fill="#ffa40f" stroke="none" /><path d="M 101.44485096284872 79.0497635885617 l 1.0601377074017528 -15.371921512898927 a36.40843479907612,36.40843479907612 0 0,0 0.624855099597551,0.04850078179202565 l -1.3245829963616451 15.351395468918438" fill="#ff9e0e" stroke="none" /><path d="M 103.59715602781102 79.31037775812273 l 5.267407019187462 -30.296339824747378 a51.75083386645571,51.75083386645571 0 0,0 0.8763261433288038,0.16014300135759632 l -5.788128283619166 30.201181342039042" fill="#9bff22" stroke="none" /><path d="M 104.307194497241 79.44645832069477 l 3.0898709153593225 -14.744583901003558 a36.06486165510048,36.06486165510048 0 0,0 0.6065032521854854,0.13255811965778946 l -3.3432168916983356 14.689212283249898" fill="#ff990e" stroke="none" /><path d="M 105.01212808612495 79.60689891045804 l 1.69063637430463 -6.878778413962404 a28.083490934455767,28.083490934455767 0 0,0 0.46844748804926356,0.11941769512217436 l -1.8087927510389186 6.848657722671363" fill="#ff2503" stroke="none" /><path d="M 106.0581310904928 79.89281104454417 l 8.814976166072677 -29.257272376825576 a51.55637072265275,51.55637072265275 0 0,0 0.8475244430194575,0.2633299699837381 l -9.317285981802854 29.10120227195932" fill="#9dff22" stroke="none" /><path d="M 107.4271985657038 80.35727306442388 l 4.427165267544092 -11.708532857946404 a33.517569012861856,33.517569012861856 0 0,0 0.5379040488390446,0.20869841410875287 l -4.628052481382804 11.630591739947103" fill="#ff750a" stroke="none" /><path d="M 108.76106565485865 80.91482961587045 l 12.440873896336765 -27.101291942422687 a50.82038511241896,50.82038511241896 0 0,0 0.7918827294728102,0.3717995594756297 l -12.905534837109172 26.883127400307057" fill="#a6ff21" stroke="none" /><path d="M 109.41281617654863 81.2277094730956 l 8.422117285813977 -16.796506972574765 a39.78975002643088,39.78975002643088 0 0,0 0.6096159415461511,0.31226896287156847 l -8.709993714948883 16.649045484390694" fill="#ffcc13" stroke="none" /><path d="M 110.05341064243156 81.56283822128135 l 9.774090862728892 -17.924911344558677 a41.41654473467949,41.41654473467949 0 0,0 0.6229756569312235,0.34668527860079323 l -10.081190608732152 17.754010668397704" fill="#ffe215" stroke="none" /><path d="M 110.36928655335952 81.73862282372117 l 9.794049367046897 -17.24832549031951 a40.835022944886084,40.835022944886084 0 0,0 0.6082537431911266,0.3523398281188236 l -10.089499842703352 17.077181504810635" fill="#ffda14" stroke="none" /><line stroke="#e1ed5e" stroke-width="0.3" x1="143.23703022742887" x2="145.7803849466894" y1="26.81831364943548" y2="22.513508569990506" /><path d="M 143.74570117128098 25.957352633546492 a86.0,86.0 0 0,1 28.547481713284135,27.462654790039103" fill="none" id="id98" stroke="none" /><text fill="#e1ed5e" style="font-size:6.75px; font-family:Arial;" text-anchor="middle"><textPath startOffset="19.985693538727396" xlink:href="#id98">February</textPath></text><path d="M 110.68208982089419 81.91981866633111 l 22.052795945772534 -37.32589374356981 a64.3537559247425,64.3537559247425 0 0,0 0.9488744769367493,0.571686255325404 l -22.69203248892692 36.94076087878579" fill="#33ff53" stroke="none" /><path d="M 111.60114157652 82.49532879139004 l 9.76907514594589 -14.740312176526542 a38.68365438105468,38.68365438105468 0 0,0 0.551878155036371,0.3726305938115583 l -10.021357995388804 14.569969670416313" fill="#ffbd11" stroke="none" /><path d="M 111.90073688211348 82.69761687909136 l 8.045637092842219 -11.697485358354326 a35.197303967254925,35.197303967254925 0 0,0 0.49622979406252415,0.34764068269779685 l -8.245798026488393 11.557259832892594" fill="#ff8d0d" stroke="none" /><path d="M 112.48926042617603 83.11751280151076 l 12.773493483084792 -17.266702178472563 a42.4779221500237,42.4779221500237 0 0,0 0.5840792095795868,0.43991635142344115 l -13.068818846422761 17.044269237543272" fill="#fff016" stroke="none" /><path d="M 112.77801427241765 83.33499621200491 l 18.596331081230414 -24.25321503830814 a51.56210021214433,51.56210021214433 0 0,0 0.6996914260984841,0.5461202563913601 l -19.011055062488328 23.929516392693554" fill="#9dff22" stroke="none" /><path d="M 114.68862486808459 84.99185889309783 l 10.507305352107275 -10.735866889784495 a36.02206056563457,36.02206056563457 0 0,0 0.439407729577144,0.4375207731430271 l -10.690548881851742 10.553410265991351" fill="#ff990e" stroke="none" /><path d="M 114.94478906791727 85.2469230424477 l 10.802764720900367 -10.66418659758205 a36.17974312704857,36.17974312704857 0 0,0 0.4337016321485691,0.44696765537885635 l -10.984730616752044 10.476654746653077" fill="#ff9b0e" stroke="none" /><path d="M 115.68641384162765 86.03803664274999 l 10.597989899411635 -9.432923811012845 a35.187932954888254,35.187932954888254 0 0,0 0.39881020700669795,0.4559090079237493 l -10.758791969996178 9.249099246886148" fill="#ff8d0d" stroke="none" /><path d="M 116.15771136456269 86.58626213691792 l 10.92024146042219 -9.065718098723337 a35.19291788884314,35.19291788884314 0 0,0 0.3829349907538944,0.4694330199212961 l -11.074674943252493 8.87640090919394" fill="#ff8d0d" stroke="none" /><path d="M 116.82858285166822 87.43820079747576 l 50.485748555004626 -37.68539760757273 a84.0,84.0 0 0,0 0.8549495499454851,1.1661502253140252 l -51.126960717463746 36.81078493858721" fill="#4dd2ff" stroke="none" /><line stroke="#e1ed5e" stroke-width="0.3" x1="172.23445277983987" x2="176.4835382374775" y1="55.19839476539836" y2="52.563006222186495" /><path d="M 173.08426987136738 54.67131705675599 a86.0,86.0 0 0,1 12.851231095245387,41.99856678651699" fill="none" id="id99" stroke="none" /><text fill="#e1ed5e" style="font-size:6.75px; font-family:Arial;" text-anchor="middle"><textPath startOffset="22.20632615414155" xlink:href="#id99">March</textPath></text><path d="M 118.03404312379186 89.2402003453031 l 8.032184207670804 -4.792308206812497 a30.353192027058927,30.353192027058927 0 0,0 0.26384197873733345,0.4509914672960946 l -8.113485860878466 4.653337327162507" fill="#ff4706" stroke="none" /><path d="M 119.196687751892 91.48605970444005 l 17.016060166118685 -7.54680818860075 a39.61452705315132,39.61452705315132 0 0,0 0.27109407441553796,0.6257225004917838 l -17.143444950376903 7.252786543522363" fill="#ffca12" stroke="none" /><path d="M 119.85752413597 93.16781622104841 l 20.426345971926292 -7.02789273511971 a42.60154823296649,42.60154823296649 0 0,0 0.2326099433287812,0.6954741234006323 l -20.544293209026844 6.675245508796763" fill="#fff216" stroke="none" /><path d="M 120.18372546131832 94.20196356495316 l 13.901286065196723 -3.9933243867435726 a35.46348484716576,35.46348484716576 0 0,0 0.1634921188107126,0.5881681387448149 l -13.967964954573798 3.753444944579806" fill="#ff910d" stroke="none" /><path d="M 120.37134235888165 94.90015583598534 l 15.231958813885566 -3.813230119793162 a36.70201557935808,36.70201557935808 0 0,0 0.14814890883076423,0.6141728715453804 l -15.295340522977146 3.550472016588375" fill="#ffa20f" stroke="none" /><path d="M 120.83666639777658 97.38593545837742 l 14.336326682549828 -1.7985642483564501 a35.44870568958535,35.44870568958535 0 0,0 0.07074489247286626,0.6060990355297639 l -14.365161928026282 1.5515214745018335" fill="#ff910d" stroke="none" /><path d="M 120.87857604477298 97.74499172005257 l 15.117747795905364 -1.6328051482446904 a36.20566838625438,36.20566838625438 0 0,0 0.06158907339776532,0.620193564082694 l -15.143613994985358 1.3723360534575615" fill="#ff9b0e" stroke="none" /><path d="M 120.96714384426684 98.82574320788733 l 15.208473082669814 -0.851744660485596 a36.232305225177114,36.232305225177114 0 0,0 0.029514476561210118,0.623003952297948 l -15.22088116746452 0.5898296015646483" fill="#ff9c0e" stroke="none" /><line stroke="#e1ed5e" stroke-width="0.3" x1="184.98032266829074" x2="189.97916517819016" y1="98.17113171792111" y2="98.06355123074" /><path d="M 185.9800911702706 98.14961562048488 a86.0,86.0 0 0,1 -9.607161424134198,41.387399972396054" fill="none" id="id100" stroke="none" /><text fill="#e1ed5e" style="font-size:6.75px; font-family:Arial;" text-anchor="middle"><textPath startOffset="21.466115282336823" xlink:href="#id100">April</textPath></text><path d="M 120.9764740272857 100.99374915477107 l 21.71871594397629 1.0289124656491206 a42.74307437132794,42.74307437132794 0 0,0 -0.04114254796810772,0.734627831970988 l -21.697787045120652 -1.4026120139555318" fill="#fff417" stroke="none" /><path d="M 120.95626037817324 101.35467743843564 l 14.347708678833431 0.9274802321461313 a35.377655021375844,35.377655021375844 0 0,0 -0.04451425676431544,0.6073616668074248 l -14.329617863404778 -1.1743150354503262" fill="#ff900d" stroke="none" /><path d="M 120.89721153311464 102.0752229133903 l 14.52592586275309 1.442514669520649 a35.597375474446814,35.597375474446814 0 0,0 -0.06580038992956794,0.6092298893697288 l -14.49894317132247 -1.6923408807751692" fill="#ff930d" stroke="none" /><path d="M 120.8583938346157 102.4346265915055 l 4.66657091737446 0.5446899572742409 a25.698251938374582,25.698251938374582 0 0,0 -0.05506583582005314,0.4389288912449763 l -4.6565035723075585 -0.6249366028066121" fill="#ff0000" stroke="none" /><path d="M 120.76222939487914 103.15116336523771 l 14.215738880754719 2.157577335209876 a35.378538586491075,35.378538586491075 0 0,0 -0.09656360785900625,0.6013016783151937 l -14.176493518534425 -2.401958243218275" fill="#ff900d" stroke="none" /><path d="M 120.70491114924044 103.5080841355445 l 13.71474403634491 2.3237228901955524 a34.91020819588539,34.91020819588539 0 0,0 -0.10548461470040668,0.591613738329292 l -13.672712979305315 -2.559455379258063" fill="#ff890c" stroke="none" /><path d="M 120.49622156327973 104.57218783832717 l 14.564976183175649 3.249077239170146 a35.92297001680856,35.92297001680856 0 0,0 -0.13982491615560244,0.6023620792402878 l -14.506890701089493 -3.499307975758999" fill="#ff970e" stroke="none" /><path d="M 120.41448212921028 104.9243191809786 l 20.19483589462569 4.87133678548364 a41.774053982996875,41.774053982996875 0 0,0 -0.1746328236064035,0.6975713222546348 l -20.107991756724225 -5.218235947135671" fill="#ffe715" stroke="none" /><path d="M 120.02730092923936 106.31721596034902 l 15.22452447247634 4.802275120649749 a36.96395915014325,36.96395915014325 0 0,0 -0.19662669858047158,0.6051547531902425 l -15.13960552287962 -5.063628773817786" fill="#ffa60f" stroke="none" /><path d="M 119.9155931802556 106.66101706037122 l 7.176249553345381 2.40018563703667 a28.56699734003699,28.56699734003699 0 0,0 -0.15998765807660414,0.4649990229333329 l -7.133871064325546 -2.5233573630593034" fill="#ff2c04" stroke="none" /><path d="M 119.67450827220406 107.3425965602758 l 13.267112191380594 4.951333522213164 a35.16093109745512,35.16093109745512 0 0,0 -0.21650045360569073,0.5652143669859282 l -13.179917458181396 -5.178971456032237" fill="#ff8d0c" stroke="none" /><path d="M 118.81262510543309 109.33194174019688 l 27.28977554250494 13.537004752843238 a51.462802675374455,51.462802675374455 0 0,0 -0.4004818890350688,0.790188760792848 l -27.0527149836836 -14.00474772533878" fill="#9eff22" stroke="none" /><path d="M 118.64920377521936 109.65438752849418 l 16.65348245839206 8.621235270426757 a39.75271115279128,39.75271115279128 0 0,0 -0.3198152781202098,0.6049699806690505 l -16.502614672046956 -8.906620266181942" fill="#ffcc13" stroke="none" /><line stroke="#e1ed5e" stroke-width="0.3" x1="174.80103733775053" x2="179.2010983576182" y1="140.37084112569926" y2="142.7455964860345" /><path d="M 175.68104954172406 140.8457921977663 a86.0,86.0 0 0,1 -30.038265399797805,32.042727171017184" fill="none" id="id101" stroke="none" /><text fill="#e1ed5e" style="font-size:6.75px; font-family:Arial;" text-anchor="middle"><textPath startOffset="22.206326154141568" xlink:href="#id101">May</textPath></text><path d="M 118.12598468904814 110.60418214915192 l 16.17348184776076 9.461916163003433 a39.73791270540965,39.73791270540965 0 0,0 -0.3504867329941079,0.5874359244573405 l -16.008214239068423 -9.738914181346878" fill="#ffcc13" stroke="none" /><path d="M 117.35343817320211 111.8261652097733 l 6.1706100824602075 4.205198621271356 a28.467270199617936,28.467270199617936 0 0,0 -0.2794389168818855,0.4025526013076007 l -6.097310258416186 -4.310792484765977" fill="#ff2a04" stroke="none" /><path d="M 117.14729908036423 112.12312394758627 l 11.582333924475718 8.188698937988654 a35.184683621254216,35.184683621254216 0 0,0 -0.3538912466514306,0.4915239893957136 l -11.439662885448685 -8.3868565328355" fill="#ff8d0d" stroke="none" /><path d="M 116.71984013943494 112.70617746262583 l 11.397407422267266 8.66141542702997 a35.31506245703265,35.31506245703265 0 0,0 -0.3719738602387501,0.4808263569395495 l -11.246626744810447 -8.856319778082772" fill="#ff8f0d" stroke="none" /><path d="M 116.27256486870786 113.27417163493432 l 14.737055044560325 12.021595835279166 a40.01840050617302,40.01840050617302 0 0,0 -0.44001946451131424,0.5300317909097436 l -14.527939580155467 -12.273488883302681" fill="#ffd013" stroke="none" /><path d="M 115.32070863581623 114.36230785411682 l 11.517987218315021 10.797469113308393 a36.787633413976806,36.787633413976806 0 0,0 -0.437060644145691,0.4582563380413286 l -11.330420022790365 -10.99413256793223" fill="#ffa30f" stroke="none" /><path d="M 114.81725581225074 114.88116024355365 l 20.62667789951436 20.715637430046794 a50.23349919704225,50.23349919704225 0 0,0 -0.6179917576136366,0.6048350048481521 l -20.267036189524926 -21.06762253781752" fill="#adff20" stroke="none" /><path d="M 114.55890576462653 115.13401014063108 l 6.185222330845094 6.4295503378078696 a29.92166424095808,29.92166424095808 0 0,0 -0.37425471292807916,0.35388119087486314 l -6.073631783526207 -6.535066165428654" fill="#ff4006" stroke="none" /><path d="M 113.75828350139079 115.86535959552629 l 9.048436471505607 10.434201212905643 a34.81110993114871,34.81110993114871 0 0,0 -0.4560827686062198,0.38868362991057737 l -8.86748822632234 -10.588409233039167" fill="#ff880c" stroke="none" /><path d="M 113.48314897796784 116.09983520530334 l 9.2606116559435 11.057826462099428 a35.423399540611186,35.423399540611186 0 0,0 -0.4708442362038499,0.3874727514833702 l -9.06889729119496 -11.215594332439975" fill="#ff900d" stroke="none" /><path d="M 112.63410532772338 116.77436683061366 l 9.799372210736726 13.010677045086805 a37.28819857737828,37.28819857737828 0 0,0 -0.5160243301239638,0.38174246302629655 l -9.573962910194197 -13.17742945685287" fill="#ffaa0f" stroke="none" /><path d="M 112.34349029814194 116.9893568818739 l 8.398520910633165 11.559572340094581 a35.28841720318322,35.28841720318322 0 0,0 -0.49449603935067227,0.3528097943925469 l -8.198297543433608 -11.702426396331347" fill="#ff8e0d" stroke="none" /><path d="M 112.04921762599082 117.19931262002967 l 7.875136673793238 11.241139614398206 a34.72519571668528,34.72519571668528 0 0,0 -0.4925076416351263,0.33875124684108 l -7.6804721475352284 -11.375031650604383" fill="#ff860c" stroke="none" /><path d="M 111.45004920935366 117.60387380957326 l 8.599299968363534 13.220990471383667 a36.77157408093164,36.77157408093164 0 0,0 -0.5335698947542519,0.3405495518179858 l -8.370448271562351 -13.36705445202546" fill="#ffa30f" stroke="none" /><path d="M 111.1453310114006 117.79835938074945 l 7.487295771123513 11.956718090122951 a35.10754073008324,35.10754073008324 0 0,0 -0.514945370670919,0.3163215051154386 l -7.280371200520285 -12.083828062066768" fill="#ff8c0c" stroke="none" /><line stroke="#e1ed5e" stroke-width="0.3" x1="143.8653032363475" x2="146.44561519142675" y1="172.8068346515853" y2="177.08958963109032" /><path d="M 144.38136562736335 173.6633856474863 a86.0,86.0 0 0,1 -40.68145358897372,12.25698825130547" fill="none" id="id102" stroke="none" /><text fill="#e1ed5e" style="font-size:6.75px; font-family:Arial;" text-anchor="middle"><textPath startOffset="21.466115282336833" xlink:href="#id102">June</textPath></text><path d="M 110.8373102113329 117.98757091392108 l 3.6151057779114804 6.00028699681475 a28.00517193433774,28.00517193433774 0 0,0 -0.415052823016197,0.2452205237354781 l -3.511285083866901 -6.061626092843977" fill="#ff2303" stroke="none" /><path d="M 110.5260780823613 118.17145234162733 l 4.116771299713287 7.1068932691536455 a29.2131442135935,29.2131442135935 0 0,0 -0.4372946621739026,0.24830732187197183 l -3.993827870618185 -7.176703756820246" fill="#ff3605" stroke="none" /><path d="M 109.89434966115114 118.52300852407294 l 6.526940925661707 12.218951880874455 a34.85293264670709,34.85293264670709 0 0,0 -0.5316053047795992,0.2781107702423503 l -6.315644718355612 -12.329492070061521" fill="#ff880c" stroke="none" /><path d="M 109.2508944713604 118.85261126421891 l 3.2161137267356645 6.554192360465825 a28.300741400795275,28.300741400795275 0 0,0 -0.4391834813676442,0.21083476019267958 l -3.1028175773677877 -6.608581397158065" fill="#ff2803" stroke="none" /><path d="M 108.92500713936063 119.00905698771935 l 3.1370881281853777 6.68157303103801 a28.381377926450867,28.381377926450867 0 0,0 -0.44400909395520116,0.2038227977639947 l -3.0216110384627575 -6.734582899136079" fill="#ff2904" stroke="none" /><path d="M 106.91757812671514 119.82793768551818 l 4.660484095295582 13.358401818260331 a35.14803912705234,35.14803912705234 0 0,0 -0.5729636962426964,0.19438039431446485 l -4.429850666115659 -13.43664519947292" fill="#ff8c0c" stroke="none" /><path d="M 106.57524785965236 119.94407469862006 l 4.562999335980211 13.840512410942715 a35.57328880992946,35.57328880992946 0 0,0 -0.5831963820082865,0.18672106478431613 l -4.324081608880984 -13.917006322386737" fill="#ff920d" stroke="none" /><path d="M 106.2309692047433 120.05430185196036 l 4.622043566108109 14.87599341320479 a36.577498732361164,36.577498732361164 0 0,0 -0.6028756039833516,0.18164147401619402 l -4.365292987684512 -14.95335025632671" fill="#ffa00e" stroke="none" /><path d="M 105.53697534728816 120.25689768951611 l 4.6377556477508275 16.967122981950098 a38.58954347710207,38.58954347710207 0 0,0 -0.6422578215613529,0.16962612806485594 l -4.345007383377976 -17.04444045931854" fill="#ffbc11" stroke="none" /><path d="M 105.18746579009965 120.34920634021253 l 5.319558102270113 20.86737336532187 a42.534738669674454,42.534738669674454 0 0,0 -0.711032394966435,0.1747544633505278 l -4.959572422560467 -20.95584908698643" fill="#fff116" stroke="none" /><path d="M 104.48393922423573 120.51570834832081 l 3.4299813364755147 15.693454621100349 a37.06391265891054,37.06391265891054 0 0,0 -0.6244537510265864,0.130860354977717 l -3.1593361240195503 -15.750170956804608" fill="#ffa70f" stroke="none" /><path d="M 104.13013068566511 120.58985236759428 l 2.6981716725 13.451137658190952 a34.719082865624955,34.719082865624955 0 0,0 -0.5869713718888331,0.11249446042613417 l -2.4662326860394628 -13.495589316965555" fill="#ff860c" stroke="none" /><path d="M 103.41894727170886 120.7198165907248 l 1.1836773076685634 7.173429353661009 a28.27043194457213,28.27043194457213 0 0,0 -0.4808183052808236,0.07509393075698503 l -1.0600231387792227 -7.1927415917651" fill="#ff2803" stroke="none" /><path d="M 102.70371172650421 120.8252237178851 l 1.7293120997815774 13.319952346606403 a34.43174042536247,34.43174042536247 0 0,0 -0.5884098769178949,0.07124824167857556 l -1.4997747998123023 -13.34774611701033" fill="#ff820c" stroke="none" /><path d="M 100.90346689309514 120.98055641714683 l 0.6777148995541081 15.738081598235834 a36.752666754483414,36.752666754483414 0 0,0 -0.6322852628608794,0.021777182895458984 l -0.4067092850185765 -15.747415579557387" fill="#ffa30f" stroke="none" /><line stroke="#e1ed5e" stroke-width="0.3" x1="102.19456741930631" x2="102.32365962044197" y1="184.97166512339345" y2="189.96999836594603" /><path d="M 102.22038585953345 185.97133177190398 a86.0,86.0 0 0,1 -42.740103519485714,-10.115201625700543" fill="none" id="id103" stroke="none" /><text fill="#e1ed5e" style="font-size:6.75px; font-family:Arial;" text-anchor="middle"><textPath startOffset="22.20632615414155" xlink:href="#id103">July</textPath></text><path d="M 100.18074693466247 120.99922214144158 l 0.1238401770687874 14.387781420245602 a35.38831437612554,35.38831437612554 0 0,0 -0.6091742234624759,0.0 l 0.1238401770687775 -14.387781420245602" fill="#ff900d" stroke="none" /><path d="M 98.73552117531835 120.96189622390904 l -0.953277231503995 15.802952180265214 a36.8316782146383,36.8316782146383 0 0,0 -0.6325178451050468,-0.04362213387816805 l 1.225157837387972 -15.784201701870762" fill="#ffa40f" stroke="none" /><path d="M 98.37488393609728 120.93702456842531 l -1.2346233714645483 15.906149988467977 a36.95399330340233,36.95399330340233 0 0,0 -0.6337709843029221,-0.05468442729488059 l 1.508238673509012 -15.882541308894433" fill="#ffa60f" stroke="none" /><path d="M 98.01472825383883 120.90594882070398 l -0.6744069481511954 7.101857551561308 a28.133807217354768,28.133807217354768 0 0,0 -0.48171428613062245,-0.04993165536831852 l 0.7965538308874112 -7.089196527737228" fill="#ff2503" stroke="none" /><path d="M 97.65516085044442 120.86867818915974 l -1.2973985145878384 11.54663085916106 a32.61929116183019,32.61929116183019 0 0,0 -0.5574366227372877,-0.06749781194244002 l 1.4959625603765154 -11.522587518493271" fill="#ff6809" stroke="none" /><path d="M 96.93821686468263 120.77559828337769 l -4.43350534508297 30.083360566653667 a51.40829743060555,51.40829743060555 0 0,0 -0.8743428645313676,-0.13655437367060053 l 4.950684073222854 -30.00258788563596" fill="#9fff22" stroke="none" /><path d="M 96.58105272829116 120.7198165907248 l -2.3542262990498677 14.267297285633038 a35.46022659932305,35.46022659932305 0 0,0 -0.601390294056337,-0.10455941128558621 l 2.5994655645782547 -14.224659295826445" fill="#ff910d" stroke="none" /><line stroke="#e1ed5e" stroke-width="0.3" x1="58.666819895761336" x2="56.23545636021788" y1="174.27360380694188" y2="178.64263932499728" /><path d="M 58.180547188652646 175.14741091055294 a86.0,86.0 0 0,1 -31.652253787137756,-30.449443065178592" fill="none" id="id104" stroke="none" /><text fill="#e1ed5e" style="font-size:6.75px; font-family:Arial;" text-anchor="middle"><textPath startOffset="22.20632615414155" xlink:href="#id104">August</textPath></text><line stroke="#e1ed5e" stroke-width="0.3" x1="26.63291911575756" x2="22.317208475507996" y1="142.92168965132927" y2="145.44649492493687" /><path d="M 25.769776987707644 143.4266507060508 a86.0,86.0 0 0,1 -11.730757126820373,-40.83630448921669" fill="none" id="id105" stroke="none" /><text fill="#e1ed5e" style="font-size:6.75px; font-family:Arial;" text-anchor="middle"><textPath startOffset="21.46611528233685" xlink:href="#id105">September</textPath></text><line stroke="#e1ed5e" stroke-width="0.3" x1="15.007084014347285" x2="10.007500721073583" y1="101.09737516637583" y2="101.16192664675087" /><path d="M 14.007167355692545 101.11028546245083 a86.0,86.0 0 0,1 10.666146001902534,-42.60595125391555" fill="none" id="id106" stroke="none" /><text fill="#e1ed5e" style="font-size:6.75px; font-family:Arial;" text-anchor="middle"><textPath startOffset="22.20632615414155" xlink:href="#id106">October</textPath></text><line stroke="#e1ed5e" stroke-width="0.3" x1="26.266209847984257" x2="21.92892807433627" y1="57.711370442889674" y2="55.22380399835377" /><path d="M 25.39875349325466 57.213857153982495 a86.0,86.0 0 0,1 29.58750427330802,-30.492523968695096" fill="none" id="id107" stroke="none" /><text fill="#e1ed5e" style="font-size:6.75px; font-family:Arial;" text-anchor="middle"><textPath startOffset="21.46611528233685" xlink:href="#id107">November</textPath></text><line stroke="#e1ed5e" stroke-width="0.3" x1="56.762969772571076" x2="54.21961505331055" y1="26.818313649435495" y2="22.513508569990535" /><path d="M 56.25429882871897 25.957352633546506 a86.0,86.0 0 0,1 42.265352541879196,-11.944610805530505" fill="none" id="id108" stroke="none" /><text fill="#e1ed5e" style="font-size:6.75px; font-family:Arial;" text-anchor="middle"><textPath startOffset="22.20632615414155" xlink:href="#id108">December</textPath></text></svg>