<?xml version="1.0" encoding="utf-8" ?>
<svg baseProfile="full" height="200mm" version="1.1" viewBox="0,0,200,200" width="200mm" xmlns="http://www.w3.org/2000/svg" xmlns:ev="http://www.w3.org/2001/xml-events" xmlns:xlink="http://www.w3.org/1999/xlink"><defs /><rect fill="#1a1a1a" height="200" width="200" x="0" y="0" /><text alignment-baseline="middle" fill="#e1ed5e" style="dominant-baseline: central; font-size:9.0px; font-family:Arial;" text-anchor="middle" x="100.0" y="100.0">2023</text><line stroke="#e1ed5e" stroke-width="0.3" x1="100.0" x2="100.0" y1="15.0" y2="10.0" /><path d="M 100.0 14.0 a86.0,86.0 0 0,1 42.46469731375804,11.215312516191453" fill="none" id="id73" stroke="none" /><text fill="#e1ed5e" style="font-size:6.75px; font-family:Arial;" text-anchor="middle"><textPath startOffset="22.20632615414155" xlink:href="#id73">January</textPath></text><path d="M 100.36148047927253 79.00311137660856 l 0.5393934057969706 -31.33110614576827 a52.33574887510454,52.33574887510454 0 0,0 0.900606936694902,0.023260020125553248 l -1.0786269776867403 31.31717933350036" fill="#92ff23" stroke="none" /><path d="M 101.80526077348638 79.07773832637324 l 0.8766865353534633 -10.160451812724677 a31.19820377909611,31.19820377909611 0 0,0 0.5346404580959465,0.05077055363119614 l -1.0514521205396539 10.143855714578303" fill="#ff5708" stroke="none" /><path d="M 107.76421540070413 80.48803036053334 l 2.725876008632144 -6.850300664836966 a28.372721289530894,28.372721289530894 0 0,0 0.4522289275847123,0.18447553435394481 l -2.8433888058052434 6.802364244299442" fill="#ff2d04" stroke="none" /><path d="M 109.08828744355905 81.06846463323043 l 6.55033086609102 -13.64479515261479 a36.13562913169072,36.13562913169072 0 0,0 0.5584309494232629,0.274019641643009 l -6.784233082524715 13.53002035083695" fill="#ff9d0e" stroke="none" /><path d="M 109.41281617654863 81.2277094730956 l 3.4694332674550323 -6.919205478870177 a28.740308240383634,28.740308240383634 0 0,0 0.44032822665761434,0.22555322013514084 l -3.588021981701402 6.858459733422536" fill="#ff3204" stroke="none" /><path d="M 109.73455568895987 81.39251694778311 l 6.830657545812822 -13.05671759249962 a35.73552702818799,35.73552702818799 0 0,0 0.5425928479932933,0.2898343082177126 l -7.054395440334427 12.937204557780152" fill="#ff980e" stroke="none" /><line stroke="#e1ed5e" stroke-width="0.3" x1="143.23703022742887" x2="145.7803849466894" y1="26.81831364943548" y2="22.513508569990506" /><path d="M 143.74570117128098 25.957352633546492 a86.0,86.0 0 0,1 28.547481713284135,27.462654790039103" fill="none" id="id74" stroke="none" /><text fill="#e1ed5e" style="font-size:6.75px; font-family:Arial;" text-anchor="middle"><textPath startOffset="19.985693538727396" xlink:href="#id74">February</textPath></text><path d="M 110.68208982089419 81.91981866633111 l 7.681929083956027 -13.002200239754526 a36.10196164495203,36.10196164495203 0 0,0 0.532311276630145,0.3207115880981358 l -7.90460242680381 12.868042042197775" fill="#ff9d0e" stroke="none" /><path d="M 110.99172775467656 82.1063720568725 l 7.743832616905205 -12.606322026289536 a35.79480647488022,35.79480647488022 0 0,0 0.5222306261164096,0.327020770164566 l -7.959682395393878 12.471156914802027" fill="#ff990e" stroke="none" /><path d="M 111.2981086023043 82.29822771554956 l 8.021824019786836 -12.568519838377185 a35.91031024265122,35.91031024265122 0 0,0 0.5181908627542775,0.3370457515519846 l -8.236981908325394 12.428575162665673" fill="#ff9a0e" stroke="none" /><path d="M 111.60114157652 82.49532879139004 l 17.273988132041275 -26.064286925417953 a52.26879784891668,52.26879784891668 0 0,0 0.7456898316451848,0.5034931030145114 l -17.720082658093002 25.763081910104773" fill="#93ff23" stroke="none" /><path d="M 113.06298171725822 83.55741782278167 l 6.554937037349331 -8.250803165460626 a31.537691988229163,31.537691988229163 0 0,0 0.4221494302386235,0.3413488140612605 l -6.695989866152446 8.136748254135238" fill="#ff5c08" stroke="none" /><path d="M 114.42810811169701 84.74124197986012 l 5.342267360455001 -5.649830476802993 a28.77562891136111,28.77562891136111 0 0,0 0.3569777860476437,0.343412347344704 l -5.438728390115062 5.557035042695987" fill="#ff3304" stroke="none" /><path d="M 115.19652480421416 85.50635884689758 l 5.508160482796415 -5.253391974802814 a28.611698834370856,28.611698834370856 0 0,0 0.33684509170457577,0.3593228579856241 l -5.597772896471453 5.157799699939135" fill="#ff3004" stroke="none" /><path d="M 115.68641384162765 86.03803664274999 l 46.394601676600494 -41.294315904373285 a83.11022130648544,83.11022130648544 0 0,0 0.9419480424185432,1.0768094446678576 l -47.09854158259689 40.48959090350248" fill="#4cdbff" stroke="none" /><path d="M 116.60985879189232 87.15038557335679 l 5.833787058012843 -4.5130976296557686 a28.375711603163634,28.375711603163634 0 0,0 0.295545278136845,0.3889029425999856 l -5.910608276373798 4.412009911174749" fill="#ff2d04" stroke="none" /><path d="M 117.45458315368197 88.32363383020206 l 8.542605998062424 -5.714636367964362 a31.27780064294852,31.27780064294852 0 0,0 0.2955057564840498,0.4500755406098351 l -8.6397083899044 5.566742763376852" fill="#ff5808" stroke="none" /><line stroke="#e1ed5e" stroke-width="0.3" x1="172.23445277983987" x2="176.4835382374775" y1="55.19839476539836" y2="52.563006222186495" /><path d="M 173.08426987136738 54.67131705675599 a86.0,86.0 0 0,1 12.851231095245387,41.99856678651699" fill="none" id="id75" stroke="none" /><text fill="#e1ed5e" style="font-size:6.75px; font-family:Arial;" text-anchor="middle"><textPath startOffset="22.20632615414155" xlink:href="#id75">March</textPath></text><path d="M 118.56541770881063 90.18545643968196 l 55.696253126431905 -29.443630680954143 a84.0,84.0 0 0,0 0.6647622673595346,1.2841091109586253 l -56.19482482695156 28.480548847735175" fill="#4dd2ff" stroke="none" /><path d="M 119.47837535516314 92.15188598940014 l 20.48203597206693 -8.252503124465145 a43.082065242643196,43.082065242643196 0 0,0 0.2712250909283255,0.6902382724777164 l -20.621054612876957 7.898715847091644" fill="#fffa17" stroke="none" /><path d="M 119.7369772167798 92.82701384747503 l 8.964988889111652 -3.2581352480088595 a30.538682879528658,30.538682879528658 0 0,0 0.17530210177397113,0.4956026481499179 l -9.019744071695433 3.103334973432327" fill="#ff4d07" stroke="none" /><path d="M 120.08093135843002 93.85539295169968 l 15.530029773549497 -4.752066958627693 a37.24081171452384,37.24081171452384 0 0,0 0.1822921824298327,0.6145986168552163 l -15.609527853091032 4.484038955025946" fill="#ffad10" stroke="none" /><path d="M 120.28053869075195 94.5502522615342 l 19.374889223928474 -5.206383338292608 a41.062222207540984,41.062222207540984 0 0,0 0.17755239990482585,0.6841818250155222 l -19.461637955703605 4.872105087728236" fill="#ffe015" stroke="none" /><path d="M 120.37134235888165 94.90015583598534 l 6.625929116667406 -1.65876186956715 a27.830404643872193,27.830404643872193 0 0,0 0.11233835567949511,0.46571500955958733 l -6.653500272607718 1.5444616283481565" fill="#ff2503" stroke="none" /><path d="M 120.45610955862082 95.25157060432595 l 14.586437058737188 -3.3859158951692083 a35.974263671969354,35.974263671969354 0 0,0 0.13482745116441325,0.6044050265636411 l -14.642558896903639 3.1343326990556033" fill="#ff9b0e" stroke="none" /><path d="M 120.91429891909075 98.10471618934814 l 14.546498573964522 -1.318224596270807 a35.60610614943508,35.60610614943508 0 0,0 0.05006136491618728,0.6108754527649686 l -14.567034422700203 1.0676352262980695" fill="#ff960d" stroke="none" /><path d="M 120.94382443527127 98.46500227214037 l 14.802333405324138 -1.0848805677499946 a35.842036251426435,35.842036251426435 0 0,0 0.039800719170551384,0.6156995093531527 l -14.818814715499105 0.8299219941438067" fill="#ff990e" stroke="none" /><path d="M 120.98425023603335 99.18683210126433 l 10.288797443799083 -0.39870472872670704 a31.296519717857855,31.296519717857855 0 0,0 0.01622695567442692,0.5384936597982947 l -10.294136093929156 0.22154092150341329" fill="#ff5808" stroke="none" /><line stroke="#e1ed5e" stroke-width="0.3" x1="184.98032266829074" x2="189.97916517819016" y1="98.17113171792111" y2="98.06355123074" /><path d="M 185.9800911702706 98.14961562048488 a86.0,86.0 0 0,1 -9.607161424134198,41.387399972396054" fill="none" id="id76" stroke="none" /><text fill="#e1ed5e" style="font-size:6.75px; font-family:Arial;" text-anchor="middle"><textPath startOffset="21.466115282336823" xlink:href="#id76">April</textPath></text><path d="M 120.99980553446 99.90962569577887 l 43.56842245459392 -0.1875001108407853 a64.56882591341576,64.56882591341576 0 0,0 -0.004783328451767094,1.1114770748198146 l -43.56519482885265 -0.5624864421827142" fill="#33ff57" stroke="none" /><path d="M 120.9764740272857 100.99374915477107 l 14.786273829891684 0.7004917557428839 a35.8028572401548,35.8028572401548 0 0,0 -0.03446220921316049,0.6153458959036635 l -14.772025269790992 -0.9549093679819708" fill="#ff990e" stroke="none" /><path d="M 120.81339534386255 102.79330883721812 l 14.439512780705524 1.9378874993292399 a35.56897173119005,35.56897173119005 0 0,0 -0.08666286633285804,0.6061198852860561 l -14.404015863356065 -2.1861528565957054" fill="#ff950d" stroke="none" /><path d="M 120.76222939487914 103.15116336523771 l 10.213031920175302 1.550071113403524 a31.329992326189195,31.329992326189195 0 0,0 -0.08551334266721243,0.5324916664175917 l -10.184836823146803 -1.7256420095143208" fill="#ff5908" stroke="none" /><path d="M 120.70491114924044 103.5080841355445 l 14.489640467281669 2.455015502680829 a35.696148542713146,35.696148542713146 0 0,0 -0.10785941046780635,0.6049328541615887 l -14.445234614474673 -2.7040671075756357" fill="#ff970d" stroke="none" /><path d="M 120.5718875245553 104.21870165774334 l 10.012981678819692 2.05337416690467 a31.2213574230476,31.2213574230476 0 0,0 -0.11249495341631624,0.5255389708626541 l -9.976152686678933 -2.225426957183493" fill="#ff5708" stroke="none" /><path d="M 120.41448212921028 104.9243191809786 l 6.063535244421684 1.4626274974627795 a27.2374465013079,27.2374465013079 0 0,0 -0.11386379191944826,0.45482924828149907 l -6.037460138207175 -1.5667845851416744" fill="#ff1c02" stroke="none" /><path d="M 120.13307415673323 105.97154293290107 l 15.153302612416253 4.494524602693278 a36.80580056395994,36.80580056395994 0 0,0 -0.18538420553074497,0.6058463099328207 l -15.073691634379376 -4.754697885178156" fill="#ffa70f" stroke="none" /><path d="M 119.9155931802556 106.66101706037122 l 15.277730112412677 5.109826255309254 a37.109604642795205,37.109604642795205 0 0,0 -0.20782998886020804,0.6040512306891159 l -15.187509292609237 -5.37205018908767" fill="#ffab0f" stroke="none" /><path d="M 119.79798401119884 107.00284435728193 l 13.086378348221608 4.628848610104055 a34.880905508217595,34.880905508217595 0 0,0 -0.2050926468778107,0.5643268804208526 l -13.004761440338571 -4.853423287531038" fill="#ff8c0c" stroke="none" /><path d="M 119.54520255179757 107.68017299344265 l 13.620406970604574 5.352059232853258 a35.63420732656414,35.63420732656414 0 0,0 -0.22924229775375654,0.5689605830008191 l -13.526262058593424 -5.585719183696891" fill="#ff960d" stroke="none" /><path d="M 119.41010516605496 108.01547362559984 l 14.233188635260483 5.87764708836481 a36.399038736956,36.399038736956 0 0,0 -0.24413185198301865,0.5770555827046079 l -14.129905802085155 -6.121777196735582" fill="#ffa10e" stroke="none" /><path d="M 119.26925614724726 108.34839909993367 l 13.392321704570726 5.802219120971744 a35.59520562946909,35.59520562946909 0 0,0 -0.24841879646772755,0.5601188053877576 l -13.290461823371727 -6.031886262852189" fill="#ff960d" stroke="none" /><path d="M 119.12269723197855 108.67885076344098 l 13.288815439072414 6.03113905007882 a35.59339761724853,35.59339761724853 0 0,0 -0.2580104090598996,0.5557314674314894 l -13.183030413172682 -6.25899058478914" fill="#ff960d" stroke="none" /><path d="M 118.97047184881838 109.00673069616215 l 13.147688493077746 6.2422110782424856 a35.55427469358546,35.55427469358546 0 0,0 -0.26724411780039725,0.5506020377618245 l -13.038291118662634 -6.467602071969585" fill="#ff950d" stroke="none" /><path d="M 118.81262510543309 109.33194174019688 l 10.605573350665562 5.26086030392499 a32.83870082541836,32.83870082541836 0 0,0 -0.2555497224466958,0.5042238463957812 l -10.513444958432597 -5.442638362023466" fill="#ff6f0a" stroke="none" /><path d="M 118.64920377521936 109.65438752849418 l 10.156508024078262 5.2578579537537875 a32.43677076385717,32.43677076385717 0 0,0 -0.2609576696113232,0.4936335664391339 l -10.064497846242045 -5.431906535279056" fill="#ff6909" stroke="none" /><line stroke="#e1ed5e" stroke-width="0.3" x1="174.80103733775053" x2="179.2010983576182" y1="140.37084112569926" y2="142.7455964860345" /><path d="M 175.68104954172406 140.8457921977663 a86.0,86.0 0 0,1 -30.038265399797805,32.042727171017184" fill="none" id="id77" stroke="none" /><text fill="#e1ed5e" style="font-size:6.75px; font-family:Arial;" text-anchor="middle"><textPath startOffset="22.206326154141568" xlink:href="#id77">May</textPath></text><path d="M 117.75023020441432 111.22182372390056 l 6.175358054474256 3.9041059592593657 a28.305962663611453,28.305962663611453 0 0,0 -0.26391284890314204,0.40959860223339384 l -6.107240342194066 -4.009826161414215" fill="#ff2c04" stroke="none" /><path d="M 115.80600337817218 113.82643327865902 l 10.34374037221786 9.04827315839664 a34.74278763704114,34.74278763704114 0 0,0 -0.39762483557666467,0.4467357179623235 l -10.186456686992859 -9.22498304609983" fill="#ff8a0c" stroke="none" /><path d="M 115.32070863581623 114.36230785411682 l 10.990493067047804 10.30297283563395 a36.06460046296074,36.06460046296074 0 0,0 -0.42847054964970804,0.44924965830503566 l -10.811515966019131 -10.490629610521493" fill="#ff9c0e" stroke="none" /><path d="M 114.0293411484842 115.62618273729858 l 22.21633540956094 24.745033511457855 a54.25480781049988,54.25480781049988 0 0,0 -0.7002943118390182,0.6179283083744593 l -21.787098744815335 -25.123784961604603" fill="#7dff26" stroke="none" /><path d="M 112.92097659922987 116.55440617244103 l 4.224983709395142 5.413065789581452 a27.86671454095708,27.86671454095708 0 0,0 -0.3806742777653907,0.2918848034065561 l -4.131180703136257 -5.484989934815379" fill="#ff2503" stroke="none" /><line stroke="#e1ed5e" stroke-width="0.3" x1="143.8653032363475" x2="146.44561519142675" y1="172.8068346515853" y2="177.08958963109032" /><path d="M 144.38136562736335 173.6633856474863 a86.0,86.0 0 0,1 -40.68145358897372,12.25698825130547" fill="none" id="id78" stroke="none" /><text fill="#e1ed5e" style="font-size:6.75px; font-family:Arial;" text-anchor="middle"><textPath startOffset="21.466115282336833" xlink:href="#id78">June</textPath></text><path d="M 110.8373102113329 117.98757091392108 l 7.224242269469974 11.99066628041598 a34.998776882867354,34.998776882867354 0 0,0 -0.5187020876503549,0.30645833624734115 l -7.016772310791237 -12.11324318895707" fill="#ff8d0d" stroke="none" /><path d="M 109.89434966115114 118.52300852407294 l 14.573522135438393 27.28279108635065 a51.93118550740607,51.93118550740607 0 0,0 -0.7920967219336367,0.4143875681126542 l -14.101734510978263 -27.52960807340802" fill="#97ff23" stroke="none" /><path d="M 108.92500713936063 119.00905698771935 l 6.714099161848377 14.30012229636352 a36.79786774365725,36.79786774365725 0 0,0 -0.5756798686337687,0.2642663923752483 l -6.466951297447189 -14.413575759072843" fill="#ffa60f" stroke="none" /><path d="M 108.2653958097858 119.30500536409082 l 5.897570623977185 13.774613479028838 a35.9840353630603,35.9840353630603 0 0,0 -0.5715096569539643,0.23889108295756264 l -5.65958950752576 -13.874089605006375" fill="#ff9b0e" stroke="none" /><path d="M 106.91757812671514 119.82793768551818 l 3.3611725233939063 9.634169375948517 a31.203661122189544,31.203661122189544 0 0,0 -0.5086646497759721,0.1725666666940122 l -3.1948381406807074 -9.690599029540651" fill="#ff5708" stroke="none" /><path d="M 105.88484417918355 120.15858648285463 l 4.030516828777745 13.806571523324433 a35.38285378969465,35.38285378969465 0 0,0 -0.5861234293784096,0.16564433577103027 l -3.7922622312947296 -13.873904652433982" fill="#ff930d" stroke="none" /><path d="M 105.18746579009965 120.34920634021253 l 1.7421071535842763 6.833875994460433 a28.052432094124132,28.052432094124132 0 0,0 -0.46893876864792383,0.11525374011010248 l -1.6242151001931413 -6.862850992884566" fill="#ff2803" stroke="none" /><path d="M 104.13013068566511 120.58985236759428 l 2.8238913047201994 14.077885057760295 a35.35831500561208,35.35831500561208 0 0,0 -0.5977784248175027,0.11456565784091645 l -2.5811452653309925 -14.12440791394968" fill="#ff920d" stroke="none" /><path d="M 103.41894727170886 120.7198165907248 l 2.1755604345758788 13.184530091895576 a34.36281770243806,34.36281770243806 0 0,0 -0.5844364813652023,0.09127695884594442 l -1.9482880896021595 -13.220025358088627" fill="#ff840c" stroke="none" /><path d="M 101.62511606390274 120.93702456842531 l 1.6615101216254307 21.40590386733207 a42.470289617555835,42.470289617555835 0 0,0 -0.729350856980695,0.05030030531721143 l -1.2927965038658054 -21.43133251716557" fill="#fff316" stroke="none" /><path d="M 101.26447882468166 120.96189622390904 l 0.42996053384260124 7.127670242365772 a28.14062666329565,28.14062666329565 0 0,0 -0.4837667613224524,0.02500521577951574 l -0.3072057041066692 -7.1340152649074895" fill="#ff2904" stroke="none" /><line stroke="#e1ed5e" stroke-width="0.3" x1="102.19456741930631" x2="102.32365962044197" y1="184.97166512339345" y2="189.96999836594603" /><path d="M 102.22038585953345 185.97133177190398 a86.0,86.0 0 0,1 -42.740103519485714,-10.115201625700543" fill="none" id="id79" stroke="none" /><text fill="#e1ed5e" style="font-size:6.75px; font-family:Arial;" text-anchor="middle"><textPath startOffset="22.20632615414155" xlink:href="#id79">July</textPath></text><path d="M 100.18074693466247 120.99922214144158 l 0.04881997971398457 5.671916931089964 a26.67212703168787,26.67212703168787 0 0,0 -0.4591338287528761,0.0 l 0.048819979713980666 -5.671916931089964" fill="#ff1302" stroke="none" /><path d="M 99.81925306533755 120.99922214144158 l -0.12184008661970722 14.155410433033898 a35.15593478136829,35.15593478136829 0 0,0 -0.6050843794995664,-0.010417076330925968 l 0.36548415601194156 -14.151215879423813" fill="#ff900d" stroke="none" /><path d="M 99.45781275523022 120.99299961872073 l -0.3777142210911108 14.624752935156186 a35.629629744022026,35.629629744022026 0 0,0 -0.6129647668515693,-0.021111745948024313 l 0.6293993396173232 -14.616084390782069" fill="#ff960d" stroke="none" /><path d="M 98.37488393609728 120.93702456842531 l -1.1361159384174215 14.63703906667497 a35.68106508618824,35.68106508618824 0 0,0 -0.6119399209440277,-0.052800751287951274 l 1.387900177102991 -14.615314063108354" fill="#ff970d" stroke="none" /><path d="M 97.65516085044442 120.86867818915974 l -1.3187963949244665 11.737068432996296 a32.810927115688415,32.810927115688415 0 0,0 -0.5607115221942927,-0.06789435665920777 l 1.5206353401701487 -11.712628547611738" fill="#ff6e0a" stroke="none" /><path d="M 97.2962882734958 120.8252237178851 l -2.8134284024155516 21.67031171267327 a42.85218041981035,42.85218041981035 0 0,0 -0.7306733625541708,-0.10126467013916081 l 3.1860303561565537 -21.618672477041507" fill="#fff717" stroke="none" /><path d="M 96.93821686468263 120.77559828337769 l -1.4902217151238915 10.111835599803499 a31.22105571639643,31.22105571639643 0 0,0 -0.5310019715322429,-0.08293158734623392 l 1.6640595502646516 -10.084685705110159" fill="#ff5708" stroke="none" /><path d="M 93.08242187328487 119.8279376855182 l -7.189772699729974 20.608132275765268 a42.82631318773788,42.82631318773788 0 0,0 -0.6939503175301133,-0.24882589429660867 l 7.543442577889814 -20.4813188404287" fill="#fff717" stroke="none" /><path d="M 92.40401165467489 119.57807347666478 l -3.66251403499405 9.43984714386242 a31.125449281687004,31.125449281687004 0 0,0 -0.4978277339260358,-0.19809592932268555 l 3.824462844961944 -9.375404370133667" fill="#ff5607" stroke="none" /><path d="M 92.06813273071674 119.44442032107085 l -5.454567495418923 13.371492417845278 a35.44122972750501,35.44122972750501 0 0,0 -0.5628886487918999,-0.23528750084663613 l 5.683927603708285 -13.27561987397867" fill="#ff940d" stroke="none" /><path d="M 91.7346041902142 119.30500536409082 l -5.7774275006947144 13.49400215770765 a35.67878614729441,35.67878614729441 0 0,0 -0.5625004022227089,-0.2465836459713945 l 6.008848577575167 -13.392553958441802" fill="#ff970d" stroke="none" /><path d="M 91.07499286063937 119.00905698771935 l -4.171651502667546 8.885052965099728 a30.81564274270085,30.81564274270085 0 0,0 -0.4782108379655468,-0.22957026304823067 l 4.323975008633335 -8.811928425551935" fill="#ff5107" stroke="none" /><path d="M 90.10565033884886 118.52300852407294 l -3.487202545584209 6.528320171526072 a28.401320548110533,28.401320548110533 0 0,0 -0.4292348216560344,-0.23405304872466567 l 3.5990601791088834 -6.467326471041641" fill="#ff2d04" stroke="none" /><line stroke="#e1ed5e" stroke-width="0.3" x1="58.666819895761336" x2="56.23545636021788" y1="174.27360380694188" y2="178.64263932499728" /><path d="M 58.180547188652646 175.14741091055294 a86.0,86.0 0 0,1 -31.652253787137756,-30.449443065178592" fill="none" id="id80" stroke="none" /><text fill="#e1ed5e" style="font-size:6.75px; font-family:Arial;" text-anchor="middle"><textPath startOffset="22.20632615414155" xlink:href="#id80">August</textPath></text><path d="M 89.7882731507175 118.34994917583269 l -6.982460762743967 12.547123714692821 a35.35914592916536,35.35914592916536 0 0,0 -0.5292948154021955,-0.30054740993150486 l 7.19740434506737 -12.425073138966683" fill="#ff920d" stroke="none" /><path d="M 89.4739219176387 118.17145234162733 l -3.8331137261432158 6.617207553435122 a28.647234574850334,28.647234574850334 0 0,0 -0.4245685621847624,-0.25084259016473054 l 3.94645015935636 -6.550246390976642" fill="#ff3104" stroke="none" /><path d="M 88.8546689885994 117.79835938074946 l -7.763801081971478 12.398278855624122 a35.628531225732736,35.628531225732736 0 0,0 -0.5169838967057236,-0.32996358312407426 l 7.976066780724125 -12.262800843676244" fill="#ff960d" stroke="none" /><path d="M 88.24862548938628 117.40417183066458 l -8.154295567309266 12.07677970634818 a35.571930012002625,35.571930012002625 0 0,0 -0.5045168787976804,-0.34701130966755445 l 8.360969330729839 -11.934627607315523" fill="#ff950d" stroke="none" /><path d="M 87.65650970185807 116.9893568818739 l -6.2076008858856415 8.544029628833838 a31.56100142301092,31.56100142301092 0 0,0 -0.43676673153181206,-0.3231095863693972 l 6.353752587836017 -8.435910093724672" fill="#ff5c08" stroke="none" /><path d="M 87.36589467227662 116.77436683061367 l -8.569608326840472 11.377913191341644 a35.24412494557527,35.24412494557527 0 0,0 -0.481453663631981,-0.3691581390355837 l 8.764190718965938 -11.228715710478694" fill="#ff910d" stroke="none" /><path d="M 86.79598089348748 116.32954008644616 l -9.208486403863606 11.388225558778473 a35.645405533059034,35.645405533059034 0 0,0 -0.4737951173531051,-0.3899011257742342 l 9.4031516497614 -11.228029314147058" fill="#ff960d" stroke="none" /><path d="M 86.51685102203217 116.09983520530335 l -9.334671835001673 11.146259563303033 a35.53874824459444,35.53874824459444 0 0,0 -0.46561602672973607,-0.39680807930306156 l 9.525153338308467 -10.983927093777021" fill="#ff950d" stroke="none" /><path d="M 85.70375840098266 115.38237550388516 l -6.700788237430574 7.2098698197195255 a30.842905354629313,30.842905354629313 0 0,0 -0.3857774285684183,-0.36477663772445035 l 6.823901500389806 -7.093458545249146" fill="#ff5207" stroke="none" /><path d="M 85.44109423537348 115.13401014063109 l -9.855615859811136 10.244931368876994 a35.21589894200014,35.21589894200014 0 0,0 -0.4332394842283311,-0.42401602014161144 l 10.03050529641526 -10.07376524581281" fill="#ff900d" stroke="none" /><path d="M 84.9287848128048 114.62390073753433 l -7.151241980469254 6.938992747003123 a30.964430852095255,30.964430852095255 0 0,0 -0.36787726847033575,-0.38571784523720903 l 7.269625800318547 -6.814867785183414" fill="#ff5307" stroke="none" /><path d="M 84.67929136418377 114.36230785411682 l -6.381718862057927 5.982504668291208 a29.74738233647484,29.74738233647484 0 0,0 -0.3469870550497103,-0.3765859174807888 l 6.4837523251033655 -5.8717674960090775" fill="#ff4106" stroke="none" /><path d="M 83.95833913139862 113.55231037782056 l -12.354698358339006 10.437491987147238 a37.1734291511512,37.1734291511512 0 0,0 -0.4087377851750016,-0.49235099299389806 l 12.532532143407543 -10.22327973703958" fill="#ffac0f" stroke="none" /><path d="M 83.50135304334701 112.99209946851258 l -11.038217712631894 8.692205055020095 a35.049792845091254,35.049792845091254 0 0,0 -0.3691797731072908,-0.47721462267540266 l 11.186204302957254 -8.50091243823144" fill="#ff8e0d" stroke="none" /><path d="M 82.85270091963577 112.12312394758628 l -11.989153906584535 8.476320273823864 a35.68290900265369,35.68290900265369 0 0,0 -0.35026869007729716,-0.5045881723297052 l 12.133283503823964 -8.26869083930715" fill="#ff970d" stroke="none" /><path d="M 82.44556493220864 111.52570212397912 l -10.382159586226607 6.8166066485395325 a33.419958287964995,33.419958287964995 0 0,0 -0.311593585663121,-0.48360016453517796 l 10.497958035266773 -6.636884884082906" fill="#ff770b" stroke="none" /><path d="M 82.05923443525364 110.91462005526583 l -12.603732483683338 7.667730278351718 a35.75290344785752,35.75290344785752 0 0,0 -0.3153391175170398,-0.5285264992307108 l 12.73385247689861 -7.449641685234896" fill="#ff980e" stroke="none" /><line stroke="#e1ed5e" stroke-width="0.3" x1="26.63291911575756" x2="22.317208475507996" y1="142.92168965132927" y2="145.44649492493687" /><path d="M 25.769776987707644 143.4266507060508 a86.0,86.0 0 0,1 -11.730757126820373,-40.83630448921669" fill="none" id="id81" stroke="none" /><text fill="#e1ed5e" style="font-size:6.75px; font-family:Arial;" text-anchor="middle"><textPath startOffset="21.46611528233685" xlink:href="#id81">September</textPath></text><path d="M 81.69416730710424 110.29060199501025 l -12.902726760713245 7.253252445402098 a35.8016900689873,35.8016900689873 0 0,0 -0.29736472997793634,-0.5398033603345368 l 13.0256679001427 -7.030078566669738" fill="#ff990e" stroke="none" /><path d="M 81.35079622478065 109.6543875284942 l -13.012493733224897 6.736355006189946 a35.65276328637836,35.65276328637836 0 0,0 -0.27744866676453833,-0.5474325410882762 l 13.126521069775702 -6.511368253398984" fill="#ff970d" stroke="none" /><path d="M 81.02952815118164 109.00673069616217 l -9.13075491824765 4.3350661626498885 a31.10759536248141,31.10759536248141 0 0,0 -0.22549360110692204,-0.4856931559318035 l 9.204023136194397 -4.177252939439257" fill="#ff5507" stroke="none" /><path d="M 80.73074385275274 108.34839909993369 l -13.135504615103367 5.690953198604372 a35.315321505369944,35.315321505369944 0 0,0 -0.23686325632902813,-0.5598747696870185 l 13.231518852624701 -5.464003903251195" fill="#ff920d" stroke="none" /><path d="M 80.58989483394504 108.01547362559985 l -8.658503814737253 3.575560687097909 a30.36772771470967,30.36772771470967 0 0,0 -0.19536193453336895,-0.48487229999617676 l 8.71876836352801 -3.425989019258927" fill="#ff4b06" stroke="none" /><path d="M 80.20201598880116 107.00284435728193 l -13.115892599359183 4.63928824410524 a34.912211689369094,34.912211689369094 0 0,0 -0.19552362889146693,-0.5682831881405376 l 13.193807059193878 -4.412832352875405" fill="#ff8c0c" stroke="none" /><path d="M 80.0844068197444 106.66101706037122 l -13.782581683495435 4.609755325828802 a35.53304517388668,35.53304517388668 0 0,0 -0.18901507099584794,-0.5817285722819354 l 13.859889005507531 -4.371827853569064" fill="#ff950d" stroke="none" /><path d="M 79.97269907076064 106.31721596034903 l -13.864182854499056 4.373182263305874 a35.53754756934878,35.53754756934878 0 0,0 -0.17899624302985442,-0.5849700788748766 l 13.937405870035041 -4.133885211878949" fill="#ff950d" stroke="none" /><path d="M 79.86692584326677 105.97154293290107 l -7.308297226399217 2.167667506417513 a28.622990933208094,28.622990933208094 0 0,0 -0.13603739283221197,-0.4735640108782324 l 7.344527256117533 -2.0415460200346844" fill="#ff3104" stroke="none" /><path d="M 79.4281124754447 104.21870165774334 l -4.3422145893436275 0.8904631558225127 a25.43257850148038,25.43257850148038 0 0,0 -0.08425458052141022,-0.4296122908888956 l 4.356899102840704 -0.8155871378656623" fill="#ff0000" stroke="none" /><path d="M 79.10278846688536 102.07522291339032 l -13.825506271902446 1.372958653321206 a34.89351068442183,34.89351068442183 0 0,0 -0.05421023206616416,-0.5982053935843484 l 13.847091100245684 -1.1347718711882913" fill="#ff8c0c" stroke="none" /><path d="M 79.07016306316243 101.71520430193888 l -14.508079544828743 1.1889400057562836 a35.55671495964546,35.55671495964546 0 0,0 -0.044739560563101986,-0.610435758137128 l 14.52639566405618 -0.9390311111223948" fill="#ff950d" stroke="none" /><path d="M 79.04373962182676 101.35467743843564 l -6.925077797179274 0.44765843151201185 a27.939531725432857,27.939531725432857 0 0,0 -0.026893328126884653,-0.4801984396215272 l 6.93175747619369 -0.32838827555504707" fill="#ff2603" stroke="none" /><path d="M 79.0095281055655 100.63252640178507 l -14.248564595495752 0.42936592085768127 a35.255032378988446,35.255032378988446 0 0,0 -0.013057687232466886,-0.6067394164959613 l 14.253844345413226 -0.18403668857159117" fill="#ff910d" stroke="none" /><line stroke="#e1ed5e" stroke-width="0.3" x1="15.007084014347285" x2="10.007500721073583" y1="101.09737516637583" y2="101.16192664675087" /><path d="M 14.007167355692545 101.11028546245083 a86.0,86.0 0 0,1 10.666146001902534,-42.60595125391555" fill="none" id="id82" stroke="none" /><text fill="#e1ed5e" style="font-size:6.75px; font-family:Arial;" text-anchor="middle"><textPath startOffset="22.20632615414155" xlink:href="#id82">October</textPath></text><path d="M 79.00175016825051 100.2711162175752 l -14.406821942339263 0.18601183925246464 a35.408022726335844,35.408022726335844 0 0,0 -0.0026230646156523607,-0.6095078386247269 l 14.407889304244419 0.06200547757593761" fill="#ff930d" stroke="none" /><path d="M 79.00486145842228 99.54816195383935 l -11.614107075331544 -0.24994812196290564 a32.616796340684424,32.616796340684424 0 0,0 0.016911506877874762,-0.5612105815832612 l 11.608083873998025 0.4498288509711612" fill="#ff6b09" stroke="none" /><path d="M 79.08570108090925 98.10471618934814 l -30.406041730353564 -2.7554391787400716 a51.53063737912686,51.53063737912686 0 0,0 0.08765821345758085,-0.8827062468413741 l 30.354106391213755 3.278420956285876" fill="#9cff22" stroke="none" /><path d="M 79.12142395522702 97.74499172005258 l -15.93513990444553 -1.721088274870231 a37.02781421854359,37.02781421854359 0 0,0 0.07389631537846919,-0.6330985024434186 l 15.903153236063472 1.9951305156385113" fill="#ffaa0f" stroke="none" /><path d="M 79.21141760316559 97.0276538004421 l -14.36299983185072 -2.053618046171017 a35.50906996500131,35.50906996500131 0 0,0 0.09172179881203829,-0.6043320535058463 l 14.32552213959938 2.3005492120689555" fill="#ff950d" stroke="none" /><path d="M 79.32604984820605 96.31383870115002 l -14.356717815374608 -2.559799999563791 a35.583138292838804,35.583138292838804 0 0,0 0.11270412783635503,-0.6020699575298396 l 14.310527963628392 2.8065480345562035" fill="#ff960d" stroke="none" /><path d="M 79.46518482838121 95.60439243477599 l -42.329411952644215 -9.060879382429755 a64.28832003485005,64.28832003485005 0 0,0 0.24094531604533626,-1.080110607202563 l 42.167172249596845 9.788168159182277" fill="#33ff53" stroke="none" /><path d="M 79.71946130924805 94.55025226153421 l -6.5678167674201875 -1.7648912152036496 a27.800813046387084,27.800813046387084 0 0,0 0.12816602342388494,-0.46108137808665783 l 6.5364639734299415 1.8776838967092497" fill="#ff2403" stroke="none" /><path d="M 79.81627453868168 94.20196356495316 l -6.8744391619377145 -1.974771644997613 a28.152456699699027,28.152456699699027 0 0,0 0.13780507288319413,-0.46461019919077107 l 6.8394281919428135 2.092811230934923" fill="#ff2a04" stroke="none" /><path d="M 79.91906864156998 93.8553929516997 l -14.130939052098887 -4.323956202468558 a35.777687090170765,35.777687090170765 0 0,0 0.18526796545300944,-0.5873500795230567 l 14.054415602877674 4.56655644841803" fill="#ff980e" stroke="none" /><path d="M 80.14247586403 93.16781622104843 l -13.567617119338603 -4.668077095968883 a35.34821166804,35.34821166804 0 0,0 0.20291038168880787,-0.5736549732401235 l 13.485253656839987 4.900929695635617" fill="#ff920d" stroke="none" /><path d="M 80.52162464483688 92.15188598940014 l -13.5197960981746 -5.447317820087706 a35.57594449664454,35.57594449664454 0 0,0 0.23374803852748569,-0.5660394160224054 l 13.424026372760915 5.679231806563423" fill="#ff950d" stroke="none" /><path d="M 80.803312248108 91.48605970444005 l -13.139263432724643 -5.827406573450469 a35.373549002484694,35.373549002484694 0 0,0 0.2516536315121218,-0.5544854190840227 l 13.03700748424917 6.052714001376564" fill="#ff930d" stroke="none" /><path d="M 81.10775173730289 90.83032412892265 l -39.158699498817384 -19.00634466285655 a64.52751869658982,64.52751869658982 0 0,0 0.49360475083660016,-0.9950770575164096 l 38.825734735027375 19.67758130887192" fill="#33ff56" stroke="none" /><line stroke="#e1ed5e" stroke-width="0.3" x1="26.266209847984257" x2="21.92892807433627" y1="57.711370442889674" y2="55.22380399835377" /><path d="M 25.39875349325466 57.213857153982495 a86.0,86.0 0 0,1 29.58750427330802,-30.492523968695096" fill="none" id="id83" stroke="none" /><text fill="#e1ed5e" style="font-size:6.75px; font-family:Arial;" text-anchor="middle"><textPath startOffset="21.46611528233685" xlink:href="#id83">November</textPath></text><path d="M 82.7489923806493 88.02491185347247 l -7.565501594108211 -5.251725027384239 a30.20963789373436,30.20963789373436 0 0,0 0.30020810422461475,-0.42462307337157423 l 7.473980870079718 5.3811746010876" fill="#ff4806" stroke="none" /><path d="M 83.17141714833178 87.43820079747576 l -5.44695696029952 -4.065914533813019 a27.79713183067883,27.79713183067883 0 0,0 0.28951912019674564,-0.38097322512911796 l 5.376161899878663 4.159072534823164" fill="#ff2403" stroke="none" /><path d="M 83.6137871275137 86.86637796730984 l -11.28049235945465 -9.041364477846374 a35.4566863247764,35.4566863247764 0 0,0 0.3858050614850361,-0.47295138727669034 l 11.123188805893221 9.234200034731145" fill="#ff940d" stroke="none" /><path d="M 84.31358615837235 86.03803664274997 l -10.972426037218227 -9.766197157519397 a35.68920488187718,35.68920488187718 0 0,0 0.41239107266401864,-0.455372522507841 l 10.802691323938163 9.953622467296796" fill="#ff970d" stroke="none" /><path d="M 85.05521093208273 85.24692304244772 l -5.009935410104798 -4.945667839254611 a28.039821246996212,28.039821246996212 0 0,0 0.342038017770874,-0.3405691978232387 l 4.924061592166611 5.031172887727961" fill="#ff2803" stroke="none" /><path d="M 85.83668400450813 84.49514656593479 l -41.889182270711146 -45.85689056058258 a83.1092424941257,83.1092424941257 0 0,0 1.0645463361972285,-0.955760211560273 l 41.09362494691794 46.57114978091213" fill="#4cdbff" stroke="none" /><path d="M 88.39885842347998 82.49532879139004 l -5.611114996497973 -8.466470517538562 a31.157053437305237,31.157053437305237 0 0,0 0.4496006938525955,-0.2924327977386533 l 5.46454727686109 8.561802239436751" fill="#ff5608" stroke="none" /><path d="M 88.70189139769569 82.29822771554957 l -10.918064166717121 -17.10632217031673 a41.2936044936138,41.2936044936138 0 0,0 0.6024556926837515,-0.3772576994891754 l 10.621989321661127 17.291724211128837" fill="#ffe315" stroke="none" /><line stroke="#e1ed5e" stroke-width="0.3" x1="56.762969772571076" x2="54.21961505331055" y1="26.818313649435495" y2="22.513508569990535" /><path d="M 56.25429882871897 25.957352633546506 a86.0,86.0 0 0,1 42.265352541879196,-11.944610805530505" fill="none" id="id84" stroke="none" /><text fill="#e1ed5e" style="font-size:6.75px; font-family:Arial;" text-anchor="middle"><textPath startOffset="22.20632615414155" xlink:href="#id84">December</textPath></text><path d="M 89.63071344664047 81.73862282372117 l -4.294671121661868 -7.563356340589367 a29.697618017478682,29.697618017478682 0 0,0 0.44670295922197834,-0.2485897131719995 l 4.163844073367845 7.636161451321551" fill="#ff4106" stroke="none" /><path d="M 89.94658935756843 81.56283822128135 l -14.783178748859573 -27.111183248207265 a51.87974467249701,51.87974467249701 0 0,0 0.7877196939844017,-0.4207725800658881 l 14.314314008346866 27.361634554774906" fill="#98ff23" stroke="none" /><path d="M 91.23893434514133 80.91482961587045 l -6.094401729295781 -13.276089915892774 a35.60809008368011,35.60809008368011 0 0,0 0.5592468969925539,-0.2509177810247927 l 5.864972713836452 13.379028027434096" fill="#ff960d" stroke="none" /><path d="M 91.90106846888425 80.62456947434976 l -7.296882903836624 -17.456654277655574 a39.92034034265488,39.92034034265488 0 0,0 0.6362848497242051,-0.25955656636362373 l 6.995314184524039 17.579671730202776" fill="#ffd113" stroke="none" /><path d="M 92.23578459929587 80.48803036053334 l -11.404294065262837 -28.65972002023256 a51.84538012028881,51.84538012028881 0 0,0 0.8320364722632558,-0.32281722477597713 l 10.909274427999904 28.851779948899086" fill="#98ff23" stroke="none" /><path d="M 93.25333710446033 80.11325718540243 l -4.757600706542566 -14.023700773327517 a35.80874565460293,35.80874565460293 0 0,0 0.585417023675127,-0.19300278855204434 l 4.515500860625029 14.103517286138795" fill="#ff990e" stroke="none" /><path d="M 93.59665428221793 80.00007090966166 l -4.326568360590562 -13.51341380428923 a35.18913480184109,35.18913480184109 0 0,0 0.5784668597737855,-0.1797324691641006 l 4.093316128106048 13.585886408335856" fill="#ff900d" stroke="none" /><path d="M 94.28887869178378 79.79150937346287 l -3.854852578362689 -13.64018517422384 a35.17443261608821,35.17443261608821 0 0,0 0.5840666142184714,-0.15964746891008227 l 3.619488074920495 13.704519183960217" fill="#ff900d" stroke="none" /><path d="M 94.63758080256005 79.69619591428918 l -3.7820068351797955 -14.319866277699692 a35.810879309228994,35.810879309228994 0 0,0 0.5973444147808183,-0.15227639175583807 l 3.5349535317139775 14.382845665624394" fill="#ff990e" stroke="none" /><path d="M 95.33964822691252 79.52364482259891 l -3.291383766554583 -14.461471217322782 a35.831296533620865,35.831296533620865 0 0,0 0.6025753844695682,-0.13169963991046846 l 3.041965657931494 14.515984355329119" fill="#ff990e" stroke="none" /><path d="M 95.692805502759 79.44645832069477 l -2.9535654134949754 -14.09414640265468 a35.40029553416379,35.40029553416379 0 0,0 0.5974787548618175,-0.11984861743698248 l 2.7105202491660214 14.142898976168873" fill="#ff930d" stroke="none" /><path d="M 96.40284397218896 79.31037775812273 l -2.4949468686013443 -14.35008874394817 a35.565363257960016,35.565363257960016 0 0,0 0.604053635579786,-0.09967402560193475 l 2.2475640268826726 14.390909032489732" fill="#ff950d" stroke="none" /><path d="M 96.75951476605007 79.25152402106235 l -4.021989220632226 -25.752361361669937 a47.06454513305215,47.06454513305215 0 0,0 0.801511488647396,-0.11812195852223198 l 3.5781087515561807 25.81777780435314" fill="#d1ff1c" stroke="none" /><path d="M 97.47563105711357 79.15227682838746 l -1.7587965174917832 -14.525175892054447 a35.6312713010545,35.6312713010545 0 0,0 0.6095209070293993,-0.06848677584273773 l 1.5085089069526658 14.553298621367784" fill="#ff960d" stroke="none" /><path d="M 98.19473922651362 79.07773832637324 l -0.7682875876555718 -8.904150683164778 a29.9372347628251,29.9372347628251 0 0,0 0.5137939577088162,-0.03988029968059464 l 0.6149034405844214 8.916056245033834" fill="#ff4406" stroke="none" /><path d="M 98.55514903715128 79.0497635885617 l -1.201264456091945 -17.418249352282306 a38.45962332903413,38.45962332903413 0 0,0 0.660842461164215,-0.03986382193990329 l 0.9012599460881071 17.436346443602517" fill="#ffbd11" stroke="none" /><path d="M 98.91598698831166 79.02799685794201 l -0.803736174177174 -15.549589708315773 a36.57034784244208,36.57034784244208 0 0,0 0.6289388755242504,-0.027083430988146116 l 0.5359564662635994 15.561120865828112" fill="#ffa30f" stroke="none" /></svg>