<?xml version="1.0" encoding="utf-8" ?>
<svg baseProfile="full" height="200mm" version="1.1" viewBox="0,0,200,200" width="200mm" xmlns="http://www.w3.org/2000/svg" xmlns:ev="http://www.w3.org/2001/xml-events" xmlns:xlink="http://www.w3.org/1999/xlink"><defs /><rect fill="#1a1a1a" height="200" width="200" x="0" y="0" /><text alignment-baseline="middle" fill="#e1ed5e" style="dominant-baseline: central; font-size:9.0px; font-family:Arial;" text-anchor="middle" x="100.0" y="100.0">2020</text><line stroke="#e1ed5e" stroke-width="0.3" x1="100.0" x2="100.0" y1="15.0" y2="10.0" /><path d="M 100.0 14.0 a86.0,86.0 0 0,1 42.35913384403234,11.155469271406648" fill="none" id="id37" stroke="none" /><text fill="#e1ed5e" style="font-size:6.75px; font-family:Arial;" text-anchor="middle"><textPath startOffset="22.145653131862478" xlink:href="#id37">January</textPath></text><path d="M 100.72087961077811 79.0123766808444 l 0.9902019952693657 -28.82865068712069 a49.845651326178434,49.845651326178434 0 0,0 0.8549104549410588,0.036713533388455004 l -1.4849382108112608 28.8074045853064" fill="#d8ff1c" stroke="none" /><path d="M 101.44090949804482 79.04949213459386 l 2.2215344874047482 -32.30062388706429 a53.37692880698101,53.37692880698101 0 0,0 0.9135868179478087,0.07071739763601233 l -2.7756903001277906 32.25772872243323" fill="#a9ff21" stroke="none" /><path d="M 102.15924093988457 79.11130261209362 l 2.9988968911239033 -29.011607041671446 a50.16619148438741,50.16619148438741 0 0,0 0.8558450172512309,0.09589921930487655 l -3.496477809975931 28.9558520618596" fill="#d4ff1c" stroke="none" /><path d="M 102.87502721639298 79.19773525538626 l 3.5951806708625447 -26.012936397113435 a47.2602015235301,47.2602015235301 0 0,0 0.8026917803507031,0.11796804950199857 l -4.041197556820929 25.947387274312554" fill="#fcff18" stroke="none" /><path d="M 107.06938296918511 80.22567764915836 l 9.825718309856963 -27.484282862394576 a50.18784926582934,50.18784926582934 0 0,0 0.8087672688906773,0.296990543730612 l -10.296074730401765 27.31156146965524" fill="#d4ff1c" stroke="none" /><path d="M 107.74402155503746 80.48000691201159 l 9.675780754949523 -24.389288190274435 a47.23848531539333,47.23848531539333 0 0,0 0.7511943538665014,0.3055042040820153 l -10.093029570006463 24.219596729613126" fill="#fdff18" stroke="none" /><path d="M 109.71004243097381 81.37971332152246 l 12.120569357120438 -23.242789899252653 a47.213269232233664,47.213269232233664 0 0,0 0.7154185863322413,0.3809201011097894 l -12.51777675923924 23.03129933042029" fill="#fdff18" stroke="none" /><path d="M 110.34350942703115 81.72400993836675 l 13.054873957654845 -23.066711389313863 a47.504771426446155,47.504771426446155 0 0,0 0.706254640566984,0.40775630684777064 l -13.448921066082226 22.83920818518992" fill="#f9ff18" stroke="none" /><line stroke="#e1ed5e" stroke-width="0.3" x1="143.13028292997686" x2="145.6673583964461" y1="26.7553504044142" y2="22.446841604673864" /><path d="M 143.63769802327073 25.89364864446614 a86.0,86.0 0 0,1 29.32050498858742,28.57503671076993" fill="none" id="id38" stroke="none" /><text fill="#e1ed5e" style="font-size:6.75px; font-family:Arial;" text-anchor="middle"><textPath startOffset="20.669276256404974" xlink:href="#id38">February</textPath></text><path d="M 113.03279911837588 83.53348406188908 l 20.05954537241059 -25.344580284394098 a53.32233144963242,53.32233144963242 0 0,0 0.7128668322545628,0.5742350588689419 l -20.49166297502041 24.99649693173175" fill="#aaff21" stroke="none" /><path d="M 113.86319453409587 84.22622945171908 l 17.918139543381702 -20.387553612859627 a48.14244032899998,48.14244032899998 0 0,0 0.6160741624033834,0.5508973149229103 l -18.26547873260846 20.07696076805333" fill="#f0ff19" stroke="none" /><path d="M 114.91283532996326 85.21462403516908 l 22.734283188198997 -22.539974243066048 a53.0140292834143,53.0140292834143 0 0,0 0.6351918805659242,0.6517628268111333 l -23.117861869915732 22.146388724187172" fill="#aeff20" stroke="none" /><path d="M 116.1254893667686 86.54754324733833 l 22.372732163161434 -18.664128884302094 a50.135697202133294,50.135697202133294 0 0,0 0.5456510983446002,0.6656056183528524 l -22.68983008074466 18.277320984250746" fill="#d4ff1c" stroke="none" /><line stroke="#e1ed5e" stroke-width="0.3" x1="172.87174338648825" x2="177.1583165268699" y1="56.24261187166439" y2="53.66864786411523" /><path d="M 173.72905801456457 55.72781907015455 a86.0,86.0 0 0,1 12.242430191666344,42.057860355516425" fill="none" id="id39" stroke="none" /><text fill="#e1ed5e" style="font-size:6.75px; font-family:Arial;" text-anchor="middle"><textPath startOffset="22.145653131862474" xlink:href="#id39">March</textPath></text><path d="M 118.70294669586156 90.45014215332178 l 25.314443565523185 -12.925735257107757 a49.423505852883395,49.423505852883395 0 0,0 0.37933737917847477,0.7589288663933039 l -25.532600857913398 12.489274534550704" fill="#deff1b" stroke="none" /><path d="M 119.71291397450082 92.76114493625339 l 24.623424058529302 -9.042062384253796 a47.23112472859098,47.23112472859098 0 0,0 0.27295053646167183,0.7634912293414046 l -24.775014765034918 8.618036198531476" fill="#fdff18" stroke="none" /><path d="M 120.05942366710727 93.78553927170692 l 56.6753688387278 -17.55817414073244 a80.33284850874871,80.33284850874871 0 0,0 0.3967818415199302,1.3207577041197123 l -56.96842700025136 16.582678833022005" fill="#48faff" stroke="none" /><path d="M 120.43855184770803 95.1765574152323 l 16.1705967038106 -3.8162167918472645 a37.61480389170053,37.61480389170053 0 0,0 0.1429167997712439,0.629717789711362 l -16.23372436513951 3.538064668196876" fill="#ff720a" stroke="none" /><line stroke="#e1ed5e" stroke-width="0.3" x1="184.99686870605535" x2="189.99668451229388" y1="99.2704041080226" y2="99.22748670261217" /><path d="M 185.99683186730306 99.26182062694052 a86.0,86.0 0 0,1 -10.086455211305974,41.156179273409016" fill="none" id="id40" stroke="none" /><text fill="#e1ed5e" style="font-size:6.75px; font-family:Arial;" text-anchor="middle"><textPath startOffset="21.40746469413373" xlink:href="#id40">April</textPath></text><path d="M 120.65975698304385 103.76489593502545 l 28.328927212134126 5.162474224267561 a49.79547285784035,49.79547285784035 0 0,0 -0.1604687750406267,0.8396404386625941 l -28.23613214481134 -5.64801722796347" fill="#d9ff1c" stroke="none" /><path d="M 120.26092885502905 105.52220625578681 l 28.207547619750486 7.688092537155645 a50.23649277154084,50.23649277154084 0 0,0 -0.2339142864802733,0.8300792820299268 l -28.071414841195633 -8.17117974308858" fill="#d3ff1c" stroke="none" /><path d="M 120.05942366710727 106.21446072829308 l 16.713103008014013 5.177762034186987 a38.49677204055523,38.49677204055523 0 0,0 -0.20098116877735722,0.6295706486500195 l -16.6217571234594 -5.46390171652839" fill="#ff800b" stroke="none" /><path d="M 119.31412917781788 108.2440532568976 l 26.180635964789865 11.174956696523534 a49.46586300624003,49.46586300624003 0 0,0 -0.3400568864234029,0.7781167048682354 l -25.984945196349493 -11.622735471167614" fill="#deff1b" stroke="none" /><path d="M 119.16976305983485 108.57439118712176 l 16.8880007002047 7.553787906504718 a39.50038592534143,39.50038592534143 0 0,0 -0.282174834905805,0.6166029387189883 l -16.75584140044384 -7.842579827438395" fill="#ff8f0d" stroke="none" /><path d="M 118.70294669586154 109.54985784667822 l 25.64198697120327 13.092981253887176 a49.79127739343983,49.79127739343983 0 0,0 -0.39522877032935433,0.7579032799732799 l -25.413450131898966 -13.531230776964959" fill="#d9ff1c" stroke="none" /><line stroke="#e1ed5e" stroke-width="0.3" x1="174.33088141563837" x2="178.70328620479359" y1="141.23008692659167" y2="143.65538615756765" /><path d="M 175.20536237346943 141.71514677278685 a86.0,86.0 0 0,1 -30.301960400862466,31.631185727798858" fill="none" id="id41" stroke="none" /><text fill="#e1ed5e" style="font-size:6.75px; font-family:Arial;" text-anchor="middle"><textPath startOffset="22.145653131862474" xlink:href="#id41">May</textPath></text><path d="M 118.18653347947321 110.5 l 25.6606519874011 14.815184332507323 a50.63036866501466,50.63036866501466 0 0,0 -0.4410297854596817,0.7489649940311306 l -25.40254849181165 -15.253500494832002" fill="#ceff1d" stroke="none" /><path d="M 117.81537515405839 111.11811171558189 l 16.13133655769936 10.06714708049779 a40.014927543331396,40.014927543331396 0 0,0 -0.3686752643098341,0.5796187508288134 l -15.956143601763635 -10.342579506005277" fill="#ff970d" stroke="none" /><path d="M 117.423217284605 111.72311816256416 l 24.65138808436938 16.586554059659136 a50.712029719630124,50.712029719630124 0 0,0 -0.4921729582755768,0.7180950548911244 l -24.363025389278484 -17.007283849620308" fill="#cdff1d" stroke="none" /><path d="M 117.01052211995028 112.31430620078461 l 17.175893688754158 12.434022463506883 a42.204156164072614,42.204156164072614 0 0,0 -0.42987541755542213,0.5832085638783282 l -16.959916251614906 -12.727037336654089" fill="#ffb811" stroke="none" /><path d="M 116.57777611688842 112.89097897827486 l 23.150489594666507 18.00196073329716 a50.32602527987615,50.32602527987615 0 0,0 -0.536172441309033,0.6774363642222131 l -22.838050722715913 -18.396717041434055" fill="#d2ff1c" stroke="none" /><path d="M 115.41159269507618 114.26474011684316 l 9.690594297992028 8.96946941004887 a34.20450678162869,34.20450678162869 0 0,0 -0.4025449671908602,0.4274888053916577 l -9.535193497064908 -9.134499675385024" fill="#ff3b05" stroke="none" /><path d="M 114.91283532996324 114.78537596483092 l 33.233008987182096 32.94896788210583 a67.79815563500519,67.79815563500519 0 0,0 -0.826517887754642,0.8194536747520292 l -32.66249917929749 -33.51460156708652" fill="#36ff6b" stroke="none" /><path d="M 113.03279911837588 116.46651593811092 l 20.121187093238365 25.42246258498386 a53.421655940528495,53.421655940528495 0 0,0 -0.7239653343710792,0.5629598228721315 l -19.681811814232056 -25.764123459476785" fill="#a9ff21" stroke="none" /><path d="M 111.5731344415666 117.5232005979908 l 11.033733800770833 16.706479278535564 a41.021232016796844,41.021232016796844 0 0,0 -0.5909291460761814,0.3830331330831852 l -10.745319022437643 -16.893426253322644" fill="#ffa70f" stroke="none" /><line stroke="#e1ed5e" stroke-width="0.3" x1="143.1302829299769" x2="145.66735839644613" y1="173.24464959558577" y2="177.55315839532614" /><path d="M 143.63769802327073 174.10635135553383 a86.0,86.0 0 0,1 -40.68552437913181,11.842963189579606" fill="none" id="id42" stroke="none" /><text fill="#e1ed5e" style="font-size:6.75px; font-family:Arial;" text-anchor="middle"><textPath startOffset="21.407464694133747" xlink:href="#id42">June</textPath></text><path d="M 110.34350942703117 118.27599006163325 l 14.377838522828085 25.4042630119587 a50.19073174432755,50.19073174432755 0 0,0 -0.7534723753856031,0.4179384253527488 l -13.939621959286388 -25.647334352744593" fill="#d4ff1c" stroke="none" /><path d="M 109.71004243097381 118.62028667847754 l 6.0913320892219405 11.680932453324726 a34.17378114287313,34.17378114287313 0 0,0 -0.5224890883854413,0.2667866514117535 l -5.889915779122917 -11.783777056409315" fill="#ff3b05" stroke="none" /><path d="M 108.07796709384702 119.3841803445677 l 11.084254049789303 26.59817463849025 a49.815335881087634,49.815335881087634 0 0,0 -0.792171865799475,0.32216940144926015 l -10.626027722799387 -26.784531296518804" fill="#d9ff1c" stroke="none" /><path d="M 106.38641147887787 120.00534299687104 l 19.159234436633636 60.016028990613094 a84.0,84.0 0 0,0 -1.3774374685135027,0.42673364877342257 l -18.126156335248506 -60.33607922719317" fill="#4dd2ff" stroke="none" /><path d="M 103.58742460773223 120.69131181640829 l 5.320596321088695 30.687785686588615 a52.145608607923776,52.145608607923776 0 0,0 -0.8833031475632311,0.14534719679525607 l -4.793015670472392 -30.774598881879545" fill="#baff1f" stroke="none" /><line stroke="#e1ed5e" stroke-width="0.3" x1="101.45913802915013" x2="101.54496967792366" y1="184.9874750549273" y2="189.98673829345242" /><path d="M 101.47630435890484 185.9873277026323 a86.0,86.0 0 0,1 -42.54439059252881,-10.42667462771756" fill="none" id="id43" stroke="none" /><text fill="#e1ed5e" style="font-size:6.75px; font-family:Arial;" text-anchor="middle"><textPath startOffset="22.145653131862474" xlink:href="#id43">July</textPath></text><path d="M 99.27912038922189 120.98762331915562 l -1.0230085651246237 29.78377817334929 a50.80134206379967,50.80134206379967 0 0,0 -0.8713016542040792,-0.03741744201180463 l 1.5341359799295418 -29.761828162911655" fill="#cbff1d" stroke="none" /><path d="M 93.95794788825049 120.11202640906438 l -8.6227997021611 28.702495794880083 a50.96975040868206,50.96975040868206 0 0,0 -0.8358052854011688,-0.25893461391626893 l 9.114245620433902 -28.550244593157167" fill="#c9ff1d" stroke="none" /><line stroke="#e1ed5e" stroke-width="0.3" x1="58.13341422392154" x2="55.670673884152215" y1="173.97424548756322" y2="178.32567169271397" /><path d="M 57.64086615596767 174.84453072859336 a86.0,86.0 0 0,1 -31.369924170532244,-30.572349798747897" fill="none" id="id44" stroke="none" /><text fill="#e1ed5e" style="font-size:6.75px; font-family:Arial;" text-anchor="middle"><textPath startOffset="22.145653131862474" xlink:href="#id44">August</textPath></text><path d="M 88.4268655584334 117.5232005979908 l -16.120311506636547 24.40820623480579 a50.25106792361282,50.25106792361282 0 0,0 -0.7157276639543908,-0.48157351421927735 l 16.53693545868794 -24.12788304652939" fill="#d3ff1c" stroke="none" /><path d="M 87.54013794807813 116.9041958592261 l -18.102493725535734 24.559509423273873 a51.51015867207083,51.51015867207083 0 0,0 -0.7072762044677997,-0.5307532494879822 l 18.5214229189143 -24.245137146521877" fill="#c2ff1e" stroke="none" /><path d="M 84.3458050057657 113.99807769240083 l -22.11580348748922 19.77608785132459 a50.66820544961472,50.66820544961472 0 0,0 -0.57421296695625,-0.6533489495757256 l 22.452027518404062 -19.393526623937564" fill="#cdff1d" stroke="none" /><line stroke="#e1ed5e" stroke-width="0.3" x1="26.387840678322732" x2="22.057713659400548" y1="142.50000000000003" y2="145.00000000000006" /><path d="M 25.521815274538298 143.00000000000003 a86.0,86.0 0 0,1 -11.493303480769221,-40.785679425670985" fill="none" id="id45" stroke="none" /><text fill="#e1ed5e" style="font-size:6.75px; font-family:Arial;" text-anchor="middle"><textPath startOffset="21.40746469413373" xlink:href="#id45">September</textPath></text><path d="M 80.41425534168474 107.57618678355246 l -14.914799132872107 5.769364710972661 a36.991772958060004,36.991772958060004 0 0,0 -0.2240104034080062,-0.5942142090766717 l 15.011640220094549 -5.512482221701845" fill="#ff6809" stroke="none" /><path d="M 80.28708602549918 107.23885506374661 l -11.45525598502567 4.2065286695300195 a33.2031870070914,33.2031870070914 0 0,0 -0.19188252996094124,-0.5367295869359383 l 11.525778685030552 -4.009264126213159" fill="#ff2b04" stroke="none" /><path d="M 79.73907114497094 105.5222062557868 l -21.55279223603722 5.874309364941859 a43.33898752595627,43.33898752595627 0 0,0 -0.18947499743596485,-0.719467427252013 l 21.65045671427792 -5.503461433317044" fill="#ffc912" stroke="none" /><path d="M 79.48165901384964 104.47187691870673 l -14.616473764928967 3.185592427106441 a35.95958904624371,35.95958904624371 0 0,0 -0.12627344828976358,-0.6042641615693719 l 14.669004924043099 -2.93421181425166" fill="#ff5708" stroke="none" /><path d="M 79.34024301695615 103.76489593502545 l -30.20510039901842 5.504375477535056 a51.70254451201841,51.70254451201841 0 0,0 -0.15162431618516822,-0.8745287631620056 l 30.295139532695824 -4.985053681452459" fill="#bfff1e" stroke="none" /><path d="M 79.22317932658666 103.0534771498775 l -22.802794816187678 3.351225580614073 a44.04773664205051,44.04773664205051 0 0,0 -0.10352368269605153,-0.749045797723797 l 22.85696301543894 -2.9592914746901906" fill="#ffd413" stroke="none" /><path d="M 79.0935383218832 101.97986365728391 l -30.07876146218136 2.8484899832389563 a51.21333788715539,51.21333788715539 0 0,0 -0.07537232112611955,-0.8759406220335619 l 30.123227406005224 -2.3317283138297324" fill="#c6ff1e" stroke="none" /><path d="M 79.03789590574601 101.26102812881392 l -14.239035035567467 0.8565849890965578 a35.26477678015549,35.26477678015549 0 0,0 -0.031164676438497567,-0.6045863971966328 l 14.251641301462536 -0.6120267985231942" fill="#ff4c07" stroke="none" /><path d="M 79.00696218219943 100.54070618675478 l -21.336663222472616 0.549556758255895 a42.343739365438296,42.343739365438296 0 0,0 -0.01247843463958442,-0.7268062592226131 l 21.342953088710868 -0.1832035830642295" fill="#ffba11" stroke="none" /><line stroke="#e1ed5e" stroke-width="0.3" x1="15.003131293944662" x2="10.003315487706104" y1="100.72959589197737" y2="100.7725132973878" /><path d="M 14.003168132696942 100.73817937305945 a86.0,86.0 0 0,1 10.791469493833615,-42.45332614584628" fill="none" id="id46" stroke="none" /><text fill="#e1ed5e" style="font-size:6.75px; font-family:Arial;" text-anchor="middle"><textPath startOffset="22.145653131862435" xlink:href="#id46">October</textPath></text><path d="M 79.00077361379809 99.81974689727619 l -30.298203640943083 -0.26007363856158333 a51.29931983008086,51.29931983008086 0 0,0 0.015117588081445886,-0.8805237162591711 l 30.28927462126297 0.7801442707898069" fill="#c5ff1e" stroke="none" /><path d="M 79.01933749520258 99.09900007780938 l -14.658020514640015 -0.6294784704791534 a35.67153054566579,35.67153054566579 0 0,0 0.03152413850375986,-0.6115598652316139 l 14.645054786679685 0.8810101290874793" fill="#ff5307" stroke="none" /><path d="M 79.06263194458094 98.37931529534042 l -28.875628812845886 -2.235156292354259 a49.96200723341713,49.96200723341713 0 0,0 0.07353069744447985,-0.8545381632908301 l 28.83300449270366 2.7305155030207695" fill="#d7ff1c" stroke="none" /><path d="M 79.64726062577567 94.8264132398404 l -28.24744262703587 -7.180389455027364 a50.145771694939754,50.145771694939754 0 0,0 0.21923377784571968,-0.832466363625114 l 28.120019368385424 7.664236323025262" fill="#d4ff1c" stroke="none" /><path d="M 79.94057633289273 93.78553927170692 l -9.234554105582534 -2.8608884674260455 a30.667557724264313,30.667557724264313 0 0,0 0.1601069717865315,-0.5015328087413866 l 9.184082418018749 3.0189903098588236" fill="#ff0000" stroke="none" /><path d="M 80.16572619554312 93.10060997987247 l -17.89072053288989 -6.2233213030352745 a39.94221764278883,39.94221764278883 0 0,0 0.23082765434269825,-0.645666031159621 l 17.78125270850325 6.529522290575817" fill="#ff960d" stroke="none" /><path d="M 80.68587082218212 91.75594674310238 l -27.111581080173085 -11.572321808862249 a50.478067452169725,50.478067452169725 0 0,0 0.3470153638740434,-0.7940390630411395 l 26.908931834282065 12.036022941679256" fill="#d0ff1d" stroke="none" /><path d="M 80.9802524753101 91.09779779509293 l -12.957525748718853 -6.064776314230586 a35.3066063505768,35.3066063505768 0 0,0 0.26164001329496633,-0.5467269990341416 l 12.851506477463982 6.286315815329814" fill="#ff4d07" stroke="none" /><path d="M 81.63589988554816 89.8137432299009 l -25.227581787236808 -13.993314356375173 a49.84863479452811,49.84863479452811 0 0,0 0.4214978256544258,-0.7447462707897797 l 24.98365059656101 14.424317397264058" fill="#d8ff1c" stroke="none" /><line stroke="#e1ed5e" stroke-width="0.3" x1="26.387840678322718" x2="22.05771365940052" y1="57.49999999999999" y2="54.99999999999999" /><path d="M 25.521815274538284 56.99999999999999 a86.0,86.0 0 0,1 29.574782752854787,-30.34633250058573" fill="none" id="id47" stroke="none" /><text fill="#e1ed5e" style="font-size:6.75px; font-family:Arial;" text-anchor="middle"><textPath startOffset="21.40746469413373" xlink:href="#id47">November</textPath></text><path d="M 82.18462484594161 88.88188828441811 l -36.56890119849138 -22.82169897209739 a64.10585202542754,64.10585202542754 0 0,0 0.5906356300080329,-0.9285773123432128 l 36.17174787685745 23.446089959119277" fill="#30ff38" stroke="none" /><path d="M 82.576782715395 88.27688183743585 l -12.385532339417091 -8.333538906705883 a35.928137259562135,35.928137259562135 0 0,0 0.3486915766955669,-0.50875143117285 l 12.240651025906212 8.544925072948768" fill="#ff5708" stroke="none" /><path d="M 82.98947788004972 87.6856937992154 l -49.678284284498915 -35.96324674193674 a82.32933266939169,82.32933266939169 0 0,0 0.8385751422378483,-1.1376882334648724 l 49.05360712267724 36.81074128467048" fill="#4be4ff" stroke="none" /><path d="M 84.58840730492382 85.73525988315684 l -10.027835577627787 -9.281614903759767 a34.664035333444986,34.664035333444986 0 0,0 0.40795305294384204,-0.4332320050498977 l 9.867026690947673 9.452388368754175" fill="#ff4306" stroke="none" /><path d="M 85.86807049272753 84.46653392183569 l -20.6237542264496 -22.669118644845486 a51.64682982833753,51.64682982833753 0 0,0 0.6609194965988157,-0.5909982892905149 l 20.231569703027393 23.019812464019402" fill="#c0ff1e" stroke="none" /><path d="M 89.03521579738668 82.08984904055464 l -15.212022383147634 -24.847695335007213 a50.134405579086796,50.134405579086796 0 0,0 0.7378525016171402,-0.4430592269967715 l 14.78323712497306 25.10516856253991" fill="#d5ff1c" stroke="none" /><line stroke="#e1ed5e" stroke-width="0.3" x1="56.869717070023135" x2="54.33264160355391" y1="26.7553504044142" y2="22.446841604673864" /><path d="M 56.362301976729285 25.89364864446614 a86.0,86.0 0 0,1 42.16139366436587,-11.88097634709845" fill="none" id="id48" stroke="none" /><text fill="#e1ed5e" style="font-size:6.75px; font-family:Arial;" text-anchor="middle"><textPath startOffset="22.145653131862474" xlink:href="#id48">December</textPath></text><path d="M 90.28995756902619 81.37971332152246 l -13.538133925138693 -25.961156871322068 a50.279049442773655,50.279049442773655 0 0,0 0.768725433056738,-0.3925166835043415 l 13.090481270368372 26.189731506499243" fill="#d3ff1c" stroke="none" /><path d="M 90.93487009805054 81.0573650232925 l -12.675842789176562 -26.487636203190522 a50.36446597587786,50.36446597587786 0 0,0 0.7830745981408488,-0.36651845168432523 l 12.219279477164191 26.70133088644539" fill="#d1ff1c" stroke="none" /><path d="M 92.25597844496254 80.48000691201159 l -7.01311568638056 -17.67763283592116 a40.0179518958324,40.0179518958324 0 0,0 0.6407212107418335,-0.247844728574213 l 6.708622213145198 17.795417452633412" fill="#ff970d" stroke="none" /><path d="M 92.93061703081487 80.22567764915836 l -6.354693339764425 -17.775208259191643 a39.87697423052967,39.87697423052967 0 0,0 0.6465656930383551,-0.2249091110612403 l 6.048621874681065 17.88167580282147" fill="#ff950d" stroke="none" /><path d="M 99.63950707515114 79.00309439819443 l -0.4977896027074716 -28.993748773270013 a49.99802169831694,49.99802169831694 0 0,0 0.8582825275563166,-0.007367323241361402 l 7.102466890889867e-15 28.99802169831694" fill="#d6ff1c" stroke="none" /></svg>