<?xml version="1.0" encoding="utf-8" ?>
<svg baseProfile="full" height="200mm" version="1.1" viewBox="0,0,200,200" width="200mm" xmlns="http://www.w3.org/2000/svg" xmlns:ev="http://www.w3.org/2001/xml-events" xmlns:xlink="http://www.w3.org/1999/xlink"><defs /><rect fill="#1a1a1a" height="200" width="200" x="0" y="0" /><text alignment-baseline="middle" fill="#e1ed5e" style="dominant-baseline: central; font-size:9.0px; font-family:Arial;" text-anchor="middle" x="100.0" y="100.0">2024</text><line stroke="#e1ed5e" stroke-width="0.3" x1="100.0" x2="100.0" y1="15.0" y2="10.0" /><path d="M 100.0 14.0 a86.0,86.0 0 0,1 42.35913384403234,11.155469271406648" fill="none" id="id85" stroke="none" /><text fill="#e1ed5e" style="font-size:6.75px; font-family:Arial;" text-anchor="middle"><textPath startOffset="22.145653131862478" xlink:href="#id85">January</textPath></text><path d="M 100.72087961077811 79.0123766808444 l 0.2581902824903743 -7.516928364398226 a28.52136119711499,28.52136119711499 0 0,0 0.4891742655142721,0.02100724774850177 l -0.38719030860548265 7.511388548223894" fill="#ff4e07" stroke="none" /><path d="M 103.58742460773223 79.30868818359171 l 2.54349669523949 -14.670213030197448 a35.88907404072091,35.88907404072091 0 0,0 0.6061241908218211,0.11045601862686681 l -2.794955619612365 14.624388837639215" fill="#ffb310" stroke="none" /><path d="M 104.29559338865022 79.4440306129975 l 1.6022210992291723 -7.667207970378558 a28.832827746851812,28.832827746851812 0 0,0 0.483619312742279,0.10540257828606994 l -1.7336028285905856 7.63857393395877" fill="#ff5207" stroke="none" /><path d="M 107.06938296918511 80.22567764915836 l 4.991634468014014 -13.962490002074237 a35.82793113419025,35.82793113419025 0 0,0 0.5773600271237582,0.2120145992295144 l -5.230583646791897 13.874744553836" fill="#ffb210" stroke="none" /><path d="M 107.40779381753099 80.34994680014964 l 2.7663741590089153 -7.338136121792659 a28.842261646335864,28.842261646335864 0 0,0 0.4617889703770124,0.17862989409878152 l -2.8919353918794535 7.289566339555839" fill="#ff5207" stroke="none" /><path d="M 108.4095320186766 80.7573450057729 l 8.957701312750288 -20.496973615151866 a43.3688698907361,43.3688698907361 0 0,0 0.6796244673494857,0.3039873797711897 l -9.308239182955406 20.340182484470827" fill="#edff1a" stroke="none" /><path d="M 110.02825361518725 81.54914285379988 l 7.27668250403241 -13.388276217588333 a36.23798045486779,36.23798045486779 0 0,0 0.5440111403753674,0.30175380917777933 l -7.505437832563877 13.261389492977408" fill="#ffb711" stroke="none" /><path d="M 110.34350942703115 81.72400993836675 l 14.605626697004332 -25.80674288948687 a50.65320066664519,50.65320066664519 0 0,0 0.7530624178621604,0.43478078966930883 l -15.04648158272689 25.55221520254139" fill="#98ff23" stroke="none" /><line stroke="#e1ed5e" stroke-width="0.3" x1="143.13028292997686" x2="145.6673583964461" y1="26.7553504044142" y2="22.446841604673864" /><path d="M 143.63769802327073 25.89364864446614 a86.0,86.0 0 0,1 29.32050498858742,28.57503671076993" fill="none" id="id86" stroke="none" /><text fill="#e1ed5e" style="font-size:6.75px; font-family:Arial;" text-anchor="middle"><textPath startOffset="20.669276256404974" xlink:href="#id86">February</textPath></text><path d="M 110.65571695917076 81.90426304109057 l 3.892104768477775 -6.6096447922516814 a28.67045525432143,28.67045525432143 0 0,0 0.42195707493793094,0.2533730996887331 l -4.0049945999731404 6.541857692027028" fill="#ff5007" stroke="none" /><path d="M 112.45986205192187 83.09580414077388 l 4.41720536919696 -5.992787432170105 a28.44481057387214,28.44481057387214 0 0,0 0.39057029095121243,0.29309122767929946 l -4.519428649058939 5.916077177226791" fill="#ff4d07" stroke="none" /><path d="M 113.03279911837588 83.53348406188908 l 13.77251456650274 -17.40112224222203 a43.19191773536673,43.19191773536673 0 0,0 0.577433220527772,0.46513932810418746 l -14.069198557385771 17.162134620324434" fill="#efff19" stroke="none" /><path d="M 114.39649973595853 84.71141617570332 l 10.275593622447268 -10.91232433733891 a35.98888410579514,35.98888410579514 0 0,0 0.44613793979728705,0.42739005427731497 l -10.461404048109868 10.734322152756016" fill="#ffb410" stroke="none" /><path d="M 114.91283532996326 85.21462403516908 l 10.70097085466196 -10.60951011488605 a36.06892438464651,36.06892438464651 0 0,0 0.43216273540335215,0.4434370379828672 l -10.881520391216124 10.424250384835439" fill="#ffb510" stroke="none" /><path d="M 115.16444852881244 85.47280134310134 l 32.05422293213326 -30.707220473126114 a65.38926218093823,65.38926218093823 0 0,0 0.7695511754432898,0.8172366803483669 l -32.57662994131281 30.152442332833253" fill="#35ff69" stroke="none" /><path d="M 115.8921839302757 86.27271002978787 l 19.104202933290804 -16.50175548342714 a46.24437568551012,46.24437568551012 0 0,0 0.5137649645070965,0.6052138363457358 l -19.384662461305012 16.17137486463185" fill="#caff1d" stroke="none" /><path d="M 116.35404254752997 86.82634096563983 l 11.71244958681395 -9.434720306333292 a36.03979463232115,36.03979463232115 0 0,0 0.3839672329540182,0.48513005561752476 l -11.872683250409526 9.232270306801087" fill="#ffb510" stroke="none" /><path d="M 116.57777611688842 87.10902102172516 l 5.877008441678534 -4.569997311016995 a28.444736640490603,28.444736640490603 0 0,0 0.2964321127832794,0.3880391512319701 l -5.95459253181612 4.468437246544143" fill="#ff4d07" stroke="none" /><path d="M 116.7966241395341 87.39550010848427 l 12.198153275284557 -9.153721626307771 a36.25075614319729,36.25075614319729 0 0,0 0.3692363584566249,0.5009400341423059 l -12.353491653325008 8.942975282896588" fill="#ffb711" stroke="none" /><path d="M 117.42321728460499 88.27688183743584 l 12.458015299172626 -8.382308676841129 a36.01550012314826,36.01550012314826 0 0,0 0.3407333187865334,0.5159136727964335 l -12.600073056879884 8.167215125705637" fill="#ffb410" stroke="none" /><path d="M 117.62189284568427 88.57770195909679 l 12.761501896063528 -8.271851348936572 a36.20787478190614,36.20787478190614 0 0,0 0.33359919972018703,0.5244733513144196 l -12.901618787409605 8.051564322943479" fill="#ffb711" stroke="none" /><line stroke="#e1ed5e" stroke-width="0.3" x1="172.87174338648825" x2="177.1583165268699" y1="56.24261187166439" y2="53.66864786411523" /><path d="M 173.72905801456457 55.72781907015455 a86.0,86.0 0 0,1 12.242430191666344,42.057860355516425" fill="none" id="id87" stroke="none" /><text fill="#e1ed5e" style="font-size:6.75px; font-family:Arial;" text-anchor="middle"><textPath startOffset="22.145653131862474" xlink:href="#id87">March</textPath></text><path d="M 118.36410011445183 89.81374322990088 l 55.092300343355504 -30.558770310297362 a84.0,84.0 0 0,0 0.6886186015386349,1.2669806661015868 l -55.60876429450948 29.60853481072117" fill="#4dd2ff" stroke="none" /><path d="M 119.31412917781788 91.75594674310238 l 13.794327588706453 -5.887978186197276 a35.998391938660724,35.998391938660724 0 0,0 0.23771650476849748,0.570433073789403 l -13.893369938011435 5.650312602966595" fill="#ffb410" stroke="none" /><path d="M 119.4528033332814 92.08871423366111 l 14.344968358680527 -5.8339737491947075 a36.485908656512166,36.485908656512166 0 0,0 0.23097547818388944,0.5822090893731428 l -14.44300251183054 5.586863642607999" fill="#ffba11" stroke="none" /><path d="M 119.83427380445688 93.10060997987247 l 7.4172384563657365 -2.5801005616478205 a28.853174213450647,28.853174213450647 0 0,0 0.1587124883602791,0.4692052704761283 l -7.460436366298381 2.4523936166975306" fill="#ff5307" stroke="none" /><path d="M 119.94978838288452 93.4421083053983 l 14.301925293194168 -4.701326916205152 a36.054817895449354,36.054817895449354 0 0,0 0.18823239083651544,0.5896352833292973 l -14.38052239980794 4.455122599184468" fill="#ffb510" stroke="none" /><path d="M 120.16314734710363 94.1308016681162 l 29.998478369418777 -8.732119850829553 a52.24353727684716,52.24353727684716 0 0,0 0.24325961210894756,0.8632425458258818 l -30.14395647360231 8.215869381100658" fill="#86ff25" stroke="none" /><path d="M 120.51834098615036 95.52812308129327 l 14.662246123312341 -3.1955682995762262 a36.00643589057189,36.00643589057189 0 0,0 0.12643795274411668,0.6050513749347424 l -14.714941786880825 2.9434004733560797" fill="#ffb410" stroke="none" /><path d="M 120.77682067341334 96.94652285012252 l 15.145761830341975 -2.225905416107056 a36.308453754148346,36.308453754148346 0 0,0 0.08533434705565238,0.6174368260372795 l -15.18174069395284 1.965580281869691" fill="#ffb811" stroke="none" /><path d="M 120.9064616781168 98.02013634271609 l 15.482644943347415 -1.466222573380256 a36.551916379547926,36.551916379547926 0 0,0 0.05379463422604459,0.6251751924580194 l -15.5055332002712 1.2002263335465748" fill="#ffbb11" stroke="none" /><path d="M 120.98066250479742 99.09900007780936 l 25.53199933542834 -1.0964539088950265 a46.55553171504448,46.55553171504448 0 0,0 0.02743520366675424,0.7987460203246171 l -25.54705922609194 0.6580016240062895" fill="#c6ff1e" stroke="none" /><line stroke="#e1ed5e" stroke-width="0.3" x1="184.99686870605535" x2="189.99668451229388" y1="99.2704041080226" y2="99.22748670261217" /><path d="M 185.99683186730306 99.26182062694052 a86.0,86.0 0 0,1 -10.086455211305974,41.156179273409016" fill="none" id="id88" stroke="none" /><text fill="#e1ed5e" style="font-size:6.75px; font-family:Arial;" text-anchor="middle"><textPath startOffset="21.40746469413373" xlink:href="#id88">April</textPath></text><path d="M 120.99922638620191 100.18025310272382 l 22.364911189583257 0.19197586424965105 a43.36573511535896,43.36573511535896 0 0,0 -0.012779610382639445,0.7443482363618805 l -22.35832014760195 -0.5758710165806026" fill="#edff1a" stroke="none" /><path d="M 120.96210409425399 101.26102812881392 l 22.239309131390606 1.337861612268161 a43.27951400581113,43.27951400581113 0 0,0 -0.05097922567641954,0.7412267529330554 l -22.21306594454912 -1.71943178935556" fill="#eeff19" stroke="none" /><path d="M 120.93736805541906 101.62068470465957 l 15.250855209609252 1.1805126463731512 a36.29647654633944,36.29647654633944 0 0,0 -0.05341869518494137,0.6208062109461057 l -15.22834289172657 -1.4421399046949142" fill="#ffb811" stroke="none" /><path d="M 120.592083275326 104.11899336999214 l 14.988952410875486 2.9982102722701 a36.28587449942711,36.28587449942711 0 0,0 -0.1274192119203606,0.6097470553128628 l -14.935275488130761 -3.255073778868372" fill="#ffb811" stroke="none" /><path d="M 120.51834098615036 104.47187691870673 l 16.055276674470797 3.4991728245708895 a37.43216722012107,37.43216722012107 0 0,0 -0.1422228748820433,0.6266602286118077 l -15.99284293803109 -3.7742673871217143" fill="#ffc712" stroke="none" /><path d="M 120.26092885502905 105.52220625578681 l 10.297911625573695 2.806741606329044 a31.673555278951078,31.673555278951078 0 0,0 -0.1474803807873806,0.5233558430293361 l -10.248212752711735 -2.9831053732613886" fill="#ff7a0b" stroke="none" /><path d="M 120.05942366710727 106.21446072829308 l 14.550368197961909 4.507741261615141 a36.23262767804455,36.23262767804455 0 0,0 -0.18916068731520558,0.5925431588271982 l -14.470842794869448 -4.756853454133723" fill="#ffb711" stroke="none" /><path d="M 119.83427380445688 106.89939002012753 l 14.1470774557154 4.92108790945506 a35.978548219056336,35.978548219056336 0 0,0 -0.20792145209192694,0.5815933066920514 l -14.060515833579531 -5.163216172528033" fill="#ffb410" stroke="none" /><path d="M 119.58574465831526 107.57618678355244 l 14.02391205788472 5.424750451933406 a36.03655635020985,36.03655635020985 0 0,0 -0.22813083575499143,0.5750387321943522 l -13.928722547163604 -5.664690201341322" fill="#ffb510" stroke="none" /><path d="M 119.0197475246899 108.90220220490707 l 17.558344066048754 8.218191595676542 a40.38644163958404,40.38644163958404 0 0,0 -0.2992841912528942,0.6253888527271454 l -17.41468061683595 -8.51839295046879" fill="#ffed16" stroke="none" /><path d="M 118.70294669586154 109.54985784667822 l 13.385852824285843 6.83491183005788 a36.02987277251895,36.02987277251895 0 0,0 -0.2859947174780039,0.5484325805810697 l -13.26655003783289 -7.0636906537434525" fill="#ffb510" stroke="none" /><path d="M 118.5362547648365 109.86951160357373 l 13.44816702698869 7.16039147085132 a36.23562937333493,36.23562937333493 0 0,0 -0.2970539098206966,0.5465457361909299 l -13.323267767552654 -7.390192040516853" fill="#ffb711" stroke="none" /><line stroke="#e1ed5e" stroke-width="0.3" x1="174.33088141563837" x2="178.70328620479359" y1="141.23008692659167" y2="143.65538615756765" /><path d="M 175.20536237346943 141.71514677278685 a86.0,86.0 0 0,1 -30.301960400862466,31.631185727798858" fill="none" id="id89" stroke="none" /><text fill="#e1ed5e" style="font-size:6.75px; font-family:Arial;" text-anchor="middle"><textPath startOffset="22.145653131862474" xlink:href="#id89">May</textPath></text><path d="M 117.21940702142032 112.02048342749411 l 1.7740070700757935 1.2383947112450882 a23.163497757225255,23.163497757225255 0 0,0 -0.23040499746283213,0.3240934833398147 l -1.7524869740830007 -1.2686654212944068" fill="#ff0000" stroke="none" /><path d="M 116.35404254752997 113.17365903436017 l 8.140129317022064 6.557111968272579 a31.452627548243818,31.452627548243818 0 0,0 -0.3423141937835186,0.41756765690654774 l -8.026368303999917 -6.69588190687762" fill="#ff770a" stroke="none" /><path d="M 115.6541949942343 113.99807769240083 l 6.320858275653873 5.652150446436003 a29.4793899550645,29.4793899550645 0 0,0 -0.34056037051797333,0.37433550459515796 l -6.22290020429402 -5.759823526588832" fill="#ff5b08" stroke="none" /><path d="M 115.41159269507618 114.26474011684316 l 12.105739890978839 11.204892114887333 a37.495409834687365,37.495409834687365 0 0,0 -0.4412748477290975,0.46861859638070424 l -11.91160920951348 -11.411052171212534" fill="#ffc812" stroke="none" /><path d="M 114.91283532996324 114.78537596483092 l 42.68204569234095 42.31724407506806 a81.10412773339252,81.10412773339252 0 0,0 -0.9887291433599945,0.9802785177001427 l -41.94932462885099 -43.043702602996866" fill="#49edff" stroke="none" /><path d="M 114.65682725009322 115.03919595460226 l 25.010710026397067 25.66319181037825 a56.834829843614216,56.834829843614216 0 0,0 -0.7045557128312411,0.6749484351973232 l -24.566481827700514 -26.088752375881153" fill="#55ff2b" stroke="none" /><path d="M 113.59037401385872 116.0094264158162 l 7.0167776253191265 8.265746399189554 a31.84240433570406,31.84240433570406 0 0,0 -0.4197521324817827,0.35017215791822337 l -6.873851158675449 -8.384980741019648" fill="#ff7c0b" stroke="none" /><path d="M 113.03279911837588 116.46651593811092 l 9.666762521986719 12.213638658313343 a36.57624046207342,36.57624046207342 0 0,0 -0.49567782372079006,0.38544207380580203 l -9.4556747536307 -12.37778178373994" fill="#ffbc11" stroke="none" /><path d="M 112.45986205192187 116.90419585922612 l 18.720463094236962 25.39790355637077 a52.551691611091144,52.551691611091144 0 0,0 -0.7307662803528412,0.529018431886886 l -18.281715803510153 -25.715522759630733" fill="#83ff25" stroke="none" /><path d="M 111.5731344415666 117.5232005979908 l 4.950974938984608 7.496407083966151 a29.98377827058257,29.98377827058257 0 0,0 -0.4319297012414904,0.2799716139181322 l -4.821559605486108 -7.580292539588178" fill="#ff6209" stroke="none" /><path d="M 111.27062007382361 117.71928675628689 l 8.198029804344403 12.888664508986842 a36.27499150566494,36.27499150566494 0 0,0 -0.5282949347752728,0.3296951118242079 l -7.975570740779414 -13.027495417652599" fill="#ffb811" stroke="none" /><path d="M 110.96478420261333 117.91015095944535 l 4.40498372794916 7.195209872225884 a29.436523380449657,29.436523380449657 0 0,0 -0.4332316732251497,0.2601431720146861 l -4.280819298166574 -7.2697670447764935" fill="#ff5b08" stroke="none" /><line stroke="#e1ed5e" stroke-width="0.3" x1="143.1302829299769" x2="145.66735839644613" y1="173.24464959558577" y2="177.55315839532614" /><path d="M 143.63769802327073 174.10635135553383 a86.0,86.0 0 0,1 -40.68552437913181,11.842963189579606" fill="none" id="id90" stroke="none" /><text fill="#e1ed5e" style="font-size:6.75px; font-family:Arial;" text-anchor="middle"><textPath startOffset="21.407464694133747" xlink:href="#id90">June</textPath></text><path d="M 110.65571695917076 118.09573695890943 l 5.348426214935197 9.082796990615138 a31.540534338890673,31.540534338890673 0 0,0 -0.4689139232528292,0.27072757981678547 l -5.191719823821969 -9.173271467708096" fill="#ff780b" stroke="none" /><path d="M 110.34350942703117 118.27599006163325 l 5.87227181834749 10.375741632802058 a32.92223094639674,32.92223094639674 0 0,0 -0.49423450689137405,0.27414354966824434 l -5.6932931233000215 -10.475018097903446" fill="#ff8b0c" stroke="none" /><path d="M 109.71004243097381 118.62028667847754 l 7.362019430042146 14.11764297575358 a36.92190859410901,36.92190859410901 0 0,0 -0.564505703426083,0.2882406344317401 l -7.11858650490248 -14.241941561858155" fill="#ffc011" stroke="none" /><path d="M 109.3889696526874 118.78422872680471 l 14.310562067110316 28.630710399707535 a53.00796408190527,53.00796408190527 0 0,0 -0.8174326607337801,0.3998472764378899 l -13.816969157114466 -28.87215142624265" fill="#7eff26" stroke="none" /><path d="M 109.06512990194946 118.94263497670748 l 8.335479139901013 17.417945513295837 a40.309713576225505,40.309713576225505 0 0,0 -0.6267417344402189,0.29334677776339074 l -8.035248691589288 -17.558468522629763" fill="#ffec16" stroke="none" /><path d="M 108.73861861582097 119.09545874513695 l 6.468201494682979 14.13418759039735 a36.54390200098938,36.54390200098938 0 0,0 -0.5726718264706209,0.2561488238887454 l -6.2246162653567305 -14.243140165195944" fill="#ffbb11" stroke="none" /><path d="M 108.4095320186766 119.2426549942271 l 6.219405448951335 14.231216797509775 a36.53088972583895,36.53088972583895 0 0,0 -0.576779128852622,0.24619271270014478 l -5.9741912449282815 -14.335884159869325" fill="#ffbb11" stroke="none" /><path d="M 107.407793817531 119.65005319985036 l 5.348997980749627 14.188852643128056 a36.16361825971841,36.16361825971841 0 0,0 -0.5827695587870291,0.21400105418608997 l -5.10463927030847 -14.278584546322868" fill="#ffb610" stroke="none" /><path d="M 107.06938296918513 119.77432235084164 l 4.204125096513878 11.75968613160469 a33.48859022231867,33.48859022231867 0 0,0 -0.542984365383287,0.18887814842855233 l -4.001634959085569 -11.830122712601833" fill="#ff930d" stroke="none" /><path d="M 106.38641147887787 120.00534299687104 l 7.197285504447346 22.545394332808602 a44.666341589995824,44.666341589995824 0 0,0 -0.7324415772319431,0.22691227290546423 l -6.809203294343779 -22.66562319352071" fill="#ddff1b" stroke="none" /><path d="M 106.0420521117495 120.11202640906438 l 13.899395274838866 46.26656633662177 a69.30929879005942,69.30929879005942 0 0,0 -1.1424152297633658,0.33254042364615843 l -13.103120032693893 -46.49835045457045" fill="#3aff96" stroke="none" /><path d="M 105.69591212413111 120.21278271476187 l 2.1439881656992816 7.608257640195106 a28.904572700294796,28.904572700294796 0 0,0 -0.4787403801522758,0.1304828194744128 l -2.0130663846123107 -7.643940953813661" fill="#ff5307" stroke="none" /><path d="M 105.3480935250658 120.30758222061773 l 2.8352327406633644 10.765840523497609 a32.13291816511344,32.13291816511344 0 0,0 -0.5346224533386721,0.1358989370138472 l -2.650004994099295 -10.812924692346726" fill="#ff800b" stroke="none" /><path d="M 104.64783097203109 120.47920084513623 l 3.6767511461580797 16.200443956087273 a37.612431590983284,37.612431590983284 0 0,0 -0.6308815242231439,0.13749769187071614 l -3.3981072053158 -16.261173106091707" fill="#ffc912" stroke="none" /><path d="M 104.29559338865022 120.5559693870025 l 4.748889549917221 22.72515561372269 a44.216042936409835,44.216042936409835 0 0,0 -0.7443107892349955,0.14888300348639816 l -4.358082275151268 -22.80332801387195" fill="#e2ff1b" stroke="none" /><path d="M 103.94208987418118 120.62667999033965 l 3.0746135619929458 16.08767736437257 a37.37884646535697,37.37884646535697 0 0,0 -0.631284692437617,0.11504110016167693 l -2.7979941360042715 -16.138086638465612" fill="#ffc612" stroke="none" /><path d="M 103.2317021107853 120.74984581791261 l 1.6571161436946151 10.639874377431912 a31.768145647288833,31.768145647288833 0 0,0 -0.5395666663707814,0.07929771895788862 l -1.474224371716148 -10.666753169688683" fill="#ff7b0b" stroke="none" /><path d="M 102.875027216393 120.80226474461374 l 2.1111608501808634 15.2753082383075 a36.42050718720501,36.42050718720501 0 0,0 -0.6200542408291526,0.08027843539370347 l -1.848628787460935 -15.3092982699016" fill="#ffba11" stroke="none" /><path d="M 101.80034050326958 120.92268563240118 l 1.5488483154998622 17.99996519470923 a39.06647940566093,39.06647940566093 0 0,0 -0.6686525696842502,0.05175793774796364 l -1.239626751040376 -18.023900899452247" fill="#ffdc14" stroke="none" /><path d="M 101.08105385017728 120.97215588758144 l 0.9152040810562866 17.754714673756155 a38.77828708443179,38.77828708443179 0 0,0 -0.6650923836113283,0.028561928668663483 l -0.6102859368441288 -17.767809170850647" fill="#ffd814" stroke="none" /><path d="M 100.72087961077811 120.9876233191556 l 0.3147674035952063 9.164109514311443 a30.169513711678476,30.169513711678476 0 0,0 -0.517747193459479,0.013335331127785215 l -0.15740689606498345 -9.168162562789274" fill="#ff6509" stroke="none" /><line stroke="#e1ed5e" stroke-width="0.3" x1="101.45913802915013" x2="101.54496967792366" y1="184.9874750549273" y2="189.98673829345242" /><path d="M 101.47630435890484 185.9873277026323 a86.0,86.0 0 0,1 -42.54439059252881,-10.42667462771756" fill="none" id="id91" stroke="none" /><text fill="#e1ed5e" style="font-size:6.75px; font-family:Arial;" text-anchor="middle"><textPath startOffset="22.145653131862474" xlink:href="#id91">July</textPath></text><path d="M 100.36049292484886 120.99690560180557 l 0.21104078549113764 12.292067737379872 a33.29387926870424,33.29387926870424 0 0,0 -0.5715337103399883,0.004905929518800586 l -1.5055659895522649e-15 -12.293879268704238" fill="#ff900d" stroke="none" /><path d="M 99.63950707515114 120.99690560180557 l -0.2382306108246065 13.875738751438924 a34.87778367471253,34.87778367471253 0 0,0 -0.5985470890993886,-0.015416449822503953 l 0.47639101399473904 -13.869604584266371" fill="#ffa50f" stroke="none" /><path d="M 99.27912038922189 120.98762331915562 l -0.5153719814308759 15.004492919203255 a36.013341268407395,36.013341268407395 0 0,0 -0.6176703714081456,-0.02652542342030356 l 0.7728681134398603 -14.993434927357121" fill="#ffb410" stroke="none" /><path d="M 98.91894614982273 120.97215588758144 l -0.4896432188053498 9.498947635586418 a30.511559108018773,30.511559108018773 0 0,0 -0.5228455652507263,-0.03145309086541043 l 0.6526331361885225 -9.489142566896316" fill="#ff6a09" stroke="none" /><path d="M 97.48249496171623 120.84855314841334 l -1.8027403422441548 14.929276115247891 a36.03772449763812,36.03772449763812 0 0,0 -0.6135374169759559,-0.07943470207454846 l 2.0587555811109044 -14.896129816972946" fill="#ffb510" stroke="none" /><path d="M 97.12497278360702 120.80226474461374 l -1.6637392505840003 12.03798842644521 a33.152415136472364,33.152415136472364 0 0,0 -0.5630778175072128,-0.08275304852398886 l 1.870142173698898 -12.007654304622339" fill="#ff8e0d" stroke="none" /><path d="M 96.76829788921471 120.74984581791261 l -1.4131064952432744 9.073157393663287 a30.182540773505202,30.182540773505202 0 0,0 -0.5112670841978091,-0.08412880414480498 l 1.5686510824941469 -9.047562591022814" fill="#ff6509" stroke="none" /><path d="M 96.05791012581884 120.62667999033965 l -3.350177297219138 17.529543269226934 a38.84680854243979,38.84680854243979 0 0,0 -0.6539277783646887,-0.13080386998848686 l 3.650601561114785 -17.469450002575584" fill="#ffd914" stroke="none" /><path d="M 95.70440661134978 120.55596938700252 l -3.0536938821989037 14.613030675950924 a35.92868754654815,35.92868754654815 0 0,0 -0.6026397178782023,-0.13134252162465326 l 3.3040960166962425 -14.558456696192552" fill="#ffb310" stroke="none" /><path d="M 94.6519064749342 120.30758222061772 l -3.013585691065012 11.443075726583663 a32.83324472837945,32.83324472837945 0 0,0 -0.5438101516282499,-0.14821787504260706 l 3.209577243627957 -11.38965735739691" fill="#ff8a0c" stroke="none" /><path d="M 93.95794788825049 120.11202640906438 l -4.385277560456957 14.597162764531324 a36.241647550592,36.241647550592 0 0,0 -0.5942928959148176,-0.18411345829552167 l 4.635211089243408 -14.519732718429152" fill="#ffb711" stroke="none" /><path d="M 92.93061703081489 119.77432235084164 l -3.8563647889331576 10.786938658041022 a32.455548655462266,32.455548655462266 0 0,0 -0.5230147501917146,-0.1920582607795471 l 4.040968690778991 -10.719149548252755" fill="#ff850c" stroke="none" /><path d="M 92.25597844496254 119.51999308798841 l -4.918165921860667 12.396990906856528 a34.33693141542068,34.33693141542068 0 0,0 -0.5460316696471208,-0.22206632648461908 l 5.130252052698229 -12.310737323792617" fill="#ff9e0e" stroke="none" /><path d="M 91.92203290615298 119.3841803445677 l -5.697331820893087 13.671522329319275 a35.811148256581475,35.811148256581475 0 0,0 -0.5654152704644754,-0.2413421572910343 l 5.931182166527993 -13.571705522368836" fill="#ffb210" stroke="none" /><path d="M 90.93487009805054 118.94263497670748 l -5.213142030849734 10.89346183013678 a33.07660384704487,33.07660384704487 0 0,0 -0.5100723402421089,-0.24950194166334316 l 5.399374620353912 -10.802366138376215" fill="#ff8d0d" stroke="none" /><path d="M 90.6110303473126 118.78422872680471 l -6.622521168089126 13.249478587236185 a35.812375550714975,35.812375550714975 0 0,0 -0.5475418531002206,-0.2795787715831358 l 6.848990242902929 -13.133841863980214" fill="#ffb210" stroke="none" /><path d="M 90.28995756902619 118.62028667847754 l -4.834265634445011 9.270341775864994 a31.455111709863445,31.455111709863445 0 0,0 -0.4766365879410301,-0.2537821364160179 l 4.992691038172603 -9.185989171726401" fill="#ff770a" stroke="none" /><line stroke="#e1ed5e" stroke-width="0.3" x1="58.13341422392154" x2="55.67067388415222" y1="173.97424548756322" y2="178.32567169271397" /><path d="M 57.64086615596768 174.84453072859336 a86.0,86.0 0 0,1 -31.369924170532247,-30.572349798747897" fill="none" id="id92" stroke="none" /><text fill="#e1ed5e" style="font-size:6.75px; font-family:Arial;" text-anchor="middle"><textPath startOffset="22.145653131862474" xlink:href="#id92">August</textPath></text><path d="M 89.65649057296885 118.27599006163327 l -8.530504616980885 15.072584281040054 a38.31913121173773,38.31913121173773 0 0,0 -0.5696914947309604,-0.3289115378379627 l 8.787988579572245 -14.92392584592592" fill="#ffd213" stroke="none" /><path d="M 87.54013794807813 116.9041958592261 l -9.884394196320084 13.410079080178908 a37.659275781524784,37.659275781524784 0 0,0 -0.5170923624470398,-0.3880357488637647 l 10.113139547677891 -13.23842430405113" fill="#ffca12" stroke="none" /><path d="M 87.2517909369889 116.68781488649013 l -7.071301176093065 9.256560231323071 a32.648485207919826,32.648485207919826 0 0,0 -0.4424492482332301,-0.3440512115565118 l 7.229160368961523 -9.133807968145767" fill="#ff870c" stroke="none" /><path d="M 86.68645165197938 116.24036423190432 l -9.38804643753925 11.451890178799477 a35.808146561291096,35.808146561291096 0 0,0 -0.4720292387741876,-0.3937835792870591 l 9.58325001047533 -11.289044415600548" fill="#ffb210" stroke="none" /><path d="M 86.40962598614128 116.0094264158162 l -9.791211239997713 11.534022221066841 a36.129490610801184,36.129490610801184 0 0,0 -0.469374591635312,-0.4054345930236201 l 9.987765311395888 -11.364243495578497" fill="#ffb610" stroke="none" /><path d="M 85.86807049272751 115.53346607816431 l -7.542306507696573 8.290316069587762 a32.2078422539625,32.2078422539625 0 0,0 -0.4057731519340251,-0.3755775715887234 l 7.683509430944565 -8.159620751866662" fill="#ff810b" stroke="none" /><path d="M 85.60350026404147 115.28858382429668 l -10.327717925016254 10.967678540355255 a36.06491719536723,36.06491719536723 0 0,0 -0.4470804876639632,-0.42829299381229524 l 10.514470898545532 -10.788773416237378" fill="#ffb510" stroke="none" /><path d="M 85.08716467003676 114.78537596483092 l -10.513777788483125 10.423916979829933 a35.8053223061164,35.8053223061164 0 0,0 -0.4290043657746773,-0.44019627250667276 l 10.691168955408612 -10.241898015255522" fill="#ffb210" stroke="none" /><path d="M 84.58840730492382 114.26474011684316 l -5.698837831479099 5.27475921810828 a28.765296996156405,28.765296996156405 0 0,0 -0.3323108184397005,-0.3652678017523153 l 5.788546350760679 -5.176153840798291" fill="#ff5107" stroke="none" /><path d="M 84.1078160697243 113.72728997021213 l -11.636161134072566 10.05103884578281 a36.3760732249016,36.3760732249016 0 0,0 -0.40413026864918655,-0.47606444029763445 l 11.806985966228865 -9.84980762303562" fill="#ffb911" stroke="none" /><path d="M 83.20337586046588 112.60449989151573 l -11.857690462333414 8.8982319842667 a35.82509209233925,35.82509209233925 0 0,0 -0.36490070698926913,-0.49505789024086666 l 12.008693188906513 -8.693367784756953" fill="#ffb210" stroke="none" /><path d="M 82.98947788004972 112.3143062007846 l -12.373182787361344 8.957230145401937 a36.27506543904648,36.27506543904648 0 0,0 -0.36082445095497395,-0.5075447775521362 l 12.525122336846279 -8.743508141140296" fill="#ffb811" stroke="none" /><path d="M 82.576782715395 111.72311816256416 l -11.226708606721553 7.5538305826883105 a34.5314205688905,34.5314205688905 0 0,0 -0.32669282649469905,-0.49465457793612816 l 11.354725872136978 -7.3599961264131215" fill="#ffa10e" stroke="none" /><path d="M 82.18462484594161 111.11811171558189 l -13.84165058862412 8.638213691352757 a37.31594394434575,37.31594394434575 0 0,0 -0.3344788612815341,-0.5463460828410912 l 13.98789741436106 -8.39933049238711" fill="#ffc512" stroke="none" /><line stroke="#e1ed5e" stroke-width="0.3" x1="26.387840678322732" x2="22.057713659400548" y1="142.50000000000003" y2="145.00000000000006" /><path d="M 25.521815274538298 143.00000000000003 a86.0,86.0 0 0,1 -11.493303480769221,-40.785679425670985" fill="none" id="id93" stroke="none" /><text fill="#e1ed5e" style="font-size:6.75px; font-family:Arial;" text-anchor="middle"><textPath startOffset="21.40746469413373" xlink:href="#id93">September</textPath></text><path d="M 81.63589988554817 110.18625677009913 l -13.022616832382907 7.2234260348469554 a35.891824362514065,35.891824362514065 0 0,0 -0.29423545118079064,-0.541360089743114 l 13.144697633179028 -6.998811111629254" fill="#ffb310" stroke="none" /><path d="M 81.4637452351635 109.86951160357371 l -7.0311813315214255 3.743708026171689 a28.96573039350176,28.96573039350176 0 0,0 -0.2299215968020863,-0.44090497816690116 l 7.0944109972984615 -3.622456804900285" fill="#ff5407" stroke="none" /><path d="M 81.29705330413844 109.54985784667822 l -6.839585854275822 3.4923412711718953 a28.679608206955642,28.679608206955642 0 0,0 -0.2201229399928805,-0.4403933344975137 l 6.898528707480439 -3.3744160805106285" fill="#ff5007" stroke="none" /><path d="M 80.9802524753101 108.90220220490708 l -16.19296962582085 7.579127415852804 a38.87891041670292,38.87891041670292 0 0,0 -0.27773526438162016,-0.6069016759087296 l 16.320689355057528 -7.300036757729385" fill="#ffd914" stroke="none" /><path d="M 80.5471966667186 107.91128576633889 l -7.027731613079086 2.8581172660641854 a28.586688733040614,28.586688733040614 0 0,0 -0.18096915611911338,-0.4561604912225878 l 7.075759444164325 -2.737055757628032" fill="#ff4f07" stroke="none" /><path d="M 80.41425534168474 107.57618678355246 l -9.875924675709642 3.820219823590159 a31.589049423854902,31.589049423854902 0 0,0 -0.19129322924683875,-0.5074280175800538 l 9.940048588770917 -3.65012352581596" fill="#ff790b" stroke="none" /><path d="M 80.28708602549918 107.23885506374661 l -2.8448720238062157 1.0446764127251338 a24.030618029237523,24.030618029237523 0 0,0 -0.13887389132224845,-0.3884549903565967 l 2.8623860851724077 -0.9956864659876157" fill="#ff0d01" stroke="none" /><path d="M 80.05021161711548 106.5578916946017 l -9.909129087673282 3.2573275514310405 a31.43077284066164,31.43077284066164 0 0,0 -0.16409151017745133,-0.5140143184997519 l 9.963585313627988 -3.086744199239897" fill="#ff770a" stroke="none" /><path d="M 79.64726062577567 105.17358676015961 l -15.060796212441645 3.828395502417207 a36.53976173162333,36.53976173162333 0 0,0 -0.1493127302236133,-0.6092468924064652 l 15.124296469181552 -3.5692927854026424" fill="#ffbb11" stroke="none" /><path d="M 79.48165901384964 104.47187691870673 l -10.16090238060662 2.2145213816135194 a31.399425086890176,31.399425086890176 0 0,0 -0.11026026117648031,-0.5276352643933218 l 10.197420352607468 -2.039769665934789" fill="#ff760a" stroke="none" /><path d="M 79.407916724674 104.11899336999214 l -14.575022085243166 2.915412614348763 a35.86374446420652,35.86374446420652 0 0,0 -0.11557297907324406,-0.6047266630036283 l 14.622921356598567 -2.6647833863118198" fill="#ffb210" stroke="none" /><path d="M 79.2786578344484 103.40968896794605 l -22.099244573865647 3.636422284880761 a43.3964322553729,43.3964322553729 0 0,0 -0.11464615752623077,-0.7361105729226213 l 22.158412223530146 -3.2565235300266897" fill="#ecff1a" stroke="none" /><path d="M 79.22317932658666 103.0534771498775 l -14.79096647802957 2.1737627173661087 a35.94984728034388,35.94984728034388 0 0,0 -0.08449152820417381,-0.6113386086777216 l 14.826102522788956 -1.9195358004883014" fill="#ffb310" stroke="none" /><path d="M 79.17382384314188 102.69636545807758 l -14.817743881952593 1.9184536070862148 a35.94141887484872,35.94141887484872 0 0,0 -0.07396729241136155,-0.6125552893168116 l 14.848493260623616 -1.6638046408460039" fill="#ffb310" stroke="none" /><path d="M 79.0935383218832 101.97986365728391 l -14.93784235993579 1.4146292023020635 a36.004676276091324,36.004676276091324 0 0,0 -0.05298924331593235,-0.6158153292583253 l 14.959925225949462 -1.1579928256680763" fill="#ffb410" stroke="none" /><line stroke="#e1ed5e" stroke-width="0.3" x1="15.003131293944662" x2="10.003315487706104" y1="100.72959589197737" y2="100.7725132973878" /><path d="M 14.003168132696942 100.73817937305945 a86.0,86.0 0 0,1 10.791469493833604,-42.45332614584628" fill="none" id="id94" stroke="none" /><text fill="#e1ed5e" style="font-size:6.75px; font-family:Arial;" text-anchor="middle"><textPath startOffset="22.145653131862435" xlink:href="#id94">October</textPath></text><path d="M 79.00077361379809 100.18025310272382 l -14.923095521455256 0.12809682702186426 a35.92364528992736,35.92364528992736 0 0,0 0.0,-0.6166998594913581 l 14.923095521455256 0.12809682702185876" fill="#ffb310" stroke="none" /><path d="M 79.00077361379809 99.81974689727619 l -15.487363874986272 -0.1329403921905097 a36.487934431166266,36.487934431166266 0 0,0 0.010752765621460067,-0.6262946902682325 l 15.482799677766145 0.39878199842779455" fill="#ffbb11" stroke="none" /><path d="M 79.01933749520258 99.09900007780938 l -15.267071380872128 -0.6556337352597478 a36.28114276300877,36.28114276300877 0 0,0 0.03206287344669994,-0.6220111792004539 l 15.253566917968858 0.9176167078369137" fill="#ffb811" stroke="none" /><path d="M 79.06263194458094 98.37931529534042 l -10.477518877421998 -0.8110262255730326 a31.508861278240452,31.508861278240452 0 0,0 0.046372607382370055,-0.5389199901096846 l 10.462052647341885 0.9907672630583979" fill="#ff780b" stroke="none" /><path d="M 79.0935383218832 98.0201363427161 l -14.972171296802925 -1.4178801883150367 a36.03915880523993,36.03915880523993 0 0,0 0.06361359018493458,-0.6154037794422373 l 14.945625314136327 1.6746884900401868" fill="#ffb510" stroke="none" /><path d="M 79.22317932658666 96.9465228501225 l -10.316290771680142 -1.5161394824534633 a31.42710574493743,31.42710574493743 0 0,0 0.08302518729247661,-0.5330812606684159 l 10.288744092249397 1.6930089250533293" fill="#ff770a" stroke="none" /><path d="M 79.34024301695615 96.23510406497455 l -30.400239126172742 -5.539936254035578 a51.90089695506041,51.90089695506041 0 0,0 0.16725362527764426,-0.8751416421074832 l 30.300659208612938 6.060980461176376" fill="#8aff24" stroke="none" /><path d="M 79.407916724674 95.88100663000787 l -24.78115660786972 -4.956925358341923 a46.27205634355737,46.27205634355737 0 0,0 0.16248606474465713,-0.7775546404207629 l 24.692412832300693 5.381596450048096" fill="#caff1d" stroke="none" /><path d="M 79.56144815229197 95.17655741523228 l -14.578850092659373 -3.440568925716899 a35.97933191290062,35.97933191290062 0 0,0 0.14702264122557573,-0.5999025477996869 l 14.517639924917498 3.6903272981247035" fill="#ffb410" stroke="none" /><path d="M 79.73907114497095 94.47779374421319 l -7.803039539436815 -2.1267531250490657 a29.087676113008005,29.087676113008005 0 0,0 0.13543984916076585,-0.48062824396616094 l 7.765381198201467 2.2603892929182394" fill="#ff5607" stroke="none" /><path d="M 79.94057633289273 93.78553927170692 l -23.145723784589922 -7.170604393939485 a45.23101518481873,45.23101518481873 0 0,0 0.23613881930813324,-0.7397014881924586 l 23.01922024950453 7.566874915823336" fill="#d6ff1c" stroke="none" /><path d="M 80.16572619554312 93.10060997987247 l -15.517337466384477 -5.397735470933494 a37.42934296494638,37.42934296494638 0 0,0 0.21630565226632487,-0.6050454067728083 l 15.42239164407421 5.663315834087223" fill="#ffc712" stroke="none" /><path d="M 80.41425534168474 92.42381321644754 l -13.860242127731397 -5.361439406919551 a35.86106807579489,35.86106807579489 0 0,0 0.2270199003393303,-0.5722384492301584 l 13.766163552425935 5.598578873363293" fill="#ffb210" stroke="none" /><path d="M 80.83023694016515 91.42560881287825 l -6.978780830236975 -3.121519898856464 a28.645081317778114,28.645081317778114 0 0,0 0.2046289144360565,-0.4471511076821117 l 6.9241674509458715 3.2408599887532468" fill="#ff5007" stroke="none" /><path d="M 80.9802524753101 91.09779779509293 l -28.326149311924883 -13.258068149106828 a52.27534341758414,52.27534341758414 0 0,0 0.38738703490691623,-0.8094899109358333 l 28.09438301905806 13.742370562107748" fill="#86ff25" stroke="none" /><path d="M 81.46374523516351 90.13048839642627 l -13.146159444374524 -6.999589443754023 a35.89348047026048,35.89348047026048 0 0,0 0.29424902768790157,-0.5413850689870544 l 13.024065067071271 7.224229346215697" fill="#ffb310" stroke="none" /><path d="M 81.63589988554816 89.8137432299009 l -15.58587585477478 -8.645222605745023 a38.82300199358504,38.82300199358504 0 0,0 0.3282699916080752,-0.5800216209483927 l 15.435172498145336 8.91150099679252" fill="#ffd914" stroke="none" /><line stroke="#e1ed5e" stroke-width="0.3" x1="26.387840678322718" x2="22.05771365940052" y1="57.49999999999999" y2="54.99999999999999" /><path d="M 25.521815274538284 56.99999999999999 a86.0,86.0 0 0,1 29.574782752854787,-30.34633250058573" fill="none" id="id95" stroke="none" /><text fill="#e1ed5e" style="font-size:6.75px; font-family:Arial;" text-anchor="middle"><textPath startOffset="21.40746469413373" xlink:href="#id95">November</textPath></text><path d="M 82.18462484594161 88.88188828441811 l -17.207673691386347 -10.738861057468686 a41.28366758455796,41.28366758455796 0 0,0 0.38036472868617593,-0.597996530396853 l 17.02079127107428 11.032671262544211" fill="#fff817" stroke="none" /><path d="M 82.37810715431573 88.57770195909679 l -12.568060266326949 -8.146464821636783 a35.97735049827545,35.97735049827545 0 0,0 0.3403723950662126,-0.5153671882823554 l 12.426363432340006 8.361011888258199" fill="#ffb410" stroke="none" /><path d="M 82.78059297857968 87.97951657250589 l -9.793570477076841 -6.836672800013041 a32.94378992045277,32.94378992045277 0 0,0 0.32768858626586045,-0.46093503414887543 l 9.674766792281009 7.0037850608714365" fill="#ff8b0c" stroke="none" /><path d="M 83.2033758604659 87.39550010848427 l -13.071267066346682 -9.808922492464005 a37.34236773490689,37.34236773490689 0 0,0 0.3891573018901289,-0.5094194002913901 l 12.900957787102246 10.03186280599628" fill="#ffc612" stroke="none" /><path d="M 83.42222388311158 87.10902102172516 l -11.707582217988708 -9.103886745385992 a35.83065188263079,35.83065188263079 0 0,0 0.38173903038764934,-0.4823147944645497 l 11.549576756959498 9.303521483765225" fill="#ffb210" stroke="none" /><path d="M 84.10781606972428 86.27271002978789 l -12.362769380296804 -10.678665743031676 a37.33621647756305,37.33621647756305 0 0,0 0.42312411596699506,-0.4814375721477857 l 12.177634200371218 10.889315592990762" fill="#ffc612" stroke="none" /><path d="M 84.34580500576568 86.00192230759919 l -11.080130089015732 -9.907920649070501 a35.863921904322204,35.863921904322204 0 0,0 0.4143176148007779,-0.45540763642939913 l 10.908414773373089 10.09666586105756" fill="#ffb210" stroke="none" /><path d="M 84.83555147118756 85.47280134310135 l -10.86155308404386 -10.405122156243158 a36.04127329995187,36.04127329995187 0 0,0 0.4318314316951935,-0.44309709119203633 l 10.681334851197866 10.590041939502923" fill="#ffb510" stroke="none" /><path d="M 85.34317274990677 84.96080404539775 l -10.354692411877895 -10.62482661319994 a35.83598987277773,35.83598987277773 0 0,0 0.44424257905411885,-0.4255743415601552 l 10.170777346958475 10.801013085065664" fill="#ffb210" stroke="none" /><path d="M 85.60350026404147 84.71141617570332 l -10.202414832045564 -10.834610997864962 a35.882139089532785,35.882139089532785 0 0,0 0.45206408307915363,-0.4184237663731779 l 10.014920977652457 11.008152510370506" fill="#ffb310" stroke="none" /><path d="M 85.86807049272753 84.46653392183569 l -10.061947888456691 -11.059843323246591 a35.952020921761054,35.952020921761054 0 0,0 0.46007454181211,-0.41140149224879397 l 9.87060831982119 11.230940345378785" fill="#ffb310" stroke="none" /><path d="M 86.40962598614128 83.9905735841838 l -9.670168464724904 -11.391434136153203 a35.942453942190234,35.942453942190234 0 0,0 0.47379970211436806,-0.39526056277415167 l 9.473194428448627 11.555756882839235" fill="#ffb310" stroke="none" /><path d="M 87.25179093698888 83.31218511350988 l -27.855308686725678 -36.463493238345286 a66.88577732997042,66.88577732997042 0 0,0 0.9183959036894253,-0.689181407660116 l 27.2252597941255 36.936293673269404" fill="#37ff7b" stroke="none" /><path d="M 87.54013794807813 83.09580414077388 l -8.83743753752313 -11.989681298672584 a35.894722551070295,35.894722551070295 0 0,0 0.49914002915572847,-0.36133888852731394 l 8.630316497993434 12.139620958572978" fill="#ffb310" stroke="none" /><path d="M 88.12776184653039 82.6780497279521 l -8.568700026187315 -12.50198941691001 a36.15659458847245,36.15659458847245 0 0,0 0.5149796024373533,-0.3465012593292872 l 8.352824135652972 12.647240350296407" fill="#ffb610" stroke="none" /><path d="M 88.4268655584334 82.4767994020092 l -8.495903602797219 -12.863880899741444 a36.4162190510759,36.4162190510759 0 0,0 0.5245918800869462,-0.340034118733071 l 8.273826090453246 13.00782886017842" fill="#ffba11" stroke="none" /><path d="M 88.72937992617638 82.28071324371311 l -8.383334304463908 -13.179993961434064 a36.620260397440234,36.620260397440234 0 0,0 0.5333232972666302,-0.3328331819148993 l 8.155846878407578 13.321962940190499" fill="#ffbc11" stroke="none" /><path d="M 89.03521579738668 82.08984904055464 l -16.303718371368912 -26.630898687628044 a52.22524615825504,52.22524615825504 0 0,0 0.7686244222972063,-0.4615368812160566 l 15.844161192514271 26.90684956938002" fill="#86ff25" stroke="none" /><line stroke="#e1ed5e" stroke-width="0.3" x1="56.869717070023135" x2="54.33264160355391" y1="26.7553504044142" y2="22.446841604673864" /><path d="M 56.362301976729285 25.89364864446614 a86.0,86.0 0 0,1 42.16139366436587,-11.88097634709845" fill="none" id="id96" stroke="none" /><text fill="#e1ed5e" style="font-size:6.75px; font-family:Arial;" text-anchor="middle"><textPath startOffset="22.145653131862474" xlink:href="#id96">December</textPath></text><path d="M 89.97174638481275 81.54914285379989 l -7.814108044493896 -14.377078680537315 a37.36339438861585,37.36339438861585 0 0,0 0.5661642845064371,-0.3014505921695301 l 7.566154944200896 14.50909974042942" fill="#ffc612" stroke="none" /><path d="M 90.28995756902619 81.37971332152246 l -6.763102500368114 -12.96914079294635 a35.626625322942765,35.626625322942765 0 0,0 0.5447018844479274,-0.278128663353701 l 6.539473394206604 13.083327407972885" fill="#ffaf10" stroke="none" /><path d="M 90.61103034731259 81.2157712731953 l -7.519836432304662 -15.044710203332977 a37.81937112590384,37.81937112590384 0 0,0 0.5832102723085051,-0.2852773692255299 l 7.260465910734104 15.17158132265572" fill="#ffcc13" stroke="none" /><path d="M 90.93487009805054 81.0573650232925 l -4.523381556492869 -9.452127725890492 a31.47872603192619,31.47872603192619 0 0,0 0.48943615820810493,-0.22908083512178148 l 4.360456684413242 9.528384792582816" fill="#ff770b" stroke="none" /><path d="M 91.26138138417902 80.90454125486306 l -8.145783001242444 -17.800005937488724 a40.57534142940971,40.57534142940971 0 0,0 0.6358476685226607,-0.2844065744743549 l 7.839021929864164 17.937216262872926" fill="#ffef16" stroke="none" /><path d="M 91.5904679813234 80.7573450057729 l -5.9498345207063945 -13.614385758972713 a35.85772628694944,35.85772628694944 0 0,0 0.5661506819472213,-0.24165606072274867 l 5.7152487635887415 13.714516469354866" fill="#ffb210" stroke="none" /><path d="M 91.92203290615298 80.6158196554323 l -5.690415312220738 -13.654925226372196 a35.793167658191805,35.793167658191805 0 0,0 0.5691889837769404,-0.23148420454173393 l 5.455171867253356 13.750596687493221" fill="#ffb110" stroke="none" /><path d="M 93.95794788825049 79.88797359093562 l -18.06045386321888 -60.11737706637741 a83.77164183838478,83.77164183838478 0 0,0 1.380795955652834,-0.40192957875466917 l 17.025797895184418 60.4185503394346" fill="#4dd4ff" stroke="none" /><path d="M 97.48249496171623 79.15144685158666 l -0.8991774100167701 -7.446478850094815 a28.50057113022694,28.50057113022694 0 0,0 0.48622530570633543,-0.0544825596733306 l 0.7712162027096354 7.460817170275116" fill="#ff4e07" stroke="none" /><path d="M 98.5590905019552 79.04949213459386 l -1.5266921109926794 -22.197768230972514 a43.25020681337007,43.25020681337007 0 0,0 0.7411348187252071,-0.04458483029440013 l 1.1454129401349886 22.22070503909161" fill="#eeff19" stroke="none" /><path d="M 98.9189461498227 79.02784411241856 l -0.7624800213592688 -14.791908716194392 a35.81154749684177,35.81154749684177 0 0,0 0.6142093753039328,-0.02637679335583759 l 0.5084448854545159 14.802818077976058" fill="#ffb210" stroke="none" /><path d="M 99.27912038922189 79.0123766808444 l -0.7638657508094722 -22.239117884175737 a43.25223258802417,43.25223258802417 0 0,0 0.7422632743542572,-0.019118068958268123 l 0.381989162384471 22.24895367048405" fill="#eeff19" stroke="none" /><path d="M 99.63950707515114 79.00309439819443 l -0.25510136477556167 -14.858375590394651 a35.86056532880045,35.86056532880045 0 0,0 0.6155942896244101,-0.005284136600231203 l 3.639788752687121e-15 14.860565328800448" fill="#ffb210" stroke="none" /></svg>