<?xml version="1.0" encoding="utf-8" ?>
<svg baseProfile="full" height="200mm" version="1.1" viewBox="0,0,200,200" width="200mm" xmlns="http://www.w3.org/2000/svg" xmlns:ev="http://www.w3.org/2001/xml-events" xmlns:xlink="http://www.w3.org/1999/xlink"><defs /><rect fill="#1a1a1a" height="200" width="200" x="0" y="0" /><text alignment-baseline="middle" fill="#e1ed5e" style="dominant-baseline: central; font-size:9.0px; font-family:Arial;" text-anchor="middle" x="100.0" y="100.0">2025</text><line stroke="#e1ed5e" stroke-width="0.3" x1="100.0" x2="100.0" y1="15.0" y2="10.0" /><path d="M 100.0 14.0 a86.0,86.0 0 0,1 42.46469731375804,11.215312516191453" fill="none" id="id97" stroke="none" /><text fill="#e1ed5e" style="font-size:6.75px; font-family:Arial;" text-anchor="middle"><textPath startOffset="22.20632615414155" xlink:href="#id97">January</textPath></text><path d="M 100.0 79.0 l 0.0 -16.33560995757935 a37.33560995757935,37.33560995757935 0 0,0 0.6426711514951413,0.00553167349944238 l -0.2811906722226129 16.33318966068847" fill="#ff8b0c" stroke="none" /><path d="M 101.44485096284872 79.0497635885617 l 1.11975926784888 -16.23642990767719 a37.27499668094737,37.27499668094737 0 0,0 0.6397273569190287,0.04965515519406465 l -1.3990768141302499 16.21474949029466" fill="#ff8a0c" stroke="none" /><path d="M 103.59715602781102 79.31037775812273 l 5.33490501919299 -30.684565442818894 a52.14488349598447,52.14488349598447 0 0,0 0.8829988086044239,0.16136238828611285 l -5.862298948900315 30.588187573182044" fill="#a9ff21" stroke="none" /><path d="M 104.307194497241 79.44645832069477 l 3.084487136391832 -14.718892995828188 a36.038612699222185,36.038612699222185 0 0,0 0.6060618231496847,0.13246164036812844 l -3.3373916836950444 14.663617857364189" fill="#ff780b" stroke="none" /><path d="M 105.01212808612495 79.60689891045804 l 1.7717758483487518 -7.208914728937016 a28.423452109758436,28.423452109758436 0 0,0 0.4741182203302501,0.12086329104471906 l -1.895602957364027 7.177348441723429" fill="#ff0000" stroke="none" /><path d="M 106.0581310904928 79.89281104454417 l 8.985058158985222 -29.821781582441798 a52.145945592824944,52.145945592824944 0 0,0 0.8572163415463918,0.26634129003380114 l -9.497059873242332 29.662700157525475" fill="#a9ff21" stroke="none" /><path d="M 107.4271985657038 80.35727306442388 l 4.522575473477736 -11.960864420842224 a33.78733618104536,33.78733618104536 0 0,0 0.5422333858489593,0.21037812960831379 l -4.727792024326362 11.881243587343365" fill="#ff5507" stroke="none" /><path d="M 108.43124777332544 80.76684994638697 l 4.5504724656741935 -10.380423171056545 a32.33401891965364,32.33401891965364 0 0,0 0.5078256010254862,0.22784654441917002 l -4.728480185166459 10.300556296120844" fill="#ff3f05" stroke="none" /><path d="M 108.76106565485865 80.91482961587045 l 12.99161836110095 -28.3010377681273 a52.14050234651752,52.14050234651752 0 0,0 0.8124527829316653,0.3814574753888661 l -13.476849355332213 28.073215310098433" fill="#a9ff21" stroke="none" /><path d="M 109.41281617654863 81.2277094730956 l 8.653753610556404 -17.258466953848252 a40.306530841901406,40.306530841901406 0 0,0 0.6175335038124831,0.3163246457841706 l -8.949547601957642 17.10694978275158" fill="#ffb610" stroke="none" /><path d="M 110.05341064243156 81.56283822128135 l 9.921796744035312 -18.195792275038208 a41.72507918311266,41.72507918311266 0 0,0 0.627616542643199,0.34926792647492727 l -10.233537375750545 18.0223089510031" fill="#ffcb12" stroke="none" /><path d="M 110.36928655335952 81.73862282372117 l 10.208386229628111 -17.978015202981574 a41.67414278880499,41.67414278880499 0 0,0 0.6207527636211752,0.35958006750785293 l -10.516335725714614 17.799630978083673" fill="#ffca12" stroke="none" /><line stroke="#e1ed5e" stroke-width="0.3" x1="143.23703022742887" x2="145.7803849466894" y1="26.81831364943548" y2="22.513508569990506" /><path d="M 143.74570117128098 25.957352633546492 a86.0,86.0 0 0,1 28.547481713284135,27.462654790039103" fill="none" id="id98" stroke="none" /><text fill="#e1ed5e" style="font-size:6.75px; font-family:Arial;" text-anchor="middle"><textPath startOffset="19.985693538727396" xlink:href="#id98">February</textPath></text><path d="M 110.68208982089419 81.91981866633111 l 22.546571360037024 -38.16164303773388 a65.32447269209939,65.32447269209939 0 0,0 0.9631873690382866,0.5803096126685374 l -23.20012079529295 37.76788681560673" fill="#33ff54" stroke="none" /><path d="M 111.60114157652 82.49532879139004 l 10.638709021797675 -16.05248089442792 a40.25783665203474,40.25783665203474 0 0,0 0.574336136871327,0.38779432339679126 l -10.913449853075544 15.866974658732458" fill="#ffb610" stroke="none" /><path d="M 111.90073688211348 82.69761687909136 l 8.229412148487427 -11.96467439482641 a35.52159280808711,35.52159280808711 0 0,0 0.5008017858506634,0.35084365512213533 l -8.43414507392174 11.82124589694034" fill="#ff700a" stroke="none" /><path d="M 112.48926042617603 83.11751280151076 l 13.210885066510219 -17.857950783748674 a43.21337188351495,43.21337188351495 0 0,0 0.5941917781159187,0.4475329283894741 l -13.51632299838452 17.627901265853353" fill="#ffdf14" stroke="none" /><path d="M 112.77801427241765 83.33499621200491 l 18.877060989952874 -24.619341174382505 a52.023465175235444,52.023465175235444 0 0,0 0.7059520925113907,0.5510068058316845 l -19.298045637623694 24.290755979327596" fill="#aaff21" stroke="none" /><path d="M 114.68862486808459 84.99185889309783 l 10.680018322105134 -10.912336821313083 a36.2689844541897,36.2689844541897 0 0,0 0.4424197800691106,0.4405198889329507 l -10.866273902341566 10.726881081730014" fill="#ff7b0b" stroke="none" /><path d="M 114.94478906791727 85.2469230424477 l 11.170187886206548 -11.026896449766335 a36.696035892129736,36.696035892129736 0 0,0 0.4398906483086865,0.45334598056174075 l -11.358342798218343 10.83298627365448" fill="#ff810b" stroke="none" /><path d="M 115.68641384162765 86.03803664274999 l 11.086046899195452 -9.867327366601048 a35.841313459759384,35.841313459759384 0 0,0 0.4062154392133103,0.4643744684597349 l -11.25425420198661 9.675037341938364" fill="#ff750a" stroke="none" /><path d="M 116.15771136456269 86.58626213691792 l 11.425834419377658 -9.485449041047435 a35.85003150465826,35.85003150465826 0 0,0 0.3900850599010791,0.4781981592620521 l -11.587417971355146 9.287366712177283" fill="#ff750a" stroke="none" /><path d="M 116.82858285166822 87.43820079747576 l 50.48574855500462 -37.68539760757273 a84.0,84.0 0 0,0 0.8549495499454944,1.1661502253140252 l -51.126960717463746 36.81078493858721" fill="#4dd2ff" stroke="none" /><line stroke="#e1ed5e" stroke-width="0.3" x1="172.23445277983987" x2="176.4835382374775" y1="55.19839476539836" y2="52.563006222186495" /><path d="M 173.08426987136738 54.67131705675599 a86.0,86.0 0 0,1 12.851231095245387,41.99856678651699" fill="none" id="id99" stroke="none" /><text fill="#e1ed5e" style="font-size:6.75px; font-family:Arial;" text-anchor="middle"><textPath startOffset="22.20632615414155" xlink:href="#id99">March</textPath></text><path d="M 118.03404312379186 89.2402003453031 l 9.079708780978045 -5.417301419082684 a31.57299703076498,31.57299703076498 0 0,0 0.274445007425868,0.469115480347048 l -9.171613462874241 5.260206526381741" fill="#ff3304" stroke="none" /><path d="M 119.196687751892 91.48605970444005 l 17.57442086353976 -7.794447245018787 a40.22533943898527,40.22533943898527 0 0,0 0.2752740465292282,0.6353704524383657 l -17.70598561991167 7.490777647993819" fill="#ffb510" stroke="none" /><path d="M 119.85752413597 93.16781622104841 l 21.081337680088435 -7.253249314983919 a43.294224005495934,43.294224005495934 0 0,0 0.23639204231054098,0.7067821179614494 l -21.203067016170746 6.889294094100156" fill="#ffe115" stroke="none" /><path d="M 120.18372546131832 94.20196356495316 l 14.307671166925461 -4.110063768231847 a35.88630506202941,35.88630506202941 0 0,0 0.16544138502360659,0.5951806864363853 l -14.37629932251543 3.8631717783765103" fill="#ff750a" stroke="none" /><path d="M 120.37134235888165 94.90015583598534 l 14.669609122037038 -3.672449225555292 a36.12231183078943,36.12231183078943 0 0,0 0.14580891533340443,0.6044720878068363 l -14.730650837631261 3.4193919060890496" fill="#ff790b" stroke="none" /><path d="M 120.83666639777658 97.38593545837742 l 14.76860510252657 -1.8527957491252303 a35.88437263583354,35.88437263583354 0 0,0 0.07161435189787893,0.6135480329133497 l -14.798309807428039 1.5983039778870278" fill="#ff750a" stroke="none" /><path d="M 120.87857604477298 97.74499172005257 l 16.234380224133933 -1.7534079789125228 a37.32879483618632,37.32879483618632 0 0,0 0.06349961173175976,0.6394324243757216 l -16.26215696154792 1.4737000238323663" fill="#ff8b0c" stroke="none" /><path d="M 120.96714384426684 98.82574320788733 l 16.081041809680194 -0.900612534998567 a37.10624129407228,37.10624129407228 0 0,0 0.030226376217086244,0.6380310288693575 l -16.094161794130777 0.6236703995062097" fill="#ff880c" stroke="none" /><line stroke="#e1ed5e" stroke-width="0.3" x1="184.98032266829074" x2="189.97916517819016" y1="98.17113171792111" y2="98.06355123074" /><path d="M 185.9800911702706 98.14961562048488 a86.0,86.0 0 0,1 -9.607161424134198,41.387399972396054" fill="none" id="id100" stroke="none" /><text fill="#e1ed5e" style="font-size:6.75px; font-family:Arial;" text-anchor="middle"><textPath startOffset="21.466115282336823" xlink:href="#id100">April</textPath></text><path d="M 120.9764740272857 100.99374915477107 l 22.20510746536565 1.051955001903772 a43.23001140068236,43.23001140068236 0 0,0 -0.04161125150388101,0.742996848459446 l -22.18370986297424 -1.4340235666986414" fill="#ffe015" stroke="none" /><path d="M 120.95626037817324 101.35467743843564 l 14.90926507739857 0.9637809733002016 a35.94038349282347,35.94038349282347 0 0,0 -0.04522231499065846,0.6170225587509952 l -14.890466203743573 -1.2202766685479671" fill="#ff760a" stroke="none" /><path d="M 120.89721153311464 102.0752229133903 l 15.194658541447492 1.5089239785119648 a36.26939749184989,36.26939749184989 0 0,0 -0.06704259697986352,0.6207311838853986 l -15.166433642966577 -1.7702514842821548" fill="#ff7b0b" stroke="none" /><path d="M 120.8583938346157 102.4346265915055 l 13.862240993205779 1.6180239383488624 a34.956350770125574,34.956350770125574 0 0,0 -0.07490395366159186,0.597058209340295 l -13.832335530297339 -1.856399901976552" fill="#ff6709" stroke="none" /><path d="M 120.76222939487914 103.15116336523771 l 14.597712643422511 2.2155509614765054 a35.76488674128037,35.76488674128037 0 0,0 -0.09761812207035271,0.6078681393158606 l -14.55741276699087 -2.466498330485571" fill="#ff730a" stroke="none" /><path d="M 120.70491114924044 103.5080841355445 l 14.587693502656407 2.471628870174208 a35.79559904158404,35.79559904158404 0 0,0 -0.10815990989468734,0.6066182145319876 l -14.542987150422531 -2.722365835439414" fill="#ff740a" stroke="none" /><path d="M 120.49622156327973 104.57218783832717 l 14.86773287154679 3.3166145871768995 a36.23316818851376,36.23316818851376 0 0,0 -0.14103231725105767,0.6075635315588864 l -14.80843998836518 -3.572046776084351" fill="#ff7a0b" stroke="none" /><path d="M 120.41448212921028 104.9243191809786 l 20.01370638649961 4.827645277393399 a41.587729409756534,41.587729409756534 0 0,0 -0.17385390982548432,0.694459948889323 l -19.927641162379064 -5.171433065680118" fill="#ffc912" stroke="none" /><path d="M 120.02730092923936 106.31721596034902 l 15.631040807473061 4.930502658082643 a37.39021943679364,37.39021943679364 0 0,0 -0.19889415463298987,0.6121332653543464 l -15.543854401823825 -5.198834823414785" fill="#ff8c0c" stroke="none" /><path d="M 119.9155931802556 106.66101706037122 l 7.424019618229028 2.4830554071861966 a28.828258519428577,28.828258519428577 0 0,0 -0.1614508347535106,0.4692516992542437 l -7.380177952532287 -2.6104798095297403" fill="#ff0701" stroke="none" /><path d="M 119.67450827220406 107.3425965602758 l 13.834812703166193 5.163201375144097 a35.76687817285626,35.76687817285626 0 0,0 -0.22023152137297416,0.5749550075764903 l -13.743886902199714 -5.400579949553731" fill="#ff730a" stroke="none" /><path d="M 118.81262510543309 109.33194174019688 l 27.89585477814608 13.83764839429404 a52.139351741607015,52.139351741607015 0 0,0 -0.4057467722902394,0.8005768749349035 l -27.65352933606957 -14.315779480931639" fill="#a9ff21" stroke="none" /><path d="M 118.64920377521936 109.65438752849418 l 17.067832452448265 8.835737479918585 a40.219291387532586,40.219291387532586 0 0,0 -0.3235689714712281,0.6120705538729033 l -16.913210972752143 -9.128223048877622" fill="#ffb510" stroke="none" /><line stroke="#e1ed5e" stroke-width="0.3" x1="174.80103733775053" x2="179.2010983576182" y1="140.37084112569926" y2="142.7455964860345" /><path d="M 175.68104954172406 140.8457921977663 a86.0,86.0 0 0,1 -30.038265399797805,32.042727171017184" fill="none" id="id101" stroke="none" /><text fill="#e1ed5e" style="font-size:6.75px; font-family:Arial;" text-anchor="middle"><textPath startOffset="22.206326154141568" xlink:href="#id101">May</textPath></text><path d="M 118.12598468904814 110.60418214915192 l 16.715159215393005 9.77881180045347 a40.36547721654764,40.36547721654764 0 0,0 -0.3560218258129578,0.5967130583996771 l -16.54435651388182 -10.06508695273925" fill="#ffb711" stroke="none" /><path d="M 117.35343817320211 111.8261652097733 l 6.399029967108785 4.360864101857384 a28.743689058505943,28.743689058505943 0 0,0 -0.2821522851111451,0.4064614106144143 l -6.323016774835503 -4.470366774658818" fill="#ff0500" stroke="none" /><path d="M 117.14729908036423 112.12312394758627 l 13.266316691722603 9.379273133799536 a37.247028130814925,37.247028130814925 0 0,0 -0.37463452453249957,0.5203345881141651 l -13.102902374814501 -9.606241327364831" fill="#ff8a0c" stroke="none" /><path d="M 116.71984013943494 112.70617746262583 l 11.874465586232297 9.023953922660526 a35.91424410947184,35.91424410947184 0 0,0 -0.37828504579911015,0.48898441503268986 l -11.717373723215118 -9.227016331806468" fill="#ff760a" stroke="none" /><path d="M 116.27256486870786 113.27417163493432 l 14.920052703747785 12.170874228479295 a40.25456185344328,40.25456185344328 0 0,0 -0.44261615973775387,0.533159677588223 l -14.708340544116487 -12.425895163181288" fill="#ffb610" stroke="none" /><path d="M 115.32070863581623 114.36230785411682 l 11.91465744011472 11.169325270714168 a37.33134681887245,37.33134681887245 0 0,0 -0.4435203075956386,0.46502926934320443 l -11.720630581140117 -11.37276165663988" fill="#ff8b0c" stroke="none" /><path d="M 114.81725581225074 114.88116024355365 l 21.019097736843733 21.109749710758013 a50.7896626788864,50.7896626788864 0 0,0 -0.6248338939003641,0.6115314752835102 l -20.652613890567576 -21.468431288964094" fill="#baff1f" stroke="none" /><path d="M 114.55890576462653 115.13401014063108 l 7.281309052060703 7.5689345622866115 a31.502677369118693,31.502677369118693 0 0,0 -0.3940297364578642,0.37257970991700967 l -7.149943481212031 -7.693148908949543" fill="#ff3104" stroke="none" /><path d="M 113.75828350139079 115.86535959552629 l 9.916988538098957 11.435771711329231 a36.13682715427589,36.13682715427589 0 0,0 -0.47345184367187215,0.4034859324955625 l -9.718671217850039 -11.60478203404774" fill="#ff790b" stroke="none" /><path d="M 113.48314897796784 116.09983520530334 l 9.508250220895476 11.353524454661809 a35.809096522265044,35.809096522265044 0 0,0 -0.4759708813900281,0.39169163145136754 l -9.311409210960756 -11.515511204970355" fill="#ff740a" stroke="none" /><path d="M 112.63410532772338 116.77436683061366 l 9.903296033907406 13.148657241316414 a37.46093738475512,37.46093738475512 0 0,0 -0.5184148298199486,0.3835108975526098 l -9.675496233668893 -13.317178087608793" fill="#ff8d0d" stroke="none" /><path d="M 112.34349029814194 116.9893568818739 l 8.69178803719285 11.963219910959864 a35.787353039725375,35.787353039725375 0 0,0 -0.5014876194388251,0.35779810114747923 l -8.48457308990514 -12.111062273951562" fill="#ff740a" stroke="none" /><path d="M 112.04921762599082 117.19931262002967 l 8.56219563308476 12.221862363048487 a35.92263762478058,35.92263762478058 0 0,0 -0.5094909667965655,0.3504325327493485 l -8.35054778166531 -12.36743568516293" fill="#ff760a" stroke="none" /><path d="M 111.45004920935366 117.60387380957326 l 8.89439256996736 13.674680479678898 a37.31278962685419,37.31278962685419 0 0,0 -0.5414231436046189,0.3455618667978951 l -8.65768762431581 -13.825756775300603" fill="#ff8b0c" stroke="none" /><path d="M 111.1453310114006 117.79835938074945 l 8.039135410842256 12.837969640050963 a36.147315360575554,36.147315360575554 0 0,0 -0.5301964284601728,0.3256899504482199 l -7.816959782449776 -12.97444805732756" fill="#ff790b" stroke="none" /><line stroke="#e1ed5e" stroke-width="0.3" x1="143.8653032363475" x2="146.44561519142675" y1="172.8068346515853" y2="177.08958963109032" /><path d="M 144.38136562736335 173.6633856474863 a86.0,86.0 0 0,1 -40.68145358897372,12.25698825130547" fill="none" id="id102" stroke="none" /><text fill="#e1ed5e" style="font-size:6.75px; font-family:Arial;" text-anchor="middle"><textPath startOffset="21.466115282336833" xlink:href="#id102">June</textPath></text><path d="M 110.8373102113329 117.98757091392108 l 3.8381659785521642 6.370518271813409 a28.437406882134646,28.437406882134646 0 0,0 -0.42145879458851926,0.2490052846547844 l -3.7279393129352627 -6.435642128761942" fill="#ff0000" stroke="none" /><path d="M 110.5260780823613 118.17145234162733 l 3.7359026411581007 6.449389436937864 a28.453294080706716,28.453294080706716 0 0,0 -0.4259203847344716,0.2418487102914565 l -3.6243334895024297 -6.512741313023948" fill="#ff0100" stroke="none" /><path d="M 109.89434966115114 118.52300852407294 l 7.303940934038857 13.67355761760968 a36.502055705293415,36.502055705293415 0 0,0 -0.5567590723281007,0.29127003258325396 l -7.06749095918426 -13.79725706913765" fill="#ff7e0b" stroke="none" /><path d="M 109.2508944713604 118.85261126421891 l 3.2839138863400867 6.692363869894599 a28.45465120444732,28.45465120444732 0 0,0 -0.44157192209530005,0.2119813568872584 l -3.168229296244554 -6.747899503281418" fill="#ff0100" stroke="none" /><path d="M 108.92500713936063 119.00905698771935 l 3.243279405485488 6.907746076087373 a28.6312395555209,28.6312395555209 0 0,0 -0.44791802451611523,0.2056171960635734 l -3.1238933852019537 -6.962550342485021" fill="#ff0300" stroke="none" /><path d="M 106.91757812671514 119.82793768551818 l 4.871754952259773 13.963970025791545 a35.78940347668128,35.78940347668128 0 0,0 -0.58341885953284,0.19792735335617592 l -4.630666359789706 -14.045760366045842" fill="#ff740a" stroke="none" /><path d="M 106.57524785965236 119.94407469862006 l 4.6338024910294076 14.055272895009669 a35.799419639940744,35.799419639940744 0 0,0 -0.5869036209601796,0.1879080056259648 l -4.391177524978287 -14.132953747295339" fill="#ff740a" stroke="none" /><path d="M 106.2309692047433 120.05430185196036 l 4.861424321596725 15.646437588159879 a37.384274644756005,37.384274644756005 0 0,0 -0.6161730008070972,0.18564787059897914 l -4.591376346349382 -15.727800827864584" fill="#ff8c0c" stroke="none" /><path d="M 105.53697534728816 120.25689768951611 l 4.74375134233498 17.354905806696106 a38.991551693981236,38.991551693981236 0 0,0 -0.6489485698407614,0.1713932154967125 l -4.444312329682722 -17.4339903714964" fill="#ffa30f" stroke="none" /><path d="M 105.18746579009965 120.34920634021253 l 5.1330658665394395 20.135808254478388 a41.779777170397,41.779777170397 0 0,0 -0.698412073325164,0.1716526953420034 l -4.785700508471065 -20.22118220813442" fill="#ffcb13" stroke="none" /><path d="M 104.48393922423573 120.51570834832081 l 3.537196179304694 16.184002850256913 a37.56604071792689,37.56604071792689 0 0,0 -0.6329136174425806,0.13263320223892905 l -3.2580911004327353 -16.242492033222383" fill="#ff8e0d" stroke="none" /><path d="M 104.13013068566511 120.58985236759428 l 2.968433424508904 14.798467802920886 a36.093251681126496,36.093251681126496 0 0,0 -0.6102034877244848,0.11694695071893854 l -2.713262322212715 -14.847371951988293" fill="#ff780b" stroke="none" /><path d="M 103.41894727170886 120.7198165907248 l 1.223374451283075 7.41400560988892 a28.514261389618845,28.514261389618845 0 0,0 -0.48496531162210565,0.07574160786000034 l -1.0955732760524524 -7.433965525096026" fill="#ff0100" stroke="none" /><path d="M 102.70371172650421 120.8252237178851 l 1.9027052279417889 14.655505486270867 a35.778502232721436,35.778502232721436 0 0,0 -0.611424918838985,0.0740350427391315 l -1.6501528860514234 -14.68608605773535" fill="#ff740a" stroke="none" /><path d="M 100.90346689309514 120.98055641714683 l 0.7010504386822055 16.279985899260428 a37.29507326150131,37.29507326150131 0 0,0 -0.6416167120087272,0.022098576871736223 l -0.42071337499882605 -16.289641274558257" fill="#ff8a0c" stroke="none" /><line stroke="#e1ed5e" stroke-width="0.3" x1="102.19456741930631" x2="102.32365962044197" y1="184.97166512339345" y2="189.96999836594603" /><path d="M 102.22038585953345 185.97133177190398 a86.0,86.0 0 0,1 -42.740103519485714,-10.115201625700543" fill="none" id="id103" stroke="none" /><text fill="#e1ed5e" style="font-size:6.75px; font-family:Arial;" text-anchor="middle"><textPath startOffset="22.20632615414155" xlink:href="#id103">July</textPath></text><path d="M 100.18074693466247 120.99922214144158 l 0.12737906665449067 14.798930459552937 a35.79947864532077,35.79947864532077 0 0,0 -0.616252002633882,0.0 l 0.12737906665448048 -14.798930459552937" fill="#ff740a" stroke="none" /><path d="M 98.73552117531835 120.96189622390904 l -0.9795836223800591 16.239046343968173 a37.26856509452451,37.26856509452451 0 0,0 -0.6400205916866692,-0.04413956720968638 l 1.2589669748456584 -16.2197784322422" fill="#ff8a0c" stroke="none" /><path d="M 98.37488393609728 120.93702456842531 l -1.2636370749352384 16.279945212009135 a37.328912846946366,37.328912846946366 0 0,0 -0.6402009559218332,-0.05523923230206979 l 1.5436823485986133 -16.255781727428403" fill="#ff8b0c" stroke="none" /><path d="M 98.01472825383883 120.90594882070398 l -0.7017095458600864 7.389368171443974 a28.42261128309306,28.42261128309306 0 0,0 -0.48665926365477796,-0.05044422250749043 l 0.8288014061204576 -7.376194580480723" fill="#ff0000" stroke="none" /><path d="M 97.65516085044442 120.86867818915974 l -1.3353716801981088 11.884585713375513 a32.95937268851692,32.95937268851692 0 0,0 -0.563248333873225,-0.06820152922493755 l 1.5397474371227233 -11.859838655425227" fill="#ff4806" stroke="none" /><path d="M 96.93821686468263 120.77559828337769 l -4.571123270369356 31.0171611024795 a52.35218414736172,52.35218414736172 0 0,0 -0.8903963161523966,-0.13906159265789778 l 5.10435545013027 -30.933881202474495" fill="#a6ff21" stroke="none" /><path d="M 96.58105272829116 120.7198165907248 l -2.4091082744191037 14.599898046456962 a35.79732494894981,35.79732494894981 0 0,0 -0.6071073380532248,-0.10555339266592485 l 2.6600645839443784 -14.556266075270033" fill="#ff740a" stroke="none" /><path d="M 94.81253420990036 120.34920634021253 l -3.6638853199257433 14.372559048840005 a35.83221187989034,35.83221187989034 0 0,0 -0.5963666908202555,-0.15750586333813568 l 3.910742453557488 -14.307361836198288" fill="#ff740a" stroke="none" /><path d="M 93.42475214034765 119.94407469862007 l -4.642407222251133 14.081372808794047 a35.82690139568797,35.82690139568797 0 0,0 -0.5840301296579781,-0.19813472937098417 l 4.884107084846336 -13.99937509252494" fill="#ff740a" stroke="none" /><path d="M 93.08242187328487 119.8279376855182 l -4.869378794574937 13.95715921633733 a35.78219006897307,35.78219006897307 0 0,0 -0.5798085408714662,-0.2078987141567146 l 5.10890689607613 -13.871272961140658" fill="#ff740a" stroke="none" /><path d="M 92.7421414339146 119.70592522655815 l -6.220803860117147 16.890201786154563 a38.999369906834715,38.999369906834715 0 0,0 -0.6279451589088613,-0.23743512796797747 l 6.510619239786291 -16.780618408079953" fill="#ffa30f" stroke="none" /><path d="M 91.7346041902142 119.30500536409082 l -3.0022869530196736 7.012267417848771 a28.627950005584438,28.627950005584438 0 0,0 -0.4513391606562262,-0.1978538243964089 l 3.122546788333643 -6.95954904015791" fill="#ff0300" stroke="none" /><path d="M 91.07499286063937 119.00905698771935 l -6.280830857187564 13.377319460952004 a35.778413724651394,35.778413724651394 0 0,0 -0.5552253234242935,-0.26654189623100355 l 6.5101688486121 -13.26722328822144" fill="#ff740a" stroke="none" /><path d="M 90.7491055286396 118.85261126421891 l -3.3188289544137635 6.763518092623508 a28.53391018116759,28.53391018116759 0 0,0 -0.4390772177893049,-0.2201624320930777 l 3.434760079885829 -6.705387819621128" fill="#ff0200" stroke="none" /><path d="M 90.10565033884886 118.52300852407294 l -7.664811111038339 14.349135254701952 a37.26797504072425,37.26797504072425 0 0,0 -0.5632383393226071,-0.30712245098957397 l 7.910672262229586 -14.215072151952612" fill="#ff8a0c" stroke="none" /><line stroke="#e1ed5e" stroke-width="0.3" x1="58.666819895761336" x2="56.23545636021788" y1="174.27360380694188" y2="178.64263932499728" /><path d="M 58.180547188652646 175.14741091055294 a86.0,86.0 0 0,1 -31.652253787137756,-30.449443065178592" fill="none" id="id104" stroke="none" /><text fill="#e1ed5e" style="font-size:6.75px; font-family:Arial;" text-anchor="middle"><textPath startOffset="22.20632615414155" xlink:href="#id104">August</textPath></text><path d="M 89.1626897886671 117.98757091392108 l -7.668201684952055 12.727542065381146 a35.859059327802285,35.859059327802285 0 0,0 -0.5259683878011652,-0.3230927425478866 l 7.886149272685529 -12.593660856004881" fill="#ff750a" stroke="none" /><path d="M 88.8546689885994 117.79835938074946 l -7.870436505719635 12.568568602303408 a35.82945337837411,35.82945337837411 0 0,0 -0.5198993555762823,-0.33182436691542705 l 8.08561766334284 -12.431229806564177" fill="#ff740a" stroke="none" /><path d="M 88.24862548938628 117.40417183066458 l -6.23990500331353 9.241504369263838 a32.15086622005214,32.15086622005214 0 0,0 -0.4559959122406194,-0.31363814643181503 l 6.39805780017704 -9.132725433466922" fill="#ff3c05" stroke="none" /><path d="M 87.95078237400918 117.19931262002967 l -8.471174716134191 12.091937146807256 a35.76400166057998,35.76400166057998 0 0,0 -0.501160396927415,-0.3575646365738875 l 8.678062440910493 -11.94432824838915" fill="#ff730a" stroke="none" /><path d="M 87.65650970185807 116.9893568818739 l -8.693712915509133 11.965869278673509 a35.79062783831683,35.79062783831683 0 0,0 -0.49529973180812387,-0.3664109006474128 l 8.89839761773582 -11.81444842928633" fill="#ff740a" stroke="none" /><path d="M 87.36589467227662 116.77436683061367 l -4.484764426082344 5.954444868123311 a28.45442993427222,28.45442993427222 0 0,0 -0.3887027854875078,-0.2980407207747426 l 4.586595940063338 -5.876364805521201" fill="#ff0100" stroke="none" /><path d="M 86.51685102203217 116.09983520530335 l -6.661481534906129 7.954280940632628 a31.375255250951987,31.375255250951987 0 0,0 -0.4110674238449466,-0.3503205765179767 l 6.7974144353281325 -7.838435973891699" fill="#ff2f04" stroke="none" /><line stroke="#e1ed5e" stroke-width="0.3" x1="26.63291911575756" x2="22.317208475507996" y1="142.92168965132927" y2="145.44649492493687" /><path d="M 25.769776987707644 143.4266507060508 a86.0,86.0 0 0,1 -11.730757126820373,-40.83630448921669" fill="none" id="id105" stroke="none" /><text fill="#e1ed5e" style="font-size:6.75px; font-family:Arial;" text-anchor="middle"><textPath startOffset="21.46611528233685" xlink:href="#id105">September</textPath></text><line stroke="#e1ed5e" stroke-width="0.3" x1="15.007084014347285" x2="10.007500721073583" y1="101.09737516637583" y2="101.16192664675087" /><path d="M 14.007167355692545 101.11028546245083 a86.0,86.0 0 0,1 10.666146001902534,-42.60595125391555" fill="none" id="id106" stroke="none" /><text fill="#e1ed5e" style="font-size:6.75px; font-family:Arial;" text-anchor="middle"><textPath startOffset="22.20632615414155" xlink:href="#id106">October</textPath></text><line stroke="#e1ed5e" stroke-width="0.3" x1="26.266209847984243" x2="21.928928074336255" y1="57.711370442889674" y2="55.22380399835377" /><path d="M 25.398753493254645 57.213857153982495 a86.0,86.0 0 0,1 29.58750427330803,-30.492523968695096" fill="none" id="id107" stroke="none" /><text fill="#e1ed5e" style="font-size:6.75px; font-family:Arial;" text-anchor="middle"><textPath startOffset="21.46611528233685" xlink:href="#id107">November</textPath></text><line stroke="#e1ed5e" stroke-width="0.3" x1="56.762969772571076" x2="54.21961505331055" y1="26.818313649435495" y2="22.513508569990535" /><path d="M 56.25429882871897 25.957352633546506 a86.0,86.0 0 0,1 42.265352541879196,-11.944610805530505" fill="none" id="id108" stroke="none" /><text fill="#e1ed5e" style="font-size:6.75px; font-family:Arial;" text-anchor="middle"><textPath startOffset="22.20632615414155" xlink:href="#id108">December</textPath></text></svg>