<?xml version="1.0" encoding="utf-8" ?>
<svg baseProfile="full" height="200mm" version="1.1" viewBox="0,0,200,200" width="200mm" xmlns="http://www.w3.org/2000/svg" xmlns:ev="http://www.w3.org/2001/xml-events" xmlns:xlink="http://www.w3.org/1999/xlink"><defs /><rect fill="#1a1a1a" height="200" width="200" x="0" y="0" /><text alignment-baseline="middle" fill="#e1ed5e" style="dominant-baseline: central; font-size:9.0px; font-family:Arial;" text-anchor="middle" x="100.0" y="100.0">2019</text><line stroke="#e1ed5e" stroke-width="0.3" x1="100.0" x2="100.0" y1="15.0" y2="10.0" /><path d="M 100.0 14.0 a86.0,86.0 0 0,1 42.46469731375804,11.215312516191453" fill="none" id="id25" stroke="none" /><text fill="#e1ed5e" style="font-size:6.75px; font-family:Arial;" text-anchor="middle"><textPath startOffset="22.20632615414155" xlink:href="#id25">January</textPath></text><path d="M 102.16513564639614 79.11191278185805 l 1.4264685716537546 -13.761816719537993 a34.835548850987855,34.835548850987855 0 0,0 0.5959090023232557,0.06695731974754437 l -1.6631442774867355 13.735223446319848" fill="#ffac0f" stroke="none" /><path d="M 102.52436894288641 79.15227682838746 l 1.6846018452338996 -13.912432658780487 a35.01405244253308,35.01405244253308 0 0,0 0.5977153379000945,0.0776006054044926 l -1.92383191164184 13.881373730211857" fill="#ffae10" stroke="none" /><path d="M 106.74666289553966 80.11325718540242 l 9.316088805791985 -27.4604889835566 a49.997723459841396,49.997723459841396 0 0,0 0.812624893938653,0.2835088691871343 l -9.78739570379391 27.296059261197257" fill="#9bff22" stroke="none" /><path d="M 108.09893153111575 80.62456947434976 l 1.0084019027220694 -2.4124442752800115 a23.614720210413495,23.614720210413495 0 0,0 0.373693099102748,0.15999588278877408 l -1.0497787596151327 2.394728864528447" fill="#ff1101" stroke="none" /><path d="M 109.08828744355905 81.06846463323043 l 7.133250255060429 -14.859056815968216 a37.48256135015099,37.48256135015099 0 0,0 0.5792461021032504,0.28423354666386336 l -7.387967624174111 14.73406810916952" fill="#ffce13" stroke="none" /><path d="M 109.41281617654863 81.2277094730956 l 6.518708719993133 -13.000476335324091 a35.54324407831472,35.54324407831472 0 0,0 0.5445555247271824,0.27894249041659375 l -6.74152473230907 12.886341319594997" fill="#ffb510" stroke="none" /><path d="M 109.73455568895987 81.39251694778311 l 7.0100120922476945 -13.399551594354461 a36.122442013882086,36.122442013882086 0 0,0 0.5484675984581024,0.29297239646052087 l -7.239624737234108 13.276900471392185" fill="#ffbd11" stroke="none" /><path d="M 110.36928655335952 81.73862282372117 l 5.0575106952424616 -8.90679507250807 a31.24252961412101,31.24252961412101 0 0,0 0.46536977854027606,0.2695722132712851 l -5.210077206248066 8.818418701846735" fill="#ff7c0b" stroke="none" /><line stroke="#e1ed5e" stroke-width="0.3" x1="143.23703022742887" x2="145.7803849466894" y1="26.81831364943548" y2="22.513508569990506" /><path d="M 143.74570117128098 25.957352633546492 a86.0,86.0 0 0,1 28.547481713284135,27.462654790039103" fill="none" id="id26" stroke="none" /><text fill="#e1ed5e" style="font-size:6.75px; font-family:Arial;" text-anchor="middle"><textPath startOffset="19.985693538727396" xlink:href="#id26">February</textPath></text><path d="M 111.2981086023043 82.29822771554956 l 8.151091711543366 -12.771055264770938 a36.15058245302221,36.15058245302221 0 0,0 0.5216580247795206,0.3393008901785889 l -8.369716762107167 12.628855450432821" fill="#ffbd11" stroke="none" /><path d="M 115.19652480421416 85.50635884689758 l 42.03882128922615 -40.094403037231366 a79.09323239672106,79.09323239672106 0 0,0 0.9311634123549472,0.9933002048088939 l -42.72275202355156 39.36483341554442" fill="#47fffe" stroke="none" /><line stroke="#e1ed5e" stroke-width="0.3" x1="172.23445277983987" x2="176.4835382374775" y1="55.19839476539836" y2="52.563006222186495" /><path d="M 173.08426987136738 54.67131705675599 a86.0,86.0 0 0,1 12.851231095245387,41.99856678651699" fill="none" id="id27" stroke="none" /><text fill="#e1ed5e" style="font-size:6.75px; font-family:Arial;" text-anchor="middle"><textPath startOffset="22.20632615414155" xlink:href="#id27">March</textPath></text><path d="M 118.21658344932153 89.55222093294921 l 54.6497503479646 -31.34333720115238 a84.0,84.0 0 0,0 0.708569434830268,1.2604659602608244 l -55.1811774240873 30.397987730956764" fill="#4dd2ff" stroke="none" /><path d="M 119.196687751892 91.48605970444005 l 26.183499479794772 -11.612667465397841 a49.64314386847789,49.64314386847789 0 0,0 0.33972290316745873,0.7841272993611649 l -26.379513092804913 11.160241021450075" fill="#9eff22" stroke="none" /><path d="M 120.28053869075195 94.5502522615342 l 13.790312757155425 -3.7057065843775816 a35.27953035746145,35.27953035746145 0 0,0 0.1525481317309767,0.587830179858743 l -13.852057220756704 3.4677799789699884" fill="#ffb210" stroke="none" /><path d="M 120.94382443527127 98.46500227214037 l 7.2080945507038825 -0.528289796914761 a28.227428115271106,28.227428115271106 0 0,0 0.031345092433974646,0.48489470628728953 l -7.216120234142273 0.40413602637443613" fill="#ff5307" stroke="none" /><line stroke="#e1ed5e" stroke-width="0.3" x1="184.98032266829074" x2="189.97916517819016" y1="98.17113171792111" y2="98.06355123074" /><path d="M 185.9800911702706 98.14961562048488 a86.0,86.0 0 0,1 -9.607161424134198,41.387399972396054" fill="none" id="id28" stroke="none" /><text fill="#e1ed5e" style="font-size:6.75px; font-family:Arial;" text-anchor="middle"><textPath startOffset="21.466115282336823" xlink:href="#id28">April</textPath></text><path d="M 120.99513854157772 99.54816195383933 l 20.954169019666157 -0.4509563378215682 a41.95902099152912,41.95902099152912 0 0,0 0.009324878681670961,0.7222221302722719 l -20.958826905465543 0.09019794948883351" fill="#f8ff18" stroke="none" /><path d="M 120.99824983174949 100.27111621757518 l 21.79122593952997 0.28135462718986987 a42.79304220098435,42.79304220098435 0 0,0 -0.01584959998843271,0.7364686316551974 l -21.78315427685653 -0.6564130746351821" fill="#eeff19" stroke="none" /><path d="M 120.76222939487914 103.15116336523771 l 13.569138354575472 2.059440287820254 a34.724533142686795,34.724533142686795 0 0,0 -0.09477853906486204,0.5901860532300764 l -13.531678061149321 -2.2927055707435353" fill="#ffab0f" stroke="none" /><path d="M 120.41448212921028 104.9243191809786 l 13.625297911388442 3.2866528490376803 a35.01609182775904,35.01609182775904 0 0,0 -0.14638174667059173,0.584722313195212 l -13.56670485042279 -3.520703001630288" fill="#ffae10" stroke="none" /><path d="M 120.23288151984713 105.62410040840565 l 13.800398915338112 3.8360739225294744 a35.32363338547786,35.32363338547786 0 0,0 -0.16788374780031862,0.5844253503714789 l -13.732322530651693 -4.073056748405535" fill="#ffb210" stroke="none" /><path d="M 119.41010516605496 108.01547362559984 l 12.639420794563403 5.219494853580547 a34.674724295158406,34.674724295158406 0 0,0 -0.23256670925715567,0.5497190015886008 l -12.547703104113937 -5.436288380835311" fill="#ffaa0f" stroke="none" /><path d="M 118.81262510543309 109.33194174019688 l 13.08312898448975 6.489843750061207 a35.60432593189444,35.60432593189444 0 0,0 -0.27707172881682973,0.5466888067573288 l -12.969478585886652 -6.714086768521231" fill="#ffb610" stroke="none" /><path d="M 118.64920377521936 109.65438752849418 l 20.438722411215057 10.580792033994932 a44.015093609832554,44.015093609832554 0 0,0 -0.3541066507441784,0.6698363346324153 l -20.253563252245986 -10.931043383713483" fill="#dfff1b" stroke="none" /><line stroke="#e1ed5e" stroke-width="0.3" x1="174.80103733775053" x2="179.2010983576182" y1="140.37084112569926" y2="142.7455964860345" /><path d="M 175.68104954172406 140.8457921977663 a86.0,86.0 0 0,1 -30.038265399797805,32.042727171017184" fill="none" id="id29" stroke="none" /><text fill="#e1ed5e" style="font-size:6.75px; font-family:Arial;" text-anchor="middle"><textPath startOffset="22.206326154141568" xlink:href="#id29">May</textPath></text><path d="M 118.12598468904814 110.60418214915192 l 12.429046716533946 7.271322225163257 a35.399768372579345,35.399768372579345 0 0,0 -0.31222448087879706,0.5233061890714499 l -12.302041359956922 -7.484190508120812" fill="#ffb310" stroke="none" /><path d="M 117.75023020441432 111.22182372390056 l 25.28519804154099 15.985484806587085 a50.9144942210557,50.9144942210557 0 0,0 -0.4747052548619039,0.7367530973668017 l -25.006287923302036 -16.41835950387534" fill="#90ff24" stroke="none" /><path d="M 116.93607887273984 112.41649034213515 l 7.8991943528886575 5.791202977399897 a30.794656877612073,30.794656877612073 0 0,0 -0.3170951236082908,0.4248007370178148 l -7.798337962585275 -5.926316593927027" fill="#ff760a" stroke="none" /><path d="M 115.32070863581623 114.36230785411682 l 5.977692632562516 5.603752664902429 a29.193586097600566,29.193586097600566 0 0,0 -0.3468384987193087,0.3636587792651507 l -5.8803475824642435 -5.705818560750087" fill="#ff6008" stroke="none" /><path d="M 114.81725581225074 114.88116024355365 l 4.980671161744173 5.0021519920768 a28.058938289379498,28.058938289379498 0 0,0 -0.34519181158789736,0.3378428408843576 l -4.893829397780482 -5.087144935883729" fill="#ff5007" stroke="none" /><path d="M 114.55890576462653 115.13401014063108 l 18.88089264541962 19.626723696104456 a48.234103439090646,48.234103439090646 0 0,0 -0.6033033587493438,0.5704609819945022 l -18.54025345227947 -19.94881931484488" fill="#aeff20" stroke="none" /><path d="M 113.48314897796784 116.09983520530334 l 9.896567390095782 11.817202668240157 a36.413900382737964,36.413900382737964 0 0,0 -0.4840098730009557,0.3983071742553986 l -9.691687388550136 -11.985804961352732" fill="#ffc111" stroke="none" /><path d="M 113.20401910651253 116.32954008644616 l 8.874238681063035 10.9748581178314 a35.113809651366466,35.113809651366466 0 0,0 -0.4732714630461162,0.37599547336532424 l -8.68400972529957 -11.125987505201852" fill="#ffb010" stroke="none" /><path d="M 111.7513745106137 117.40417183066458 l 7.7200336764319415 11.433623574994193 a34.79589315774467,34.79589315774467 0 0,0 -0.49928014230330636,0.33089565340460303 l -7.522078835388671 -11.564817249490114" fill="#ffac0f" stroke="none" /><line stroke="#e1ed5e" stroke-width="0.3" x1="143.8653032363475" x2="146.44561519142675" y1="172.8068346515853" y2="177.08958963109032" /><path d="M 144.38136562736335 173.6633856474863 a86.0,86.0 0 0,1 -40.68145358897372,12.25698825130547" fill="none" id="id30" stroke="none" /><text fill="#e1ed5e" style="font-size:6.75px; font-family:Arial;" text-anchor="middle"><textPath startOffset="21.466115282336833" xlink:href="#id30">June</textPath></text><path d="M 110.8373102113329 117.98757091392108 l 7.795475827271304 12.93878937821361 a36.105684822190106,36.105684822190106 0 0,0 -0.5351071026280219,0.316150708257915 l -7.5716008536149 -13.071058658765274" fill="#ffbd11" stroke="none" /><path d="M 110.21172684928248 118.3499491758327 l 8.166150476850188 14.674153394822907 a37.793355574909775,37.793355574909775 0 0,0 -0.571178520114914,0.31145207064786334 l -7.912349144866625 -14.812546117230541" fill="#ffd213" stroke="none" /><path d="M 108.59647513512805 119.15986991738527 l 7.319262833827461 16.313212285607104 a38.87994696597086,38.87994696597086 0 0,0 -0.6129688862302831,0.26870754622829035 l -7.037373272939424 -16.436784385129847" fill="#ffe015" stroke="none" /><path d="M 107.59598834532513 119.57807347666477 l 4.278284930418188 11.026949083378268 a32.82782008796465,32.82782008796465 0 0,0 -0.5285744552030907,0.19986163063957024 l -4.0878402544548225 -11.098958964124469" fill="#ff920d" stroke="none" /><path d="M 106.2309692047433 120.05430185196036 l 2.0757123872342187 6.680656155347365 a27.99569500339303,27.99569500339303 0 0,0 -0.4614290785053569,0.13902479619321548 l -1.960408334288616 -6.715396320646307" fill="#ff4f07" stroke="none" /><path d="M 105.18746579009965 120.34920634021253 l 2.038577599937349 7.996859719216273 a29.2526095266764,29.2526095266764 0 0,0 -0.4890015470013905,0.12018468290441238 l -1.900622768192748 -8.030765660434716" fill="#ff6108" stroke="none" /><path d="M 104.48393922423573 120.51570834832081 l 2.119918458759229 9.699424244435228 a30.928387832137,30.928387832137 0 0,0 -0.5210822713920856,0.1091978563582369 l -1.9526447259377655 -9.734478081520006" fill="#ff780b" stroke="none" /><path d="M 103.7750983002368 120.6578951692458 l 1.7163799806890785 9.392284621950886 a30.547825441316224,30.547825441316224 0 0,0 -0.518078069057955,0.0900745130675463 l -1.5544529401590736 -9.420437713539439" fill="#ff730a" stroke="none" /><path d="M 103.41894727170886 120.7198165907248 l 2.233564070059783 13.536049022522738 a34.71909004253565,34.71909004253565 0 0,0 -0.5904958957781131,0.09222331475908972 l -2.0002323106731525 -13.572490644628934" fill="#ffab0f" stroke="none" /><line stroke="#e1ed5e" stroke-width="0.3" x1="102.19456741930631" x2="102.32365962044197" y1="184.97166512339345" y2="189.96999836594603" /><path d="M 102.22038585953345 185.97133177190398 a86.0,86.0 0 0,1 -42.740103519485714,-10.115201625700543" fill="none" id="id31" stroke="none" /><text fill="#e1ed5e" style="font-size:6.75px; font-family:Arial;" text-anchor="middle"><textPath startOffset="22.20632615414155" xlink:href="#id31">July</textPath></text><path d="M 100.54218724476979 120.99299961872073 l 0.2243867475775881 8.688051870977395 a29.69094901177554,29.69094901177554 0 0,0 -0.511024086580816,0.008797743087099302 l -0.0748029711041042 -8.690627091343654" fill="#ff6709" stroke="none" /><path d="M 99.09653310690486 120.98055641714683 l -0.4505976978376638 10.463903539987356 a31.473600888875637,31.473600888875637 0 0,0 -0.5410640690893298,-0.02796683211789303 l 0.6306498353404825 -10.454596901107262" fill="#ff7f0b" stroke="none" /><path d="M 96.93821686468263 120.77559828337769 l -1.352356788429793 9.176359046508347 a30.27547487914488,30.27547487914488 0 0,0 -0.514919706621515,-0.08041986831566095 l 1.5101123586598248 -9.151720870845582" fill="#ff6f0a" stroke="none" /><path d="M 96.22490169976321 120.6578951692458 l -1.5853261012484003 8.675138447813236 a29.81880297636969,29.81880297636969 0 0,0 -0.5041257500627224,-0.09661689982891576 l 1.7344194658828178 -8.64656434963585" fill="#ff6909" stroke="none" /><path d="M 95.51606077576429 120.51570834832081 l -2.1955571172972355 10.045499554742007 a31.28263255978917,31.28263255978917 0 0,0 -0.5250713167272599,-0.11950452220168085 l 2.368148583417358 -10.006218298962638" fill="#ff7d0b" stroke="none" /><path d="M 93.76903079525671 120.05430185196036 l -4.093725796789735 13.175608822698484 a34.79692932315274,34.79692932315274 0 0,0 -0.5704685724924115,-0.18264602210831 l 4.319915714373086 -13.103189953930467" fill="#ffac0f" stroke="none" /><path d="M 92.7421414339146 119.70592522655815 l -4.110341180721267 11.160051580699674 a32.8929246153253,32.8929246153253 0 0,0 -0.5296227304156476,-0.2002579986276161 l 4.301834131897198 -11.087645331965426" fill="#ff920d" stroke="none" /><path d="M 92.40401165467489 119.57807347666478 l -3.5927001617397374 9.259907275852393 a30.9324406471697,30.9324406471697 0 0,0 -0.4947407085700214,-0.1968675382245849 l 3.7515619463516168 -9.196692893221742" fill="#ff780b" stroke="none" /><path d="M 92.06813273071674 119.44442032107085 l -3.3360981462519352 8.178212315689642 a29.83248025879047,29.83248025879047 0 0,0 -0.4738087428707216,-0.19805209294698917 l 3.476378348620119 -8.11957517972268" fill="#ff6909" stroke="none" /><path d="M 91.40352486487194 119.15986991738527 l -3.978407544081453 8.867096085866757 a30.71869948001263,30.71869948001263 0 0,0 -0.48057504321842287,-0.2206084316241834 l 4.1304505830672955 -8.7973005839085" fill="#ff750a" stroke="none" /><path d="M 90.42595943632237 118.69057910512821 l -2.394945234430892 4.675446386388179 a26.253147778990567,26.253147778990567 0 0,0 -0.40043438432985734,-0.2094883441836032 l 2.475070521287245 -4.633528623259859" fill="#ff3705" stroke="none" /><line stroke="#e1ed5e" stroke-width="0.3" x1="58.666819895761336" x2="56.23545636021788" y1="174.27360380694188" y2="178.64263932499728" /><path d="M 58.180547188652646 175.14741091055294 a86.0,86.0 0 0,1 -31.652253787137756,-30.449443065178592" fill="none" id="id32" stroke="none" /><text fill="#e1ed5e" style="font-size:6.75px; font-family:Arial;" text-anchor="middle"><textPath startOffset="22.20632615414155" xlink:href="#id32">August</textPath></text><path d="M 89.7882731507175 118.34994917583269 l -1.994162732607794 3.5834081083224216 a25.100914370590132,25.100914370590132 0 0,0 -0.375738256371438,-0.2133539881338256 l 2.055549755900439 -3.548550954393963" fill="#ff2603" stroke="none" /><path d="M 84.19399662182784 113.82643327865904 l -6.8709639233263395 6.010432996436004 a30.128825227831825,30.128825227831825 0 0,0 -0.33809920679864086,-0.39328576049088226 l 6.973405639695759 -5.891270136783591" fill="#ff6d0a" stroke="none" /><path d="M 83.95833913139862 113.55231037782056 l -1.947558827457487 1.6453359739345579 a23.549532477441847,23.549532477441847 0 0,0 -0.2589372023656381,-0.3119065408968728 l 1.9755920297166618 -1.611568175923924" fill="#ff1001" stroke="none" /><path d="M 82.24976979558568 111.22182372390057 l -3.603401704085274 2.2780965803807773 a25.263124191311725,25.263124191311725 0 0,0 -0.22921516528117902,-0.3695678301307574 l 3.642081509034409 -2.215732418884756" fill="#ff2904" stroke="none" /><line stroke="#e1ed5e" stroke-width="0.3" x1="26.63291911575756" x2="22.317208475507996" y1="142.92168965132927" y2="145.44649492493687" /><path d="M 25.769776987707644 143.4266507060508 a86.0,86.0 0 0,1 -11.730757126820373,-40.83630448921669" fill="none" id="id33" stroke="none" /><text fill="#e1ed5e" style="font-size:6.75px; font-family:Arial;" text-anchor="middle"><textPath startOffset="21.46611528233685" xlink:href="#id33">September</textPath></text><path d="M 80.20201598880116 107.00284435728193 l -8.348302056676772 2.952919848678269 a29.855161368503214,29.855161368503214 0 0,0 -0.16720193907645187,-0.4859671004489668 l 8.397894826696453 -2.8087800451400056" fill="#ff6909" stroke="none" /><path d="M 79.97269907076064 106.31721596034903 l -5.547001576120404 1.7496919336538836 a26.8164119823286,26.8164119823286 0 0,0 -0.13506944977029403,-0.4414147769153842 l 5.576297798396828 -1.6539501841864517" fill="#ff3f05" stroke="none" /><path d="M 79.86692584326677 105.97154293290107 l -13.043863128396131 3.868857188709701 a34.60552906942478,34.60552906942478 0 0,0 -0.16447079074193144,-0.5725443991133351 l 13.108526556024167 -3.6437553140917696" fill="#ffa90f" stroke="none" /><path d="M 79.67330655649465 105.27499134158121 l -11.506983723431324 2.9861836445519074 a32.888143974998904,32.888143974998904 0 0,0 -0.13748604451619253,-0.5491884050439293 l 11.556681082242575 -2.7876674001105863" fill="#ff920d" stroke="none" /><path d="M 79.50377843672027 104.57218783832718 l -12.187373731405494 2.718694359535588 a33.486928264770455,33.486928264770455 0 0,0 -0.12065812463426437,-0.5636745891332675 l 12.232365894764198 -2.508505950986157" fill="#ff9a0e" stroke="none" /><path d="M 79.35854240842038 103.8639653848113 l -11.455543873278385 2.1444137263151206 a32.65452683133102,32.65452683133102 0 0,0 -0.09866885243706534,-0.5533873239499941 l 11.49075916805464 -1.9469076516319128" fill="#ff8f0d" stroke="none" /><path d="M 79.10278846688536 102.07522291339032 l -12.180572191960076 1.2096064812716636 a33.24048556075638,33.24048556075638 0 0,0 -0.05164210768408213,-0.5698663550264261 l 12.199588895921233 -0.9997587376966713" fill="#ff970d" stroke="none" /><line stroke="#e1ed5e" stroke-width="0.3" x1="15.007084014347285" x2="10.007500721073583" y1="101.09737516637583" y2="101.16192664675087" /><path d="M 14.007167355692545 101.11028546245083 a86.0,86.0 0 0,1 10.666146001902534,-42.60595125391555" fill="none" id="id34" stroke="none" /><text fill="#e1ed5e" style="font-size:6.75px; font-family:Arial;" text-anchor="middle"><textPath startOffset="22.20632615414155" xlink:href="#id34">October</textPath></text><path d="M 79.00486145842228 99.54816195383935 l -7.138193700046827 -0.153621634273009 a28.13984656038944,28.13984656038944 0 0,0 0.01459024987241836,-0.4841793623404188 l 7.134491755718764 0.2764711440384222" fill="#ff5107" stroke="none" /><path d="M 79.21141760316559 97.0276538004421 l -1.4489115207148893 -0.20716499903083155 a22.463646791983564,22.463646791983564 0 0,0 0.05802478334886825,-0.38231082392216476 l 1.445130843926719 0.23207493534508836" fill="#ff0000" stroke="none" /><path d="M 79.71946130924805 94.55025226153421 l -13.263013304741191 -3.5640116796165335 a34.73352471779131,34.73352471779131 0 0,0 0.16012689035916713,-0.5760616215059751 l 13.199699643815663 3.791784604541451" fill="#ffab0f" stroke="none" /><path d="M 80.02781315780177 93.51064311812611 l -11.753931997129971 -3.819084014049706 a33.35881548124762,33.35881548124762 0 0,0 0.182143431411807,-0.5445856762677582 l 11.686451271946392 4.020842793239786" fill="#ff990e" stroke="none" /><path d="M 80.38941819471856 92.48833698450439 l -11.06365563940405 -4.237837189527394 a32.84752042210768,32.84752042210768 0 0,0 0.206793050961691,-0.5262657587011839 l 10.989069038560668 4.427651953124341" fill="#ff920d" stroke="none" /><path d="M 80.65960295795068 91.81776055985345 l -6.674948003359455 -2.8239349324251504 a28.247726495262043,28.247726495262043 0 0,0 0.19330765348534323,-0.4461807162839145 l 6.6253496400314305 2.938414793295664" fill="#ff5307" stroke="none" /><line stroke="#e1ed5e" stroke-width="0.3" x1="26.266209847984243" x2="21.928928074336255" y1="57.711370442889674" y2="55.22380399835377" /><path d="M 25.398753493254645 57.213857153982495 a86.0,86.0 0 0,1 29.58750427330803,-30.492523968695096" fill="none" id="id35" stroke="none" /><text fill="#e1ed5e" style="font-size:6.75px; font-family:Arial;" text-anchor="middle"><textPath startOffset="21.46611528233685" xlink:href="#id35">November</textPath></text><path d="M 87.80319425747018 82.90503203632743 l -6.923100191598437 -9.7033746771901 a32.9199327342416,32.9199327342416 0 0,0 0.46412223664806995,-0.3251472868701502 l 6.755046815366707 9.821106806824192" fill="#ff930d" stroke="none" /><path d="M 88.39885842347998 82.49532879139004 l -6.767989951972562 -10.212050087573648 a33.25118994143485,33.25118994143485 0 0,0 0.47981938019831416,-0.3120878719253551 l 6.591203545989961 10.327036883658538" fill="#ff970d" stroke="none" /><line stroke="#e1ed5e" stroke-width="0.3" x1="56.762969772571076" x2="54.21961505331055" y1="26.818313649435495" y2="22.513508569990535" /><path d="M 56.25429882871897 25.957352633546506 a86.0,86.0 0 0,1 42.265352541879196,-11.944610805530505" fill="none" id="id36" stroke="none" /><text fill="#e1ed5e" style="font-size:6.75px; font-family:Arial;" text-anchor="middle"><textPath startOffset="22.20632615414155" xlink:href="#id36">December</textPath></text><path d="M 89.3179101791058 81.91981866633112 l -5.901234744886651 -9.98825099480078 a32.60128137101226,32.60128137101226 0 0,0 0.4856089208890535,-0.28129603086593924 l 5.728429091532277 10.088351183056767" fill="#ff8f0d" stroke="none" /><path d="M 89.94658935756843 81.56283822128135 l -5.674908785444237 -10.407334891415612 a32.8539954979403,32.8539954979403 0 0,0 0.49884091456452484,-0.26646354060547534 l 5.4949228243514066 10.503477158522836" fill="#ff920d" stroke="none" /><path d="M 90.58718382345135 81.22770947309562 l -5.541115417950353 -11.050829689846728 a33.36223268301665,33.36223268301665 0 0,0 0.5155715763010833,-0.2529887333881685 l 5.350072574638844 11.144573583369727" fill="#ff990e" stroke="none" /><path d="M 92.91201910852362 80.23233633223022 l -4.074118230709192 -11.362304746650283 a33.07064242339854,33.07064242339854 0 0,0 0.537505018871147,-0.18752494689643914 l 3.877931207774759 11.430750546718931" fill="#ff950d" stroke="none" /><path d="M 94.98787191387505 79.60689891045804 l -2.8899920980585745 -11.758658196872092 a33.10859599283535,33.10859599283535 0 0,0 0.5546104680098399,-0.1312583790323772 l 2.6871579430862003 11.80666248804534" fill="#ff950d" stroke="none" /><path d="M 96.75951476605007 79.25152402106235 l -1.8928805359481107 -12.119909055485905 a33.2668330157633,33.2668330157633 0 0,0 0.5665357813970151,-0.08349264735365301 l 1.6839757741224468 12.150696187000527" fill="#ff970e" stroke="none" /><path d="M 97.83486435360386 79.11191278185805 l -1.2714464105785341 -12.266244639943787 a33.33196389639228,33.33196389639228 0 0,0 0.5712064890974763,-0.054242938876136536 l 1.0601147943908213 12.286313123335104" fill="#ff980e" stroke="none" /><path d="M 98.55514903715128 79.0497635885617 l -1.599425939505793 -23.191562601838896 a44.24665006513791,44.24665006513791 0 0,0 0.7602795502483108,-0.04586213870436689 l 1.1999843404178592 23.21565800992357" fill="#ddff1b" stroke="none" /><path d="M 98.91598698831166 79.02799685794201 l -0.8451612505238322 -16.35102550468967 a37.37285352632213,37.37285352632213 0 0,0 0.6427404128953436,-0.02767775421965052 l 0.5635800052391645 16.36315098543351" fill="#ffcd13" stroke="none" /></svg>