<?xml version="1.0" encoding="utf-8" ?>
<svg baseProfile="full" height="200mm" version="1.1" viewBox="0,0,200,200" width="200mm" xmlns="http://www.w3.org/2000/svg" xmlns:ev="http://www.w3.org/2001/xml-events" xmlns:xlink="http://www.w3.org/1999/xlink"><defs /><rect fill="#1a1a1a" height="200" width="200" x="0" y="0" /><text alignment-baseline="middle" fill="#e1ed5e" style="dominant-baseline: central; font-size:9.0px; font-family:Arial;" text-anchor="middle" x="100.0" y="100.0">2021</text><line stroke="#e1ed5e" stroke-width="0.3" x1="100.0" x2="100.0" y1="15.0" y2="10.0" /><path d="M 100.0 14.0 a86.0,86.0 0 0,1 42.46469731375804,11.215312516191453" fill="none" id="id49" stroke="none" /><text fill="#e1ed5e" style="font-size:6.75px; font-family:Arial;" text-anchor="middle"><textPath startOffset="22.20632615414155" xlink:href="#id49">January</textPath></text><path d="M 100.0 79.0 l 0.0 -15.142219849813493 a36.14221984981349,36.14221984981349 0 0,0 0.6221289025373177,0.00535485987724294 l -0.26064842326478926 15.13997636654481" fill="#ff720a" stroke="none" /><path d="M 101.08401301168833 79.027996857942 l 0.8270109380319581 -15.999878049350622 a37.021237301960056,37.021237301960056 0 0,0 0.6361270198791333,0.038372919026647745 l -1.1023000067507034 15.98327186094367" fill="#ff7f0b" stroke="none" /><path d="M 110.36928655335952 81.73862282372117 l 4.108598218233231 -7.235662872546987 a29.320781004450495,29.320781004450495 0 0,0 0.43674457642193565,0.2529906485753923 l -4.232539527120495 7.163868066581545" fill="#ff0600" stroke="none" /><line stroke="#e1ed5e" stroke-width="0.3" x1="143.23703022742887" x2="145.7803849466894" y1="26.81831364943548" y2="22.513508569990506" /><path d="M 143.74570117128098 25.957352633546492 a86.0,86.0 0 0,1 28.547481713284135,27.462654790039103" fill="none" id="id50" stroke="none" /><text fill="#e1ed5e" style="font-size:6.75px; font-family:Arial;" text-anchor="middle"><textPath startOffset="19.985693538727396" xlink:href="#id50">February</textPath></text><path d="M 112.48926042617603 83.11751280151076 l 4.826305237160721 -6.524008115932538 a29.115165071580407,29.115165071580407 0 0,0 0.40033885230373467,0.3015269236603589 l -4.937890243222839 6.439964602766332" fill="#ff0200" stroke="none" /><path d="M 115.92442197804982 86.31012108654704 l 11.978085546533627 -10.297299391654786 a36.7958509780718,36.7958509780718 0 0,0 0.40876578575684486,0.4838497589702673 l -12.153561945777591 10.08959068305541" fill="#ff7c0b" stroke="none" /><path d="M 116.60985879189232 87.15038557335679 l 6.302574349825226 -4.875757904097099 a28.968403765776443,28.968403765776443 0 0,0 0.3017184227084652,0.3970260772483647 l -6.385568712757802 4.7665470509677" fill="#ff0000" stroke="none" /><path d="M 117.65298651832404 88.62581576622439 l 13.274010416000081 -8.552719384673011 a36.790768233276054,36.790768233276054 0 0,0 0.33842672074189856,0.5353097988609027 l -13.419264732987935 8.322961938097903" fill="#ff7c0b" stroke="none" /><line stroke="#e1ed5e" stroke-width="0.3" x1="172.23445277983987" x2="176.4835382374775" y1="55.19839476539836" y2="52.563006222186495" /><path d="M 173.08426987136738 54.67131705675599 a86.0,86.0 0 0,1 12.851231095245387,41.99856678651699" fill="none" id="id51" stroke="none" /><text fill="#e1ed5e" style="font-size:6.75px; font-family:Arial;" text-anchor="middle"><textPath startOffset="22.20632615414155" xlink:href="#id51">March</textPath></text><path d="M 118.73160827565052 90.50648371742162 l 7.416592743630847 -3.758862716792906 a29.314739734265498,29.314739734265498 0 0,0 0.22424378148507723,0.4520617799328916 l -7.4801965380693325 3.6306413483610647" fill="#ff0600" stroke="none" /><path d="M 119.196687751892 91.48605970444005 l 14.097289501414572 -6.252301579080395 a36.42157081241936,36.42157081241936 0 0,0 0.2492437184698726,0.5752888663799582 l -14.202823929727126 6.008713568113834" fill="#ff760a" stroke="none" /><path d="M 119.34039704204932 91.81776055985345 l 13.861120463199303 -5.864150890595892 a36.0505457098073,36.0505457098073 0 0,0 0.23686635637482117,0.5735906700324855 l -13.960008506460321 5.624685650110103" fill="#ff710a" stroke="none" /><path d="M 119.47837535516314 92.15188598940014 l 9.90665667483151 -3.99153264224056 a31.680551451449293,31.680551451449293 0 0,0 0.19944634500886924,0.5075691933947818 l -9.97389656972208 3.820414443949994" fill="#ff2c04" stroke="none" /><path d="M 119.97218684219823 93.5106431181261 l 15.08325780327903 -4.900847543644037 a36.85947579859497,36.85947579859497 0 0,0 0.1908698030607487,0.6051094355797642 l -15.165383090107985 4.640487941637854" fill="#ff7d0b" stroke="none" /><path d="M 120.28053869075195 94.5502522615342 l 15.278740066091418 -4.105673936548733 a36.82076030032826,36.82076030032826 0 0,0 0.15921238564733597,0.6135102687187544 l -15.347148783609057 3.8420672422811286" fill="#ff7c0b" stroke="none" /><path d="M 120.37134235888165 94.90015583598534 l 15.031435084208846 -3.7630301990160997 a36.495303706913646,36.495303706913646 0 0,0 0.14731450946981386,0.610713747508794 l -15.093982393939477 3.5037312198478996" fill="#ff770b" stroke="none" /><path d="M 120.45610955862082 95.25157060432595 l 61.36832867586249 -14.245288187022162 a84.0,84.0 0 0,0 0.31482245199184966,1.4112873218001445 l -61.60444551485638 13.186822695672053" fill="#4dd2ff" stroke="none" /><path d="M 120.98425023603335 99.18683210126433 l 15.074329309156466 -0.5841505200947023 a36.085643372127706,36.085643372127706 0 0,0 0.018710071942873958,0.620896199986903 l -15.082151075554986 0.32458417268280015" fill="#ff710a" stroke="none" /><line stroke="#e1ed5e" stroke-width="0.3" x1="184.98032266829074" x2="189.97916517819016" y1="98.17113171792111" y2="98.06355123074" /><path d="M 185.9800911702706 98.14961562048488 a86.0,86.0 0 0,1 -9.607161424134198,41.387399972396054" fill="none" id="id52" stroke="none" /><text fill="#e1ed5e" style="font-size:6.75px; font-family:Arial;" text-anchor="middle"><textPath startOffset="21.466115282336823" xlink:href="#id52">April</textPath></text><path d="M 120.99824983174949 100.27111621757518 l 15.083303715112182 0.19474614715726746 a36.084560882708836,36.084560882708836 0 0,0 -0.013364926313559112,0.6210156093215532 l -15.077716726113616 -0.45435157226893547" fill="#ff710a" stroke="none" /><path d="M 120.9904718944345 100.63252640178507 l 15.081081268316488 0.4544529593070135 a36.08792695216243,36.08792695216243 0 0,0 -0.024054952721516823,0.6207514439627408 l -15.071024182743768 -0.7139816502837605" fill="#ff710a" stroke="none" /><path d="M 120.49622156327973 104.57218783832717 l 14.959709312486261 3.3371322012833686 a36.32740532650359,36.32740532650359 0 0,0 -0.14139912155237258,0.6091437148887906 l -14.900049625003335 -3.5941445735207243" fill="#ff750a" stroke="none" /><path d="M 120.32669344350535 105.2749913415812 l 14.699519287608291 3.814680296283737 a36.186429898090715,36.186429898090715 0 0,0 -0.16165326662206267,0.6015719415919472 l -14.631677944644451 -4.0671431710512325" fill="#ff730a" stroke="none" /><path d="M 120.13307415673323 105.97154293290107 l 16.582245719973788 4.918354319358735 a38.29627365441307,38.29627365441307 0 0,0 -0.19289145073407765,0.6303804216236124 l -16.495127496733577 -5.203061713534405" fill="#ff920d" stroke="none" /><path d="M 119.79798401119884 107.00284435728193 l 14.424947848105676 5.102320750691223 a36.300744997009225,36.300744997009225 0 0,0 -0.2134410149793587,0.5872980039548833 l -14.334982572121092 -5.349866551652237" fill="#ff740a" stroke="none" /><path d="M 119.26925614724726 108.34839909993367 l 12.873036546402986 5.577238991280759 a35.0292788371637,35.0292788371637 0 0,0 -0.2444691956676424,0.5512134982477255 l -12.77512626600407 -5.798000826021172" fill="#ff6108" stroke="none" /><path d="M 118.97047184881838 109.00673069616215 l 13.708632311544951 6.5085339166449305 a36.175230265048754,36.175230265048754 0 0,0 -0.2719115375500367,0.5602183048901462 l -13.5945675173802 -6.743541177500352" fill="#ff720a" stroke="none" /><line stroke="#e1ed5e" stroke-width="0.3" x1="174.80103733775053" x2="179.2010983576182" y1="140.37084112569926" y2="142.7455964860345" /><path d="M 175.68104954172406 140.8457921977663 a86.0,86.0 0 0,1 -30.038265399797805,32.042727171017184" fill="none" id="id53" stroke="none" /><text fill="#e1ed5e" style="font-size:6.75px; font-family:Arial;" text-anchor="middle"><textPath startOffset="22.206326154141568" xlink:href="#id53">May</textPath></text><path d="M 117.14729908036423 112.12312394758627 l 7.878077870227989 5.56979347254038 a30.64814543091725,30.64814543091725 0 0,0 -0.30826226862957434,0.42814932974655145 l -7.7810358092228125 -5.704576407738062" fill="#ff1b02" stroke="none" /><path d="M 115.56566222782051 114.09645910891815 l 11.181905159024819 10.126473678214001 a36.08577051863732,36.08577051863732 0 0,0 -0.4209209099420138,0.4568265148527008 l -11.005937841087084 -10.317451447868036" fill="#ff710a" stroke="none" /><path d="M 113.48314897796784 116.09983520530334 l 10.05085132718113 12.001428620646257 a36.65419756287641,36.65419756287641 0 0,0 -0.48720387876300897,0.40093562355076323 l -9.842777319873429 -12.172659363054198" fill="#ff7a0b" stroke="none" /><line stroke="#e1ed5e" stroke-width="0.3" x1="143.8653032363475" x2="146.44561519142675" y1="172.8068346515853" y2="177.08958963109032" /><path d="M 144.38136562736335 173.6633856474863 a86.0,86.0 0 0,1 -40.68145358897372,12.25698825130547" fill="none" id="id54" stroke="none" /><text fill="#e1ed5e" style="font-size:6.75px; font-family:Arial;" text-anchor="middle"><textPath startOffset="21.466115282336833" xlink:href="#id54">June</textPath></text><path d="M 101.62511606390274 120.93702456842531 l 1.2045654172715905 15.518901262427166 a36.56557979123971,36.56557979123971 0 0,0 -0.6279480831633536,0.043306976339523795 l -0.9372545733293064 -15.537336583282976" fill="#ff780b" stroke="none" /><line stroke="#e1ed5e" stroke-width="0.3" x1="102.19456741930631" x2="102.32365962044197" y1="184.97166512339345" y2="189.96999836594603" /><path d="M 102.22038585953345 185.97133177190398 a86.0,86.0 0 0,1 -42.740103519485714,-10.115201625700543" fill="none" id="id55" stroke="none" /><text fill="#e1ed5e" style="font-size:6.75px; font-family:Arial;" text-anchor="middle"><textPath startOffset="22.20632615414155" xlink:href="#id55">July</textPath></text><path d="M 99.81925306533755 120.99922214144158 l -0.09095541487018467 10.567221875120435 a31.56761330885636,31.56761330885636 0 0,0 -0.543324187795304,-0.00935381862176479 l 0.27283929255815664 -10.56409057921951" fill="#ff2a04" stroke="none" /><path d="M 98.73552117531835 120.96189622390904 l -0.8158558197590007 13.524848889237875 a34.549433869920676,34.549433869920676 0 0,0 -0.5933244022618628,-0.040919124589050275 l 1.0485429827997936 -13.508801420132539" fill="#ff5908" stroke="none" /><path d="M 98.37488393609728 120.93702456842531 l -1.2316710035485272 15.868113443900002 a36.91584235060973,36.91584235060973 0 0,0 -0.6331166851395017,-0.05462797160991338 l 1.5046320064295706 -15.844561220011425" fill="#ff7e0b" stroke="none" /><path d="M 96.22490169976321 120.6578951692458 l -1.7196725494916856 9.41030204447937 a30.56614124115925,30.56614124115925 0 0,0 -0.5167604780089171,-0.09903837551070986 l 1.8814006420722977 -9.379306470620191" fill="#ff1a02" stroke="none" /><path d="M 94.81253420990036 120.34920634021253 l -4.0957427944904055 16.066634193634474 a37.58046571573563,37.58046571573563 0 0,0 -0.6254634252973699,-0.165190575369646 l 4.371696662599265 -15.993752268961247" fill="#ff880c" stroke="none" /><path d="M 93.08242187328487 119.8279376855182 l -4.98054905935514 14.275807888194274 a36.11967459283675,36.11967459283675 0 0,0 -0.585277082874371,-0.20985953875755112 l 5.225545702859238 -14.187960808396765" fill="#ff720a" stroke="none" /><path d="M 92.40401165467489 119.57807347666478 l -5.773333462907568 14.880321243733304 a36.96105696971942,36.96105696971942 0 0,0 -0.5911638115878542,-0.23523628086143558 l 6.028618350537281 -14.778738118465801" fill="#ff7e0b" stroke="none" /><path d="M 91.7346041902142 119.30500536409082 l -6.129459254914316 14.316222298150729 a36.57319786195895,36.57319786195895 0 0,0 -0.576601413035535,-0.2527651147212285 l 6.374981342607595 -14.208592630135048" fill="#ff780b" stroke="none" /><path d="M 91.40352486487194 119.15986991738527 l -3.3873216482071924 7.549680668857787 a29.27475837412417,29.27475837412417 0 0,0 -0.45798547819407304,-0.21023867026970264 l 3.516775122168685 -7.49025492825401" fill="#ff0500" stroke="none" /><path d="M 90.7491055286396 118.85261126421891 l -6.644855849808489 13.541705035230873 a36.084160053709695,36.084160053709695 0 0,0 -0.5552597769479104,-0.27841877916556645 l 6.87696953443916 -13.425318415156005" fill="#ff710a" stroke="none" /><path d="M 90.42595943632237 118.69057910512821 l -6.8904971993899204 13.451727316412292 a36.11383205708972,36.11383205708972 0 0,0 -0.5508375691674343,-0.28817218199711614 l 7.12102567108385 -13.33112571547046" fill="#ff710a" stroke="none" /><path d="M 90.10565033884886 118.52300852407294 l -7.517590142052676 14.073525906252216 a36.95550979999824,36.95550979999824 0 0,0 -0.5585159898230638,-0.30454744951777535 l 7.75872894374438 -13.942037804974674" fill="#ff7e0b" stroke="none" /><line stroke="#e1ed5e" stroke-width="0.3" x1="58.666819895761336" x2="56.23545636021788" y1="174.27360380694188" y2="178.64263932499728" /><path d="M 58.180547188652646 175.14741091055294 a86.0,86.0 0 0,1 -31.652253787137756,-30.449443065178592" fill="none" id="id56" stroke="none" /><text fill="#e1ed5e" style="font-size:6.75px; font-family:Arial;" text-anchor="middle"><textPath startOffset="22.20632615414155" xlink:href="#id56">August</textPath></text><path d="M 89.1626897886671 117.98757091392108 l -7.765077212111661 12.88833430816337 a36.04677989966746,36.04677989966746 0 0,0 -0.5287218087885497,-0.32478411860552775 l 7.98577822083252 -12.752761722729463" fill="#ff700a" stroke="none" /><path d="M 88.24862548938628 117.40417183066458 l -8.442335155167159 12.503375801688756 a36.08666395564067,36.08666395564067 0 0,0 -0.5118173531483231,-0.3520326424952057 l 8.656309392938375 -12.356202369828448" fill="#ff710a" stroke="none" /><path d="M 86.79598089348748 116.32954008644616 l -9.56407809321818 11.827989292750855 a36.2109473893839,36.2109473893839 0 0,0 -0.48131224238446496,-0.39608720791177665 l 9.766260464147333 -11.661606965981898" fill="#ff730a" stroke="none" /><path d="M 85.70375840098266 115.38237550388516 l -16.07814203606946 17.299652953586133 a44.61746480142492,44.61746480142492 0 0,0 -0.558067103031594,-0.5276872787086501 l 16.373544973491867 -17.020331038131555" fill="#ffee16" stroke="none" /><path d="M 85.44109423537348 115.13401014063109 l -10.954501428374952 11.38722500047978 a36.80094917262316,36.80094917262316 0 0,0 -0.4527393795887224,-0.4431007719356869 l 11.14889076033947 -11.196974125621521" fill="#ff7c0b" stroke="none" /><path d="M 84.9287848128048 114.62390073753433 l -15.113602392754776 14.665029888631013 a42.059061681868066,42.059061681868066 0 0,0 -0.49968858784640036,-0.5239214866283023 l 15.363797531980135 -14.402701285420209" fill="#ffc912" stroke="none" /><path d="M 84.19399662182784 113.82643327865904 l -23.81845027787137 20.83538802875606 a52.645409903306074,52.645409903306074 0 0,0 -0.5907754847824181,-0.6872053561202172 l 24.173568272224568 -20.42230557347431" fill="#a6ff21" stroke="none" /><path d="M 83.06392112726016 112.41649034213515 l -12.250539424124142 8.981341288532615 a36.19013520424096,36.19013520424096 0 0,0 -0.36400418437117205,-0.5055699753859011 l 12.40332340087092 -8.769137707695574" fill="#ff730a" stroke="none" /><path d="M 82.85270091963577 112.12312394758628 l -12.318470770358156 8.70914697958359 a36.086217658252124,36.086217658252124 0 0,0 -0.3542276272391411,-0.5102913165828273 l 12.466559304759429 -8.495814400813753" fill="#ff710a" stroke="none" /><line stroke="#e1ed5e" stroke-width="0.3" x1="26.63291911575756" x2="22.317208475507996" y1="142.92168965132927" y2="145.44649492493687" /><path d="M 25.769776987707644 143.4266507060508 a86.0,86.0 0 0,1 -11.730757126820373,-40.83630448921669" fill="none" id="id57" stroke="none" /><text fill="#e1ed5e" style="font-size:6.75px; font-family:Arial;" text-anchor="middle"><textPath startOffset="21.46611528233685" xlink:href="#id57">September</textPath></text><path d="M 81.51974371655577 109.97397251340807 l -13.302886308345741 7.1796960146758515 a36.11670661870253,36.11670661870253 0 0,0 -0.2905631902098785,-0.5496360542798502 l 13.424502006780505 -6.949644945309875" fill="#ff720a" stroke="none" /><path d="M 81.02952815118164 109.00673069616217 l -13.592104913146027 6.453209467971891 a36.04623635356997,36.04623635356997 0 0,0 -0.2612929590668741,-0.5628017881171437 l 13.701172489052729 -6.218287612575921" fill="#ff700a" stroke="none" /><path d="M 80.45479744820244 107.68017299344265 l -17.620529880487048 6.923884127556395 a39.932069212871696,39.932069212871696 0 0,0 -0.24587833223295893,-0.6419107378025094 l 17.737102492313518 -6.619549822920728" fill="#ffab0f" stroke="none" /><path d="M 79.86692584326677 105.97154293290107 l -24.35994741697633 7.2252488969767 a46.40888151377614,46.40888151377614 0 0,0 -0.22056895661691558,-0.7678294739121175 l 24.480709010479348 -6.804861947559986" fill="#f8ff18" stroke="none" /><path d="M 79.67330655649465 105.27499134158121 l -29.183408456293126 7.573402302377947 a51.15008709042985,51.15008709042985 0 0,0 -0.21382851996961957,-0.854138645476791 l 29.309448290557807 -7.069935817503765" fill="#b9ff1f" stroke="none" /><line stroke="#e1ed5e" stroke-width="0.3" x1="15.007084014347285" x2="10.007500721073583" y1="101.09737516637583" y2="101.16192664675087" /><path d="M 14.007167355692545 101.11028546245083 a86.0,86.0 0 0,1 10.666146001902534,-42.60595125391555" fill="none" id="id58" stroke="none" /><text fill="#e1ed5e" style="font-size:6.75px; font-family:Arial;" text-anchor="middle"><textPath startOffset="22.20632615414155" xlink:href="#id58">October</textPath></text><path d="M 79.46518482838121 95.60439243477599 l -16.20896812694558 -3.4696325400459007 a37.57615750719337,37.57615750719337 0 0,0 0.14083116717674485,-0.6313185082365241 l 16.1468425727668 3.748129217832384" fill="#ff880c" stroke="none" /><path d="M 80.02781315780177 93.51064311812611 l -13.140815096866907 -4.269709649526782 a34.81707067005548,34.81707067005548 0 0,0 0.19010569266514338,-0.5683918239594926 l 13.065372110429992 4.495274576408597" fill="#ff5e08" stroke="none" /><path d="M 80.14247586403 93.16781622104843 l -15.84927749387598 -5.453105626879911 a37.76114429434318,37.76114429434318 0 0,0 0.2167614099894909,-0.6128136954456852 l 15.75306300307668 5.725116948752208" fill="#ff8a0c" stroke="none" /><path d="M 80.803312248108 91.48605970444005 l -14.723505686034713 -6.530035283815147 a37.10661294296747,37.10661294296747 0 0,0 0.26398295233414515,-0.581651443201945 l 14.608920416737217 6.782508735859163" fill="#ff810b" stroke="none" /><path d="M 81.10775173730289 90.83032412892265 l -14.910313478048119 -7.236975707111429 a37.57381263919031,37.57381263919031 0 0,0 0.28742175122144886,-0.5794247117494433 l 14.783531713873257 7.492560007359835" fill="#ff880c" stroke="none" /><line stroke="#e1ed5e" stroke-width="0.3" x1="26.266209847984257" x2="21.92892807433627" y1="57.711370442889674" y2="55.22380399835377" /><path d="M 25.39875349325466 57.213857153982495 a86.0,86.0 0 0,1 29.58750427330802,-30.492523968695096" fill="none" id="id59" stroke="none" /><text fill="#e1ed5e" style="font-size:6.75px; font-family:Arial;" text-anchor="middle"><textPath startOffset="21.46611528233685" xlink:href="#id59">November</textPath></text><path d="M 82.95767976084542 87.72973835380427 l -13.543358224325301 -9.751051890154601 a37.68848599954134,37.68848599954134 0 0,0 0.38359231123135995,-0.5232194814298639 l 13.37350330058031 9.982733815255965" fill="#ff890c" stroke="none" /><path d="M 83.6137871275137 86.86637796730984 l -13.03700617793898 -10.449218065901842 a37.70777328887331,37.70777328887331 0 0,0 0.41029919318805136,-0.5029782965258536 l 12.855208492674537 10.672080532035777" fill="#ff8a0c" stroke="none" /><path d="M 84.31358615837235 86.03803664274997 l -24.76051635130634 -22.038524897648497 a54.14784683275192,54.14784683275192 0 0,0 0.6256818752816953,-0.6908935540090833 l 24.3774908354086 22.46147123892714" fill="#94ff23" stroke="none" /><path d="M 84.5562425177563 85.77008943001954 l -12.186828952389204 -11.228969784298412 a37.57131745913639,37.57131745913639 0 0,0 0.44232654440573593,-0.47184311724561595 l 11.991735086013012 11.43708231842208" fill="#ff880c" stroke="none" /><path d="M 86.10567301691215 84.25364557470407 l -16.104080454792573 -18.250654302529572 a45.339839559144046,45.339839559144046 0 0,0 0.5896472072363133,-0.5113362476352622 l 15.787539448909488 18.525155543584514" fill="#fff717" stroke="none" /><path d="M 87.51073957382395 83.11751280151077 l -9.937876118046256 -13.433627021776935 a37.70998853075159,37.70998853075159 0 0,0 0.5251648936220661,-0.3815546294318465 l 9.705165908070407 13.602700886025449" fill="#ff8a0c" stroke="none" /><path d="M 87.80319425747017 82.90503203632743 l -9.615038028244653 -13.476378203613406 a37.554809747363976,37.554809747363976 0 0,0 0.5294671297645042,-0.3709255604152248 l 9.38163975889649 13.639888606792574" fill="#ff870c" stroke="none" /><path d="M 88.39885842347998 82.49532879139004 l -10.097487365851153 -15.235845128384156 a39.278135240763234,39.278135240763234 0 0,0 0.5667890544597851,-0.3686553672838912 l 9.833731285607081 15.407399419827582" fill="#ffa10e" stroke="none" /><line stroke="#e1ed5e" stroke-width="0.3" x1="56.762969772571076" x2="54.21961505331055" y1="26.818313649435495" y2="22.513508569990535" /><path d="M 56.25429882871897 25.957352633546506 a86.0,86.0 0 0,1 42.265352541879196,-11.944610805530505" fill="none" id="id60" stroke="none" /><text fill="#e1ed5e" style="font-size:6.75px; font-family:Arial;" text-anchor="middle"><textPath startOffset="22.20632615414155" xlink:href="#id60">December</textPath></text><path d="M 90.58718382345135 81.22770947309562 l -6.7591665791699205 -13.48002939439583 a36.07970574377177,36.07970574377177 0 0,0 0.5575667234125194,-0.27359556969283266 l 6.5261285887469755 13.594380124223491" fill="#ff710a" stroke="none" /><path d="M 92.91201910852362 80.23233633223022 l -6.633928047831816 -18.50135609189105 a40.654749517171766,40.654749517171766 0 0,0 0.6607713157385803,-0.2305301374762969 l 6.314474728029951 18.61280708253956" fill="#ffb510" stroke="none" /><path d="M 97.47563105711357 79.15227682838746 l -1.8159617646364958 -14.997280118684287 a36.10682389150362,36.10682389150362 0 0,0 0.6176558748732819,-0.06940083426597897 l 1.557539186253496 15.026316906420865" fill="#ff710a" stroke="none" /><path d="M 98.91598698831166 79.02799685794201 l -1.4238572617706062 -27.546845513585545 a48.58361954586898,48.58361954586898 0 0,0 0.8355437902238002,-0.035980273220092576 l 0.9494726391574819 27.56727351332983" fill="#dbff1b" stroke="none" /><path d="M 99.27714615592234 79.0124445844662 l -0.5750582989614714 -16.696415209655868 a37.70631535978033,37.70631535978033 0 0,0 0.6488599074269922,-0.016758137085646052 l 0.2875717563396003 16.703840138883876" fill="#ff8a0c" stroke="none" /></svg>