<?xml version="1.0" encoding="utf-8" ?>
<svg baseProfile="full" height="200mm" version="1.1" viewBox="0,0,200,200" width="200mm" xmlns="http://www.w3.org/2000/svg" xmlns:ev="http://www.w3.org/2001/xml-events" xmlns:xlink="http://www.w3.org/1999/xlink"><defs /><rect fill="#1a1a1a" height="200" width="200" x="0" y="0" /><text alignment-baseline="middle" fill="#e1ed5e" style="dominant-baseline: central; font-size:9.0px; font-family:Arial;" text-anchor="middle" x="100.0" y="100.0">2017</text><line stroke="#e1ed5e" stroke-width="0.3" x1="100.0" x2="100.0" y1="15.0" y2="10.0" /><path d="M 100.0 14.0 a86.0,86.0 0 0,1 42.46469731375804,11.215312516191453" fill="none" id="id1" stroke="none" /><text fill="#e1ed5e" style="font-size:6.75px; font-family:Arial;" text-anchor="middle"><textPath startOffset="22.20632615414155" xlink:href="#id1">January</textPath></text><line stroke="#e1ed5e" stroke-width="0.3" x1="143.23703022742887" x2="145.7803849466894" y1="26.81831364943548" y2="22.513508569990506" /><path d="M 143.74570117128098 25.957352633546492 a86.0,86.0 0 0,1 28.547481713284135,27.462654790039103" fill="none" id="id2" stroke="none" /><text fill="#e1ed5e" style="font-size:6.75px; font-family:Arial;" text-anchor="middle"><textPath startOffset="19.985693538727396" xlink:href="#id2">February</textPath></text><line stroke="#e1ed5e" stroke-width="0.3" x1="172.23445277983987" x2="176.4835382374775" y1="55.19839476539836" y2="52.563006222186495" /><path d="M 173.08426987136738 54.67131705675599 a86.0,86.0 0 0,1 12.851231095245387,41.99856678651699" fill="none" id="id3" stroke="none" /><text fill="#e1ed5e" style="font-size:6.75px; font-family:Arial;" text-anchor="middle"><textPath startOffset="22.20632615414155" xlink:href="#id3">March</textPath></text><line stroke="#e1ed5e" stroke-width="0.3" x1="184.98032266829074" x2="189.97916517819016" y1="98.17113171792111" y2="98.06355123074" /><path d="M 185.9800911702706 98.14961562048488 a86.0,86.0 0 0,1 -9.607161424134198,41.387399972396054" fill="none" id="id4" stroke="none" /><text fill="#e1ed5e" style="font-size:6.75px; font-family:Arial;" text-anchor="middle"><textPath startOffset="21.466115282336823" xlink:href="#id4">April</textPath></text><line stroke="#e1ed5e" stroke-width="0.3" x1="174.80103733775053" x2="179.2010983576182" y1="140.37084112569926" y2="142.7455964860345" /><path d="M 175.68104954172406 140.8457921977663 a86.0,86.0 0 0,1 -30.038265399797805,32.042727171017184" fill="none" id="id5" stroke="none" /><text fill="#e1ed5e" style="font-size:6.75px; font-family:Arial;" text-anchor="middle"><textPath startOffset="22.206326154141568" xlink:href="#id5">May</textPath></text><line stroke="#e1ed5e" stroke-width="0.3" x1="143.8653032363475" x2="146.44561519142675" y1="172.8068346515853" y2="177.08958963109032" /><path d="M 144.38136562736335 173.6633856474863 a86.0,86.0 0 0,1 -40.68145358897372,12.25698825130547" fill="none" id="id6" stroke="none" /><text fill="#e1ed5e" style="font-size:6.75px; font-family:Arial;" text-anchor="middle"><textPath startOffset="21.466115282336833" xlink:href="#id6">June</textPath></text><line stroke="#e1ed5e" stroke-width="0.3" x1="102.19456741930631" x2="102.32365962044197" y1="184.97166512339345" y2="189.96999836594603" /><path d="M 102.22038585953345 185.97133177190398 a86.0,86.0 0 0,1 -42.740103519485714,-10.115201625700543" fill="none" id="id7" stroke="none" /><text fill="#e1ed5e" style="font-size:6.75px; font-family:Arial;" text-anchor="middle"><textPath startOffset="22.20632615414155" xlink:href="#id7">July</textPath></text><line stroke="#e1ed5e" stroke-width="0.3" x1="58.666819895761336" x2="56.23545636021788" y1="174.27360380694188" y2="178.64263932499728" /><path d="M 58.180547188652646 175.14741091055294 a86.0,86.0 0 0,1 -31.652253787137756,-30.449443065178592" fill="none" id="id8" stroke="none" /><text fill="#e1ed5e" style="font-size:6.75px; font-family:Arial;" text-anchor="middle"><textPath startOffset="22.20632615414155" xlink:href="#id8">August</textPath></text><line stroke="#e1ed5e" stroke-width="0.3" x1="26.63291911575756" x2="22.317208475507996" y1="142.92168965132927" y2="145.44649492493687" /><path d="M 25.769776987707644 143.4266507060508 a86.0,86.0 0 0,1 -11.730757126820373,-40.83630448921669" fill="none" id="id9" stroke="none" /><text fill="#e1ed5e" style="font-size:6.75px; font-family:Arial;" text-anchor="middle"><textPath startOffset="21.46611528233685" xlink:href="#id9">September</textPath></text><line stroke="#e1ed5e" stroke-width="0.3" x1="15.007084014347285" x2="10.007500721073583" y1="101.09737516637583" y2="101.16192664675087" /><path d="M 14.007167355692545 101.11028546245083 a86.0,86.0 0 0,1 10.666146001902534,-42.60595125391555" fill="none" id="id10" stroke="none" /><text fill="#e1ed5e" style="font-size:6.75px; font-family:Arial;" text-anchor="middle"><textPath startOffset="22.20632615414155" xlink:href="#id10">October</textPath></text><path d="M 79.16333360222342 97.38593545837743 l -29.8664885387067 -3.7469011204278235 a51.100604738758356,51.100604738758356 0 0,0 0.11700578697160553,-0.8718290184428984 l 29.797566752677263 4.2604484809353815" fill="#ff0c01" stroke="none" /><path d="M 79.21141760316559 97.0276538004421 l -30.433915780176328 -4.351433502298225 a51.74342536608094,51.74342536608094 0 0,0 0.133655994255867,-0.8806260073195651 l 30.35450389248116 4.874658622009882" fill="#ff1d02" stroke="none" /><path d="M 79.32604984820605 96.31383870115002 l -30.358958706155413 -5.412996444044548 a51.83775128353701,51.83775128353701 0 0,0 0.16418811908405265,-0.877099497432541 l 30.2612848631615 5.934774018939662" fill="#ff1f03" stroke="none" /><path d="M 79.81627453868168 94.20196356495316 l -31.273989306841123 -8.983858298005542 a53.53877866612476,53.53877866612476 0 0,0 0.26207003441519894,-0.8835698740552458 l 31.114713375314217 9.520857558807327" fill="#ff4c07" stroke="none" /><path d="M 79.91906864156998 93.8553929516997 l -42.098269608952805 -12.881739374694122 a65.02503280391309,65.02503280391309 0 0,0 0.3367197969151526,-1.0674937732031418 l 41.870294328269445 13.60448331432368" fill="#a6ff21" stroke="none" /><path d="M 80.14247586403 93.16781622104843 l -59.572572407909995 -20.496551336854708 a84.0,84.0 0 0,0 0.4821876767607618,-1.3632094942935558 l 59.210931650339425 21.518958457574875" fill="#4dd2ff" stroke="none" /><path d="M 80.52162464483688 92.15188598940014 l -30.099468067335838 -12.127503076802833 a53.45079827699824,53.45079827699824 0 0,0 0.35119290384982094,-0.8504414730435927 l 29.88625347659982 12.643819120299737" fill="#ff4a06" stroke="none" /><path d="M 80.803312248108 91.48605970444005 l -27.124683735283526 -12.030092943267714 a50.67274176686095,50.67274176686095 0 0,0 0.36049477205159164,-0.7943024448228465 l 26.913586646268584 12.495217396932633" fill="#ff0000" stroke="none" /><path d="M 81.6062741919709 89.86733742301443 l -28.460052096647537 -15.677960399566256 a53.49266082724312,53.49266082724312 0 0,0 0.45122933868961757,-0.8026866440061855 l 28.18596511666549 16.165530553507224" fill="#ff4b07" stroke="none" /><line stroke="#e1ed5e" stroke-width="0.3" x1="26.266209847984257" x2="21.92892807433627" y1="57.711370442889674" y2="55.22380399835377" /><path d="M 25.39875349325466 57.213857153982495 a86.0,86.0 0 0,1 29.58750427330802,-30.492523968695096" fill="none" id="id11" stroke="none" /><text fill="#e1ed5e" style="font-size:6.75px; font-family:Arial;" text-anchor="middle"><textPath startOffset="21.46611528233685" xlink:href="#id11">November</textPath></text><path d="M 81.96595687620814 89.24020034530311 l -31.95057808727785 -19.062936509080185 a58.20530860590276,58.20530860590276 0 0,0 0.520755140139252,-0.8559845270443038 l 31.61770714885238 19.61008880933156" fill="#ffc011" stroke="none" /><path d="M 82.95767976084542 87.72973835380427 l -25.44131769673371 -18.317436850277044 a52.34946792068445,52.34946792068445 0 0,0 0.5328113576032654,-0.7267540929854053 l 25.122243726616812 18.75265338693395" fill="#ff2d04" stroke="none" /><path d="M 83.39014120810768 87.1503855733568 l -49.318976236301836 -38.153836013500396 a83.35444346269145,83.35444346269145 0 0,0 0.8877086259424519,-1.1272998067245252 l 48.65491352976541 38.99712821417797" fill="#4cddff" stroke="none" /><path d="M 84.5562425177563 85.77008943001954 l -22.505475075598753 -20.736591987338553 a51.602330885534684,51.602330885534684 0 0,0 0.6075134503522569,-0.6480529911854221 l 22.14519430327604 21.120914395402025" fill="#ff1902" stroke="none" /><path d="M 85.05521093208273 85.24692304244772 l -21.176602782053447 -20.904948816831286 a50.75677049720298,50.75677049720298 0 0,0 0.6191460714527298,-0.6164872614579326 l 20.813620910433404 21.266371928939332" fill="#ff0200" stroke="none" /><path d="M 86.37877921826538 84.01681056812374 l -20.319634370978335 -23.843132017455762 a52.327024840735646,52.327024840735646 0 0,0 0.6905733594268234,-0.578335328693332 l 19.9062034745924 24.18936850354291" fill="#ff2c04" stroke="none" /><path d="M 86.93701828274178 83.55741782278169 l -19.491479854155987 -24.534234694222807 a52.33442929009837,52.33442929009837 0 0,0 0.7101718377137641,-0.554300383894623 l 19.0662754612828 24.86611346734065" fill="#ff2d04" stroke="none" /><path d="M 88.39885842347998 82.49532879139004 l -17.107725108552977 -25.81341682430627 a51.96783406270435,51.96783406270435 0 0,0 0.7499032056938062,-0.48775790489799 l 16.660854877074883 26.104073653363795" fill="#ff2303" stroke="none" /><path d="M 89.00827224532344 82.1063720568725 l -19.21871939113767 -31.286493079495557 a57.717895150030245,57.717895150030245 0 0,0 0.8510309426915111,-0.5127366207214313 l 18.67732638222851 31.61267630967561" fill="#ffb410" stroke="none" /><line stroke="#e1ed5e" stroke-width="0.3" x1="56.762969772571076" x2="54.21961505331055" y1="26.818313649435495" y2="22.513508569990535" /><path d="M 56.25429882871897 25.957352633546506 a86.0,86.0 0 0,1 42.265352541879196,-11.944610805530505" fill="none" id="id12" stroke="none" /><text fill="#e1ed5e" style="font-size:6.75px; font-family:Arial;" text-anchor="middle"><textPath startOffset="22.20632615414155" xlink:href="#id12">December</textPath></text><path d="M 89.63071344664047 81.73862282372117 l -21.831851741783588 -38.44813016418593 a65.21412063580371,65.21412063580371 0 0,0 0.9809318933904801,-0.5458875366393771 l 21.16679575932106 38.8182330983855" fill="#a2ff22" stroke="none" /><path d="M 90.58718382345135 81.22770947309562 l -14.111111370206931 -28.142255976378518 a52.48190012598344,52.48190012598344 0 0,0 0.8110421215605128,-0.39797484673248656 l 13.624597981635992 28.380985983245832" fill="#ff3004" stroke="none" /><path d="M 91.23893434514133 80.91482961587045 l -18.455191776508176 -40.202926607576806 a65.23651671777404,65.23651671777404 0 0,0 1.0245795115458614,-0.45969896105472086 l 17.76043014649554 40.51464589914806" fill="#a2ff22" stroke="none" /><path d="M 92.91201910852362 80.23233633223022 l -10.96461711654327 -30.579211022753267 a53.48555025371232,53.48555025371232 0 0,0 0.8693133725795015,-0.30328636627746836 l 10.436621739900483 30.763418242202945" fill="#ff4b06" stroke="none" /><path d="M 93.59665428221793 80.00007090966166 l -10.871523820938174 -33.95564055192051 a56.653548988571316,56.653548988571316 0 0,0 0.9313158951763866,-0.2893643820447813 l 10.285422553051058 34.13774506884781" fill="#ff9b0e" stroke="none" /><path d="M 95.33964822691252 79.52364482259891 l -7.60395337375545 -33.40976338579304 a55.26415614610878,55.26415614610878 0 0,0 0.9293780398340109,-0.2031260425524696 l 7.027732609767918 33.53570292644138" fill="#ff780b" stroke="none" /><path d="M 96.04723909329186 79.375362276772 l -6.683902568732687 -34.87513469977844 a56.50985178617339,56.50985178617339 0 0,0 0.9569132857578876,-0.17486978653646276 l 6.082594161871906 34.98501996766564" fill="#ff970d" stroke="none" /></svg>